<svg width="24" height="24" viewBox="0 0 24 24" fill="none" xmlns="http://www.w3.org/2000/svg">
<path d="M12.0025 0C9.07472 0 6.6727 2.27805 6.6727 5.05471C6.6727 7.83142 9.07476 10.1094 12.0025 10.1094C14.9303 10.1094 17.3324 7.83142 17.3324 5.05471C17.3324 2.27805 14.9304 0 12.0025 0V0ZM12.0131 11.3632C5.40584 11.3632 0.00012207 16.4899 0.00012207 22.7561C0.00563426 23.0886 0.149172 23.4057 0.399599 23.6386C0.650026 23.8715 0.987155 24.0013 1.33787 24H22.6623C23.013 24.0013 23.3501 23.8714 23.6005 23.6386C23.8509 23.4057 23.9944 23.0886 24 22.7561C24 16.4899 18.6203 11.3632 12.013 11.3632H12.0131Z" fill="#82BBFB"/>
<path d="M22.5842 17.4027C15.0023 19.9316 7.20946 21.3179 0.0936687 21.4035C0.0374386 21.8483 0 22.2976 0 22.7561C0.00551207 23.0886 0.14903 23.4057 0.399439 23.6386C0.649848 23.8714 0.986948 24.0013 1.33765 24H22.6623C23.013 24.0013 23.3501 23.8714 23.6005 23.6386C23.851 23.4057 23.9945 23.0886 24 22.7561C24 20.8241 23.4853 19.0012 22.5842 17.4027V17.4027Z" fill="#65A3FC"/>
<path d="M11.9636 13.9004C11.6225 13.9101 11.2984 14.0435 11.0579 14.2731L8.393 16.8005C8.14479 17.0373 8.00549 17.3576 8.00549 17.6915C8.00549 18.0253 8.14479 18.3457 8.393 18.5824L11.0579 21.1123C11.1818 21.2303 11.329 21.324 11.4911 21.3879C11.6532 21.4519 11.8271 21.4848 12.0026 21.4848C12.1782 21.4848 12.3521 21.4519 12.5142 21.3879C12.6763 21.324 12.8235 21.2303 12.9473 21.1123C13.1956 20.8755 13.3349 20.5552 13.3349 20.2213C13.3349 19.8874 13.1956 19.5671 12.9473 19.3303L12.557 18.9576H15.9948C16.1709 18.9583 16.3454 18.9258 16.5081 18.8621C16.6709 18.7985 16.8188 18.7048 16.9432 18.5866C17.0675 18.4684 17.166 18.328 17.2328 18.1735C17.2997 18.019 17.3335 17.8535 17.3325 17.6865C17.3318 17.5206 17.2967 17.3564 17.2291 17.2033C17.1615 17.0502 17.0628 16.9113 16.9385 16.7944C16.8143 16.6775 16.6671 16.585 16.5051 16.5221C16.3432 16.4592 16.1698 16.4271 15.9948 16.4278H12.5544L12.9473 16.0551C13.1956 15.8183 13.3349 15.498 13.3349 15.1641C13.3349 14.8302 13.1956 14.5099 12.9473 14.2731C12.8189 14.1505 12.6654 14.0542 12.4962 13.9901C12.327 13.926 12.1457 13.8955 11.9636 13.9004Z" fill="#007FF9"/>
<path d="M13.2935 19.9103C12.3154 20.1121 11.3397 20.2941 10.3683 20.4557L11.0579 21.1123C11.1818 21.2303 11.329 21.324 11.4911 21.3879C11.6532 21.4518 11.8271 21.4847 12.0026 21.4847C12.1782 21.4847 12.3521 21.4518 12.5142 21.3879C12.6763 21.324 12.8235 21.2303 12.9473 21.1123C13.1096 20.9573 13.2268 20.7652 13.2875 20.5545C13.3481 20.3439 13.3502 20.1219 13.2935 19.9103Z" fill="#006EF9"/>
</svg>
