<svg width="63" height="46" viewBox="0 0 63 46" fill="none" xmlns="http://www.w3.org/2000/svg">
<g clip-path="url(#clip0_4960_147991)">
<path fill-rule="evenodd" clip-rule="evenodd" d="M54.8937 13.5213L59.779 6.41497L60.5334 6.99351L53.0297 17.6839C52.7367 18.0878 52.8576 18.5499 53.2055 18.7828C53.4399 18.8956 53.7292 19.012 53.905 18.8956C54.0807 18.8956 54.2529 18.7828 54.3701 18.6045L62.3352 7.28097C62.6282 6.87708 62.511 6.35675 62.1045 6.12387L59.8962 4.56289L53.6157 0.174656C53.4399 0 53.1506 0 52.9748 0C52.7404 0.116437 52.5683 0.174656 52.3925 0.403892L47.0421 8.08875L54.8937 13.5213Z" fill="#01458C"/>
<path fill-rule="evenodd" clip-rule="evenodd" d="M44.8888 11.1527L30.5808 31.2636L38.3152 36.8708L52.7404 16.5852L53.7292 15.2535L45.7604 9.88281L44.8888 11.1527Z" fill="#01458C"/>
<path fill-rule="evenodd" clip-rule="evenodd" d="M28.1382 43.1108H27.7317C26.8015 43.1108 25.8127 43.2819 21.8576 43.2819C21.3925 43.2819 20.986 43.1108 20.6381 42.6451C19.9972 42.2412 19.5907 41.8919 18.8363 41.8919C18.1954 41.8919 17.6132 42.2412 16.2179 42.9325C15.6942 43.2782 14.6468 43.6275 14.2403 43.8568C14.2403 43.6275 14.2403 43.1072 14.4747 42.9325C14.6505 42.0665 14.6505 41.2551 14.4747 40.9677C14.2403 40.6766 14.0682 40.6766 13.8924 40.6766C12.6693 40.6766 11.567 42.0629 10.168 43.2782C9.29645 44.0278 8.36627 45.0684 7.90118 45.0684C7.55328 44.3735 8.94855 41.7172 9.29646 40.5019C10.168 38.537 10.5196 38.1331 9.93733 37.671C9.76155 37.4964 9.47224 37.4964 8.94855 37.671C8.19415 38.3624 7.14678 39.1119 6.38872 40.0944C4.64188 41.7136 2.84011 43.4456 1.44483 42.9253C1.26905 42.6378 0.803956 42.9253 0.573241 43.0999C0.397459 43.2709 0.573241 43.6202 0.807618 43.8495C2.84377 44.8319 4.82132 42.9253 6.971 40.9604C7.55328 40.4983 7.90118 39.9197 8.54205 39.5741C8.36627 39.7451 8.36627 39.9197 8.19415 40.0944C6.971 42.6378 6.2166 44.6609 6.79888 45.5851C6.97466 45.7598 7.14678 45.989 7.55694 45.989C8.36993 45.989 9.30012 45.0648 10.5233 43.8495C11.5706 42.9253 12.5008 41.8846 13.3138 41.7136C13.3138 41.8846 13.3138 42.2339 13.1417 42.6378C12.8524 43.4456 12.8524 44.3116 13.1417 44.6573C13.3138 44.8319 13.5482 45.0648 13.724 45.0648C14.2477 45.0648 15.1193 44.6573 16.2252 43.8495C16.921 43.442 18.027 42.9253 18.2028 42.9253C18.6679 42.9253 19.0744 43.0999 19.4223 43.442C19.8874 43.8495 20.4696 44.308 21.224 44.308C23.4323 44.308 25.7028 44.0205 27.739 44.0205C28.032 44.0205 28.497 43.0963 28.1455 43.0963L28.1382 43.1108Z" fill="#454545"/>
<path fill-rule="evenodd" clip-rule="evenodd" d="M54.1979 14.6202L54.3701 14.1581L46.577 8.72559L46.2841 9.12948L54.1979 14.6202Z" fill="#454545"/>
<path fill-rule="evenodd" clip-rule="evenodd" d="M28.4311 42.7038C28.4311 42.7038 32.562 39.9311 35.8177 37.5042L30.7566 34.0947C29.5371 37.908 28.4311 42.7074 28.4311 42.7074V42.7038Z" fill="#454545"/>
</g>
<defs>
<clipPath id="clip0_4960_147991">
<rect width="62" height="46" fill="white" transform="translate(0.5)"/>
</clipPath>
</defs>
</svg>
