<svg width="23" height="23" viewBox="0 0 23 23" fill="none" xmlns="http://www.w3.org/2000/svg">
<path d="M3.45001 22.0413V20.6038H19.55V22.0413H3.45001ZM3.45001 2.39551V0.958008H19.55V2.39551H3.45001ZM11.5 12.3622C12.2986 12.3622 12.9694 12.0906 13.5125 11.5476C14.0556 11.0045 14.3271 10.3337 14.3271 9.53509C14.3271 8.73648 14.0556 8.06565 13.5125 7.52259C12.9694 6.97954 12.2986 6.70801 11.5 6.70801C10.7014 6.70801 10.0306 6.97954 9.48751 7.52259C8.94445 8.06565 8.67292 8.73648 8.67292 9.53509C8.67292 10.3337 8.94445 11.0045 9.48751 11.5476C10.0306 12.0906 10.7014 12.3622 11.5 12.3622ZM3.16251 19.1663C2.77917 19.1663 2.44376 19.0226 2.15626 18.7351C1.86876 18.4476 1.72501 18.1122 1.72501 17.7288V5.27051C1.72501 4.85523 1.86876 4.51183 2.15626 4.2403C2.44376 3.96877 2.77917 3.83301 3.16251 3.83301H19.8375C20.2208 3.83301 20.5563 3.97676 20.8438 4.26426C21.1313 4.55176 21.275 4.88717 21.275 5.27051V17.7288C21.275 18.1122 21.1313 18.4476 20.8438 18.7351C20.5563 19.0226 20.2208 19.1663 19.8375 19.1663H3.16251ZM5.27084 17.7288C6.08542 16.7226 7.05174 15.9679 8.1698 15.4648C9.28785 14.9617 10.3939 14.7101 11.488 14.7101C12.5821 14.7101 13.7002 14.9617 14.8422 15.4648C15.9842 15.9679 16.9465 16.7226 17.7292 17.7288H19.8375V5.27051H3.16251V17.7288H5.27084ZM7.52292 17.7288H15.525C15.0299 17.2497 14.4509 16.8663 13.788 16.5788C13.1252 16.2913 12.3625 16.1476 11.5 16.1476C10.6375 16.1476 9.88282 16.2913 9.23594 16.5788C8.58907 16.8663 8.01806 17.2497 7.52292 17.7288ZM11.5038 10.9247C11.1179 10.9247 10.7932 10.7889 10.5297 10.5174C10.2662 10.2459 10.1344 9.91842 10.1344 9.53509C10.1344 9.15176 10.2649 8.82433 10.5259 8.5528C10.7869 8.28127 11.1104 8.14551 11.4962 8.14551C11.8821 8.14551 12.2068 8.28127 12.4703 8.5528C12.7339 8.82433 12.8656 9.15176 12.8656 9.53509C12.8656 9.91842 12.7351 10.2459 12.4741 10.5174C12.2131 10.7889 11.8896 10.9247 11.5038 10.9247Z" fill="url(#paint0_linear_4649_156236)"/>
<defs>
<linearGradient id="paint0_linear_4649_156236" x1="11.5" y1="0.958008" x2="11.5" y2="22.0413" gradientUnits="userSpaceOnUse">
<stop stop-color="#0D66C4"/>
<stop offset="0.572917" stop-color="#01458C"/>
<stop offset="1" stop-color="#0E4580"/>
</linearGradient>
</defs>
</svg>
