<svg width="20" height="20" viewBox="0 0 20 20" fill="none" xmlns="http://www.w3.org/2000/svg">
<path d="M0.5 4.60875V0.5H4.60875V1.925H1.925V4.60875H0.5ZM0.5 19.5V15.3912H1.925V18.075H4.60875V19.5H0.5ZM15.3912 19.5V18.075H18.075V15.3912H19.5V19.5H15.3912ZM18.075 4.60875V1.925H15.3912V0.5H19.5V4.60875H18.075ZM15.415 15.4388H16.9112V16.935H15.415V15.4388ZM15.415 12.4462H16.9112V13.9425H15.415V12.4462ZM13.9187 13.9425H15.415V15.4388H13.9187V13.9425ZM12.4225 15.4388H13.9187V16.935H12.4225V15.4388ZM10.9262 13.9425H12.4225V15.4388H10.9262V13.9425ZM13.9187 10.95H15.415V12.4462H13.9187V10.95ZM12.4225 12.4462H13.9187V13.9425H12.4225V12.4462ZM10.9262 10.95H12.4225V12.4462H10.9262V10.95ZM16.9112 3.065V9.05H10.9262V3.065H16.9112ZM9.05 10.95V16.935H3.065V10.95H9.05ZM9.05 3.065V9.05H3.065V3.065H9.05ZM7.8625 15.7475V12.1375H4.2525V15.7475H7.8625ZM7.8625 7.8625V4.2525H4.2525V7.8625H7.8625ZM15.7238 7.8625V4.2525H12.1137V7.8625H15.7238Z" fill="url(#paint0_linear_3487_142894)"/>
<defs>
<linearGradient id="paint0_linear_3487_142894" x1="10" y1="0.5" x2="10" y2="19.5" gradientUnits="userSpaceOnUse">
<stop stop-color="#5691CF"/>
<stop offset="0.46875" stop-color="#2469B1"/>
<stop offset="1" stop-color="#02458B"/>
</linearGradient>
</defs>
</svg>
