<svg width="26" height="25" viewBox="0 0 26 25" fill="none" xmlns="http://www.w3.org/2000/svg">
<path d="M3.5625 23.8333C3.11111 23.8333 2.73785 23.6858 2.44271 23.3906C2.14757 23.0955 2 22.7222 2 22.2708V4.5625C2 4.16319 2.14757 3.80295 2.44271 3.48177C2.73785 3.16059 3.11111 3 3.5625 3H21.2708C21.6701 3 22.0304 3.16059 22.3516 3.48177C22.6727 3.80295 22.8333 4.16319 22.8333 4.5625V22.2708C22.8333 22.7222 22.6727 23.0955 22.3516 23.3906C22.0304 23.6858 21.6701 23.8333 21.2708 23.8333H3.5625ZM3.5625 22.2708H21.2708V4.5625H3.5625V22.2708ZM8.37565 15.6823C8.153 15.6823 7.96788 15.607 7.82031 15.4564C7.67274 15.3058 7.59896 15.1191 7.59896 14.8965C7.59896 14.6738 7.67426 14.4887 7.82487 14.3411C7.97549 14.1936 8.16213 14.1198 8.38477 14.1198C8.60742 14.1198 8.79253 14.1951 8.9401 14.3457C9.08767 14.4963 9.16146 14.683 9.16146 14.9056C9.16146 15.1283 9.08615 15.3134 8.93555 15.4609C8.78492 15.6085 8.59829 15.6823 8.37565 15.6823ZM16.4486 15.6823C16.2259 15.6823 16.0408 15.607 15.8932 15.4564C15.7457 15.3058 15.6719 15.1191 15.6719 14.8965C15.6719 14.6738 15.7472 14.4887 15.8978 14.3411C16.0484 14.1936 16.235 14.1198 16.4577 14.1198C16.6803 14.1198 16.8655 14.1951 17.013 14.3457C17.1606 14.4963 17.2344 14.683 17.2344 14.9056C17.2344 15.1283 17.1591 15.3134 17.0085 15.4609C16.8578 15.6085 16.6712 15.6823 16.4486 15.6823ZM5.125 12.7396V19.8229C5.125 20.0052 5.18359 20.1549 5.30078 20.2721C5.41797 20.3893 5.56771 20.4479 5.75 20.4479H6.0625C6.24479 20.4479 6.39453 20.3893 6.51172 20.2721C6.62891 20.1549 6.6875 20.0052 6.6875 19.8229V18.1563H18.1458V19.8229C18.1458 20.0052 18.2044 20.1549 18.3216 20.2721C18.4388 20.3893 18.5885 20.4479 18.7708 20.4479H19.0833C19.2656 20.4479 19.4154 20.3893 19.5326 20.2721C19.6497 20.1549 19.7083 20.0052 19.7083 19.8229V12.7396L17.9896 7.73958C17.9028 7.49653 17.7595 7.29688 17.5599 7.14062C17.3602 6.98438 17.1389 6.90625 16.8958 6.90625H7.9375C7.69444 6.90625 7.47309 6.98438 7.27344 7.14062C7.07378 7.29688 6.93056 7.49653 6.84375 7.73958L5.125 12.7396ZM7.13021 11.6458L8.17188 8.46875H16.6615L17.7292 11.6458H7.13021ZM6.6875 16.5938V13.2083H18.1458V16.5938H6.6875Z" fill="url(#paint0_linear_5194_7742)"/>
<defs>
<linearGradient id="paint0_linear_5194_7742" x1="12.4167" y1="3" x2="12.4167" y2="42.7135" gradientUnits="userSpaceOnUse">
<stop stop-color="#3390EC"/>
<stop offset="1" stop-color="#0E559C"/>
</linearGradient>
</defs>
</svg>
