<svg width="26" height="25" viewBox="0 0 26 25" fill="none" xmlns="http://www.w3.org/2000/svg">
<path d="M4.5625 22.8333C4.14583 22.8333 3.78125 22.6771 3.46875 22.3646C3.15625 22.0521 3 21.6875 3 21.2708V5.125C3 4.70833 3.15625 4.34375 3.46875 4.03125C3.78125 3.71875 4.14583 3.5625 4.5625 3.5625H6.25521V2H7.94792V3.5625H16.8021V2H18.4948V3.5625H20.1875C20.6042 3.5625 20.9688 3.71875 21.2812 4.03125C21.5938 4.34375 21.75 4.70833 21.75 5.125V21.2708C21.75 21.6875 21.5938 22.0521 21.2812 22.3646C20.9688 22.6771 20.6042 22.8333 20.1875 22.8333H4.5625ZM4.5625 21.2708H20.1875V10.0729H4.5625V21.2708ZM4.5625 8.51042H20.1875V5.125H4.5625V8.51042ZM12.375 14.5C12.0799 14.5 11.8325 14.4002 11.6328 14.2005C11.4332 14.0009 11.3333 13.7535 11.3333 13.4583C11.3333 13.1632 11.4332 12.9158 11.6328 12.7161C11.8325 12.5165 12.0799 12.4167 12.375 12.4167C12.6701 12.4167 12.9175 12.5165 13.1172 12.7161C13.3168 12.9158 13.4167 13.1632 13.4167 13.4583C13.4167 13.7535 13.3168 14.0009 13.1172 14.2005C12.9175 14.4002 12.6701 14.5 12.375 14.5ZM8.20833 14.5C7.91319 14.5 7.6658 14.4002 7.46615 14.2005C7.26649 14.0009 7.16667 13.7535 7.16667 13.4583C7.16667 13.1632 7.26649 12.9158 7.46615 12.7161C7.6658 12.5165 7.91319 12.4167 8.20833 12.4167C8.50347 12.4167 8.75087 12.5165 8.95052 12.7161C9.15017 12.9158 9.25 13.1632 9.25 13.4583C9.25 13.7535 9.15017 14.0009 8.95052 14.2005C8.75087 14.4002 8.50347 14.5 8.20833 14.5ZM16.5417 14.5C16.2465 14.5 15.9991 14.4002 15.7995 14.2005C15.5998 14.0009 15.5 13.7535 15.5 13.4583C15.5 13.1632 15.5998 12.9158 15.7995 12.7161C15.9991 12.5165 16.2465 12.4167 16.5417 12.4167C16.8368 12.4167 17.0842 12.5165 17.2839 12.7161C17.4835 12.9158 17.5833 13.1632 17.5833 13.4583C17.5833 13.7535 17.4835 14.0009 17.2839 14.2005C17.0842 14.4002 16.8368 14.5 16.5417 14.5ZM12.375 18.6667C12.0799 18.6667 11.8325 18.5668 11.6328 18.3672C11.4332 18.1675 11.3333 17.9201 11.3333 17.625C11.3333 17.3299 11.4332 17.0825 11.6328 16.8828C11.8325 16.6832 12.0799 16.5833 12.375 16.5833C12.6701 16.5833 12.9175 16.6832 13.1172 16.8828C13.3168 17.0825 13.4167 17.3299 13.4167 17.625C13.4167 17.9201 13.3168 18.1675 13.1172 18.3672C12.9175 18.5668 12.6701 18.6667 12.375 18.6667ZM8.20833 18.6667C7.91319 18.6667 7.6658 18.5668 7.46615 18.3672C7.26649 18.1675 7.16667 17.9201 7.16667 17.625C7.16667 17.3299 7.26649 17.0825 7.46615 16.8828C7.6658 16.6832 7.91319 16.5833 8.20833 16.5833C8.50347 16.5833 8.75087 16.6832 8.95052 16.8828C9.15017 17.0825 9.25 17.3299 9.25 17.625C9.25 17.9201 9.15017 18.1675 8.95052 18.3672C8.75087 18.5668 8.50347 18.6667 8.20833 18.6667ZM16.5417 18.6667C16.2465 18.6667 15.9991 18.5668 15.7995 18.3672C15.5998 18.1675 15.5 17.9201 15.5 17.625C15.5 17.3299 15.5998 17.0825 15.7995 16.8828C15.9991 16.6832 16.2465 16.5833 16.5417 16.5833C16.8368 16.5833 17.0842 16.6832 17.2839 16.8828C17.4835 17.0825 17.5833 17.3299 17.5833 17.625C17.5833 17.9201 17.4835 18.1675 17.2839 18.3672C17.0842 18.5668 16.8368 18.6667 16.5417 18.6667Z" fill="url(#paint0_linear_3604_143726)"/>
<defs>
<linearGradient id="paint0_linear_3604_143726" x1="12.375" y1="2" x2="12.375" y2="41.7135" gradientUnits="userSpaceOnUse">
<stop stop-color="#3390EC"/>
<stop offset="1" stop-color="#0E559C"/>
</linearGradient>
</defs>
</svg>
