<svg width="17" height="17" viewBox="0 0 17 17" fill="none" xmlns="http://www.w3.org/2000/svg">
<path d="M15.5 10H15.6209L15.291 9.28944C14.884 8.41289 14.0165 7.83333 12.9688 7.83333H12.1808L10.9084 6.3717L10.9013 6.36354L10.8938 6.35569C10.4026 5.83847 9.70649 5.5 8.94688 5.5H5.85938C4.89852 5.5 4.04391 6.03287 3.59371 6.84691L3.59358 6.84684L3.58806 6.8574L3.07546 7.8388C2.19598 7.9063 1.5 8.59123 1.5 9.5V11.0556C1.5 11.7798 2.11029 12.3333 2.8125 12.3333H2.91196C3.253 13.0313 4.00562 13.5 4.84375 13.5C5.70472 13.5 6.41188 13.0138 6.76219 12.3333H9.45259C9.79363 13.0313 10.5462 13.5 11.3844 13.5C12.2453 13.5 12.9525 13.0138 13.3028 12.3333H14.1875C14.8897 12.3333 15.5 11.7798 15.5 11.0556V10.2778V10ZM5.20569 7.67037C5.31902 7.45339 5.53695 7.29823 5.80501 7.27965L5.51581 7.83333H5.11696L5.20153 7.67817L5.20159 7.67821L5.20569 7.67037ZM9.50614 7.53619L9.76303 7.83333H7.53776L7.82794 7.27778H8.94688C9.15941 7.27778 9.35102 7.36436 9.50614 7.53619ZM4.84375 11.7222C4.65221 11.7222 4.53125 11.5757 4.53125 11.4444C4.53125 11.3132 4.65221 11.1667 4.84375 11.1667C5.03529 11.1667 5.15625 11.3132 5.15625 11.4444C5.15625 11.5757 5.03529 11.7222 4.84375 11.7222ZM11.3438 11.7222C11.1522 11.7222 11.0312 11.5757 11.0312 11.4444C11.0312 11.3132 11.1522 11.1667 11.3438 11.1667C11.5353 11.1667 11.6562 11.3132 11.6562 11.4444C11.6562 11.5757 11.5353 11.7222 11.3438 11.7222Z" stroke="black"/>
</svg>
