<svg width="204" height="189" viewBox="0 0 204 189" fill="none" xmlns="http://www.w3.org/2000/svg">
<path d="M202.941 101.961C208.516 150.454 171.444 189 132.59 189C93.7365 189 57.9194 162.52 57.9194 123.72C55.4419 82.0658 -18.2703 5.59539 57.9194 0C96.7733 0 195.866 40.4112 202.941 101.961Z" fill="#E0F0FA"/>
<g clip-path="url(#clip0_3833_149571)">
<path d="M156.957 140.031H156.458C156.458 140.031 156.458 139.985 156.44 139.958L146.929 105.583C146.237 103.075 143.956 101.341 141.352 101.341H128.452V75.966C128.452 66.6163 120.834 59 111.462 59H40.4453C31.0822 59 23.4552 66.6071 23.4552 75.966V101.351H10.5279C7.33299 101.351 4.7383 103.942 4.7383 107.132V140.059C2.38369 140.216 0.5 142.17 0.5 144.559C0.5 146.947 2.54066 149.095 5.04302 149.095H25.9021C27.9335 157.071 35.1636 163 43.7787 163C52.3938 163 59.6238 157.071 61.6553 149.095H99.7538C101.785 157.071 109.015 163 117.63 163C126.245 163 133.476 157.071 135.507 149.095H156.975C159.469 149.095 161.518 147.057 161.518 144.559C161.518 142.06 159.478 140.022 156.975 140.022L156.957 140.031ZM127.843 149.095C126.098 153.005 122.173 155.743 117.612 155.743C113.05 155.743 109.135 153.005 107.381 149.095C106.762 147.712 106.411 146.172 106.411 144.559C106.411 138.39 111.435 133.374 117.612 133.374C123.789 133.374 128.812 138.39 128.812 144.559C128.812 146.172 128.462 147.703 127.843 149.095ZM54.0005 149.095C52.2553 153.005 48.3309 155.743 43.7694 155.743C39.208 155.743 35.2928 153.005 33.5384 149.095C32.9198 147.712 32.5689 146.172 32.5689 144.559C32.5689 138.39 37.5921 133.374 43.7694 133.374C49.9468 133.374 54.97 138.39 54.97 144.559C54.97 146.172 54.6191 147.703 54.0005 149.095ZM28.386 101.351V75.966C28.386 69.3272 33.797 63.9146 40.4545 63.9146H111.462C118.111 63.9146 123.531 69.3179 123.531 75.966V101.959C123.531 108.598 118.12 114.011 111.462 114.011H107.113L93.1424 122.558V114.011H40.4453C33.797 114.011 28.3768 108.607 28.3768 101.959V101.351H28.386Z" fill="url(#paint0_linear_3833_149571)"/>
<path d="M47.7584 94.1953C50.1776 94.1953 52.1444 92.2313 52.1444 89.8155C52.1444 87.3997 50.1776 85.4357 47.7584 85.4357C45.3391 85.4357 43.3723 87.3997 43.3723 89.8155C43.3723 92.2313 45.3391 94.1953 47.7584 94.1953Z" fill="url(#paint1_linear_3833_149571)"/>
<path d="M75.9583 94.1953C78.3776 94.1953 80.3443 92.2313 80.3443 89.8155C80.3443 87.3997 78.3776 85.4357 75.9583 85.4357C73.5391 85.4357 71.5723 87.3997 71.5723 89.8155C71.5723 92.2313 73.5391 94.1953 75.9583 94.1953Z" fill="url(#paint2_linear_3833_149571)"/>
<path d="M104.149 94.1953C106.568 94.1953 108.535 92.2313 108.535 89.8155C108.535 87.3997 106.568 85.4357 104.149 85.4357C101.73 85.4357 99.7629 87.3997 99.7629 89.8155C99.7629 92.2313 101.73 94.1953 104.149 94.1953Z" fill="url(#paint3_linear_3833_149571)"/>
</g>
<defs>
<linearGradient id="paint0_linear_3833_149571" x1="81.0092" y1="59" x2="81.0092" y2="163" gradientUnits="userSpaceOnUse">
<stop stop-color="#5691CF"/>
<stop offset="0.46875" stop-color="#2469B1"/>
<stop offset="1" stop-color="#02458B"/>
</linearGradient>
<linearGradient id="paint1_linear_3833_149571" x1="47.7584" y1="85.4357" x2="47.7584" y2="94.1953" gradientUnits="userSpaceOnUse">
<stop stop-color="#5691CF"/>
<stop offset="0.46875" stop-color="#2469B1"/>
<stop offset="1" stop-color="#02458B"/>
</linearGradient>
<linearGradient id="paint2_linear_3833_149571" x1="75.9583" y1="85.4357" x2="75.9583" y2="94.1953" gradientUnits="userSpaceOnUse">
<stop stop-color="#5691CF"/>
<stop offset="0.46875" stop-color="#2469B1"/>
<stop offset="1" stop-color="#02458B"/>
</linearGradient>
<linearGradient id="paint3_linear_3833_149571" x1="104.149" y1="85.4357" x2="104.149" y2="94.1953" gradientUnits="userSpaceOnUse">
<stop stop-color="#5691CF"/>
<stop offset="0.46875" stop-color="#2469B1"/>
<stop offset="1" stop-color="#02458B"/>
</linearGradient>
<clipPath id="clip0_3833_149571">
<rect width="161" height="104" fill="white" transform="translate(0.5 59)"/>
</clipPath>
</defs>
</svg>
