<svg width="19" height="19" viewBox="0 0 19 19" fill="none" xmlns="http://www.w3.org/2000/svg">
<path d="M2.11111 16.5063V18.1094C2.11111 18.3617 2.03524 18.5732 1.88351 18.7439C1.73177 18.9146 1.54375 19 1.31944 19H0.791667C0.567361 19 0.37934 18.9146 0.227604 18.7439C0.0758681 18.5732 0 18.3617 0 18.1094V8.49062L2.24306 0.890625C2.33102 0.613542 2.47616 0.395833 2.67847 0.2375C2.88079 0.0791667 3.11389 0 3.37778 0H15.6222C15.8861 0 16.1192 0.0791667 16.3215 0.2375C16.5238 0.395833 16.669 0.613542 16.7569 0.890625L19 8.49062V18.1094C19 18.3617 18.9241 18.5732 18.7724 18.7439C18.6207 18.9146 18.4326 19 18.2083 19H17.6542C17.4255 19 17.2407 18.9146 17.1 18.7439C16.9593 18.5732 16.8889 18.3617 16.8889 18.1094V16.5063H2.11111ZM2.19028 6.70937H16.8097L15.3583 1.78125H3.64167L2.19028 6.70937ZM4.37435 13.2406C4.78312 13.2406 5.12384 13.0848 5.39653 12.773C5.66921 12.4613 5.80556 12.0828 5.80556 11.6375C5.80556 11.1757 5.66701 10.7832 5.38993 10.4599C5.11285 10.1366 4.77639 9.975 4.38056 9.975C3.97007 9.975 3.62114 10.136 3.33379 10.4579C3.04645 10.7798 2.90278 11.1706 2.90278 11.6305C2.90278 12.0904 3.04585 12.4737 3.33199 12.7805C3.61812 13.0872 3.96557 13.2406 4.37435 13.2406ZM14.6458 13.2406C15.0563 13.2406 15.4052 13.0848 15.6926 12.773C15.9799 12.4613 16.1236 12.0828 16.1236 11.6375C16.1236 11.1757 15.9805 10.7832 15.6944 10.4599C15.4083 10.1366 15.0608 9.975 14.652 9.975C14.2433 9.975 13.9025 10.136 13.6299 10.4579C13.3572 10.7798 13.2208 11.1706 13.2208 11.6305C13.2208 12.0904 13.3594 12.4737 13.6365 12.7805C13.9135 13.0872 14.25 13.2406 14.6458 13.2406ZM1.58333 14.725H17.4167V8.49062H1.58333V14.725Z" fill="url(#paint0_linear_3604_143807)"/>
<defs>
<linearGradient id="paint0_linear_3604_143807" x1="9.5" y1="0" x2="9.5" y2="36.2188" gradientUnits="userSpaceOnUse">
<stop stop-color="#3390EC"/>
<stop offset="1" stop-color="#0E559C"/>
</linearGradient>
</defs>
</svg>
