<svg width="22" height="20" viewBox="0 0 22 20" fill="none" xmlns="http://www.w3.org/2000/svg">
<path d="M12.0001 19.1004C10.8501 19.1004 9.73343 18.8837 8.6501 18.4504C7.56676 18.0171 6.6251 17.4254 5.8251 16.6754L6.9001 15.6004C7.56676 16.2171 8.34593 16.7046 9.2376 17.0629C10.1293 17.4212 11.0501 17.6004 12.0001 17.6004C14.0834 17.6004 15.8709 16.8546 17.3626 15.3629C18.8543 13.8712 19.6001 12.0837 19.6001 10.0004C19.6001 7.91706 18.8543 6.12956 17.3626 4.63789C15.8709 3.14622 14.0834 2.40039 12.0001 2.40039C9.91676 2.40039 8.12926 3.14622 6.6376 4.63789C5.14593 6.12956 4.4001 7.91706 4.4001 10.0004V10.4504L6.1501 8.70039L7.2001 9.75039L3.6501 13.3004L0.100098 9.75039L1.1501 8.70039L2.9001 10.4504V10.0004C2.9001 8.73372 3.1376 7.55039 3.6126 6.45039C4.0876 5.35039 4.7376 4.38789 5.5626 3.56289C6.3876 2.73789 7.3501 2.08789 8.4501 1.61289C9.5501 1.13789 10.7334 0.900391 12.0001 0.900391C13.2668 0.900391 14.4501 1.13789 15.5501 1.61289C16.6501 2.08789 17.6126 2.73789 18.4376 3.56289C19.2626 4.38789 19.9126 5.35039 20.3876 6.45039C20.8626 7.55039 21.1001 8.73372 21.1001 10.0004C21.1001 12.5337 20.2168 14.6837 18.4501 16.4504C16.6834 18.2171 14.5334 19.1004 12.0001 19.1004ZM10.0001 13.8754C9.76676 13.8754 9.5626 13.7879 9.3876 13.6129C9.2126 13.4379 9.1251 13.2337 9.1251 13.0004V10.0004C9.1251 9.76706 9.22093 9.56289 9.4126 9.38789C9.60426 9.21289 9.84176 9.12539 10.1251 9.12539V8.00039C10.1251 7.48372 10.3084 7.04206 10.6751 6.67539C11.0418 6.30872 11.4834 6.12539 12.0001 6.12539C12.5168 6.12539 12.9584 6.30872 13.3251 6.67539C13.6918 7.04206 13.8751 7.48372 13.8751 8.00039V9.12539C14.1584 9.12539 14.3959 9.21289 14.5876 9.38789C14.7793 9.56289 14.8751 9.76706 14.8751 10.0004V13.0004C14.8751 13.2337 14.7876 13.4379 14.6126 13.6129C14.4376 13.7879 14.2334 13.8754 14.0001 13.8754H10.0001ZM10.8751 9.12539H13.1251V8.00039C13.1251 7.68372 13.0168 7.41706 12.8001 7.20039C12.5834 6.98372 12.3168 6.87539 12.0001 6.87539C11.6834 6.87539 11.4168 6.98372 11.2001 7.20039C10.9834 7.41706 10.8751 7.68372 10.8751 8.00039V9.12539Z" fill="url(#paint0_linear_4681_145157)"/>
<defs>
<linearGradient id="paint0_linear_4681_145157" x1="10.6001" y1="0.900391" x2="10.6001" y2="19.1004" gradientUnits="userSpaceOnUse">
<stop stop-color="#0D66C4"/>
<stop offset="0.572917" stop-color="#01458C"/>
<stop offset="1" stop-color="#0E4580"/>
</linearGradient>
</defs>
</svg>
