<svg width="15" height="16" viewBox="0 0 15 16" fill="none" xmlns="http://www.w3.org/2000/svg">
<rect x="1.5" y="5.5" width="2" height="10" rx="0.5" stroke="black"/>
<rect x="5" y="8.5" width="2" height="7" rx="0.5" stroke="black"/>
<rect x="12" y="10.5" width="2" height="5" rx="0.5" stroke="black"/>
<rect x="8.5" y="6.5" width="2" height="9" rx="0.5" stroke="black"/>
<path d="M1.3 0.6C1.07909 0.434315 0.765685 0.479086 0.6 0.7C0.434315 0.920914 0.479086 1.23431 0.7 1.4L1.3 0.6ZM6.33333 5L6.03333 5.4C6.21111 5.53333 6.45556 5.53333 6.63333 5.4L6.33333 5ZM9.66667 2.5L9.98084 2.11103L9.67804 1.86647L9.36667 2.1L9.66667 2.5ZM13.6858 6.38897C13.9007 6.56248 14.2155 6.52899 14.389 6.31417C14.5625 6.09935 14.529 5.78454 14.3142 5.61103L13.6858 6.38897ZM0.7 1.4L6.03333 5.4L6.63333 4.6L1.3 0.6L0.7 1.4ZM6.63333 5.4L9.96667 2.9L9.36667 2.1L6.03333 4.6L6.63333 5.4ZM9.3525 2.88897L13.6858 6.38897L14.3142 5.61103L9.98084 2.11103L9.3525 2.88897Z" fill="black"/>
</svg>
