<svg width="11" height="12" viewBox="0 0 11 12" fill="none" xmlns="http://www.w3.org/2000/svg">
<path d="M2.40625 0.536941L2.9975 0L7.77818 4.34155C7.99189 4.53563 8.09875 4.77264 8.09875 5.05256C8.09875 5.3325 7.99333 5.56714 7.7825 5.7565L5.335 7.97919C5.12417 8.17066 4.87667 8.26639 4.5925 8.26639C4.30833 8.26639 4.06083 8.17066 3.85 7.97919L1.4025 5.7565C1.19167 5.56692 1.08625 5.332 1.08625 5.05175C1.08625 4.77149 1.19167 4.53657 1.4025 4.34698L4.00125 1.98543L2.40625 0.536941ZM4.5925 2.52237L1.85625 5.00728H7.32875L4.5925 2.52237ZM9.23709 8.47867C8.96403 8.47867 8.73125 8.39063 8.53875 8.21457C8.34625 8.0385 8.25 7.82685 8.25 7.5796C8.25 7.43519 8.28667 7.28046 8.36 7.11541C8.43333 6.95037 8.53417 6.78044 8.6625 6.60562C8.73583 6.4974 8.82521 6.38085 8.93062 6.25598C9.03604 6.13111 9.13917 6.01457 9.24 5.90635C9.34083 6.01457 9.44396 6.13111 9.54937 6.25598C9.65479 6.38085 9.74417 6.4974 9.8175 6.60562C9.94583 6.78044 10.0467 6.95037 10.12 7.11541C10.1933 7.28046 10.23 7.43519 10.23 7.5796C10.23 7.82685 10.1328 8.0385 9.93834 8.21457C9.74388 8.39063 9.51013 8.47867 9.23709 8.47867ZM0 12V10.4891H11V12H0Z" fill="url(#paint0_linear_3394_140340)"/>
<defs>
<linearGradient id="paint0_linear_3394_140340" x1="5.5" y1="0" x2="5.5" y2="12" gradientUnits="userSpaceOnUse">
<stop stop-color="#5691CF"/>
<stop offset="0.46875" stop-color="#2469B1"/>
<stop offset="1" stop-color="#02458B"/>
</linearGradient>
</defs>
</svg>
