<svg width="16" height="18" viewBox="0 0 16 18" fill="none" xmlns="http://www.w3.org/2000/svg">
<path d="M10.0925 7.99992H11.0079L6.94145 12.0664C6.82089 12.1869 6.65694 12.2499 6.5 12.2499C6.34306 12.2499 6.17911 12.1869 6.05855 12.0664L1.99211 7.99992H2.9075H10.0925ZM11.1462 7.84655L10.4461 7.14637L6.85355 3.55387L6.5 3.20032L6.14645 3.55387L2.55395 7.14637L1.8541 7.84622C1.83109 7.81226 1.81147 7.77601 1.79558 7.73797C1.76408 7.66256 1.74785 7.58165 1.74785 7.49992C1.74785 7.4182 1.76408 7.33729 1.79558 7.26188C1.82709 7.18647 1.87325 7.11806 1.93139 7.06063L1.9314 7.06064L1.93355 7.05848L5.79605 3.19598L6.14961 2.84242L5.79605 2.48887L4.53605 1.22887C4.48959 1.18241 4.46348 1.11939 4.46348 1.05367C4.46348 0.987962 4.48959 0.924942 4.53605 0.878477C4.58252 0.832012 4.64554 0.805908 4.71125 0.805908C4.74379 0.805908 4.77601 0.812317 4.80607 0.824768C4.83613 0.837219 4.86344 0.85547 4.88645 0.878477L11.0664 7.05848C11.2855 7.27749 11.3084 7.60847 11.1462 7.84655ZM13.25 9.3981C13.3555 9.53022 13.4737 9.68473 13.5914 9.85159C13.77 10.1047 13.9407 10.3767 14.0649 10.6354C14.1936 10.9035 14.25 11.1117 14.25 11.2499C14.25 11.7988 13.7989 12.2499 13.25 12.2499C12.7011 12.2499 12.25 11.7988 12.25 11.2499C12.25 11.1117 12.3064 10.9035 12.4351 10.6354C12.5593 10.3767 12.73 10.1047 12.9086 9.85159C13.0263 9.68473 13.1445 9.53022 13.25 9.3981ZM2 15.4999H14C14.5489 15.4999 15 15.9511 15 16.4999C15 17.0488 14.5489 17.4999 14 17.4999H2C1.45114 17.4999 1 17.0488 1 16.4999C1 15.9511 1.45114 15.4999 2 15.4999Z" stroke="black"/>
</svg>
