<svg width="19" height="19" viewBox="0 0 19 19" fill="none" xmlns="http://www.w3.org/2000/svg">
<path d="M3.8 11.4H15.2V9.975H3.8V11.4ZM3.8 8.3125H15.2V6.8875H3.8V8.3125ZM3.8 5.225H15.2V3.8H3.8V5.225ZM19 19L15.2 15.2H1.425C1.06083 15.2 0.732292 15.0535 0.439375 14.7606C0.146458 14.4677 0 14.1392 0 13.775V1.425C0 1.06083 0.146458 0.732292 0.439375 0.439375C0.732292 0.146458 1.06083 0 1.425 0H17.575C17.955 0 18.2875 0.146458 18.5725 0.439375C18.8575 0.732292 19 1.06083 19 1.425V19ZM1.425 1.425V13.775H15.7937L17.575 15.5562V1.425H1.425Z" fill="url(#paint0_linear_3604_143857)"/>
<defs>
<linearGradient id="paint0_linear_3604_143857" x1="9.5" y1="0" x2="9.5" y2="36.2188" gradientUnits="userSpaceOnUse">
<stop stop-color="#3390EC"/>
<stop offset="1" stop-color="#0E559C"/>
</linearGradient>
</defs>
</svg>
