<svg width="19" height="19" viewBox="0 0 19 19" fill="none" xmlns="http://www.w3.org/2000/svg">
<path d="M3.07353 12.6667V11.4792H0V9.89583H6.14706V7.125H0.866176C0.642647 7.125 0.442402 7.04583 0.265441 6.8875C0.0884804 6.72917 0 6.53565 0 6.30694V1.97917C0 1.75046 0.0838235 1.56134 0.251471 1.41181C0.419118 1.26227 0.614706 1.1875 0.838235 1.1875H3.07353V0H4.75V1.1875H7.82353V2.77083H1.67647V5.54167H6.95735C7.19951 5.54167 7.40441 5.61644 7.57206 5.76597C7.73971 5.91551 7.82353 6.11343 7.82353 6.35972V10.6875C7.82353 10.8986 7.74436 11.0833 7.58603 11.2417C7.4277 11.4 7.22745 11.4792 6.98529 11.4792H4.75V12.6667H3.07353ZM11.1206 19L6.37059 14.5139L7.54412 13.4056L11.1206 16.7833L17.8265 10.45L19 11.5583L11.1206 19Z" fill="url(#paint0_linear_3604_143827)"/>
<defs>
<linearGradient id="paint0_linear_3604_143827" x1="9.5" y1="0" x2="9.5" y2="36.2188" gradientUnits="userSpaceOnUse">
<stop stop-color="#3390EC"/>
<stop offset="1" stop-color="#0E559C"/>
</linearGradient>
</defs>
</svg>
