<svg width="35" height="36" viewBox="0 0 35 36" fill="none" xmlns="http://www.w3.org/2000/svg">
    <defs>
        <linearGradient id="paint0_linear_2353_85584" x1="17.5" y1="8.5" x2="17.5" y2="27.5" gradientUnits="userSpaceOnUse">
            <stop stop-color="#0088CC"/>
            <stop offset="1" stop-color="#006496"/>
        </linearGradient>
    </defs><rect y="0.5" width="35" height="35" rx="17.5" fill="#E6EEFF"/>
<path d="M16.8112 24.8162H18.1175V23.5813C19.0833 23.4704 19.8354 23.1735 20.3737 22.6906C20.9121 22.2077 21.1812 21.5625 21.1812 20.755C21.1812 19.9475 20.9517 19.2904 20.4925 18.7837C20.0333 18.2771 19.2575 17.7942 18.165 17.335C17.2467 16.955 16.5817 16.6146 16.17 16.3137C15.7583 16.0129 15.5525 15.6092 15.5525 15.1025C15.5525 14.6117 15.7306 14.2238 16.0869 13.9387C16.4431 13.6537 16.93 13.5113 17.5475 13.5113C18.0225 13.5113 18.4342 13.6221 18.7825 13.8438C19.1308 14.0654 19.4237 14.3979 19.6613 14.8412L20.8012 14.295C20.5321 13.7408 20.1758 13.3054 19.7325 12.9887C19.2892 12.6721 18.7667 12.4821 18.165 12.4188V11.2075H16.8588V12.4188C16.0512 12.5296 15.414 12.8265 14.9469 13.3094C14.4798 13.7923 14.2463 14.39 14.2463 15.1025C14.2463 15.8783 14.4837 16.4958 14.9587 16.955C15.4337 17.4142 16.1462 17.8417 17.0962 18.2375C18.1571 18.6808 18.8854 19.0806 19.2812 19.4369C19.6771 19.7931 19.875 20.2325 19.875 20.755C19.875 21.2617 19.6652 21.6694 19.2456 21.9781C18.826 22.2869 18.2996 22.4412 17.6663 22.4412C17.0487 22.4412 16.4985 22.2671 16.0156 21.9187C15.5327 21.5704 15.1962 21.0954 15.0062 20.4937L13.795 20.8975C14.1275 21.6258 14.5352 22.1998 15.0181 22.6194C15.501 23.039 16.0988 23.3438 16.8112 23.5337V24.8162ZM17.5 27.5C16.2017 27.5 14.9746 27.2506 13.8187 26.7519C12.6629 26.2531 11.6535 25.5723 10.7906 24.7094C9.92771 23.8465 9.24687 22.8371 8.74813 21.6812C8.24938 20.5254 8 19.2983 8 18C8 16.6858 8.24938 15.4508 8.74813 14.295C9.24687 13.1392 9.92771 12.1337 10.7906 11.2787C11.6535 10.4237 12.6629 9.74687 13.8187 9.24813C14.9746 8.74938 16.2017 8.5 17.5 8.5C18.8142 8.5 20.0492 8.74938 21.205 9.24813C22.3608 9.74687 23.3663 10.4237 24.2213 11.2787C25.0763 12.1337 25.7531 13.1392 26.2519 14.295C26.7506 15.4508 27 16.6858 27 18C27 19.2983 26.7506 20.5254 26.2519 21.6812C25.7531 22.8371 25.0763 23.8465 24.2213 24.7094C23.3663 25.5723 22.3608 26.2531 21.205 26.7519C20.0492 27.2506 18.8142 27.5 17.5 27.5ZM17.5 26.075C19.7483 26.075 21.6562 25.2873 23.2238 23.7119C24.7913 22.1365 25.575 20.2325 25.575 18C25.575 15.7517 24.7913 13.8438 23.2238 12.2762C21.6562 10.7088 19.7483 9.925 17.5 9.925C15.2675 9.925 13.3635 10.7088 11.7881 12.2762C10.2127 13.8438 9.425 15.7517 9.425 18C9.425 20.2325 10.2127 22.1365 11.7881 23.7119C13.3635 25.2873 15.2675 26.075 17.5 26.075Z" fill="url(#paint0_linear_2353_85584)"/>

</svg>
