<svg width="23" height="19" viewBox="0 0 23 19" fill="none" xmlns="http://www.w3.org/2000/svg">
<path d="M1.4375 18.125C1.05417 18.125 0.71875 17.9812 0.43125 17.6938C0.14375 17.4062 0 17.0708 0 16.6875V2.3125C0 1.92917 0.14375 1.59375 0.43125 1.30625C0.71875 1.01875 1.05417 0.875 1.4375 0.875H21.5625C21.9458 0.875 22.2812 1.01875 22.5688 1.30625C22.8562 1.59375 23 1.92917 23 2.3125V16.6875C23 17.0708 22.8562 17.4062 22.5688 17.6938C22.2812 17.9812 21.9458 18.125 21.5625 18.125H1.4375ZM14.1594 16.6875H21.5625V2.3125H1.4375V16.6875H1.60521C2.30799 15.5854 3.20642 14.7149 4.30052 14.076C5.39462 13.4372 6.58854 13.1177 7.88229 13.1177C9.17604 13.1177 10.37 13.4372 11.4641 14.076C12.5582 14.7149 13.4566 15.5854 14.1594 16.6875ZM7.88229 11.4167C8.6809 11.4167 9.35972 11.1372 9.91875 10.5781C10.4778 10.0191 10.7573 9.34028 10.7573 8.54167C10.7573 7.74306 10.4778 7.06424 9.91875 6.50521C9.35972 5.94618 8.6809 5.66667 7.88229 5.66667C7.08368 5.66667 6.40486 5.94618 5.84583 6.50521C5.28681 7.06424 5.00729 7.74306 5.00729 8.54167C5.00729 9.34028 5.28681 10.0191 5.84583 10.5781C6.40486 11.1372 7.08368 11.4167 7.88229 11.4167ZM18.1125 15.5375L19.9573 13.7167L18.5917 11.776H16.9146C16.7708 11.3767 16.671 11.0054 16.6151 10.662C16.5592 10.3186 16.5312 9.93924 16.5312 9.52396C16.5312 9.10868 16.5592 8.73333 16.6151 8.39792C16.671 8.0625 16.7708 7.68715 16.9146 7.27187H18.5917L19.9573 5.33125L18.1125 3.51042C17.234 4.22917 16.5512 5.11562 16.0641 6.16979C15.5769 7.22396 15.3333 8.34201 15.3333 9.52396C15.3333 10.7059 15.5769 11.824 16.0641 12.8781C16.5512 13.9323 17.234 14.8187 18.1125 15.5375ZM3.42604 16.6875H12.3385C11.7698 16.0123 11.0966 15.4881 10.3188 15.1149C9.54098 14.7418 8.72882 14.5552 7.88229 14.5552C7.03576 14.5552 6.22517 14.7429 5.45052 15.1182C4.67587 15.4936 4.00104 16.0167 3.42604 16.6875ZM7.88229 9.97917C7.475 9.97917 7.13359 9.84141 6.85807 9.56589C6.58255 9.29036 6.44479 8.94896 6.44479 8.54167C6.44479 8.13437 6.58255 7.79297 6.85807 7.51745C7.13359 7.24193 7.475 7.10417 7.88229 7.10417C8.28958 7.10417 8.63099 7.24193 8.90651 7.51745C9.18203 7.79297 9.31979 8.13437 9.31979 8.54167C9.31979 8.94896 9.18203 9.29036 8.90651 9.56589C8.63099 9.84141 8.28958 9.97917 7.88229 9.97917Z" fill="url(#paint0_linear_4649_156217)"/>
<defs>
<linearGradient id="paint0_linear_4649_156217" x1="11.5" y1="0.875" x2="11.5" y2="18.125" gradientUnits="userSpaceOnUse">
<stop stop-color="#0D66C4"/>
<stop offset="0.572917" stop-color="#01458C"/>
<stop offset="1" stop-color="#0E4580"/>
</linearGradient>
</defs>
</svg>
