<svg width="19" height="20" viewBox="0 0 19 20" fill="none" xmlns="http://www.w3.org/2000/svg">
<path d="M8.81125 16.8162H10.1175V15.5813C11.0833 15.4704 11.8354 15.1735 12.3737 14.6906C12.9121 14.2077 13.1812 13.5625 13.1812 12.755C13.1812 11.9475 12.9517 11.2904 12.4925 10.7837C12.0333 10.2771 11.2575 9.79417 10.165 9.335C9.24667 8.955 8.58167 8.61458 8.17 8.31375C7.75833 8.01292 7.5525 7.60917 7.5525 7.1025C7.5525 6.61167 7.73062 6.22375 8.08687 5.93875C8.44312 5.65375 8.93 5.51125 9.5475 5.51125C10.0225 5.51125 10.4342 5.62208 10.7825 5.84375C11.1308 6.06542 11.4237 6.39792 11.6613 6.84125L12.8012 6.295C12.5321 5.74083 12.1758 5.30542 11.7325 4.98875C11.2892 4.67208 10.7667 4.48208 10.165 4.41875V3.2075H8.85875V4.41875C8.05125 4.52958 7.41396 4.82646 6.94688 5.30937C6.47979 5.79229 6.24625 6.39 6.24625 7.1025C6.24625 7.87833 6.48375 8.49583 6.95875 8.955C7.43375 9.41417 8.14625 9.84167 9.09625 10.2375C10.1571 10.6808 10.8854 11.0806 11.2812 11.4369C11.6771 11.7931 11.875 12.2325 11.875 12.755C11.875 13.2617 11.6652 13.6694 11.2456 13.9781C10.826 14.2869 10.2996 14.4412 9.66625 14.4412C9.04875 14.4412 8.49854 14.2671 8.01562 13.9187C7.53271 13.5704 7.19625 13.0954 7.00625 12.4937L5.795 12.8975C6.1275 13.6258 6.53521 14.1998 7.01813 14.6194C7.50104 15.039 8.09875 15.3438 8.81125 15.5337V16.8162ZM9.5 19.5C8.20167 19.5 6.97458 19.2506 5.81875 18.7519C4.66292 18.2531 3.65354 17.5723 2.79062 16.7094C1.92771 15.8465 1.24687 14.8371 0.748125 13.6812C0.249375 12.5254 0 11.2983 0 10C0 8.68583 0.249375 7.45083 0.748125 6.295C1.24687 5.13917 1.92771 4.13375 2.79062 3.27875C3.65354 2.42375 4.66292 1.74687 5.81875 1.24813C6.97458 0.749375 8.20167 0.5 9.5 0.5C10.8142 0.5 12.0492 0.749375 13.205 1.24813C14.3608 1.74687 15.3663 2.42375 16.2213 3.27875C17.0763 4.13375 17.7531 5.13917 18.2519 6.295C18.7506 7.45083 19 8.68583 19 10C19 11.2983 18.7506 12.5254 18.2519 13.6812C17.7531 14.8371 17.0763 15.8465 16.2213 16.7094C15.3663 17.5723 14.3608 18.2531 13.205 18.7519C12.0492 19.2506 10.8142 19.5 9.5 19.5ZM9.5 18.075C11.7483 18.075 13.6562 17.2873 15.2238 15.7119C16.7913 14.1365 17.575 12.2325 17.575 10C17.575 7.75167 16.7913 5.84375 15.2238 4.27625C13.6562 2.70875 11.7483 1.925 9.5 1.925C7.2675 1.925 5.36354 2.70875 3.78813 4.27625C2.21271 5.84375 1.425 7.75167 1.425 10C1.425 12.2325 2.21271 14.1365 3.78813 15.7119C5.36354 17.2873 7.2675 18.075 9.5 18.075Z" fill="url(#paint0_linear_3604_143817)"/>
<defs>
<linearGradient id="paint0_linear_3604_143817" x1="9.5" y1="0.5" x2="9.5" y2="36.7188" gradientUnits="userSpaceOnUse">
<stop stop-color="#3390EC"/>
<stop offset="1" stop-color="#0E559C"/>
</linearGradient>
</defs>
</svg>
