<svg width="40" height="40" viewBox="0 0 40 40" fill="none" xmlns="http://www.w3.org/2000/svg">
    <defs>
        <linearGradient id="paint0_linear_763_47497" x1="24.7251" y1="23.1258" x2="33" y2="23.1258" gradientUnits="userSpaceOnUse">
            <stop stop-color="#96DEDA"/>
            <stop offset="1" stop-color="#50C9C3"/>
        </linearGradient>
        <linearGradient id="paint1_linear_763_47497" x1="25.1316" y1="17.9907" x2="30.7835" y2="17.9907" gradientUnits="userSpaceOnUse">
            <stop stop-color="#96DEDA"/>
            <stop offset="1" stop-color="#50C9C3"/>
        </linearGradient>
        <linearGradient id="paint2_linear_763_47497" x1="13.5327" y1="23.8288" x2="26.4631" y2="23.8288" gradientUnits="userSpaceOnUse">
            <stop stop-color="#00C6FB"/>
            <stop offset="1" stop-color="#005BEA"/>
        </linearGradient>
        <linearGradient id="paint3_linear_763_47497" x1="16.3831" y1="17.3179" x2="23.6175" y2="17.3179" gradientUnits="userSpaceOnUse">
            <stop stop-color="#00C6FB"/>
            <stop offset="1" stop-color="#005BEA"/>
        </linearGradient>
        <linearGradient id="paint4_linear_763_47497" x1="7" y1="23.1262" x2="15.2738" y2="23.1262" gradientUnits="userSpaceOnUse">
            <stop stop-color="#96DEDA"/>
            <stop offset="1" stop-color="#50C9C3"/>
        </linearGradient>
        <linearGradient id="paint5_linear_763_47497" x1="9.21552" y1="17.9907" x2="14.8674" y2="17.9907" gradientUnits="userSpaceOnUse">
            <stop stop-color="#96DEDA"/>
            <stop offset="1" stop-color="#50C9C3"/>
        </linearGradient>
    </defs><circle cx="19.5" cy="20" r="19.5" fill="#0055FF" fill-opacity="0.1"/>
<path d="M27.9569 20.2715C28.6541 20.2574 29.346 20.3951 29.9848 20.675C30.8062 21.0468 31.5164 21.6265 32.0451 22.3569C32.5739 23.0872 32.9028 23.9429 32.9995 24.8394C33.0042 24.9865 32.9794 25.133 32.9268 25.2704C32.8741 25.4079 32.7945 25.5334 32.6927 25.6398C32.591 25.7461 32.469 25.8311 32.334 25.8897C32.1989 25.9483 32.0536 25.9793 31.9064 25.981H26.9644C26.8357 24.2448 26.0318 22.6281 24.7251 21.4776C25.094 21.1644 25.4979 20.895 25.929 20.675C26.5677 20.3951 27.2596 20.2574 27.9569 20.2715Z" fill="url(#paint0_linear_763_47497)"/>
<path d="M25.1367 17.9907C25.1136 18.3754 25.1694 18.7607 25.3007 19.123C25.432 19.4854 25.636 19.817 25.9002 20.0976C26.1645 20.3781 26.4833 20.6017 26.8371 20.7545C27.1909 20.9073 27.5722 20.9861 27.9575 20.9861C28.3429 20.9861 28.7242 20.9073 29.078 20.7545C29.4318 20.6017 29.7506 20.3781 30.0148 20.0976C30.2791 19.817 30.4831 19.4854 30.6144 19.123C30.7457 18.7607 30.8015 18.3754 30.7784 17.9907C30.8015 17.606 30.7457 17.2206 30.6144 16.8583C30.4831 16.496 30.2791 16.1643 30.0148 15.8838C29.7506 15.6032 29.4318 15.3797 29.078 15.2269C28.7242 15.0741 28.3429 14.9952 27.9575 14.9952C27.5722 14.9952 27.1909 15.0741 26.8371 15.2269C26.4833 15.3797 26.1645 15.6032 25.9002 15.8838C25.636 16.1643 25.432 16.496 25.3007 16.8583C25.1694 17.2206 25.1136 17.606 25.1367 17.9907Z" fill="url(#paint1_linear_763_47497)"/>
<path d="M19.999 20.2115C18.398 20.2118 16.8533 20.8022 15.6604 21.87C14.4675 22.9378 13.7101 24.4079 13.5332 25.9991C13.5281 26.1865 13.5605 26.3731 13.6284 26.5478C13.6963 26.7226 13.7984 26.882 13.9288 27.0167C14.0591 27.1515 14.215 27.2589 14.3874 27.3326C14.5598 27.4063 14.7452 27.4449 14.9327 27.446H25.0609C25.2485 27.4452 25.4341 27.4068 25.6068 27.3333C25.7794 27.2597 25.9356 27.1523 26.0662 27.0175C26.1968 26.8828 26.2991 26.7232 26.3672 26.5483C26.4352 26.3734 26.4677 26.1867 26.4625 25.9991C26.2854 24.4084 25.5283 22.9387 24.336 21.8711C23.1436 20.8034 21.5996 20.2126 19.999 20.2115Z" fill="url(#paint2_linear_763_47497)"/>
<path d="M23.6175 17.3179C23.6175 18.0333 23.4054 18.7327 23.0079 19.3275C22.6104 19.9224 22.0455 20.386 21.3845 20.6598C20.7236 20.9336 19.9963 21.0052 19.2946 20.8656C18.5929 20.726 17.9484 20.3815 17.4425 19.8757C16.9366 19.3698 16.5921 18.7253 16.4526 18.0236C16.313 17.3219 16.3846 16.5946 16.6584 15.9337C16.9322 15.2727 17.3958 14.7078 17.9907 14.3103C18.5855 13.9128 19.2849 13.7007 20.0003 13.7007C20.9596 13.7007 21.8797 14.0818 22.558 14.7601C23.2364 15.4385 23.6175 16.3586 23.6175 17.3179Z" fill="url(#paint3_linear_763_47497)"/>
<path d="M12.0421 20.272C11.3452 20.2581 10.6537 20.3958 10.0153 20.6755C9.19384 21.0473 8.48364 21.627 7.95491 22.3574C7.42618 23.0877 7.09722 23.9434 7.00056 24.8399C6.99589 24.987 7.02061 25.1335 7.07328 25.2709C7.12595 25.4084 7.20551 25.5339 7.3073 25.6402C7.40909 25.7466 7.53106 25.8315 7.66608 25.8901C7.8011 25.9487 7.94646 25.9798 8.09364 25.9815H13.0345C13.1631 24.2452 13.967 22.6285 15.2738 21.4781C14.905 21.1649 14.501 20.8955 14.07 20.6755C13.4312 20.3956 12.7393 20.2579 12.0421 20.272Z" fill="url(#paint4_linear_763_47497)"/>
<path d="M14.8623 17.9907C14.8854 18.3754 14.8296 18.7607 14.6983 19.123C14.567 19.4854 14.363 19.817 14.0988 20.0976C13.8346 20.3781 13.5158 20.6017 13.162 20.7545C12.8082 20.9073 12.4269 20.9861 12.0415 20.9861C11.6561 20.9861 11.2748 20.9073 10.921 20.7545C10.5672 20.6017 10.2484 20.3781 9.98417 20.0976C9.71996 19.817 9.51593 19.4854 9.38462 19.123C9.2533 18.7607 9.19749 18.3754 9.2206 17.9907C9.19749 17.606 9.2533 17.2206 9.38462 16.8583C9.51593 16.496 9.71996 16.1643 9.98417 15.8838C10.2484 15.6032 10.5672 15.3797 10.921 15.2269C11.2748 15.0741 11.6561 14.9952 12.0415 14.9952C12.4269 14.9952 12.8082 15.0741 13.162 15.2269C13.5158 15.3797 13.8346 15.6032 14.0988 15.8838C14.363 16.1643 14.567 16.496 14.6983 16.8583C14.8296 17.2206 14.8854 17.606 14.8623 17.9907Z" fill="url(#paint5_linear_763_47497)"/>

</svg>
