<svg width="40" height="40" viewBox="0 0 40 40" fill="none" xmlns="http://www.w3.org/2000/svg">
    <defs>
        <linearGradient id="paint0_linear_763_47528" x1="9" y1="20" x2="31" y2="20" gradientUnits="userSpaceOnUse">
            <stop stop-color="#00C6FB"/>
            <stop offset="1" stop-color="#005BEA"/>
        </linearGradient>
    </defs><circle cx="19.5" cy="20" r="19.5" fill="#0055FF" fill-opacity="0.1"/>
<path d="M19.9976 12C18.0641 12.0001 16.1647 12.4769 14.491 13.3824C12.8174 14.2878 11.4285 15.5899 10.4645 17.1574C9.50046 18.7249 8.99534 20.5023 9.00003 22.3105C9.00473 24.1188 9.51908 25.8939 10.4912 27.457C10.6008 27.6254 10.7555 27.7641 10.94 27.8593C11.1245 27.9545 11.3325 28.003 11.5432 27.9999H28.4568C28.6675 28.003 28.8755 27.9545 29.06 27.8593C29.2445 27.7641 29.3992 27.6254 29.5088 27.457C30.4811 25.8936 30.9955 24.118 31 22.3094C31.0045 20.5008 30.4989 18.7231 29.5343 17.1555C28.5697 15.5879 27.1802 14.2858 25.5059 13.3807C23.8315 12.4756 21.9316 11.9993 19.9976 12V12ZM19.9976 14.2861C20.2631 14.288 20.5205 14.3717 20.7299 14.5244C20.9394 14.677 21.089 14.8901 21.1558 15.1304C21.1059 15.2067 21.0618 15.2862 21.0238 15.3683L20.6719 16.3521C20.4771 16.4855 20.2437 16.5603 20.0024 16.5668C19.6782 16.5668 19.3673 16.4464 19.1381 16.232C18.9089 16.0176 18.7801 15.7269 18.7801 15.4237C18.7801 15.1206 18.9089 14.8299 19.1381 14.6155C19.3673 14.4011 19.6782 14.2807 20.0024 14.2807L19.9976 14.2861ZM12.6651 24.5716C12.4233 24.5716 12.187 24.5046 11.986 24.379C11.785 24.2534 11.6284 24.0749 11.5359 23.866C11.4434 23.6572 11.4191 23.4273 11.4663 23.2056C11.5135 22.9839 11.6299 22.7802 11.8008 22.6203C11.9717 22.4605 12.1895 22.3516 12.4266 22.3075C12.6637 22.2634 12.9095 22.2861 13.1328 22.3726C13.3561 22.4591 13.547 22.6056 13.6813 22.7936C13.8156 22.9815 13.8873 23.2025 13.8873 23.4286C13.8873 23.7318 13.7586 24.0225 13.5293 24.2368C13.3001 24.4512 12.9892 24.5716 12.6651 24.5716ZM14.4984 18.8573C14.2567 18.8573 14.0204 18.7903 13.8194 18.6647C13.6184 18.5391 13.4617 18.3606 13.3692 18.1517C13.2767 17.9429 13.2525 17.713 13.2997 17.4913C13.3468 17.2696 13.4633 17.0659 13.6342 16.906C13.8051 16.7462 14.0229 16.6373 14.26 16.5932C14.4971 16.5491 14.7428 16.5718 14.9662 16.6583C15.1895 16.7448 15.3804 16.8913 15.5147 17.0793C15.649 17.2672 15.7207 17.4882 15.7207 17.7143C15.7207 18.0175 15.5919 18.3082 15.3627 18.5225C15.1335 18.7369 14.8226 18.8573 14.4984 18.8573V18.8573ZM23.9188 16.2707L21.5766 22.8419C22.0149 23.1841 22.3083 23.6613 22.404 24.1878C22.4997 24.7142 22.3915 25.2553 22.0988 25.7138H17.8936C17.6811 25.3793 17.5645 24.9993 17.5549 24.6103C17.5454 24.2214 17.6433 23.8367 17.8391 23.4935C18.035 23.1503 18.3222 22.8601 18.673 22.651C19.0238 22.4419 19.4263 22.321 19.8417 22.2999L22.1839 15.7278C22.222 15.6211 22.2822 15.5224 22.3611 15.4374C22.44 15.3524 22.5361 15.2828 22.6438 15.2325C22.7514 15.1822 22.8686 15.1522 22.9887 15.1443C23.1088 15.1364 23.2293 15.1506 23.3435 15.1863C23.4577 15.2219 23.5632 15.2783 23.6541 15.3521C23.745 15.4258 23.8194 15.5157 23.8732 15.6164C23.927 15.7171 23.959 15.8267 23.9675 15.939C23.976 16.0512 23.9607 16.164 23.9226 16.2707H23.9188ZM24.4782 18.3135L25.0712 16.6509C25.2055 16.6009 25.3484 16.5739 25.4929 16.5713C25.8171 16.5713 26.128 16.6917 26.3572 16.906C26.5864 17.1204 26.7152 17.4111 26.7152 17.7143C26.7152 18.0175 26.5864 18.3082 26.3572 18.5225C26.128 18.7369 25.8171 18.8573 25.4929 18.8573C25.2883 18.8549 25.0877 18.8037 24.9102 18.7085C24.7326 18.6133 24.584 18.4774 24.4782 18.3135V18.3135ZM27.3263 24.5743C27.0846 24.5743 26.8483 24.5073 26.6473 24.3817C26.4463 24.2561 26.2896 24.0776 26.1971 23.8687C26.1046 23.6598 26.0804 23.43 26.1276 23.2083C26.1747 22.9866 26.2911 22.7829 26.4621 22.623C26.633 22.4632 26.8508 22.3543 27.0879 22.3102C27.325 22.2661 27.5707 22.2887 27.7941 22.3752C28.0174 22.4618 28.2083 22.6083 28.3426 22.7962C28.4769 22.9842 28.5486 23.2052 28.5486 23.4313C28.5478 23.7333 28.4192 24.0229 28.1909 24.2365C27.9626 24.4502 27.6531 24.5707 27.3301 24.5716L27.3263 24.5743Z" fill="url(#paint0_linear_763_47528)"/>

</svg>
