<svg width="22" height="19" viewBox="0 0 22 19" fill="none" xmlns="http://www.w3.org/2000/svg">
<path d="M0 19V14.25C0 13.676 0.170833 13.1862 0.5125 12.7805C0.854167 12.3747 1.26667 12.1719 1.75 12.1719H5.275C5.55833 12.1719 5.82917 12.256 6.0875 12.4242C6.34583 12.5924 6.56667 12.825 6.75 13.1219C7.23333 13.9531 7.85 14.5964 8.6 15.0516C9.35 15.5068 10.15 15.7344 11 15.7344C11.85 15.7344 12.65 15.5068 13.4 15.0516C14.15 14.5964 14.775 13.9531 15.275 13.1219C15.4583 12.825 15.675 12.5924 15.925 12.4242C16.175 12.256 16.4417 12.1719 16.725 12.1719H20.25C20.7333 12.1719 21.1458 12.3747 21.4875 12.7805C21.8292 13.1862 22 13.676 22 14.25V19H15.5V15.4672C14.9 16.1203 14.2125 16.625 13.4375 16.9812C12.6625 17.3375 11.85 17.5156 11 17.5156C10.15 17.5156 9.34167 17.3375 8.575 16.9812C7.80833 16.625 7.11667 16.1203 6.5 15.4672V19H0ZM11 13.9531C10.4167 13.9531 9.85417 13.7898 9.3125 13.4633C8.77083 13.1367 8.33333 12.6865 8 12.1125C7.73333 11.6573 7.4125 11.2911 7.0375 11.0141C6.6625 10.737 6.25833 10.549 5.825 10.45C6.30833 9.85625 7.06667 9.40104 8.1 9.08437C9.13333 8.76771 10.1 8.60938 11 8.60938C11.9 8.60938 12.8708 8.76771 13.9125 9.08437C14.9542 9.40104 15.7167 9.85625 16.2 10.45C15.7667 10.549 15.3625 10.737 14.9875 11.0141C14.6125 11.2911 14.2917 11.6573 14.025 12.1125C13.6917 12.6865 13.2542 13.1367 12.7125 13.4633C12.1708 13.7898 11.6 13.9531 11 13.9531ZM3 10.0938C2.25 10.0938 1.60417 9.77214 1.0625 9.12891C0.520833 8.48568 0.25 7.71875 0.25 6.82812C0.25 5.91771 0.520833 5.14583 1.0625 4.5125C1.60417 3.87917 2.25 3.5625 3 3.5625C3.76667 3.5625 4.41667 3.87917 4.95 4.5125C5.48333 5.14583 5.75 5.91771 5.75 6.82812C5.75 7.71875 5.48333 8.48568 4.95 9.12891C4.41667 9.77214 3.76667 10.0938 3 10.0938ZM19 10.0938C18.25 10.0938 17.6042 9.77214 17.0625 9.12891C16.5208 8.48568 16.25 7.71875 16.25 6.82812C16.25 5.91771 16.5208 5.14583 17.0625 4.5125C17.6042 3.87917 18.25 3.5625 19 3.5625C19.7667 3.5625 20.4167 3.87917 20.95 4.5125C21.4833 5.14583 21.75 5.91771 21.75 6.82812C21.75 7.71875 21.4833 8.48568 20.95 9.12891C20.4167 9.77214 19.7667 10.0938 19 10.0938ZM11 6.53125C10.25 6.53125 9.60417 6.20964 9.0625 5.56641C8.52083 4.92318 8.25 4.15625 8.25 3.26562C8.25 2.35521 8.52083 1.58333 9.0625 0.95C9.60417 0.316667 10.25 0 11 0C11.7667 0 12.4167 0.316667 12.95 0.95C13.4833 1.58333 13.75 2.35521 13.75 3.26562C13.75 4.15625 13.4833 4.92318 12.95 5.56641C12.4167 6.20964 11.7667 6.53125 11 6.53125Z" fill="url(#paint0_linear_3604_143837)"/>
<defs>
<linearGradient id="paint0_linear_3604_143837" x1="11" y1="0" x2="11" y2="36.2188" gradientUnits="userSpaceOnUse">
<stop stop-color="#3390EC"/>
<stop offset="1" stop-color="#0E559C"/>
</linearGradient>
</defs>
</svg>
