<svg width="40" height="40" viewBox="0 0 40 40" fill="none" xmlns="http://www.w3.org/2000/svg">
    <defs>
        <linearGradient id="paint0_linear_763_47473" x1="10" y1="20.5" x2="29" y2="20.5" gradientUnits="userSpaceOnUse">
            <stop stop-color="#1E3C72"/>
            <stop offset="0.01" stop-color="#1E3C72"/>
            <stop offset="1" stop-color="#22B2E0"/>
        </linearGradient>
    </defs><circle cx="19.5" cy="20" r="19.5" fill="#0055FF" fill-opacity="0.1"/>
<path d="M22.9051 15H20.355C20.1179 14.9997 19.8892 15.085 19.714 15.239L16.7954 17.8174C16.7954 17.8174 16.7896 17.8262 16.7863 17.8286C16.5589 18.0339 16.4248 18.3176 16.4132 18.6178C16.4016 18.9181 16.5135 19.2106 16.7243 19.4317C16.9419 19.6424 17.2331 19.7674 17.5411 19.7821C17.849 19.7969 18.1516 19.7003 18.3897 19.5114C18.3897 19.5114 18.3988 19.5114 18.4013 19.5058L20.773 17.4095C20.8666 17.3318 20.9879 17.2923 21.1111 17.2994C21.2344 17.3064 21.3499 17.3595 21.4333 17.4474C21.5167 17.5353 21.5613 17.651 21.5577 17.77C21.5541 17.8891 21.5026 18.0021 21.414 18.0851L20.6392 18.7696L24.9621 22.1543C25.046 22.2219 25.1245 22.2957 25.1967 22.375V16.8326L23.5759 15.2693C23.4881 15.1839 23.3836 15.1161 23.2685 15.0699C23.1533 15.0236 23.0298 14.9999 22.9051 15ZM26.15 17.9361V23.249C26.1504 23.4917 26.2507 23.7243 26.4289 23.8957C26.607 24.067 26.8484 24.1632 27.1 24.163H29V16.8326H27.0471C26.2888 16.8382 26.15 17.3051 26.15 17.9361ZM27.575 23.249C27.4811 23.249 27.3892 23.2222 27.3111 23.1718C27.233 23.1215 27.1721 23.0499 27.1362 22.9662C27.1002 22.8825 27.0908 22.7904 27.1091 22.7015C27.1275 22.6127 27.1727 22.531 27.2391 22.4669C27.3056 22.4029 27.3902 22.3592 27.4823 22.3416C27.5745 22.3239 27.67 22.333 27.7568 22.3676C27.8436 22.4023 27.9178 22.461 27.9699 22.5364C28.0221 22.6117 28.05 22.7003 28.05 22.7909C28.0498 22.9124 27.9997 23.0289 27.9107 23.1149C27.8217 23.2009 27.701 23.2494 27.575 23.2498V23.249ZM10 24.163H11.9C12.0248 24.1631 12.1484 24.1394 12.2637 24.0934C12.379 24.0474 12.4838 23.9799 12.572 23.8948C12.6602 23.8097 12.7302 23.7087 12.7779 23.5974C12.8256 23.4862 12.8501 23.367 12.85 23.2467V17.9234C12.85 16.9258 12.3345 16.8382 12.033 16.8382H10V24.163ZM11.425 22.3304C11.5189 22.3304 11.6108 22.3572 11.6889 22.4076C11.767 22.4579 11.8279 22.5295 11.8638 22.6132C11.8998 22.6969 11.9092 22.789 11.8909 22.8779C11.8725 22.9668 11.8273 23.0484 11.7609 23.1125C11.6944 23.1765 11.6098 23.2202 11.5177 23.2379C11.4255 23.2555 11.33 23.2465 11.2432 23.2118C11.1564 23.1771 11.0822 23.1184 11.0301 23.043C10.9779 22.9677 10.95 22.8791 10.95 22.7885C10.9504 22.6671 11.0006 22.5508 11.0896 22.465C11.1786 22.3792 11.2992 22.3308 11.425 22.3304ZM24.3657 22.8626L19.9337 19.3918L19.0432 20.1791C18.6255 20.5489 18.0726 20.7435 17.5061 20.7201C16.9396 20.6967 16.406 20.4572 16.0226 20.0544C15.6392 19.6515 15.4374 19.1182 15.4616 18.5718C15.4859 18.0255 15.7342 17.5108 16.1519 17.1409L18.583 15H16.0949C15.9702 15.0002 15.8468 15.024 15.7317 15.0702C15.6166 15.1164 15.5121 15.1841 15.4241 15.2693L13.8 16.8326V23.2435C13.9441 23.2159 14.0929 23.223 14.2335 23.264C14.3741 23.3049 14.5021 23.3786 14.6063 23.4785C14.9631 23.8227 17.03 25.5892 17.03 25.5892C17.421 25.8954 17.9219 26.0394 18.4229 25.9895C18.9238 25.9396 19.3837 25.6999 19.7016 25.3231L19.7073 25.3175L20.2385 25.7613C20.351 25.8495 20.4804 25.9156 20.6193 25.9555C20.7583 25.9955 20.904 26.0087 21.0482 25.9944C21.1925 25.98 21.3324 25.9384 21.4599 25.8719C21.5874 25.8054 21.7001 25.7153 21.7916 25.6067L22.7217 24.5008L22.882 24.6267C22.9788 24.7026 23.0902 24.7593 23.2098 24.7937C23.3293 24.828 23.4548 24.8392 23.5789 24.8267C23.703 24.8142 23.8233 24.7782 23.9329 24.7208C24.0425 24.6633 24.1393 24.5856 24.2178 24.492L24.4995 24.1574C24.5785 24.0639 24.6376 23.9564 24.6735 23.8409C24.7094 23.7255 24.7214 23.6043 24.7087 23.4844C24.6961 23.3644 24.659 23.2481 24.5997 23.1419C24.5404 23.0358 24.4601 22.942 24.3632 22.8658L24.3657 22.8626Z" fill="url(#paint0_linear_763_47473)"/>

</svg>
