<svg width="35" height="36" viewBox="0 0 35 36" fill="none" xmlns="http://www.w3.org/2000/svg">
    <defs>
        <linearGradient id="paint0_linear_2353_85594" x1="18" y1="8" x2="18" y2="27" gradientUnits="userSpaceOnUse">
            <stop stop-color="#0088CC"/>
            <stop offset="1" stop-color="#006496"/>
        </linearGradient>
    </defs><rect y="0.5" width="35" height="35" rx="17.5" fill="#E6EEFF"/>
<path d="M7 27V22.25C7 21.676 7.17083 21.1862 7.5125 20.7805C7.85417 20.3747 8.26667 20.1719 8.75 20.1719H12.275C12.5583 20.1719 12.8292 20.256 13.0875 20.4242C13.3458 20.5924 13.5667 20.825 13.75 21.1219C14.2333 21.9531 14.85 22.5964 15.6 23.0516C16.35 23.5068 17.15 23.7344 18 23.7344C18.85 23.7344 19.65 23.5068 20.4 23.0516C21.15 22.5964 21.775 21.9531 22.275 21.1219C22.4583 20.825 22.675 20.5924 22.925 20.4242C23.175 20.256 23.4417 20.1719 23.725 20.1719H27.25C27.7333 20.1719 28.1458 20.3747 28.4875 20.7805C28.8292 21.1862 29 21.676 29 22.25V27H22.5V23.4672C21.9 24.1203 21.2125 24.625 20.4375 24.9812C19.6625 25.3375 18.85 25.5156 18 25.5156C17.15 25.5156 16.3417 25.3375 15.575 24.9812C14.8083 24.625 14.1167 24.1203 13.5 23.4672V27H7ZM18 21.9531C17.4167 21.9531 16.8542 21.7898 16.3125 21.4633C15.7708 21.1367 15.3333 20.6865 15 20.1125C14.7333 19.6573 14.4125 19.2911 14.0375 19.0141C13.6625 18.737 13.2583 18.549 12.825 18.45C13.3083 17.8562 14.0667 17.401 15.1 17.0844C16.1333 16.7677 17.1 16.6094 18 16.6094C18.9 16.6094 19.8708 16.7677 20.9125 17.0844C21.9542 17.401 22.7167 17.8562 23.2 18.45C22.7667 18.549 22.3625 18.737 21.9875 19.0141C21.6125 19.2911 21.2917 19.6573 21.025 20.1125C20.6917 20.6865 20.2542 21.1367 19.7125 21.4633C19.1708 21.7898 18.6 21.9531 18 21.9531ZM10 18.0938C9.25 18.0938 8.60417 17.7721 8.0625 17.1289C7.52083 16.4857 7.25 15.7188 7.25 14.8281C7.25 13.9177 7.52083 13.1458 8.0625 12.5125C8.60417 11.8792 9.25 11.5625 10 11.5625C10.7667 11.5625 11.4167 11.8792 11.95 12.5125C12.4833 13.1458 12.75 13.9177 12.75 14.8281C12.75 15.7188 12.4833 16.4857 11.95 17.1289C11.4167 17.7721 10.7667 18.0938 10 18.0938ZM26 18.0938C25.25 18.0938 24.6042 17.7721 24.0625 17.1289C23.5208 16.4857 23.25 15.7188 23.25 14.8281C23.25 13.9177 23.5208 13.1458 24.0625 12.5125C24.6042 11.8792 25.25 11.5625 26 11.5625C26.7667 11.5625 27.4167 11.8792 27.95 12.5125C28.4833 13.1458 28.75 13.9177 28.75 14.8281C28.75 15.7188 28.4833 16.4857 27.95 17.1289C27.4167 17.7721 26.7667 18.0938 26 18.0938ZM18 14.5312C17.25 14.5312 16.6042 14.2096 16.0625 13.5664C15.5208 12.9232 15.25 12.1562 15.25 11.2656C15.25 10.3552 15.5208 9.58333 16.0625 8.95C16.6042 8.31667 17.25 8 18 8C18.7667 8 19.4167 8.31667 19.95 8.95C20.4833 9.58333 20.75 10.3552 20.75 11.2656C20.75 12.1562 20.4833 12.9232 19.95 13.5664C19.4167 14.2096 18.7667 14.5312 18 14.5312Z" fill="url(#paint0_linear_2353_85594)"/>

</svg>
