<svg width="19" height="19" viewBox="0 0 19 19" fill="none" xmlns="http://www.w3.org/2000/svg">
<path d="M8.85875 14.25H10.2837V8.55H8.85875V14.25ZM9.49957 6.7925C9.72152 6.7925 9.90771 6.71967 10.0581 6.574C10.2085 6.42833 10.2837 6.24783 10.2837 6.0325C10.2837 5.80371 10.2087 5.61193 10.0586 5.45716C9.90841 5.30239 9.72236 5.225 9.50043 5.225C9.27848 5.225 9.09229 5.30239 8.94187 5.45716C8.79146 5.61193 8.71625 5.80371 8.71625 6.0325C8.71625 6.24783 8.79132 6.42833 8.94145 6.574C9.09159 6.71967 9.27764 6.7925 9.49957 6.7925ZM9.50632 19C8.19636 19 6.96532 18.7506 5.81319 18.2519C4.66106 17.7531 3.65354 17.0723 2.79062 16.2094C1.92771 15.3465 1.24687 14.3383 0.748125 13.185C0.249375 12.0317 0 10.7994 0 9.48812C0 8.17682 0.249375 6.94452 0.748125 5.79122C1.24687 4.63791 1.92771 3.63375 2.79062 2.77875C3.65354 1.92375 4.66166 1.24687 5.81497 0.748125C6.96827 0.249375 8.20057 0 9.51188 0C10.8232 0 12.0555 0.249375 13.2088 0.748125C14.3621 1.24687 15.3663 1.92375 16.2213 2.77875C17.0763 3.63375 17.7531 4.63917 18.2519 5.795C18.7506 6.95083 19 8.18373 19 9.49368C19 10.8036 18.7506 12.0347 18.2519 13.1868C17.7531 14.3389 17.0763 15.345 16.2213 16.205C15.3663 17.065 14.3608 17.7458 13.205 18.2475C12.0492 18.7492 10.8163 19 9.50632 19ZM9.51188 17.575C11.7523 17.575 13.6562 16.7873 15.2238 15.2119C16.7913 13.6365 17.575 11.7285 17.575 9.48812C17.575 7.24771 16.7927 5.34375 15.2282 3.77625C13.6637 2.20875 11.7543 1.425 9.5 1.425C7.2675 1.425 5.36354 2.20726 3.78813 3.77179C2.21271 5.33632 1.425 7.24573 1.425 9.5C1.425 11.7325 2.21271 13.6365 3.78813 15.2119C5.36354 16.7873 7.27146 17.575 9.51188 17.575Z" fill="url(#paint0_linear_4732_145712)"/>
<defs>
<linearGradient id="paint0_linear_4732_145712" x1="9.5" y1="0" x2="9.5" y2="36.2188" gradientUnits="userSpaceOnUse">
<stop stop-color="#3390EC"/>
<stop offset="1" stop-color="#0E559C"/>
</linearGradient>
</defs>
</svg>
