<svg width="35" height="36" viewBox="0 0 35 36" fill="none" xmlns="http://www.w3.org/2000/svg">
    <defs>
        <linearGradient id="paint0_linear_2353_85544" x1="17.5" y1="8.5" x2="17.5" y2="27.5" gradientUnits="userSpaceOnUse">
            <stop stop-color="#0088CC"/>
            <stop offset="1" stop-color="#006496"/>
        </linearGradient>
    </defs>
<rect y="0.5" width="35" height="35" rx="17.5" fill="#E6EEFF"/>
<path d="M16.8588 22.75H18.2837V17.05H16.8588V22.75ZM17.4996 15.2925C17.7215 15.2925 17.9077 15.2197 18.0581 15.074C18.2085 14.9283 18.2837 14.7478 18.2837 14.5325C18.2837 14.3037 18.2087 14.1119 18.0586 13.9572C17.9084 13.8024 17.7224 13.725 17.5004 13.725C17.2785 13.725 17.0923 13.8024 16.9419 13.9572C16.7915 14.1119 16.7162 14.3037 16.7162 14.5325C16.7162 14.7478 16.7913 14.9283 16.9414 15.074C17.0916 15.2197 17.2776 15.2925 17.4996 15.2925ZM17.5063 27.5C16.1964 27.5 14.9653 27.2506 13.8132 26.7519C12.6611 26.2531 11.6535 25.5723 10.7906 24.7094C9.92771 23.8465 9.24688 22.8383 8.74813 21.685C8.24938 20.5317 8 19.2994 8 17.9881C8 16.6768 8.24938 15.4445 8.74813 14.2912C9.24688 13.1379 9.92771 12.1337 10.7906 11.2787C11.6535 10.4237 12.6617 9.74688 13.815 9.24813C14.9683 8.74938 16.2006 8.5 17.5119 8.5C18.8232 8.5 20.0555 8.74938 21.2088 9.24813C22.3621 9.74688 23.3663 10.4237 24.2213 11.2787C25.0763 12.1337 25.7531 13.1392 26.2519 14.295C26.7506 15.4508 27 16.6837 27 17.9937C27 19.3036 26.7506 20.5347 26.2519 21.6868C25.7531 22.8389 25.0763 23.845 24.2213 24.705C23.3663 25.565 22.3608 26.2458 21.205 26.7475C20.0492 27.2492 18.8163 27.5 17.5063 27.5ZM17.5119 26.075C19.7523 26.075 21.6563 25.2873 23.2238 23.7119C24.7913 22.1365 25.575 20.2285 25.575 17.9881C25.575 15.7477 24.7927 13.8437 23.2282 12.2762C21.6637 10.7087 19.7543 9.925 17.5 9.925C15.2675 9.925 13.3635 10.7073 11.7881 12.2718C10.2127 13.8363 9.425 15.7457 9.425 18C9.425 20.2325 10.2127 22.1365 11.7881 23.7119C13.3635 25.2873 15.2715 26.075 17.5119 26.075Z" fill="url(#paint0_linear_2353_85544)"/>

</svg>
