<svg width="19" height="20" viewBox="0 0 19 20" fill="none" xmlns="http://www.w3.org/2000/svg">
<path fill-rule="evenodd" clip-rule="evenodd" d="M13.9069 2.21474L16.4477 4.75554C17.158 5.43226 17.187 6.55605 16.5126 7.26853L8.16687 15.6142C7.86461 15.914 7.46843 16.1006 7.04484 16.1428L3.17799 16.4952H3.09453C2.84805 16.4966 2.61115 16.3998 2.43615 16.2263C2.24052 16.0314 2.14194 15.7594 2.16723 15.4844L2.56597 11.6176C2.60817 11.194 2.7948 10.7978 3.09453 10.4955L11.4402 2.14983C12.1597 1.54203 13.2204 1.56994 13.9069 2.21474ZM10.8096 5.3676L13.2947 7.85277L15.1493 6.04453L12.6178 3.513L10.8096 5.3676Z" fill="url(#paint0_linear_4732_145353)"/>
<defs>
<linearGradient id="paint0_linear_4732_145353" x1="9.58167" y1="1.71191" x2="9.58167" y2="29.8926" gradientUnits="userSpaceOnUse">
<stop stop-color="#3390EC"/>
<stop offset="1" stop-color="#0E559C"/>
</linearGradient>
</defs>
</svg>
