<svg width="10" height="11" viewBox="0 0 10 11" fill="none" xmlns="http://www.w3.org/2000/svg">
<path fill-rule="evenodd" clip-rule="evenodd" d="M7.71826 0.874974L9.3166 2.58747C9.76342 3.04358 9.78168 3.80101 9.35743 4.28122L4.10743 9.90623C3.91729 10.1082 3.66806 10.234 3.4016 10.2625L0.969098 10.5H0.916598C0.761547 10.5009 0.612518 10.4357 0.502432 10.3187C0.37937 10.1874 0.317355 10.0041 0.333265 9.81872L0.584098 7.21247C0.610643 6.92698 0.728045 6.65995 0.916598 6.45622L6.1666 0.831224C6.61916 0.421568 7.28644 0.440383 7.71826 0.874974ZM5.76993 2.99997L7.33327 4.67497L8.49993 3.45622L6.90743 1.74997L5.76993 2.99997Z" fill="#1F2C39"/>
</svg>
