<svg width="25" height="25" viewBox="0 0 25 25" fill="none" xmlns="http://www.w3.org/2000/svg">
<rect width="25" height="25" rx="12.5" fill="#FF0000" fill-opacity="0.1"/>
<rect x="4.58496" y="4.58496" width="15.83" height="15.83" rx="7.915" fill="white"/>
<mask id="mask0_4738_146791" style="mask-type:alpha" maskUnits="userSpaceOnUse" x="3" y="3" width="19" height="19">
<rect x="3" y="3" width="19" height="19" fill="#D9D9D9"/>
</mask>
<g mask="url(#mask0_4738_146791)">
<path d="M9.64992 16.4585L12.4999 13.6085L15.3499 16.4585L16.4583 15.3502L13.6083 12.5002L16.4583 9.65016L15.3499 8.54183L12.4999 11.3918L9.64992 8.54183L8.54159 9.65016L11.3916 12.5002L8.54159 15.3502L9.64992 16.4585ZM12.4999 20.4168C11.4048 20.4168 10.3756 20.2089 9.41242 19.793C8.44922 19.3776 7.61138 18.8137 6.89888 18.1012C6.18638 17.3887 5.62245 16.5509 5.20709 15.5877C4.7912 14.6245 4.58325 13.5953 4.58325 12.5002C4.58325 11.405 4.7912 10.3759 5.20709 9.41266C5.62245 8.44947 6.18638 7.61162 6.89888 6.89912C7.61138 6.18662 8.44922 5.62243 9.41242 5.20654C10.3756 4.79118 11.4048 4.5835 12.4999 4.5835C13.5951 4.5835 14.6242 4.79118 15.5874 5.20654C16.5506 5.62243 17.3885 6.18662 18.101 6.89912C18.8135 7.61162 19.3774 8.44947 19.7928 9.41266C20.2086 10.3759 20.4166 11.405 20.4166 12.5002C20.4166 13.5953 20.2086 14.6245 19.7928 15.5877C19.3774 16.5509 18.8135 17.3887 18.101 18.1012C17.3885 18.8137 16.5506 19.3776 15.5874 19.793C14.6242 20.2089 13.5951 20.4168 12.4999 20.4168Z" fill="#FF0000"/>
</g>
</svg>
