<svg width="46" height="47" viewBox="0 0 46 47" fill="none" xmlns="http://www.w3.org/2000/svg">
<rect width="46" height="47" rx="23" fill="#FF0000" fill-opacity="0.1"/>
<rect x="14.5" y="13" width="17" height="20" rx="8.5" fill="white"/>
<mask id="mask0_4741_146683" style="mask-type:alpha" maskUnits="userSpaceOnUse" x="6" y="7" width="34" height="33">
<rect x="6.5" y="7" width="33" height="33" fill="#D9D9D9"/>
</mask>
<g mask="url(#mask0_4741_146683)">
<path d="M18.0501 30.375L23.0001 25.425L27.9501 30.375L29.8751 28.45L24.9251 23.5L29.8751 18.55L27.9501 16.625L23.0001 21.575L18.0501 16.625L16.1251 18.55L21.0751 23.5L16.1251 28.45L18.0501 30.375ZM23.0001 37.25C21.098 37.25 19.3105 36.8888 17.6376 36.1665C15.9647 35.4451 14.5095 34.4656 13.272 33.2281C12.0345 31.9906 11.055 30.5354 10.3336 28.8625C9.61129 27.1896 9.25012 25.4021 9.25012 23.5C9.25012 21.5979 9.61129 19.8104 10.3336 18.1375C11.055 16.4646 12.0345 15.0094 13.272 13.7719C14.5095 12.5344 15.9647 11.5545 17.6376 10.8321C19.3105 10.1107 21.098 9.75 23.0001 9.75C24.9022 9.75 26.6897 10.1107 28.3626 10.8321C30.0355 11.5545 31.4907 12.5344 32.7282 13.7719C33.9657 15.0094 34.9452 16.4646 35.6666 18.1375C36.389 19.8104 36.7501 21.5979 36.7501 23.5C36.7501 25.4021 36.389 27.1896 35.6666 28.8625C34.9452 30.5354 33.9657 31.9906 32.7282 33.2281C31.4907 34.4656 30.0355 35.4451 28.3626 36.1665C26.6897 36.8888 24.9022 37.25 23.0001 37.25Z" fill="#FF0000"/>
</g>
</svg>
