<svg width="265" height="167" viewBox="0 0 265 167" fill="none" xmlns="http://www.w3.org/2000/svg">
<g opacity="0.04">
<path d="M121.584 132.159C113.824 132.186 106.061 132.41 98.3153 133.441C95.3947 133.829 92.5347 134.686 89.6058 135.028C83.759 135.717 78.0141 137.002 72.1454 137.595C67.419 138.072 62.6733 138.352 57.9607 138.958C53.5426 139.525 48.651 139.396 44.2687 138.458C41.0233 137.763 37.7641 137.371 34.5709 136.257C31.0007 135.009 27.1249 134.116 23.4032 134.149C18.0987 134.195 12.9347 134.202 7.85868 136.402C6.07768 137.176 3.89478 138.448 2.54321 140.072C-0.553588 143.787 -0.971999 153.06 2.11929 156.914C7.32741 163.4 18.4428 165.946 25.7458 166.068C33.7451 166.2 41.5188 165.488 49.5291 165.07C56.9752 164.681 64.3992 164.128 71.8563 164.148C87.087 164.187 102.318 164.148 117.521 162.929C131.805 161.786 146.124 162.178 160.438 162.178C174.752 162.178 189.697 162.316 204.27 164.652C210.62 165.67 217.089 166.025 223.47 166.737C229.184 167.376 234.676 166.724 240.369 166.134C245.147 165.64 249.899 164.171 254.24 161.687C257.678 159.721 263.805 153.613 264.859 148.923C267.816 135.77 223.211 136.086 216.362 136.116C208.702 136.148 200.98 136.451 193.325 136.099C190.104 135.951 186.933 135.2 183.79 134.373C180.66 133.549 177.505 133.76 174.331 133.414C161.094 131.975 147.825 132.186 134.544 132.186C130.222 132.186 125.897 132.14 121.573 132.156L121.584 132.159Z" fill="#2D2A27"/>
</g>
<path d="M222.387 114.764L222.36 134.663L197.585 134.63C197.628 134.176 197.651 133.711 197.651 133.247C197.664 124.481 190.413 117.363 181.456 117.35C172.499 117.34 165.232 124.438 165.222 133.204C165.222 133.672 165.242 134.133 165.282 134.587L37.9236 134.429L37.9434 120.443C37.9566 111.137 43.3823 102.648 51.9267 98.5672L76.2729 91.093L77.4841 91.0831L89.5665 64.9483C93.0351 57.4445 100.391 52.6682 108.457 52.6748L181.097 52.767C188.74 52.7769 191.225 62.2505 193.981 67.7878C197.116 74.0826 200.252 80.3775 203.39 86.6724C203.984 87.8648 204.578 89.0606 205.172 90.2497H205.486L215.888 99.9144C220.047 103.778 222.396 109.144 222.39 114.757L222.387 114.764Z" fill="url(#paint0_linear_5128_129145)"/>
<path d="M144.965 88.168L193.43 88.2273L182.456 61.6741C181.908 60.3532 180.651 59.4934 179.255 59.4902L145.001 59.4473L144.965 88.1647V88.168Z" fill="#E0F0FA"/>
<path d="M136.711 59.4407L108.949 59.4045C103.065 59.3979 97.7052 62.8797 95.1739 68.3544L86.0486 88.0955L136.672 88.1581L136.708 59.4407H136.711Z" fill="#E0F0FA"/>
<g opacity="0.2">
<path d="M183.78 68.101C184.423 68.4403 185.067 68.7796 185.71 69.1189L182.707 61.8523C182.159 60.5314 180.902 59.6716 179.506 59.6683L167.638 59.6519C172.998 62.5012 178.4 65.2748 183.776 68.0977L183.78 68.101Z" fill="#F4F4F2"/>
<path d="M184.71 74.4321C175.819 69.7085 166.473 64.3491 157.674 59.4673L146.542 59.6288C154.163 66.0455 163.796 71.7508 172.308 76.8862C177.423 79.9727 182.648 82.8945 187.997 85.5725C189.75 86.452 191.588 87.2492 193.426 88.0529L188.677 76.5601C187.357 75.8453 186.034 75.137 184.71 74.4321Z" fill="white"/>
<path d="M127.952 76.6162C124.213 74.2445 120.342 72.0572 116.441 69.9458C112.494 67.8079 108.49 65.6635 104.355 63.8979C102.992 63.3149 101.613 62.7747 100.236 62.2245C98.1012 63.753 96.3355 65.8414 95.1738 68.3547L95.0847 68.5458C99.2695 71.4149 103.484 74.251 107.639 77.1432C113.787 81.4221 120.576 84.6668 127.213 88.1453L136.672 88.1584L136.678 82.9539C133.771 80.8358 130.992 78.5465 127.949 76.6129L127.952 76.6162Z" fill="white"/>
</g>
<path opacity="0.1" d="M107.744 134.518C107.906 133.708 107.992 132.875 107.995 132.028C108.005 123.671 99.8533 116.886 89.7842 116.876C85.8535 116.872 82.2133 117.903 79.2332 119.656C85.441 120.944 90.9063 123.987 95.365 127.97C97.6356 129.999 99.4045 132.17 100.768 134.469L107.744 134.522V134.518Z" fill="black"/>
<path opacity="0.1" d="M203.248 134.637C203.406 133.827 203.492 132.993 203.492 132.147C203.502 123.79 195.542 117.007 185.714 116.994C181.875 116.991 178.321 118.022 175.413 119.774C181.473 121.059 186.813 124.106 191.166 128.088C193.383 130.117 195.109 132.288 196.439 134.584L203.251 134.637H203.248Z" fill="black"/>
<path d="M85.9921 148.617C94.9471 148.617 102.206 141.51 102.206 132.743C102.206 123.976 94.9471 116.869 85.9921 116.869C77.0372 116.869 69.7778 123.976 69.7778 132.743C69.7778 141.51 77.0372 148.617 85.9921 148.617Z" fill="#707D98"/>
<path d="M85.9921 141.752C91.0756 141.752 95.1966 137.718 95.1966 132.743C95.1966 127.767 91.0756 123.734 85.9921 123.734C80.9086 123.734 76.7876 127.767 76.7876 132.743C76.7876 137.718 80.9086 141.752 85.9921 141.752Z" fill="#F4F4F2"/>
<path opacity="0.1" d="M87.5992 139.021C89.3583 138.893 91.1305 138.287 92.3747 137.064C91.8269 138.636 90.4474 139.907 88.8104 140.345C88.256 140.494 87.6784 140.553 87.1009 140.589C86.4903 140.629 85.8765 140.645 85.2725 140.559C83.6455 140.329 82.1538 139.314 81.365 137.904C81.6224 138.362 83.4277 138.685 83.8765 138.767C85.1009 138.985 86.3517 139.113 87.5959 139.021H87.5992Z" fill="black"/>
<path opacity="0.3" d="M197.648 133.247C197.648 133.711 197.628 134.176 197.582 134.63L165.278 134.591C165.235 134.136 165.219 133.675 165.219 133.207C165.232 124.442 172.499 117.343 181.453 117.353C190.41 117.363 197.658 124.481 197.648 133.25V133.247Z" fill="#3B455A"/>
<path d="M179.595 137.19C176.922 136.172 175.595 133.224 176.634 130.605C177.674 127.986 180.687 126.688 183.36 127.71C186.034 128.727 187.36 131.676 186.321 134.294C185.281 136.913 182.268 138.211 179.595 137.19Z" fill="#EFEFEA"/>
<path opacity="0.1" d="M182.387 135.994C183.38 135.922 184.38 135.579 185.083 134.891C184.773 135.78 183.994 136.495 183.07 136.742C182.757 136.827 182.43 136.857 182.106 136.88C181.763 136.903 181.417 136.913 181.073 136.864C180.156 136.732 179.311 136.162 178.865 135.365C179.011 135.622 180.03 135.806 180.285 135.852C180.978 135.974 181.684 136.047 182.384 135.997L182.387 135.994Z" fill="black"/>
<path d="M124.415 96.2567L131.818 96.2657C132.207 96.2662 132.524 96.5828 132.523 96.9715L132.52 99.2707C132.52 99.6594 132.203 99.9752 131.813 99.9748L124.411 99.9657C124.021 99.9653 123.705 99.6487 123.705 99.26L123.708 96.9607C123.709 96.572 124.026 96.2562 124.415 96.2567Z" fill="white"/>
<path d="M79.1738 92.5293C79.1738 92.5293 63.24 68.2392 60.4578 64.6882C57.679 61.1405 52.3457 60.0963 47.4712 63.3409L48.7055 65.5578C48.7055 65.5578 54.0388 62.4417 57.6988 65.5414L75.9296 92.6183L79.1738 92.526V92.5293Z" fill="#587BC9"/>
<path d="M204.202 48.4978L202.558 47.1934L202.397 45.3751L201.984 45.2137L201.763 45.7012L201.185 44.2288L200.047 43.6029L198.473 44.3243L197.657 45.889L198.555 47.3449L200.364 48.32L202.529 50.1976L204.202 48.4978Z" fill="#EAC1A4"/>
<path d="M203.885 47.0549L213.116 53.8274L229.951 45.2004L231.888 55.85L214.895 62.7279L210.1 62.1712L200.166 49.2553L203.885 47.0549Z" fill="#8E929A"/>
<path d="M241.977 76.5035C241.373 73.5586 240.901 70.8377 240.855 69.3653C240.726 64.9315 240.145 50.283 240.145 50.283L237.334 44.6798H236.815C236.852 44.6798 236.891 44.6765 236.928 44.6733C236.875 44.1956 236.898 43.797 236.974 43.4512C241.878 43.741 246.901 46.2577 248.307 50.9286C248.423 51.314 248.512 51.706 248.545 52.1079C248.739 54.5092 247.99 56.2814 248.7 58.6926C249.314 60.7876 249.871 62.9156 250.281 65.0567C250.871 68.1597 251.419 71.2495 251.852 74.3294C252.327 77.742 252.663 81.1414 252.762 84.5244C252.772 84.8999 252.852 85.9441 252.894 87.1926C252.984 89.808 252.927 93.3096 251.802 93.4381C251.591 93.4611 251.39 93.3722 251.201 93.2832C249.753 92.5948 248.614 91.6955 247.337 90.9115L247.267 77.2644L241.977 76.5035Z" fill="#8E929A"/>
<path d="M216.113 90.5295C216.4 87.6241 216.7 84.7221 217.063 81.8267C217.793 76.0489 218.783 70.2877 220.459 64.6977C221.1 62.5632 221.839 60.455 222.578 58.3501C223.479 55.7874 224.377 53.2213 225.278 50.6586C226.396 47.4732 228.281 45.2267 231.585 44.1133C232.175 43.9157 232.796 43.7609 233.436 43.6489C233.452 43.7147 233.466 43.7806 233.476 43.8531C233.515 44.1594 233.604 44.4987 233.802 44.7194L231.634 44.7392C231.634 44.7392 225.515 65.6662 225.291 69.2731C225.205 70.6434 224.921 73.6377 224.604 76.7901L221.281 77.2677L221.139 89.3272C220.954 89.3799 220.769 89.4293 220.585 89.4787C219.532 89.7521 218.674 90.5031 217.796 91.0928C216.502 91.9624 215.935 92.3083 216.113 90.5295Z" fill="#8E929A"/>
<path d="M261.997 137.608L263.135 139.884L259.386 144.311L257.046 143.303L258.835 138.451L261.148 135.898L261.997 137.608Z" fill="#2E4661"/>
<path d="M261.634 136.702L251.202 114.777L245.641 88.2203L243.07 83.0289L228.733 87.1431L229.977 91.2409L241.377 118.035L258.505 139.024L261.634 136.702Z" fill="#8E929A"/>
<path d="M223.799 79.3298L222.314 110.735L225.826 142.15L229.413 142.275L232.743 113.522L238.717 84.8605L223.799 79.3298Z" fill="#8E929A"/>
<path d="M229.654 145.197L222.492 147.233L222.09 144.855L225.991 142.157L229.446 142.279L229.654 145.197Z" fill="#2E4661"/>
<path d="M224.604 76.7867C224.103 81.7772 223.522 87.1695 223.522 87.1695C223.522 87.1695 226.208 87.2321 230.093 87.5154C229.806 87.5088 229.519 87.5022 229.231 87.4989C226.529 87.4759 223.727 88.5991 221.139 89.3271L221.281 77.2677L224.604 76.79V76.7867Z" fill="#8E929A"/>
<path d="M242.736 89.0341C244.588 89.1296 244.819 88.7936 244.819 88.7936C244.819 88.7936 243.149 82.222 241.974 76.5069L247.264 77.2678L247.334 90.915C246.885 90.6383 246.419 90.378 245.918 90.1442C244.911 89.6764 243.839 89.3174 242.736 89.0341Z" fill="#8E929A"/>
<path d="M223.862 77.5609C224.205 74.3327 224.515 71.266 224.608 69.8627C224.852 66.1701 231.509 44.7359 231.509 44.7359L233.868 44.7161C233.895 44.7425 233.921 44.7688 233.951 44.7919C234.024 44.8512 234.109 44.8973 234.205 44.9269C234.396 44.9862 234.608 44.9632 234.809 44.9434C235.588 44.8578 236.37 44.7721 237.149 44.6898L237.713 44.6832L240.773 50.4214C240.773 50.4214 241.403 65.4191 241.545 69.9615C241.591 71.4702 242.106 74.257 242.766 77.271C244.043 83.1245 245.862 89.8542 245.862 89.8542C245.862 89.8542 245.611 90.1968 243.594 90.1012C242.347 90.0419 240.429 89.8147 237.472 89.2316C237.357 89.2184 237.245 89.2053 237.132 89.1954C234.822 88.9417 232.608 88.7507 230.637 88.6057C230.367 88.586 230.099 88.5662 229.839 88.5497C225.611 88.2599 222.687 88.194 222.687 88.194C222.687 88.194 223.317 82.6732 223.862 77.5642V77.5609Z" fill="white"/>
<path d="M230.004 36.9753C230.146 36.4087 229.875 35.8356 229.746 35.2657C229.713 35.1208 229.707 34.9726 229.717 34.8243C230.746 34.6497 231.786 34.2742 232.545 33.9514C234.123 33.2794 237.192 32.5613 238.829 33.3552C240.123 33.9843 239.727 35.9904 239.66 37.2586C239.644 37.5847 239.618 37.9174 239.694 38.2336C239.773 38.5597 239.981 38.7804 240.109 39.0571C239.964 39.5513 239.73 40.0223 239.344 40.4472C238.307 41.5935 237.251 42.1568 236.971 43.4514C236.895 43.7973 236.872 44.1958 236.925 44.6735C236.888 44.6768 236.849 44.6833 236.812 44.6866C236.096 44.769 235.38 44.8513 234.661 44.937C234.476 44.96 234.284 44.9798 234.106 44.9205C234.017 44.8909 233.941 44.848 233.872 44.7888C233.845 44.7657 233.819 44.7393 233.796 44.713C233.598 44.4923 233.509 44.153 233.469 43.8467C233.459 43.7775 233.446 43.7083 233.43 43.6424C233.149 42.4599 231.816 41.9295 231.1 40.882C230.284 39.6962 229.859 38.3127 229.677 36.9029C229.677 36.8798 229.671 36.8534 229.667 36.8304C229.773 36.8864 229.882 36.9358 229.997 36.972L230.004 36.9753Z" fill="#EAC1A4"/>
<path d="M225.76 28.5753C226.294 28.2196 226.911 27.9264 227.238 27.3631C227.492 26.925 227.528 26.3848 227.779 25.9467C228.231 25.1528 229.215 24.919 230.073 24.6488C232.215 23.9769 233.367 23.1995 235.634 24.0592C237.245 24.6719 239.33 24.7543 240.825 25.6469C241.449 26.0192 241.98 26.6187 242.419 27.2874C243.931 29.5998 244.294 32.8543 243.31 35.2655C243.089 35.8057 242.809 36.3031 242.512 36.7775C241.914 37.7294 241.271 38.8988 240.211 39.3633C240.195 39.248 240.159 39.1459 240.112 39.0503C239.984 38.7769 239.776 38.5562 239.697 38.2268C239.621 37.9106 239.647 37.5779 239.664 37.2518C239.73 35.9836 240.126 33.9775 238.832 33.3484C237.195 32.5512 234.126 33.2693 232.548 33.9446C231.792 34.2674 230.75 34.6429 229.72 34.8175C229.71 34.969 229.72 35.1173 229.75 35.2589C229.878 35.8255 230.149 36.4019 230.007 36.9685C229.891 36.929 229.783 36.8829 229.677 36.8269C228.967 36.4481 228.482 35.6838 228.192 34.8966C227.878 34.8636 227.581 34.7977 227.314 34.6825C225.934 34.0895 224.812 31.7277 224.859 30.275C224.882 29.5932 225.146 28.9871 225.766 28.5753H225.76Z" fill="#3B455A"/>
<path d="M197.75 0.0195819L196.393 0.480749C196.179 0.553218 196.086 0.806858 196.189 1.04732L201.786 13.9434C202.063 14.5792 202.096 15.2578 201.882 15.8507C201.667 16.4436 201.232 16.8784 200.657 17.0761L185.578 22.2049C185.001 22.4025 184.351 22.3366 183.74 22.0204C183.133 21.7075 182.644 21.1837 182.367 20.548L176.912 7.97796C176.809 7.74079 176.549 7.60573 176.334 7.6782L174.978 8.13937C174.763 8.21183 174.671 8.46548 174.773 8.70594L180.229 21.276C180.78 22.5442 181.747 23.5851 182.951 24.2076C184.159 24.8302 185.456 24.9587 186.601 24.5667L201.68 19.4379C202.829 19.0492 203.694 18.1862 204.119 17.0069C204.545 15.8276 204.476 14.4804 203.925 13.2155L198.327 0.31934C198.225 0.0821696 197.964 -0.0528867 197.75 0.0195819Z" fill="#BCBEC0"/>
<path d="M244.455 99.6343C248.254 100.916 252.396 98.9392 253.706 95.2203C254.396 93.2603 254.161 91.2081 253.227 89.515L252.029 87.9174L208.281 29.5999C212.073 24.01 212.175 15.9857 207.921 9.18024C205.436 5.20435 201.875 2.30231 197.971 0.69812L203.809 14.1476C204.664 16.1142 203.901 18.2224 202.119 18.8252L187.04 23.954C185.261 24.5601 183.103 23.4467 182.248 21.4801L176.529 8.29744C174.05 13.6667 174.45 20.5249 178.159 26.464C182.146 32.8445 188.898 36.4614 195.42 36.3856L240.68 96.7224L241.267 97.5063C242.086 98.455 243.168 99.206 244.455 99.6409V99.6343Z" fill="#BCBEC0"/>
<path d="M243.099 99.519C246.898 100.8 251.039 98.8239 252.35 95.105C253.039 93.145 252.805 91.0928 251.871 89.3997L250.673 87.8021L206.925 29.4846C210.717 23.8914 210.819 15.8704 206.565 9.06495C204.08 5.08906 200.519 2.18702 196.614 0.582825L202.453 14.0323C203.307 15.9989 202.545 18.1071 200.763 18.7099L185.684 23.8387C183.905 24.4448 181.747 23.3314 180.892 21.3648L175.172 8.18215C172.694 13.5514 173.093 20.4096 176.803 26.3487C180.79 32.7292 187.542 36.3461 194.063 36.2703L239.323 96.607L239.911 97.391C240.729 98.3397 241.812 99.0907 243.099 99.5256V99.519Z" fill="#DBDBDB"/>
<path d="M197.162 0.204092L195.806 0.665254C195.591 0.737722 195.499 0.991363 195.601 1.23183L201.199 14.1279C201.473 14.7637 201.509 15.4423 201.294 16.0352C201.08 16.6281 200.644 17.0629 200.07 17.2606L184.991 22.3894C184.413 22.587 183.763 22.5211 183.153 22.2049C182.545 21.892 182.057 21.3682 181.78 20.7325L176.324 8.16246C176.222 7.92529 175.961 7.79024 175.747 7.86271L174.39 8.32387C174.176 8.39634 174.083 8.64998 174.186 8.89044L179.641 21.4605C180.192 22.7287 181.159 23.7696 182.364 24.3921C183.572 25.0147 184.869 25.1432 186.014 24.7512L201.093 19.6224C202.242 19.2337 203.106 18.3707 203.532 17.1914C203.958 16.0121 203.888 14.6649 203.337 13.4L197.74 0.503844C197.638 0.266674 197.377 0.131623 197.162 0.204092Z" fill="#BCBEC0"/>
<path d="M247.765 88.2632L211.033 39.2975C210.353 38.3884 209.159 38.1248 208.38 38.7046L203.921 42.0349C203.142 42.6179 203.063 43.8367 203.743 44.7425L240.475 93.7083C241.155 94.6174 242.35 94.8842 243.129 94.3012L247.587 90.9709C248.366 90.3879 248.445 89.1691 247.765 88.2632Z" fill="#BCBEC0"/>
<path d="M239.911 97.3846L239.323 96.6006C239.502 96.874 239.696 97.1342 239.911 97.3846Z" fill="#DBDBDB"/>
<path d="M223.584 69.8234L221.485 70.0705L220.04 68.9208L219.634 69.0987L219.835 69.5928L218.357 68.9768L217.102 69.3392L216.538 70.95L217.119 72.6101L218.812 72.9923L220.782 72.3993L223.67 72.1852L223.584 69.8234Z" fill="#EAC1A4"/>
<path d="M222.307 69.0427L233.7 67.2672L240.532 49.9571L248.244 55.4779L241.469 72.2115L237.723 75.1926L221.334 73.1899L222.307 69.0427Z" fill="#8E929A"/>
<path d="M181.901 149.14C191.228 149.14 198.789 141.738 198.789 132.607C198.789 123.477 191.228 116.075 181.901 116.075C172.575 116.075 165.014 123.477 165.014 132.607C165.014 141.738 172.575 149.14 181.901 149.14Z" fill="#707D98"/>
<path d="M178.426 141.349C173.494 139.469 171.05 134.031 172.968 129.201C174.886 124.37 180.444 121.979 185.376 123.859C190.309 125.739 192.753 131.177 190.835 136.007C188.917 140.838 183.359 143.229 178.426 141.349Z" fill="#F4F4F2"/>
<path opacity="0.1" d="M183.575 139.143C185.407 139.009 187.253 138.378 188.549 137.105C187.978 138.742 186.542 140.066 184.837 140.522C184.259 140.677 183.658 140.738 183.056 140.776C182.42 140.817 181.781 140.834 181.152 140.745C179.457 140.505 177.904 139.448 177.082 137.98C177.35 138.457 179.231 138.793 179.698 138.879C180.973 139.105 182.276 139.239 183.572 139.143H183.575Z" fill="black"/>
<path d="M49.7089 75.6603C49.1248 75.6406 48.5571 75.69 48.0093 75.8053C47.5208 72.2247 44.3393 69.3951 40.3658 69.2534C37.6827 69.1579 35.2603 70.3108 33.7289 72.1588C32.9699 70.4591 31.1745 69.2732 29.0887 69.293C26.7818 69.316 24.8545 70.8049 24.3099 72.8077C23.5178 72.0204 22.4122 71.5098 21.1713 71.467C18.6565 71.3781 16.5377 73.2195 16.4387 75.578C16.4387 75.6241 16.4387 75.6702 16.4387 75.7163C15.9965 75.6109 15.5344 75.545 15.0592 75.5286C11.4091 75.4001 8.33651 78.0683 8.1979 81.4908C8.08239 84.294 9.97015 86.7349 12.6599 87.5946C12.5213 88.1019 12.4388 88.6256 12.4157 89.1691C12.244 93.3229 15.6929 96.8146 20.1185 96.9727C22.3429 97.0518 24.3891 96.2711 25.9006 94.9502C26.135 97.3482 28.2933 99.2126 30.9072 99.1896C33.4385 99.1665 35.5078 97.3746 35.8048 95.0786C36.9599 96.4852 38.7487 97.4174 40.7882 97.4931C43.7552 97.5986 46.3393 95.856 47.2799 93.3591C47.907 93.705 48.6363 93.9158 49.4152 93.9455C51.93 94.0344 54.0488 92.1964 54.1478 89.8345C54.1907 88.7673 53.8145 87.7758 53.1544 87.0017C54.8442 85.9311 55.9861 84.149 56.0686 82.0936C56.2105 78.6711 53.3656 75.7888 49.7188 75.6603H49.7089ZM45.9268 87.1203C45.9268 87.1203 45.9103 87.1005 45.9004 87.0939C45.9103 87.1005 45.9235 87.1071 45.9334 87.1137C45.9334 87.1137 45.9301 87.1202 45.9268 87.1235V87.1203Z" fill="#E0F0FA"/>
<path opacity="0.2" d="M52.7749 76.4938C53.3359 77.449 53.6329 78.5525 53.5867 79.7186C53.5009 81.7741 52.359 83.5562 50.6726 84.6267C51.3326 85.4008 51.7122 86.3923 51.666 87.4596C51.5669 89.8181 49.4515 91.6595 46.9333 91.5705C46.1545 91.5442 45.4251 91.3334 44.7981 90.9842C43.8575 93.4778 41.2734 95.2236 38.3064 95.1182C36.2668 95.0457 34.4781 94.1135 33.323 92.7037C33.0259 94.9996 30.9567 96.7883 28.4253 96.8146C27.6597 96.8212 26.9336 96.6664 26.2834 96.3831C27.0557 98.0499 28.8346 99.2094 30.8972 99.1896C33.4286 99.1666 35.4978 97.3746 35.7949 95.0787C36.95 96.4852 38.7387 97.4174 40.7783 97.4932C43.7453 97.5986 46.3294 95.8561 47.27 93.3592C47.897 93.7051 48.6264 93.9159 49.4053 93.9455C51.9201 94.0345 54.0389 92.1964 54.1379 89.8346C54.1808 88.7673 53.8045 87.7758 53.1445 87.0017C54.8342 85.9312 55.9761 84.1491 56.0586 82.0969C56.1576 79.7252 54.821 77.6137 52.7749 76.4971V76.4938Z" fill="#587BC9"/>
<defs>
<linearGradient id="paint0_linear_5128_129145" x1="130.157" y1="52.6747" x2="130.157" y2="134.663" gradientUnits="userSpaceOnUse">
<stop stop-color="#5691CF"/>
<stop offset="0.46875" stop-color="#2469B1"/>
<stop offset="1" stop-color="#02458B"/>
</linearGradient>
</defs>
</svg>
