<svg width="19" height="10" viewBox="0 0 19 10" fill="none" xmlns="http://www.w3.org/2000/svg">
<path d="M8.7875 9.5H4.75C3.43583 9.5 2.31562 9.06125 1.38937 8.18375C0.463125 7.30625 0 6.245 0 5C0 3.755 0.463125 2.69375 1.38937 1.81625C2.31562 0.93875 3.43583 0.5 4.75 0.5H8.7875V1.85H4.75C3.82639 1.85 3.04132 2.15574 2.39478 2.76721C1.74826 3.37867 1.425 4.12117 1.425 4.99471C1.425 5.86824 1.74826 6.6125 2.39478 7.2275C3.04132 7.8425 3.82639 8.15 4.75 8.15H8.7875V9.5ZM5.81875 5.675V4.325H13.1812V5.675H5.81875ZM10.2125 9.5V8.15H14.25C15.1736 8.15 15.9587 7.84426 16.6052 7.23279C17.2517 6.62133 17.575 5.87883 17.575 5.00529C17.575 4.13176 17.2517 3.3875 16.6052 2.7725C15.9587 2.1575 15.1736 1.85 14.25 1.85H10.2125V0.5H14.25C15.5642 0.5 16.6844 0.93875 17.6106 1.81625C18.5369 2.69375 19 3.755 19 5C19 6.245 18.5369 7.30625 17.6106 8.18375C16.6844 9.06125 15.5642 9.5 14.25 9.5H10.2125Z" fill="url(#paint0_linear_3604_143797)"/>
<defs>
<linearGradient id="paint0_linear_3604_143797" x1="9.5" y1="0.5" x2="9.5" y2="17.6563" gradientUnits="userSpaceOnUse">
<stop stop-color="#3390EC"/>
<stop offset="1" stop-color="#0E559C"/>
</linearGradient>
</defs>
</svg>
