<svg width="24" height="24" viewBox="0 0 24 24" fill="none" xmlns="http://www.w3.org/2000/svg">
<path d="M11.9545 0.967712C10.5504 0.967712 9.20381 1.52548 8.21097 2.51832C7.21813 3.51116 6.66036 4.85774 6.66036 6.26183V8.37948H5.60153C5.0399 8.37948 4.50127 8.60259 4.10413 8.99972C3.707 9.39686 3.48389 9.93549 3.48389 10.4971V21.0854C3.48389 21.647 3.707 22.1856 4.10413 22.5828C4.50127 22.9799 5.0399 23.203 5.60153 23.203H18.3074C18.8691 23.203 19.4077 22.9799 19.8048 22.5828C20.202 22.1856 20.4251 21.647 20.4251 21.0854V10.4971C20.4251 9.93549 20.202 9.39686 19.8048 8.99972C19.4077 8.60259 18.8691 8.37948 18.3074 8.37948H17.2486V6.26183C17.2486 5.5666 17.1117 4.87817 16.8456 4.23586C16.5795 3.59355 16.1896 3.00993 15.698 2.51832C15.2064 2.02672 14.6228 1.63676 13.9804 1.3707C13.3381 1.10465 12.6497 0.967712 11.9545 0.967712ZM11.9545 2.97948C13.7651 2.97948 15.2368 4.45124 15.2368 6.26183V8.37948H8.67212V6.26183C8.67212 4.45124 10.1439 2.97948 11.9545 2.97948Z" fill="#212B36"/>
<circle cx="11.8221" cy="16.056" r="4.63235" fill="#E5EEFF"/>
<path d="M11.9139 13.0118C12.5812 13.0118 13.1137 13.1623 13.497 13.4559C13.8804 13.7568 14.0721 14.1579 14.0721 14.6592C14.0721 14.9744 13.9656 15.2537 13.7597 15.5188C13.5538 15.7766 13.2841 15.9772 12.9575 16.1276C12.7729 16.235 12.6522 16.3425 12.5883 16.4642C12.5244 16.5932 12.4889 16.7507 12.4889 16.9513H11.069C11.069 16.5932 11.14 16.3496 11.2749 16.1777C11.424 16.0058 11.6654 15.8053 12.0346 15.5761C12.2191 15.4758 12.3682 15.3469 12.4889 15.1893C12.5883 15.0389 12.6451 14.8598 12.6451 14.6592C12.6451 14.4444 12.5812 14.2868 12.4534 14.165C12.3256 14.0361 12.134 13.9788 11.9139 13.9788C11.7222 13.9788 11.566 14.0289 11.424 14.1292C11.3104 14.2295 11.2394 14.3799 11.2394 14.5805H9.84084C9.80535 14.0862 10.0041 13.6565 10.3946 13.3986C10.778 13.1408 11.282 13.0118 11.9139 13.0118ZM11.069 17.6676H12.4889V19.1001H11.069V17.6676Z" fill="#005BEA"/>
</svg>
