<svg width="260" height="892" viewBox="0 0 270 892" fill="none" xmlns="http://www.w3.org/2000/svg">
<g filter="url(#filter0_d_2689_85717)">
<g clip-path="url(#clip0_2689_85717)">
<g filter="url(#filter1_b_2689_85717)">
<path d="M6.40234 12H253.402C264.448 12 273.402 20.9543 273.402 32V842C273.402 853.046 264.448 862 253.402 862H6.40234V12Z" fill="#0382C1" fill-opacity="0.8"/>
</g>
<path d="M138.403 189.5C93.4023 551.5 429.903 610 117.903 865.5C-257.001 1172.51 -230.598 1236.09 -230.598 1111C-230.598 985.907 -141.765 -277 -95.0968 -277C-48.4288 -277 138.403 64.4075 138.403 189.5Z" fill="url(#paint0_linear_2689_85717)" fill-opacity="0.33"/>
</g>
</g>
<defs>
<filter id="filter0_d_2689_85717" x="0" y="0" width="299" height="882" filterUnits="userSpaceOnUse" color-interpolation-filters="sRGB">
<feFlood flood-opacity="0" result="BackgroundImageFix"/>
<feColorMatrix in="SourceAlpha" type="matrix" values="0 0 0 0 0 0 0 0 0 0 0 0 0 0 0 0 0 0 127 0" result="hardAlpha"/>
<feOffset dx="10" dy="4"/>
<feGaussianBlur stdDeviation="8"/>
<feComposite in2="hardAlpha" operator="out"/>
<feColorMatrix type="matrix" values="0 0 0 0 0 0 0 0 0 0 0 0 0 0 0 0 0 0 0.25 0"/>
<feBlend mode="normal" in2="BackgroundImageFix" result="effect1_dropShadow_2689_85717"/>
<feBlend mode="normal" in="SourceGraphic" in2="effect1_dropShadow_2689_85717" result="shape"/>
</filter>
<filter id="filter1_b_2689_85717" x="-3.59766" y="2" width="287" height="870" filterUnits="userSpaceOnUse" color-interpolation-filters="sRGB">
<feFlood flood-opacity="0" result="BackgroundImageFix"/>
<feGaussianBlur in="BackgroundImageFix" stdDeviation="5"/>
<feComposite in2="SourceAlpha" operator="in" result="effect1_backgroundBlur_2689_85717"/>
<feBlend mode="normal" in="SourceGraphic" in2="effect1_backgroundBlur_2689_85717" result="shape"/>
</filter>
<linearGradient id="paint0_linear_2689_85717" x1="72.6524" y1="-3.00014" x2="72.6524" y2="923.5" gradientUnits="userSpaceOnUse">
<stop stop-color="#0088CC"/>
<stop offset="1" stop-color="#006496"/>
</linearGradient>
<clipPath id="clip0_2689_85717">
<path d="M6 12H253C264.046 12 273 20.9543 273 32V842C273 853.046 264.046 862 253 862H6V12Z" fill="white"/>
</clipPath>
</defs>
</svg>
