<svg width="13" height="13" viewBox="0 0 13 13" fill="none" xmlns="http://www.w3.org/2000/svg">
<path d="M7.95 11.7V12.2H8.45H8.6V12.5H0.5V12.2H0.65H1.15V11.7V1.3C1.15 0.861142 1.51114 0.5 1.95 0.5H7.15C7.36217 0.5 7.56566 0.584285 7.71569 0.734315C7.86571 0.884344 7.95 1.08783 7.95 1.3V6V6.5V7.8V8.3V11.7ZM8.95 7.3V7H9.1C9.31217 7 9.51566 7.08429 9.66568 7.23431C9.81571 7.38434 9.9 7.58783 9.9 7.8V9.75C9.9 10.055 10.0212 10.3475 10.2368 10.5632C10.4525 10.7788 10.745 10.9 11.05 10.9C11.355 10.9 11.6475 10.7788 11.8632 10.5632C12.0788 10.3475 12.2 10.055 12.2 9.75V6.5V6.29289L12.0536 6.14645L10.9 4.99289V3.9V3.80711L12.5 5.40711V9.75C12.5 10.1346 12.3472 10.5034 12.0753 10.7753C11.8034 11.0472 11.4346 11.2 11.05 11.2C10.6654 11.2 10.2966 11.0472 10.0247 10.7753C9.75277 10.5034 9.6 10.1346 9.6 9.75V7.8V7.3H9.1H8.95ZM1.95 0.8H1.45V1.3V5.2V5.7H1.95H7.15H7.65V5.2V1.3V0.8H7.15H1.95Z" stroke="black"/>
</svg>
