<svg width="35" height="36" viewBox="0 0 35 36" fill="none" xmlns="http://www.w3.org/2000/svg">
    <defs>
        <linearGradient id="paint0_linear_2353_85604" x1="17.5" y1="8" x2="17.5" y2="27" gradientUnits="userSpaceOnUse">
            <stop stop-color="#0088CC"/>
            <stop offset="1" stop-color="#006496"/>
        </linearGradient>
    </defs><rect y="0.5" width="35" height="35" rx="17.5" fill="#E6EEFF"/>
<path d="M17.4208 27C14.7995 27 12.5741 26.072 10.7444 24.216C8.91481 22.36 8 20.1125 8 17.4736H9.58333C9.58333 19.6727 10.3398 21.5463 11.8528 23.0944C13.3657 24.6426 15.2218 25.4167 17.4208 25.4167C19.6551 25.4167 21.5463 24.6338 23.0944 23.0681C24.6426 21.5023 25.4167 19.6023 25.4167 17.3681C25.4167 15.1866 24.6338 13.3438 23.0681 11.8396C21.5023 10.3354 19.6199 9.58333 17.4208 9.58333C16.2245 9.58333 15.103 9.85602 14.0563 10.4014C13.0095 10.9468 12.0991 11.6681 11.325 12.5653H14.0958V14.1486H8.58056V8.65972H10.1639V11.4569C11.0787 10.3838 12.165 9.53935 13.4229 8.92361C14.6808 8.30787 16.0134 8 17.4208 8C18.7403 8 19.9806 8.2463 21.1417 8.73889C22.3028 9.23148 23.3188 9.9044 24.1896 10.7576C25.0604 11.6109 25.7465 12.6093 26.2479 13.7528C26.7493 14.8963 27 16.1278 27 17.4472C27 18.7667 26.7493 20.0069 26.2479 21.1681C25.7465 22.3292 25.0604 23.3407 24.1896 24.2028C23.3188 25.0648 22.3028 25.7465 21.1417 26.2479C19.9806 26.7493 18.7403 27 17.4208 27ZM20.7986 21.8014L16.7347 17.7903V12.1431H18.3181V17.1306L21.9333 20.6667L20.7986 21.8014Z" fill="url(#paint0_linear_2353_85604)"/>

</svg>
