<svg width="19" height="19" viewBox="0 0 19 19" fill="none" xmlns="http://www.w3.org/2000/svg">
<path d="M9.42083 19C6.79954 19 4.57407 18.072 2.74444 16.216C0.914815 14.36 0 12.1125 0 9.47361H1.58333C1.58333 11.6727 2.33982 13.5463 3.85278 15.0944C5.36574 16.6426 7.22176 17.4167 9.42083 17.4167C11.6551 17.4167 13.5463 16.6338 15.0944 15.0681C16.6426 13.5023 17.4167 11.6023 17.4167 9.36806C17.4167 7.18657 16.6338 5.34375 15.0681 3.83958C13.5023 2.33542 11.6199 1.58333 9.42083 1.58333C8.22454 1.58333 7.10301 1.85602 6.05625 2.40139C5.00949 2.94676 4.09907 3.66806 3.325 4.56528H6.09583V6.14861H0.580556V0.659722H2.16389V3.45694C3.0787 2.3838 4.16505 1.53935 5.42292 0.923611C6.68079 0.30787 8.01343 0 9.42083 0C10.7403 0 11.9806 0.246296 13.1417 0.738889C14.3028 1.23148 15.3188 1.9044 16.1896 2.75764C17.0604 3.61088 17.7465 4.60926 18.2479 5.75278C18.7493 6.8963 19 8.12778 19 9.44722C19 10.7667 18.7493 12.0069 18.2479 13.1681C17.7465 14.3292 17.0604 15.3407 16.1896 16.2028C15.3188 17.0648 14.3028 17.7465 13.1417 18.2479C11.9806 18.7493 10.7403 19 9.42083 19ZM12.7986 13.8014L8.73472 9.79028V4.14306H10.3181V9.13056L13.9333 12.6667L12.7986 13.8014Z" fill="url(#paint0_linear_3604_143847)"/>
<defs>
<linearGradient id="paint0_linear_3604_143847" x1="9.5" y1="0" x2="9.5" y2="36.2188" gradientUnits="userSpaceOnUse">
<stop stop-color="#3390EC"/>
<stop offset="1" stop-color="#0E559C"/>
</linearGradient>
</defs>
</svg>
