<svg width="35" height="36" viewBox="0 0 35 36" fill="none" xmlns="http://www.w3.org/2000/svg">
    <defs>
        <linearGradient id="paint0_linear_2353_85554" x1="17.5" y1="13.5" x2="17.5" y2="22.5" gradientUnits="userSpaceOnUse">
            <stop stop-color="#0088CC"/>
            <stop offset="1" stop-color="#006496"/>
        </linearGradient>
    </defs> <rect y="0.5" width="35" height="35" rx="17.5" fill="#E6EEFF"/>
<path d="M16.7875 22.5H12.75C11.4358 22.5 10.3156 22.0613 9.38937 21.1838C8.46312 20.3063 8 19.245 8 18C8 16.755 8.46312 15.6938 9.38937 14.8163C10.3156 13.9388 11.4358 13.5 12.75 13.5H16.7875V14.85H12.75C11.8264 14.85 11.0413 15.1557 10.3948 15.7672C9.74826 16.3787 9.425 17.1212 9.425 17.9947C9.425 18.8682 9.74826 19.6125 10.3948 20.2275C11.0413 20.8425 11.8264 21.15 12.75 21.15H16.7875V22.5ZM13.8187 18.675V17.325H21.1812V18.675H13.8187ZM18.2125 22.5V21.15H22.25C23.1736 21.15 23.9587 20.8443 24.6052 20.2328C25.2517 19.6213 25.575 18.8788 25.575 18.0053C25.575 17.1318 25.2517 16.3875 24.6052 15.7725C23.9587 15.1575 23.1736 14.85 22.25 14.85H18.2125V13.5H22.25C23.5642 13.5 24.6844 13.9388 25.6106 14.8163C26.5369 15.6938 27 16.755 27 18C27 19.245 26.5369 20.3063 25.6106 21.1838C24.6844 22.0613 23.5642 22.5 22.25 22.5H18.2125Z" fill="url(#paint0_linear_2353_85554)"/>

</svg>
