<svg width="20" height="21" viewBox="0 0 20 21" fill="none" xmlns="http://www.w3.org/2000/svg">
<path d="M4.18173 10.2128C4.18173 9.56415 4.28946 8.94231 4.48173 8.35905L1.11627 5.78906C0.460366 7.12081 0.0908203 8.6214 0.0908203 10.2128C0.0908203 11.8028 0.459911 13.3025 1.11491 14.6333L4.47855 12.0583C4.28809 11.4778 4.18173 10.8582 4.18173 10.2128" fill="white"/>
<path d="M10.0908 4.31216C11.4998 4.31216 12.7726 4.81145 13.7726 5.62847L16.6817 2.7235C14.9089 1.18024 12.6362 0.227051 10.0908 0.227051C6.13894 0.227051 2.74257 2.48702 1.11621 5.78915L4.48167 8.35914C5.25712 6.00521 7.46757 4.31216 10.0908 4.31216" fill="white"/>
<path d="M10.0908 16.1134C7.46757 16.1134 5.25712 14.4203 4.48167 12.0664L1.11621 14.6359C2.74257 17.9385 6.13894 20.1985 10.0908 20.1985C12.5298 20.1985 14.8585 19.3324 16.6062 17.7098L13.4117 15.2401C12.5103 15.8079 11.3753 16.1134 10.0908 16.1134" fill="white"/>
<path d="M19.6363 10.2131C19.6363 9.62299 19.5454 8.98753 19.409 8.39746H10.0908V12.2556H15.4545C15.1863 13.571 14.4563 14.5823 13.4117 15.2405L16.6063 17.7101C18.4422 16.0062 19.6363 13.468 19.6363 10.2131" fill="white"/>
</svg>
