<svg width="25" height="24" viewBox="0 0 25 24" fill="none" xmlns="http://www.w3.org/2000/svg">
<path d="M6.68179 12.2128C6.68179 11.5642 6.78952 10.9423 6.98179 10.359L3.61634 7.78906C2.96043 9.12081 2.59088 10.6214 2.59088 12.2128C2.59088 13.8028 2.95997 15.3025 3.61497 16.6333L6.97861 14.0583C6.78815 13.4778 6.68179 12.8582 6.68179 12.2128Z" fill="white"/>
<path d="M12.5909 6.31204C14 6.31204 15.2727 6.81133 16.2727 7.62835L19.1818 4.72338C17.4091 3.18012 15.1363 2.22693 12.5909 2.22693C8.63906 2.22693 5.2427 4.4869 3.61633 7.78903L6.98179 10.359C7.75724 8.00508 9.9677 6.31204 12.5909 6.31204Z" fill="white"/>
<path d="M12.5909 18.1135C9.9677 18.1135 7.75724 16.4205 6.98179 14.0665L3.61633 16.6361C5.2427 19.9386 8.63906 22.1986 12.5909 22.1986C15.03 22.1986 17.3586 21.3326 19.1063 19.7099L15.9118 17.2402C15.0104 17.808 13.8754 18.1135 12.5909 18.1135Z" fill="white"/>
<path d="M22.1363 12.2127C22.1363 11.6226 22.0454 10.9872 21.9091 10.3971H12.5909V14.2553H17.9545C17.6863 15.5707 16.9563 16.5819 15.9118 17.2401L19.1063 19.7098C20.9422 18.0058 22.1363 15.4676 22.1363 12.2127Z" fill="white"/>
</svg>
