<svg width="44" height="44" viewBox="0 0 44 44" fill="none" xmlns="http://www.w3.org/2000/svg">
    <mask id="path-1-outside-1_980_26224" maskUnits="userSpaceOnUse" x="0" y="0" width="44" height="44" fill="black">
        <rect fill="white" width="44" height="44"/>
        <path fill-rule="evenodd" clip-rule="evenodd" d="M22 2C10.9543 2 2 10.9543 2 22C2 33.0457 10.9543 42 22 42C33.0457 42 42 33.0457 42 22C42 16.6957 39.8929 11.6086 36.1421 7.85786C32.3914 4.10714 27.3043 2 22 2ZM24 30C24 31.1046 23.1046 32 22 32C20.8954 32 20 31.1046 20 30V20C20 18.8954 20.8954 18 22 18C23.1046 18 24 18.8954 24 20V30ZM20 14C20 15.1046 20.8954 16 22 16C23.1046 16 24 15.1046 24 14C24 12.8954 23.1046 12 22 12C20.8954 12 20 12.8954 20 14Z"/>
    </mask>
    <path fill-rule="evenodd" clip-rule="evenodd" d="M22 2C10.9543 2 2 10.9543 2 22C2 33.0457 10.9543 42 22 42C33.0457 42 42 33.0457 42 22C42 16.6957 39.8929 11.6086 36.1421 7.85786C32.3914 4.10714 27.3043 2 22 2ZM24 30C24 31.1046 23.1046 32 22 32C20.8954 32 20 31.1046 20 30V20C20 18.8954 20.8954 18 22 18C23.1046 18 24 18.8954 24 20V30ZM20 14C20 15.1046 20.8954 16 22 16C23.1046 16 24 15.1046 24 14C24 12.8954 23.1046 12 22 12C20.8954 12 20 12.8954 20 14Z" fill="#1890FF"/>
    <path d="M4 22C4 12.0589 12.0589 4 22 4V0C9.84974 0 0 9.84974 0 22H4ZM22 40C12.0589 40 4 31.9411 4 22H0C0 34.1503 9.84974 44 22 44V40ZM40 22C40 31.9411 31.9411 40 22 40V44C34.1503 44 44 34.1503 44 22H40ZM34.7279 9.27208C38.1036 12.6477 40 17.2261 40 22H44C44 16.1652 41.6822 10.5695 37.5563 6.44365L34.7279 9.27208ZM22 4C26.7739 4 31.3523 5.89642 34.7279 9.27208L37.5563 6.44365C33.4305 2.31785 27.8348 0 22 0V4ZM22 34C24.2091 34 26 32.2091 26 30H22V34ZM18 30C18 32.2091 19.7909 34 22 34V30H18ZM18 20V30H22V20H18ZM22 16C19.7909 16 18 17.7909 18 20H22V16ZM26 20C26 17.7909 24.2091 16 22 16V20H26ZM26 30V20H22V30H26ZM22 14H18C18 16.2091 19.7909 18 22 18V14ZM22 14V18C24.2091 18 26 16.2091 26 14H22ZM22 14H26C26 11.7909 24.2091 10 22 10V14ZM22 14V10C19.7909 10 18 11.7909 18 14H22Z" fill="white" mask="url(#path-1-outside-1_980_26224)"/>
</svg>
