<svg width="40" height="40" viewBox="0 0 40 40" fill="none" xmlns="http://www.w3.org/2000/svg">
    <defs>
        <linearGradient id="paint0_linear_763_47517" x1="8.81818" y1="20.2727" x2="30.5325" y2="20.2727" gradientUnits="userSpaceOnUse">
            <stop stop-color="#57EBA7"/>
            <stop offset="1" stop-color="#009EFD"/>
        </linearGradient>
    </defs><circle cx="19.5" cy="20" r="19.5" fill="#0055FF" fill-opacity="0.1"/>
<path d="M30.025 16.9392H27.4851L26.7798 15.2056C26.4299 14.338 25.8219 13.594 25.0352 13.0709C24.2484 12.5477 23.3195 12.2696 22.3695 12.2727H16.9828C16.0328 12.2697 15.1039 12.5479 14.3172 13.071C13.5305 13.5942 12.9225 14.338 12.5725 15.2056L11.8671 16.9392H9.32725C9.24988 16.9391 9.17352 16.9564 9.10397 16.9898C9.03443 17.0231 8.97354 17.0716 8.92593 17.1315C8.87832 17.1914 8.84524 17.2612 8.82921 17.3355C8.81319 17.4099 8.81463 17.4869 8.83344 17.5606L9.08837 18.5605C9.11595 18.6686 9.17953 18.7646 9.269 18.8332C9.35847 18.9017 9.46871 18.939 9.58219 18.9389H10.432C10.139 19.1868 9.90371 19.4936 9.7421 19.8387C9.58048 20.1837 9.49632 20.5589 9.49532 20.9387V22.9394C9.49744 23.5836 9.73883 24.205 10.1742 24.6869V26.9398C10.1744 27.2934 10.3176 27.6324 10.5722 27.8824C10.8268 28.1323 11.172 28.2727 11.532 28.2727H12.8897C13.2495 28.2725 13.5945 28.132 13.8489 27.882C14.1032 27.6321 14.2463 27.2933 14.2465 26.9398V25.606H25.1048V26.9389C25.1051 27.2923 25.2481 27.6312 25.5025 27.8811C25.7569 28.131 26.1019 28.2715 26.4616 28.2718H27.8184C28.1782 28.2715 28.5232 28.131 28.7776 27.8811C29.032 27.6312 29.175 27.2923 29.1753 26.9389V24.6859C29.6108 24.2042 29.8522 23.5828 29.8541 22.9385V20.9396C29.8532 20.5599 29.7691 20.1848 29.6077 19.8398C29.4463 19.4947 29.2112 19.1878 28.9184 18.9399H29.7682C29.8817 18.9399 29.9919 18.9027 30.0814 18.8341C30.1709 18.7655 30.2344 18.6695 30.262 18.5614L30.517 17.5615C30.5359 17.4879 30.5375 17.411 30.5217 17.3366C30.5058 17.2623 30.4729 17.1925 30.4255 17.1325C30.3781 17.0725 30.3174 17.0239 30.248 16.9904C30.1786 16.9569 30.1024 16.9394 30.025 16.9392ZM15.0925 16.1971C15.2436 15.8264 15.5041 15.5085 15.8407 15.2845C16.1773 15.0605 16.5744 14.9406 16.9809 14.9403H22.3676C22.7741 14.9406 23.1712 15.0605 23.5078 15.2845C23.8444 15.5085 24.1049 15.8264 24.256 16.1971L25.1058 18.273H14.2465L15.0925 16.1971ZM12.8897 22.931C12.5309 22.931 12.1867 22.791 11.933 22.5417C11.6792 22.2925 11.5367 21.9544 11.5367 21.6019C11.5367 21.2494 11.6792 20.9113 11.933 20.662C12.1867 20.4128 12.5309 20.2727 12.8897 20.2727C13.3904 20.373 13.8502 20.6154 14.212 20.9699C14.5739 21.3244 14.8219 21.7753 14.9254 22.2669C14.9254 23.0637 13.7036 22.931 12.8897 22.931ZM26.4626 22.931C25.6487 22.931 24.4269 23.0637 24.4269 22.2669C24.5305 21.7755 24.7787 21.3247 25.1405 20.9704C25.5023 20.6161 25.962 20.3739 26.4626 20.2736C26.8214 20.2736 27.1656 20.4137 27.4193 20.6629C27.6731 20.9122 27.8156 21.2503 27.8156 21.6028C27.8156 21.9553 27.6731 22.2934 27.4193 22.5427C27.1656 22.7919 26.8214 22.932 26.4626 22.932V22.931Z" fill="url(#paint0_linear_763_47517)"/>

</svg>
