<svg width="47" height="48" viewBox="0 0 47 48" fill="none" xmlns="http://www.w3.org/2000/svg">
<defs>
    <filter id="filter0_d_763_47485" x="0" y="0" width="48" height="48" filterUnits="userSpaceOnUse" color-interpolation-filters="sRGB">
        <feFlood flood-opacity="0" result="BackgroundImageFix"/>
        <feColorMatrix in="SourceAlpha" type="matrix" values="0 0 0 0 0 0 0 0 0 0 0 0 0 0 0 0 0 0 127 0" result="hardAlpha"/>
        <feOffset dy="4"/>
        <feGaussianBlur stdDeviation="2"/>
        <feComposite in2="hardAlpha" operator="out"/>
        <feColorMatrix type="matrix" values="0 0 0 0 0 0 0 0 0 0 0 0 0 0 0 0 0 0 0.25 0"/>
        <feBlend mode="normal" in2="BackgroundImageFix" result="effect1_dropShadow_763_47485"/>
        <feBlend mode="normal" in="SourceGraphic" in2="effect1_dropShadow_763_47485" result="shape"/>
    </filter>
    <linearGradient id="paint0_linear_763_47485" x1="14" y1="20.5" x2="33" y2="20.5" gradientUnits="userSpaceOnUse">
        <stop stop-color="#3D4E81"/>
        <stop offset="0.48" stop-color="#5753C9"/>
        <stop offset="1" stop-color="#6E7FF3"/>
    </linearGradient>
</defs><g filter="url(#filter0_d_763_47485)">
<circle cx="23.5" cy="20" r="19.5" fill="#0055FF" fill-opacity="0.1"/>
<path d="M20.531 19.0131H26.4681C26.6257 19.0131 26.7767 18.9506 26.8881 18.8392C26.9995 18.7278 27.0621 18.5767 27.0621 18.4192V17.8261C27.0621 17.6685 26.9995 17.5175 26.8881 17.4061C26.7767 17.2947 26.6257 17.2321 26.4681 17.2321H20.531C20.3735 17.2321 20.2224 17.2947 20.1111 17.4061C19.9997 17.5175 19.9371 17.6685 19.9371 17.8261V18.42C19.9373 18.5774 20 18.7283 20.1113 18.8395C20.2227 18.9507 20.3737 19.0131 20.531 19.0131ZM19.9371 21.9821C19.9371 22.1396 19.9997 22.2907 20.1111 22.4021C20.2224 22.5134 20.3735 22.576 20.531 22.576H26.4681C26.6257 22.576 26.7767 22.5134 26.8881 22.4021C26.9995 22.2907 27.0621 22.1396 27.0621 21.9821V21.3881C27.0621 21.2306 26.9995 21.0795 26.8881 20.9681C26.7767 20.8567 26.6257 20.7942 26.4681 20.7942H20.531C20.3735 20.7942 20.2224 20.8567 20.1111 20.9681C19.9997 21.0795 19.9371 21.2306 19.9371 21.3881V21.9821ZM23.5 26.4768C22.8755 26.4768 22.2669 26.2796 21.7611 25.9134L14 20.3068V28.2165C13.9997 28.4506 14.0455 28.6825 14.1349 28.8988C14.2242 29.1152 14.3554 29.3118 14.5208 29.4775C14.6862 29.6431 14.8826 29.7745 15.0989 29.8642C15.3151 29.9538 15.5469 30 15.781 30H31.219C31.4531 30 31.6849 29.9538 31.9011 29.8642C32.1174 29.7745 32.3138 29.6431 32.4792 29.4775C32.6446 29.3118 32.7758 29.1152 32.8651 28.8988C32.9545 28.6825 33.0003 28.4506 33 28.2165V20.3068L25.2348 25.9134C24.7289 26.2795 24.1203 26.4766 23.4959 26.4768H23.5ZM32.3176 17.0446C31.9872 16.7869 31.6783 16.5448 31.219 16.1979V14.5606C31.219 14.0882 31.0313 13.6352 30.6973 13.3012C30.3633 12.9672 29.9103 12.7795 29.4379 12.7795H26.5565L26.2261 12.5358C25.5999 12.0799 24.3608 10.9845 23.5 11.0002C22.6392 10.9869 21.4001 12.0823 20.7739 12.5383L20.4435 12.7787H17.5621C17.3281 12.7787 17.0965 12.8248 16.8803 12.9144C16.6642 13.0039 16.4678 13.1352 16.3024 13.3007C16.137 13.4661 16.0058 13.6626 15.9164 13.8787C15.8269 14.0949 15.7809 14.3266 15.781 14.5606V16.1979C15.3217 16.544 15.0103 16.7869 14.6823 17.0446C14.4698 17.2112 14.2978 17.424 14.1796 17.6669C14.0614 17.9098 14 18.1763 14 18.4464V18.8413L17.5621 21.4146V14.5606H29.4371V21.417L33 18.8413V18.4464C33 18.1763 32.9386 17.9098 32.8204 17.6669C32.7022 17.424 32.5302 17.2112 32.3176 17.0446Z" fill="url(#paint0_linear_763_47485)"/>
</g>

</svg>
