<svg width="21" height="25" viewBox="0 0 21 25" fill="none" xmlns="http://www.w3.org/2000/svg">
<path d="M7.17709 13.7087H8.98959V10.0837H12.0104V13.7087H13.8229V8.12012L10.5 5.91491L7.17709 8.12012V13.7087ZM10.5 22.1972C13.1785 19.7604 15.1571 17.5502 16.4359 15.5665C17.7148 13.5828 18.3542 11.8357 18.3542 10.3253C18.3542 7.94894 17.5939 6.00553 16.0734 4.49512C14.553 2.9847 12.6951 2.22949 10.5 2.22949C8.30487 2.22949 6.44706 2.9847 4.92657 4.49512C3.40609 6.00553 2.64584 7.94894 2.64584 10.3253C2.64584 11.8357 3.30036 13.5828 4.60938 15.5665C5.91841 17.5502 7.88195 19.7604 10.5 22.1972ZM10.5 24.5837C7.25765 21.8246 4.83595 19.262 3.23491 16.8956C1.63386 14.5293 0.833344 12.3392 0.833344 10.3253C0.833344 7.30449 1.80504 4.89789 3.74845 3.10553C5.69185 1.31317 7.94237 0.416992 10.5 0.416992C13.0576 0.416992 15.3082 1.31317 17.2516 3.10553C19.195 4.89789 20.1667 7.30449 20.1667 10.3253C20.1667 12.3392 19.3662 14.5293 17.7651 16.8956C16.1641 19.262 13.7424 21.8246 10.5 24.5837Z" fill="url(#paint0_linear_4649_156227)"/>
<defs>
<linearGradient id="paint0_linear_4649_156227" x1="10.5" y1="0.416992" x2="10.5" y2="24.5837" gradientUnits="userSpaceOnUse">
<stop stop-color="#0D66C4"/>
<stop offset="0.572917" stop-color="#01458C"/>
<stop offset="1" stop-color="#0E4580"/>
</linearGradient>
</defs>
</svg>
