<svg width="26" height="25" viewBox="0 0 26 25" fill="none" xmlns="http://www.w3.org/2000/svg">
<g clip-path="url(#clip0_5194_7713)">
<path d="M8.83333 6.04167L6.07292 3.28125L7.16667 2.1875L9.92708 4.94792L8.83333 6.04167ZM17.1667 6.04167L16.0729 4.94792L18.8333 2.1875L19.9271 3.28125L17.1667 6.04167ZM12.2188 4.6875V0H13.7812V4.6875H12.2188ZM4.40625 25C4.1849 25 3.99935 24.9252 3.84961 24.7755C3.69987 24.6257 3.625 24.4401 3.625 24.2188V15.7812L5.83854 9.11458C5.92535 8.87153 6.06858 8.68056 6.26823 8.54167C6.46788 8.40278 6.69792 8.33333 6.95833 8.33333H19.0417C19.3021 8.33333 19.5321 8.40278 19.7318 8.54167C19.9314 8.68056 20.0747 8.87153 20.1615 9.11458L22.375 15.7812V24.2188C22.375 24.4401 22.3001 24.6257 22.1504 24.7755C22.0007 24.9252 21.8151 25 21.5938 25H21.0469C20.8212 25 20.6389 24.9252 20.5 24.7755C20.3611 24.6257 20.2917 24.4401 20.2917 24.2188V22.8125H5.70833V24.2188C5.70833 24.4401 5.63346 24.6257 5.48372 24.7755C5.33398 24.9252 5.14844 25 4.92708 25H4.40625ZM5.78646 14.2188H20.2135L18.7812 9.89583H7.21875L5.78646 14.2188ZM7.9418 19.9479C8.34518 19.9479 8.68142 19.8112 8.95052 19.5378C9.21962 19.2643 9.35417 18.9323 9.35417 18.5417C9.35417 18.1366 9.21745 17.7922 8.94401 17.5087C8.67057 17.2251 8.33854 17.0833 7.94792 17.0833C7.54283 17.0833 7.1985 17.2245 6.91492 17.5069C6.63136 17.7893 6.48958 18.1321 6.48958 18.5355C6.48958 18.9389 6.63077 19.2752 6.91315 19.5443C7.19551 19.8134 7.53839 19.9479 7.9418 19.9479ZM18.0781 19.9479C18.4832 19.9479 18.8275 19.8112 19.1111 19.5378C19.3947 19.2643 19.5365 18.9323 19.5365 18.5417C19.5365 18.1366 19.3953 17.7922 19.1129 17.5087C18.8305 17.2251 18.4876 17.0833 18.0842 17.0833C17.6809 17.0833 17.3446 17.2245 17.0755 17.5069C16.8064 17.7893 16.6719 18.1321 16.6719 18.5355C16.6719 18.9389 16.8086 19.2752 17.082 19.5443C17.3555 19.8134 17.6875 19.9479 18.0781 19.9479ZM5.1875 21.25H20.8125V15.7812H5.1875V21.25Z" fill="url(#paint0_linear_5194_7713)"/>
</g>
<defs>
<linearGradient id="paint0_linear_5194_7713" x1="13" y1="0" x2="13" y2="47.6563" gradientUnits="userSpaceOnUse">
<stop stop-color="#3390EC"/>
<stop offset="1" stop-color="#0E559C"/>
</linearGradient>
<clipPath id="clip0_5194_7713">
<rect width="25" height="25" fill="white" transform="translate(0.5)"/>
</clipPath>
</defs>
</svg>
