<svg width="26" height="25" viewBox="0 0 26 25" fill="none" xmlns="http://www.w3.org/2000/svg">
<path d="M6.94484 19.5833C6.14828 19.5833 5.47222 19.3048 4.91667 18.7478C4.36111 18.1908 4.08333 17.5145 4.08333 16.7188H2V6.82292C2 6.32161 2.1785 5.89247 2.53549 5.53547C2.89246 5.17849 3.3216 5 3.82292 5H18.8229L24.9167 11.0938V16.7188H22.8333C22.8333 17.5145 22.5545 18.1908 21.9969 18.7478C21.4393 19.3048 20.7623 19.5833 19.9657 19.5833C19.1691 19.5833 18.4931 19.3048 17.9375 18.7478C17.3819 18.1908 17.1042 17.5145 17.1042 16.7188H9.8125C9.8125 17.5174 9.5337 18.1944 8.97609 18.75C8.41851 19.3056 7.74142 19.5833 6.94484 19.5833ZM16.5833 10.2083H21.6354L17.9896 6.5625H16.5833V10.2083ZM10.0729 10.2083H15.0208V6.5625H10.0729V10.2083ZM3.5625 10.2083H8.51042V6.5625H3.5625V10.2083ZM6.94424 18.2812C7.38072 18.2812 7.75087 18.1306 8.05469 17.8292C8.35851 17.5278 8.51042 17.1589 8.51042 16.7224C8.51042 16.2859 8.35973 15.9158 8.05836 15.612C7.75699 15.3082 7.38806 15.1562 6.95159 15.1562C6.51511 15.1562 6.14496 15.3069 5.84115 15.6083C5.53733 15.9097 5.38542 16.2786 5.38542 16.7151C5.38542 17.1516 5.5361 17.5217 5.83747 17.8255C6.13884 18.1293 6.50777 18.2812 6.94424 18.2812ZM19.9651 18.2812C20.4016 18.2812 20.7717 18.1306 21.0755 17.8292C21.3793 17.5278 21.5312 17.1589 21.5312 16.7224C21.5312 16.2859 21.3806 15.9158 21.0792 15.612C20.7778 15.3082 20.4089 15.1562 19.9724 15.1562C19.5359 15.1562 19.1658 15.3069 18.862 15.6083C18.5582 15.9097 18.4062 16.2786 18.4062 16.7151C18.4062 17.1516 18.5569 17.5217 18.8583 17.8255C19.1597 18.1293 19.5286 18.2812 19.9651 18.2812ZM3.5625 15.1562H4.52604C4.82118 14.7049 5.1901 14.375 5.63281 14.1667C6.07552 13.9583 6.51389 13.8542 6.94792 13.8542C7.38194 13.8542 7.82031 13.9583 8.26302 14.1667C8.70573 14.375 9.07465 14.7049 9.36979 15.1562H17.5469C17.842 14.7049 18.2109 14.375 18.6536 14.1667C19.0964 13.9583 19.5347 13.8542 19.9687 13.8542C20.4028 13.8542 20.8411 13.9583 21.2839 14.1667C21.7266 14.375 22.0955 14.7049 22.3906 15.1562H23.3542V11.7708H3.5625V15.1562Z" fill="url(#paint0_linear_5194_7720)"/>
<defs>
<linearGradient id="paint0_linear_5194_7720" x1="13.4583" y1="5" x2="13.4583" y2="32.7995" gradientUnits="userSpaceOnUse">
<stop stop-color="#3390EC"/>
<stop offset="1" stop-color="#0E559C"/>
</linearGradient>
</defs>
</svg>
