<svg width="16" height="18" viewBox="0 0 16 18" fill="none" xmlns="http://www.w3.org/2000/svg">
    <g filter="url(#filter0_d_3733_2720)">
        <path d="M9.49979 7.99905V14.1271C9.52979 14.3604 9.4548 14.6093 9.28232 14.7726C9.21295 14.8447 9.13054 14.9019 9.03982 14.9409C8.94911 14.9799 8.85186 15 8.75365 15C8.65543 15 8.55818 14.9799 8.46747 14.9409C8.37675 14.9019 8.29434 14.8447 8.22497 14.7726L6.71768 13.2095C6.63589 13.1265 6.5737 13.0251 6.53598 12.9132C6.49825 12.8012 6.48601 12.6817 6.50021 12.564V7.99905H6.47771L2.15831 2.25983C2.03653 2.09771 1.98158 1.89219 2.00547 1.68819C2.02936 1.48418 2.13014 1.29827 2.28579 1.17109C2.42827 1.06221 2.58575 1 2.75073 1H13.2493C13.4142 1 13.5717 1.06221 13.7142 1.17109C13.8699 1.29827 13.9706 1.48418 13.9945 1.68819C14.0184 1.89219 13.9635 2.09771 13.8417 2.25983L9.52229 7.99905H9.49979Z" stroke="white" stroke-width="0.75" shape-rendering="crispEdges"/>
    </g>
    <defs>
        <filter id="filter0_d_3733_2720" x="0.625" y="0.625" width="14.75" height="16.75" filterUnits="userSpaceOnUse" color-interpolation-filters="sRGB">
            <feFlood flood-opacity="0" result="BackgroundImageFix"/>
            <feColorMatrix in="SourceAlpha" type="matrix" values="0 0 0 0 0 0 0 0 0 0 0 0 0 0 0 0 0 0 127 0" result="hardAlpha"/>
            <feOffset dy="1"/>
            <feGaussianBlur stdDeviation="0.5"/>
            <feComposite in2="hardAlpha" operator="out"/>
            <feColorMatrix type="matrix" values="0 0 0 0 0 0 0 0 0 0 0 0 0 0 0 0 0 0 0.25 0"/>
            <feBlend mode="normal" in2="BackgroundImageFix" result="effect1_dropShadow_3733_2720"/>
            <feBlend mode="normal" in="SourceGraphic" in2="effect1_dropShadow_3733_2720" result="shape"/>
        </filter>
    </defs>
</svg>
