<svg width="14" height="16" viewBox="0 0 14 16" fill="none" xmlns="http://www.w3.org/2000/svg">
    <path d="M8.49979 7.99905V14.1271C8.52979 14.3604 8.4548 14.6093 8.28232 14.7726C8.21295 14.8447 8.13054 14.9019 8.03982 14.9409C7.94911 14.9799 7.85186 15 7.75365 15C7.65543 15 7.55818 14.9799 7.46747 14.9409C7.37675 14.9019 7.29434 14.8447 7.22497 14.7726L5.71768 13.2095C5.63589 13.1265 5.5737 13.0251 5.53598 12.9132C5.49825 12.8012 5.48601 12.6817 5.50021 12.564V7.99905H5.47771L1.15831 2.25983C1.03653 2.09771 0.981584 1.89219 1.00547 1.68819C1.02936 1.48418 1.13014 1.29827 1.28579 1.17109C1.42827 1.06221 1.58575 1 1.75073 1H12.2493C12.4142 1 12.5717 1.06221 12.7142 1.17109C12.8699 1.29827 12.9706 1.48418 12.9945 1.68819C13.0184 1.89219 12.9635 2.09771 12.8417 2.25983L8.52229 7.99905H8.49979Z" stroke="white" stroke-width="0.75"/>
</svg>
