<svg width="15" height="20" viewBox="0 0 15 20" fill="none" xmlns="http://www.w3.org/2000/svg">
<path d="M3.72656 15.4625H11.2734V14.0375H3.72656V15.4625ZM3.72656 11.425H11.2734V10H3.72656V11.425ZM1.40625 19.5C1.03125 19.5 0.703125 19.3575 0.421875 19.0725C0.140625 18.7875 0 18.455 0 18.075V1.925C0 1.545 0.140625 1.2125 0.421875 0.9275C0.703125 0.6425 1.03125 0.5 1.40625 0.5H9.86719L15 5.70125V18.075C15 18.455 14.8594 18.7875 14.5781 19.0725C14.2969 19.3575 13.9688 19.5 13.5938 19.5H1.40625ZM9.16406 6.3425V1.925H1.40625V18.075H13.5938V6.3425H9.16406Z" fill="url(#paint0_linear_3823_151794)"/>
<defs>
<linearGradient id="paint0_linear_3823_151794" x1="7.5" y1="0.5" x2="7.5" y2="36.7188" gradientUnits="userSpaceOnUse">
<stop stop-color="#3390EC"/>
<stop offset="1" stop-color="#0E559C"/>
</linearGradient>
</defs>
</svg>
