<svg width="26" height="25" viewBox="0 0 26 25" fill="none" xmlns="http://www.w3.org/2000/svg">
<path d="M13.375 21.75C12.0729 21.75 10.8553 21.5035 9.72211 21.0104C8.58893 20.5173 7.59848 19.847 6.75076 18.9992C5.90305 18.1515 5.23266 17.1611 4.73958 16.0279C4.24653 14.8947 4 13.6771 4 12.375C4 11.6412 4.08681 10.9282 4.26042 10.2361C4.43403 9.54398 4.68576 8.88108 5.01562 8.2474C5.34549 7.61372 5.74045 7.02344 6.20052 6.47656C6.66059 5.92969 7.18576 5.43924 7.77604 5.00521L14.7552 11.9844L13.6615 13.1042L7.67188 7.11458C6.99479 7.84375 6.47396 8.65538 6.10938 9.54948C5.74479 10.4436 5.5625 11.3854 5.5625 12.375C5.5625 14.5451 6.32205 16.3898 7.84115 17.9089C9.36024 19.4279 11.2049 20.1875 13.375 20.1875C15.5451 20.1875 17.3898 19.4279 18.9089 17.9089C20.4279 16.3898 21.1875 14.5451 21.1875 12.375C21.1875 10.3264 20.5017 8.55122 19.1302 7.04948C17.7587 5.54774 16.0486 4.72743 14 4.58854V7.19271H12.4375V3H13.3229C14.6202 3 15.8429 3.2474 16.9912 3.74219C18.1394 4.23698 19.1389 4.90538 19.9896 5.7474C20.8403 6.58941 21.513 7.57899 22.0078 8.71615C22.5026 9.8533 22.75 11.0729 22.75 12.375C22.75 13.6771 22.5035 14.8947 22.0104 16.0279C21.5173 17.1611 20.847 18.1515 19.9992 18.9992C19.1515 19.847 18.1611 20.5173 17.0279 21.0104C15.8947 21.5035 14.6771 21.75 13.375 21.75ZM13.3257 19.0677C13.0461 19.0677 12.8108 18.9731 12.6198 18.784C12.4288 18.5949 12.3333 18.3605 12.3333 18.0809C12.3333 17.8013 12.4279 17.566 12.6171 17.375C12.8062 17.184 13.0406 17.0885 13.3202 17.0885C13.5998 17.0885 13.8351 17.1831 14.026 17.3723C14.217 17.5614 14.3125 17.7958 14.3125 18.0754C14.3125 18.355 14.2179 18.5903 14.0288 18.7812C13.8396 18.9722 13.6053 19.0677 13.3257 19.0677ZM19.0809 13.3125C18.8013 13.3125 18.566 13.2179 18.375 13.0288C18.184 12.8396 18.0885 12.6053 18.0885 12.3257C18.0885 12.046 18.1831 11.8108 18.3723 11.6198C18.5614 11.4288 18.7958 11.3333 19.0754 11.3333C19.355 11.3333 19.5903 11.4279 19.7812 11.6171C19.9722 11.8062 20.0677 12.0406 20.0677 12.3202C20.0677 12.5998 19.9731 12.8351 19.784 13.026C19.5949 13.217 19.3605 13.3125 19.0809 13.3125ZM7.64857 13.3125C7.36897 13.3125 7.13368 13.2179 6.94271 13.0288C6.75174 12.8396 6.65625 12.6053 6.65625 12.3257C6.65625 12.046 6.75082 11.8108 6.93997 11.6198C7.12911 11.4288 7.36348 11.3333 7.6431 11.3333C7.9227 11.3333 8.15799 11.4279 8.34896 11.6171C8.53993 11.8062 8.63542 12.0406 8.63542 12.3202C8.63542 12.5998 8.54084 12.8351 8.35169 13.026C8.16256 13.217 7.92819 13.3125 7.64857 13.3125Z" fill="url(#paint0_linear_5194_7728)"/>
<defs>
<linearGradient id="paint0_linear_5194_7728" x1="13.375" y1="3" x2="13.375" y2="38.7422" gradientUnits="userSpaceOnUse">
<stop stop-color="#3390EC"/>
<stop offset="1" stop-color="#0E559C"/>
</linearGradient>
</defs>
</svg>
