<svg width="18" height="10" viewBox="0 0 18 10" fill="none" xmlns="http://www.w3.org/2000/svg">
<path d="M0.745625 10C0.531875 10 0.354167 9.92771 0.2125 9.78313C0.0708333 9.63853 0 9.45936 0 9.24563C0 9.03188 0.0722917 8.85417 0.216875 8.7125C0.361475 8.57083 0.540642 8.5 0.754375 8.5C0.968125 8.5 1.14583 8.57229 1.2875 8.71688C1.42917 8.86147 1.5 9.04064 1.5 9.25437C1.5 9.46812 1.42771 9.64583 1.28312 9.7875C1.13852 9.92917 0.959358 10 0.745625 10ZM0.745625 5.75C0.531875 5.75 0.354167 5.67771 0.2125 5.53313C0.0708333 5.38853 0 5.20936 0 4.99563C0 4.78188 0.0722917 4.60417 0.216875 4.4625C0.361475 4.32083 0.540642 4.25 0.754375 4.25C0.968125 4.25 1.14583 4.32229 1.2875 4.46687C1.42917 4.61147 1.5 4.79064 1.5 5.00437C1.5 5.21812 1.42771 5.39583 1.28312 5.5375C1.13852 5.67917 0.959358 5.75 0.745625 5.75ZM0.745625 1.5C0.531875 1.5 0.354167 1.42771 0.2125 1.28313C0.0708333 1.13853 0 0.959359 0 0.745625C0 0.531875 0.0722917 0.354167 0.216875 0.2125C0.361475 0.0708333 0.540642 0 0.754375 0C0.968125 0 1.14583 0.0722914 1.2875 0.216875C1.42917 0.361475 1.5 0.540641 1.5 0.754375C1.5 0.968125 1.42771 1.14583 1.28312 1.2875C1.13852 1.42917 0.959358 1.5 0.745625 1.5ZM4.25 10V8.5H18V10H4.25ZM4.25 5.75V4.25H18V5.75H4.25ZM4.25 1.5V0H18V1.5H4.25Z" fill="url(#paint0_linear_3604_143877)"/>
<defs>
<linearGradient id="paint0_linear_3604_143877" x1="9" y1="0" x2="9" y2="19.0625" gradientUnits="userSpaceOnUse">
<stop stop-color="#3390EC"/>
<stop offset="1" stop-color="#0E559C"/>
</linearGradient>
</defs>
</svg>
