<svg width="16" height="20" viewBox="0 0 16 20" fill="none" xmlns="http://www.w3.org/2000/svg">
<path d="M6.83124 12.7501H9.16874L8.59582 9.42721C8.90138 9.28971 9.14582 9.08728 9.32916 8.81992C9.51249 8.55256 9.60416 8.25846 9.60416 7.93763C9.60416 7.49457 9.44756 7.11645 9.13437 6.80326C8.82117 6.49006 8.44305 6.33346 7.99999 6.33346C7.55693 6.33346 7.17881 6.49006 6.86561 6.80326C6.55242 7.11645 6.39582 7.49457 6.39582 7.93763C6.39582 8.25846 6.48749 8.55256 6.67082 8.81992C6.85416 9.08728 7.0986 9.28971 7.40416 9.42721L6.83124 12.7501ZM7.99999 19.1439C5.8611 18.6092 4.10416 17.3678 2.72916 15.4199C1.35416 13.472 0.666656 11.3369 0.666656 9.01471V3.56055L7.99999 0.810547L15.3333 3.56055V9.01471C15.3333 11.3369 14.6458 13.472 13.2708 15.4199C11.8958 17.3678 10.1389 18.6092 7.99999 19.1439ZM7.99999 17.723C9.75693 17.1425 11.1892 16.0463 12.2969 14.4345C13.4045 12.8227 13.9583 11.0161 13.9583 9.01471V4.52305L7.99999 2.27721L2.04166 4.52305V9.01471C2.04166 11.0161 2.59548 12.8227 3.70311 14.4345C4.81075 16.0463 6.24305 17.1425 7.99999 17.723Z" fill="url(#paint0_linear_4678_145004)"/>
<defs>
<linearGradient id="paint0_linear_4678_145004" x1="7.99999" y1="0.810547" x2="7.99999" y2="19.1439" gradientUnits="userSpaceOnUse">
<stop stop-color="#0D66C4"/>
<stop offset="0.572917" stop-color="#01458C"/>
<stop offset="1" stop-color="#0E4580"/>
</linearGradient>
</defs>
</svg>
