<svg width="21" height="21" viewBox="0 0 21 21" fill="none" xmlns="http://www.w3.org/2000/svg">
<path d="M9.94736 10.2201C8.73157 10.2201 7.73683 9.84633 6.96315 9.09881C6.18947 8.35129 5.80262 7.39019 5.80262 6.21551C5.80262 5.04084 6.18947 4.07974 6.96315 3.33222C7.73683 2.5847 8.73157 2.21094 9.94736 2.21094C11.1631 2.21094 12.1579 2.5847 12.9316 3.33222C13.7053 4.07974 14.0921 5.04084 14.0921 6.21551C14.0921 7.39019 13.7053 8.35129 12.9316 9.09881C12.1579 9.84633 11.1631 10.2201 9.94736 10.2201ZM1.10526 18.7899V16.2804C1.10526 15.604 1.28026 15.0256 1.63026 14.545C1.98026 14.0645 2.43157 13.6996 2.9842 13.4504C4.21841 12.9165 5.40197 12.516 6.53486 12.2491C7.66775 11.9821 8.80525 11.8486 9.94736 11.8486C11.0895 11.8486 12.2224 11.9866 13.346 12.2624C14.4697 12.5383 15.6479 12.936 16.8807 13.4556C17.4573 13.707 17.9196 14.0716 18.2675 14.5493C18.6155 15.027 18.7895 15.604 18.7895 16.2804V18.7899H1.10526ZM2.76315 17.1881H17.1316V16.2804C17.1316 15.9956 17.0441 15.7242 16.8691 15.4661C16.6941 15.208 16.4776 15.0167 16.2197 14.8921C15.0408 14.3404 13.9631 13.9621 12.9868 13.7575C12.0105 13.5528 10.9974 13.4504 9.94736 13.4504C8.89736 13.4504 7.87499 13.5528 6.88025 13.7575C5.88552 13.9621 4.80789 14.3404 3.64736 14.8921C3.38947 15.0167 3.17762 15.208 3.01183 15.4661C2.84604 15.7242 2.76315 15.9956 2.76315 16.2804V17.1881ZM9.94736 8.61826C10.6658 8.61826 11.2599 8.39133 11.7296 7.93748C12.1993 7.48363 12.4342 6.90964 12.4342 6.21551C12.4342 5.52139 12.1993 4.9474 11.7296 4.49355C11.2599 4.03969 10.6658 3.81277 9.94736 3.81277C9.22894 3.81277 8.63486 4.03969 8.16512 4.49355C7.69539 4.9474 7.46052 5.52139 7.46052 6.21551C7.46052 6.90964 7.69539 7.48363 8.16512 7.93748C8.63486 8.39133 9.22894 8.61826 9.94736 8.61826Z" fill="url(#paint0_linear_4649_156206)"/>
<defs>
<linearGradient id="paint0_linear_4649_156206" x1="9.94736" y1="2.21094" x2="9.94736" y2="18.7899" gradientUnits="userSpaceOnUse">
<stop stop-color="#0D66C4"/>
<stop offset="0.572917" stop-color="#01458C"/>
<stop offset="1" stop-color="#0E4580"/>
</linearGradient>
</defs>
</svg>
