<svg width="35" height="36" viewBox="0 0 35 36" fill="none" xmlns="http://www.w3.org/2000/svg">
    <defs>
        <linearGradient id="paint0_linear_2353_85564" x1="17.5" y1="8" x2="17.5" y2="27" gradientUnits="userSpaceOnUse">
            <stop stop-color="#0088CC"/>
            <stop offset="1" stop-color="#006496"/>
        </linearGradient>
    </defs><rect y="0.5" width="35" height="35" rx="17.5" fill="#E6EEFF"/>
<path d="M10.1111 24.5063V26.1094C10.1111 26.3617 10.0352 26.5732 9.88351 26.7439C9.73177 26.9146 9.54375 27 9.31944 27H8.79167C8.56736 27 8.37934 26.9146 8.2276 26.7439C8.07587 26.5732 8 26.3617 8 26.1094V16.4906L10.2431 8.89062C10.331 8.61354 10.4762 8.39583 10.6785 8.2375C10.8808 8.07917 11.1139 8 11.3778 8H23.6222C23.8861 8 24.1192 8.07917 24.3215 8.2375C24.5238 8.39583 24.669 8.61354 24.7569 8.89062L27 16.4906V26.1094C27 26.3617 26.9241 26.5732 26.7724 26.7439C26.6207 26.9146 26.4326 27 26.2083 27H25.6542C25.4255 27 25.2407 26.9146 25.1 26.7439C24.9593 26.5732 24.8889 26.3617 24.8889 26.1094V24.5063H10.1111ZM10.1903 14.7094H24.8097L23.3583 9.78125H11.6417L10.1903 14.7094ZM12.3744 21.2406C12.7831 21.2406 13.1238 21.0848 13.3965 20.773C13.6692 20.4613 13.8056 20.0828 13.8056 19.6375C13.8056 19.1757 13.667 18.7832 13.3899 18.4599C13.1128 18.1366 12.7764 17.975 12.3806 17.975C11.9701 17.975 11.6211 18.136 11.3338 18.4579C11.0464 18.7798 10.9028 19.1706 10.9028 19.6305C10.9028 20.0904 11.0458 20.4737 11.332 20.7805C11.6181 21.0872 11.9656 21.2406 12.3744 21.2406ZM22.6458 21.2406C23.0563 21.2406 23.4052 21.0848 23.6926 20.773C23.9799 20.4613 24.1236 20.0828 24.1236 19.6375C24.1236 19.1757 23.9805 18.7832 23.6944 18.4599C23.4083 18.1366 23.0608 17.975 22.652 17.975C22.2433 17.975 21.9025 18.136 21.6299 18.4579C21.3572 18.7798 21.2208 19.1706 21.2208 19.6305C21.2208 20.0904 21.3594 20.4737 21.6365 20.7805C21.9135 21.0872 22.25 21.2406 22.6458 21.2406ZM9.58333 22.725H25.4167V16.4906H9.58333V22.725Z" fill="url(#paint0_linear_2353_85564)"/>

</svg>
