<svg width="35" height="36" viewBox="0 0 35 36" fill="none" xmlns="http://www.w3.org/2000/svg">
    <defs>
        <linearGradient id="paint0_linear_2353_85574" x1="18.5" y1="9" x2="18.5" y2="28" gradientUnits="userSpaceOnUse">
            <stop stop-color="#0088CC"/>
            <stop offset="1" stop-color="#006496"/>
        </linearGradient>
    </defs><rect y="0.5" width="35" height="35" rx="17.5" fill="#E6EEFF"/>
<path d="M12.0735 21.6667V20.4792H9V18.8958H15.1471V16.125H9.86618C9.64265 16.125 9.4424 16.0458 9.26544 15.8875C9.08848 15.7292 9 15.5356 9 15.3069V10.9792C9 10.7505 9.08382 10.5613 9.25147 10.4118C9.41912 10.2623 9.61471 10.1875 9.83824 10.1875H12.0735V9H13.75V10.1875H16.8235V11.7708H10.6765V14.5417H15.9574C16.1995 14.5417 16.4044 14.6164 16.5721 14.766C16.7397 14.9155 16.8235 15.1134 16.8235 15.3597V19.6875C16.8235 19.8986 16.7444 20.0833 16.586 20.2417C16.4277 20.4 16.2275 20.4792 15.9853 20.4792H13.75V21.6667H12.0735ZM20.1206 28L15.3706 23.5139L16.5441 22.4056L20.1206 25.7833L26.8265 19.45L28 20.5583L20.1206 28Z" fill="url(#paint0_linear_2353_85574)"/>

</svg>
