<svg width="35" height="35" viewBox="0 0 35 35" fill="none" xmlns="http://www.w3.org/2000/svg">
<rect width="35" height="35" rx="17.5" fill="#0088CC"/>
<path fill-rule="evenodd" clip-rule="evenodd" d="M22.8469 18.8225L24.1612 20.1441C24.4987 20.4873 24.598 20.9992 24.4132 21.4436C24.2284 21.888 23.7955 22.1786 23.3142 22.1813H20.8608V22.4296C20.7897 23.973 19.4836 25.1681 17.94 25.1021C16.3964 25.1681 15.0903 23.973 15.0192 22.4296V22.1813H12.5658C12.0845 22.1786 11.6516 21.888 11.4668 21.4436C11.282 20.9992 11.3813 20.4873 11.7188 20.1441L13.0331 18.8225V15.4125C13.0357 13.9968 13.6478 12.6508 14.7131 11.7183C15.7784 10.7859 17.1936 10.3573 18.5972 10.5422C21.0692 10.921 22.883 13.0652 22.8469 15.5658V18.8225ZM17.94 23.6417C18.6727 23.6934 19.3162 23.1593 19.4004 22.4296V22.1814H16.4796V22.4296C16.5638 23.1593 17.2073 23.6934 17.94 23.6417Z" fill="white"/>
</svg>
