<svg width="14" height="15" viewBox="0 0 14 15" fill="none" xmlns="http://www.w3.org/2000/svg">
    <path fill-rule="evenodd" clip-rule="evenodd" d="M11.4719 8.32249L12.7862 9.64413C13.1237 9.98728 13.223 10.4992 13.0382 10.9436C12.8534 11.388 12.4205 11.6786 11.9392 11.6813H9.48575V11.9296C9.41474 13.473 8.1086 14.6681 6.565 14.6021C5.0214 14.6681 3.71526 13.473 3.64425 11.9296V11.6813H1.19082C0.709504 11.6786 0.276582 11.388 0.0917974 10.9436C-0.0929873 10.4992 0.00628107 9.98728 0.343801 9.64413L1.65814 8.32249V4.91251C1.66072 3.4968 2.27284 2.15077 3.3381 1.21832C4.40336 0.285865 5.81857 -0.142685 7.22217 0.0421585C9.6942 0.421043 11.508 2.56521 11.4719 5.06585V8.32249ZM6.565 13.1417C7.29767 13.1934 7.94125 12.6593 8.02538 11.9296V11.6814H5.10462V11.9296C5.18875 12.6593 5.83233 13.1934 6.565 13.1417Z" fill="white"/>
</svg>
