<svg width="24" height="24" viewBox="0 0 24 24" fill="none" xmlns="http://www.w3.org/2000/svg">
<circle cx="12" cy="12" r="12" fill="#0088CC"/>
<path d="M17.2667 18L12.8833 13.6167C12.55 13.9056 12.1613 14.1306 11.7174 14.2917C11.2734 14.4528 10.8009 14.5333 10.3 14.5333C9.0982 14.5333 8.08108 14.1167 7.24865 13.2833C6.41622 12.45 6 11.4444 6 10.2667C6 9.08889 6.41667 8.08333 7.25 7.25C8.08333 6.41667 9.09167 6 10.275 6C11.4583 6 12.4639 6.41667 13.2917 7.25C14.1194 8.08333 14.5333 9.08972 14.5333 10.2692C14.5333 10.7453 14.4556 11.2056 14.3 11.65C14.1444 12.0944 13.9111 12.5111 13.6 12.9L18 17.2667L17.2667 18ZM10.2833 13.5333C11.1861 13.5333 11.9535 13.2139 12.5854 12.575C13.2174 11.9361 13.5333 11.1667 13.5333 10.2667C13.5333 9.36667 13.2174 8.59722 12.5854 7.95833C11.9535 7.31944 11.1861 7 10.2833 7C9.3713 7 8.59607 7.31944 7.95763 7.95833C7.31921 8.59722 7 9.36667 7 10.2667C7 11.1667 7.31921 11.9361 7.95763 12.575C8.59607 13.2139 9.3713 13.5333 10.2833 13.5333Z" fill="white"/>
</svg>
