<svg width="13" height="13" viewBox="0 0 13 13" fill="none" xmlns="http://www.w3.org/2000/svg">
<path d="M12.2056 13L7.45694 8.25139C7.09583 8.56435 6.67478 8.8081 6.1938 8.98264C5.71281 9.15718 5.20099 9.24444 4.65833 9.24444C3.35638 9.24444 2.25451 8.79306 1.3527 7.89028C0.450902 6.9875 0 5.89815 0 4.62222C0 3.3463 0.451389 2.25694 1.35417 1.35417C2.25694 0.451389 3.34931 0 4.63125 0C5.91319 0 7.00255 0.451389 7.89931 1.35417C8.79606 2.25694 9.24444 3.3472 9.24444 4.62493C9.24444 5.14072 9.16018 5.63935 8.99167 6.12083C8.82315 6.60231 8.57037 7.0537 8.23333 7.475L13 12.2056L12.2056 13ZM4.64028 8.16111C5.61829 8.16111 6.44959 7.81505 7.1342 7.12292C7.81881 6.43079 8.16111 5.59722 8.16111 4.62222C8.16111 3.64722 7.81881 2.81366 7.1342 2.12153C6.44959 1.4294 5.61829 1.08333 4.64028 1.08333C3.65224 1.08333 2.81241 1.4294 2.12077 2.12153C1.42915 2.81366 1.08333 3.64722 1.08333 4.62222C1.08333 5.59722 1.42915 6.43079 2.12077 7.12292C2.81241 7.81505 3.65224 8.16111 4.64028 8.16111Z" fill="url(#paint0_linear_3394_140221)"/>
<defs>
<linearGradient id="paint0_linear_3394_140221" x1="6.5" y1="0" x2="6.5" y2="13" gradientUnits="userSpaceOnUse">
<stop stop-color="#5691CF"/>
<stop offset="0.46875" stop-color="#2469B1"/>
<stop offset="1" stop-color="#02458B"/>
</linearGradient>
</defs>
</svg>
