<svg width="15" height="19" viewBox="0 0 15 19" fill="none" xmlns="http://www.w3.org/2000/svg">
<path d="M6.46875 12.6825L11.8125 7.2675L10.8281 6.29375L6.53906 10.64L4.17188 8.24125L3.14062 9.28625L6.46875 12.6825ZM7.5 19C5.3125 18.4458 3.51562 17.1594 2.10938 15.1406C0.703125 13.1219 0 10.9092 0 8.5025V2.85L7.5 0L15 2.85V8.5025C15 10.9092 14.2969 13.1219 12.8906 15.1406C11.4844 17.1594 9.6875 18.4458 7.5 19ZM7.5 17.5275C9.29688 16.9258 10.7617 15.7898 11.8945 14.1194C13.0273 12.449 13.5938 10.5767 13.5938 8.5025V3.8475L7.5 1.52L1.40625 3.8475V8.5025C1.40625 10.5767 1.97266 12.449 3.10547 14.1194C4.23828 15.7898 5.70312 16.9258 7.5 17.5275Z" fill="url(#paint0_linear_3604_143867)"/>
<defs>
<linearGradient id="paint0_linear_3604_143867" x1="7.5" y1="0" x2="7.5" y2="36.2188" gradientUnits="userSpaceOnUse">
<stop stop-color="#3390EC"/>
<stop offset="1" stop-color="#0E559C"/>
</linearGradient>
</defs>
</svg>
