<svg width="10" height="10" viewBox="0 0 10 10" fill="none" xmlns="http://www.w3.org/2000/svg">
<path fill-rule="evenodd" clip-rule="evenodd" d="M7.31844 3.22892L8.03302 3.16208C8.13887 3.15174 8.23715 3.10549 8.31162 3.03099L9.16766 2.17496C9.2916 2.05101 9.47666 2.00945 9.64567 2.06761C9.81468 2.12576 9.93864 2.27364 9.96587 2.4496C10.1267 3.47293 9.7115 4.48776 8.8865 5.08809C8.0615 5.68843 6.96137 5.77623 6.02625 5.31637L1.62043 9.72219C1.24973 10.0929 0.648717 10.0929 0.278022 9.72219C-0.0926739 9.35149 -0.0926739 8.75047 0.278022 8.37978L4.6845 3.9733C4.22535 3.03817 4.31346 1.93846 4.91363 1.11369C5.5138 0.288912 6.52813 -0.126416 7.55126 0.0336871C7.72722 0.0609115 7.8751 0.18487 7.93326 0.353883C7.99141 0.522897 7.94985 0.707952 7.8259 0.831897L6.97511 1.68269C6.89721 1.76095 6.85055 1.86517 6.84354 1.97653L6.79495 2.72114C6.786 2.85985 6.83934 2.99686 6.94051 3.09499C7.04167 3.19312 7.18017 3.2422 7.31844 3.22892ZM0.855791 9.14576C1.01438 9.30435 1.27151 9.30435 1.43011 9.14576C1.5887 8.98716 1.5887 8.73003 1.43011 8.57144C1.27151 8.41285 1.01438 8.41285 0.855791 8.57144C0.697199 8.73003 0.697199 8.98716 0.855791 9.14576Z" fill="url(#paint0_linear_3776_151050)"/>
<defs>
<linearGradient id="paint0_linear_3776_151050" x1="5" y1="-0.000183105" x2="5" y2="10.0002" gradientUnits="userSpaceOnUse">
<stop stop-color="#5691CF"/>
<stop offset="0.46875" stop-color="#2469B1"/>
<stop offset="1" stop-color="#02458B"/>
</linearGradient>
</defs>
</svg>
