<svg width="21" height="20" viewBox="0 0 21 20" fill="none" xmlns="http://www.w3.org/2000/svg">
<path d="M12.0812 10.9076C13.4389 9.98123 14.505 8.95901 15.2797 7.84095C16.0543 6.72289 16.4417 5.59685 16.4417 4.46283C16.4417 3.79199 16.3299 3.27289 16.1062 2.90553C15.8826 2.53817 15.5792 2.35449 15.1958 2.35449C14.2854 2.35449 13.5108 3.03331 12.8719 4.39095C12.233 5.74859 11.9135 7.34581 11.9135 9.18262C11.9135 9.50206 11.9255 9.80553 11.9495 10.093C11.9734 10.3805 12.0174 10.6521 12.0812 10.9076ZM1.87499 19.1253V17.6878H3.31249V19.1253H1.87499ZM5.82811 19.1253V17.6878H7.26561V19.1253H5.82811ZM9.78124 19.1253V17.6878H11.2187V19.1253H9.78124ZM13.7344 19.1253V17.6878H15.1719V19.1253H13.7344ZM17.6875 19.1253V17.6878H19.125V19.1253H17.6875ZM1.92291 15.1962L0.916656 14.1899L2.44999 12.6566L0.916656 11.1232L1.92291 10.117L3.45624 11.6503L4.98957 10.117L5.99582 11.1232L4.46249 12.6566L5.99582 14.1899L4.98957 15.1962L3.45624 13.6628L1.92291 15.1962ZM13.8062 14.3337C13.2951 14.3337 12.8359 14.2219 12.4286 13.9982C12.0213 13.7746 11.6739 13.4472 11.3864 13.0159C10.9871 13.2396 10.5759 13.4512 10.1526 13.6508C9.72933 13.8505 9.2861 14.0382 8.82291 14.2139L8.31978 12.8722C8.767 12.6965 9.19426 12.5168 9.60155 12.3331C10.0088 12.1495 10.4042 11.9458 10.7875 11.7222C10.6757 11.3548 10.5958 10.9595 10.5479 10.5363C10.5 10.113 10.476 9.66178 10.476 9.18262C10.476 6.85067 10.9193 4.89008 11.8057 3.30085C12.6922 1.71161 13.8222 0.916992 15.1958 0.916992C16.0104 0.916992 16.6613 1.24442 17.1484 1.89928C17.6356 2.55414 17.8792 3.43262 17.8792 4.5347C17.8792 5.94026 17.42 7.31387 16.5016 8.65553C15.5832 9.9972 14.3014 11.2031 12.6562 12.2732C12.816 12.4809 12.9917 12.6366 13.1833 12.7404C13.375 12.8442 13.5826 12.8962 13.8062 12.8962C14.3653 12.8962 14.9363 12.6566 15.5193 12.1774C16.1022 11.6982 16.6493 11.0114 17.1604 10.117L18.4781 10.7399C18.3983 11.1552 18.3543 11.5225 18.3463 11.842C18.3384 12.1614 18.3583 12.5288 18.4062 12.9441C18.6299 12.8323 18.8654 12.6845 19.113 12.5008C19.3606 12.3172 19.5962 12.0896 19.8198 11.818L20.9698 12.7045C20.5705 13.1996 20.1312 13.5949 19.6521 13.8904C19.1729 14.1859 18.7257 14.3337 18.3104 14.3337C17.9271 14.3337 17.6156 14.1979 17.376 13.9264C17.1364 13.6548 16.9927 13.2635 16.9448 12.7524C16.4816 13.2635 15.9825 13.6548 15.4474 13.9264C14.9123 14.1979 14.3653 14.3337 13.8062 14.3337Z" fill="url(#paint0_linear_4649_156266)"/>
<defs>
<linearGradient id="paint0_linear_4649_156266" x1="10.9432" y1="0.916992" x2="10.9432" y2="19.1253" gradientUnits="userSpaceOnUse">
<stop stop-color="#0D66C4"/>
<stop offset="0.572917" stop-color="#01458C"/>
<stop offset="1" stop-color="#0E4580"/>
</linearGradient>
</defs>
</svg>
