<svg width="32" height="32" viewBox="0 0 32 32" fill="none" xmlns="http://www.w3.org/2000/svg">
<path d="M18.1998 16.5665C20.0887 15.2776 21.5721 13.8554 22.6498 12.2998C23.7276 10.7443 24.2665 9.17761 24.2665 7.59984C24.2665 6.6665 24.1109 5.94428 23.7998 5.43317C23.4887 4.92206 23.0665 4.6665 22.5332 4.6665C21.2665 4.6665 20.1887 5.61095 19.2998 7.49984C18.4109 9.38873 17.9665 11.6109 17.9665 14.1665C17.9665 14.6109 17.9832 15.0332 18.0165 15.4332C18.0498 15.8332 18.1109 16.2109 18.1998 16.5665ZM3.99984 27.9998V25.9998H5.99984V27.9998H3.99984ZM9.49984 27.9998V25.9998H11.4998V27.9998H9.49984ZM14.9998 27.9998V25.9998H16.9998V27.9998H14.9998ZM20.4998 27.9998V25.9998H22.4998V27.9998H20.4998ZM25.9998 27.9998V25.9998H27.9998V27.9998H25.9998ZM4.0665 22.5332L2.6665 21.1332L4.79984 18.9998L2.6665 16.8665L4.0665 15.4665L6.19984 17.5998L8.33317 15.4665L9.73317 16.8665L7.59984 18.9998L9.73317 21.1332L8.33317 22.5332L6.19984 20.3998L4.0665 22.5332ZM20.5998 21.3332C19.8887 21.3332 19.2498 21.1776 18.6832 20.8665C18.1165 20.5554 17.6332 20.0998 17.2332 19.4998C16.6776 19.8109 16.1054 20.1054 15.5165 20.3832C14.9276 20.6609 14.3109 20.9221 13.6665 21.1665L12.9665 19.2998C13.5887 19.0554 14.1832 18.8054 14.7498 18.5498C15.3165 18.2943 15.8665 18.0109 16.3998 17.6998C16.2443 17.1887 16.1332 16.6387 16.0665 16.0498C15.9998 15.4609 15.9665 14.8332 15.9665 14.1665C15.9665 10.9221 16.5832 8.19428 17.8165 5.98317C19.0498 3.77206 20.6221 2.6665 22.5332 2.6665C23.6665 2.6665 24.5721 3.12206 25.2498 4.03317C25.9276 4.94428 26.2665 6.1665 26.2665 7.69984C26.2665 9.65539 25.6276 11.5665 24.3498 13.4332C23.0721 15.2998 21.2887 16.9776 18.9998 18.4665C19.2221 18.7554 19.4665 18.9721 19.7332 19.1165C19.9998 19.2609 20.2887 19.3332 20.5998 19.3332C21.3776 19.3332 22.1721 18.9998 22.9832 18.3332C23.7943 17.6665 24.5554 16.7109 25.2665 15.4665L27.0998 16.3332C26.9887 16.9109 26.9276 17.4221 26.9165 17.8665C26.9054 18.3109 26.9332 18.8221 26.9998 19.3998C27.3109 19.2443 27.6387 19.0387 27.9832 18.7832C28.3276 18.5276 28.6554 18.2109 28.9665 17.8332L30.5665 19.0665C30.011 19.7554 29.3998 20.3054 28.7332 20.7165C28.0665 21.1276 27.4443 21.3332 26.8665 21.3332C26.3332 21.3332 25.8998 21.1443 25.5665 20.7665C25.2332 20.3887 25.0332 19.8443 24.9665 19.1332C24.3221 19.8443 23.6276 20.3887 22.8832 20.7665C22.1387 21.1443 21.3776 21.3332 20.5998 21.3332Z" fill="white"/>
</svg>
