<svg width="48" height="48" viewBox="0 0 48 48" fill="none" xmlns="http://www.w3.org/2000/svg">
<mask id="path-1-outside-1_757_50653" maskUnits="userSpaceOnUse" x="2" y="2" width="44" height="44" fill="black">
<rect fill="white" x="2" y="2" width="44" height="44"/>
<path fill-rule="evenodd" clip-rule="evenodd" d="M4 24C4 12.9543 12.9543 4 24 4C29.3043 4 34.3914 6.10714 38.1421 9.85786C41.8929 13.6086 44 18.6957 44 24C44 35.0457 35.0457 44 24 44C12.9543 44 4 35.0457 4 24ZM23.46 31.22L32.6 19.22V19.16C33.0359 18.5884 33.1337 17.8276 32.8565 17.1644C32.5794 16.5011 31.9695 16.036 31.2565 15.9444C30.5436 15.8527 29.8359 16.1484 29.4 16.72L21.84 26.72L18.58 22.56C18.1406 21.9955 17.4334 21.7084 16.7248 21.8067C16.0162 21.905 15.4139 22.3739 15.1448 23.0367C14.8757 23.6995 14.9806 24.4555 15.42 25.02L20.3 31.24C20.6816 31.723 21.2644 32.0033 21.88 32C22.499 31.9985 23.0824 31.7105 23.46 31.22Z"/>
</mask>
<path fill-rule="evenodd" clip-rule="evenodd" d="M4 24C4 12.9543 12.9543 4 24 4C29.3043 4 34.3914 6.10714 38.1421 9.85786C41.8929 13.6086 44 18.6957 44 24C44 35.0457 35.0457 44 24 44C12.9543 44 4 35.0457 4 24ZM23.46 31.22L32.6 19.22V19.16C33.0359 18.5884 33.1337 17.8276 32.8565 17.1644C32.5794 16.5011 31.9695 16.036 31.2565 15.9444C30.5436 15.8527 29.8359 16.1484 29.4 16.72L21.84 26.72L18.58 22.56C18.1406 21.9955 17.4334 21.7084 16.7248 21.8067C16.0162 21.905 15.4139 22.3739 15.1448 23.0367C14.8757 23.6995 14.9806 24.4555 15.42 25.02L20.3 31.24C20.6816 31.723 21.2644 32.0033 21.88 32C22.499 31.9985 23.0824 31.7105 23.46 31.22Z" fill="#54D62C"/>
<path d="M32.6 19.22L34.191 20.4318L34.6 19.8949V19.22H32.6ZM23.46 31.22L25.0448 32.44L25.051 32.4318L23.46 31.22ZM32.6 19.16L31.0096 17.9473L30.6 18.4845V19.16H32.6ZM32.8565 17.1644L31.0111 17.9353L31.0111 17.9354L32.8565 17.1644ZM31.2565 15.9444L31.0015 17.928L31.2565 15.9444ZM29.4 16.72L27.8096 15.5073L27.8046 15.5139L29.4 16.72ZM21.84 26.72L20.2658 27.9536L21.8685 29.9988L23.4354 27.9261L21.84 26.72ZM18.58 22.56L17.0018 23.7886L17.0058 23.7936L18.58 22.56ZM15.1448 23.0367L13.2917 22.2842L13.2917 22.2842L15.1448 23.0367ZM15.42 25.02L13.8418 26.2486L13.8465 26.2545L15.42 25.02ZM20.3 31.24L18.7265 32.4745L18.7308 32.48L20.3 31.24ZM21.88 32L21.8752 30L21.8692 30L21.88 32ZM24 2C11.8497 2 2 11.8497 2 24H6C6 14.0589 14.0589 6 24 6V2ZM39.5564 8.44365C35.4305 4.31785 29.8348 2 24 2V6C28.7739 6 33.3523 7.89642 36.7279 11.2721L39.5564 8.44365ZM46 24C46 18.1652 43.6822 12.5695 39.5564 8.44365L36.7279 11.2721C40.1036 14.6477 42 19.2261 42 24H46ZM24 46C36.1503 46 46 36.1503 46 24H42C42 33.9411 33.9411 42 24 42V46ZM2 24C2 36.1503 11.8497 46 24 46V42C14.0589 42 6 33.9411 6 24H2ZM31.009 18.0082L21.869 30.0082L25.051 32.4318L34.191 20.4318L31.009 18.0082ZM30.6 19.16V19.22H34.6V19.16H30.6ZM31.0111 17.9354C31.0128 17.9393 31.0122 17.9439 31.0096 17.9473L34.1904 20.3727C35.0595 19.2329 35.2545 17.716 34.702 16.3934L31.0111 17.9354ZM31.0015 17.928C31.0058 17.9286 31.0095 17.9314 31.0111 17.9353L34.702 16.3934C34.1494 15.0708 32.9332 14.1434 31.5116 13.9607L31.0015 17.928ZM30.9904 17.9327C30.993 17.9293 30.9973 17.9275 31.0015 17.928L31.5116 13.9607C30.0899 13.7779 28.6787 14.3675 27.8096 15.5073L30.9904 17.9327ZM23.4354 27.9261L30.9954 17.9261L27.8046 15.5139L20.2446 25.5139L23.4354 27.9261ZM17.0058 23.7936L20.2658 27.9536L23.4142 25.4864L20.1542 21.3264L17.0058 23.7936ZM16.9997 23.7877C17.0005 23.7876 17.0013 23.7879 17.0018 23.7886L20.1582 21.3314C19.2798 20.2031 17.8662 19.6291 16.4499 19.8257L16.9997 23.7877ZM16.9978 23.7891C16.9982 23.7884 16.9989 23.7878 16.9997 23.7877L16.4499 19.8257C15.0336 20.0222 13.8297 20.9594 13.2917 22.2842L16.9978 23.7891ZM16.9982 23.7914C16.9977 23.7908 16.9975 23.7899 16.9978 23.7891L13.2917 22.2842C12.7538 23.6091 12.9635 25.1203 13.8418 26.2486L16.9982 23.7914ZM21.8735 30.0055L16.9935 23.7855L13.8465 26.2545L18.7265 32.4745L21.8735 30.0055ZM21.8692 30L21.8692 30L18.7308 32.48C19.4941 33.4459 20.6596 34.0066 21.8908 34L21.8692 30ZM21.8752 30L21.8752 30L21.8848 34C23.1228 33.997 24.2896 33.421 25.0448 32.44L21.8752 30Z" fill="white" mask="url(#path-1-outside-1_757_50653)"/>
</svg>
