<svg width="46" height="47" viewBox="0 0 46 47" fill="none" xmlns="http://www.w3.org/2000/svg">
<rect width="46" height="47" rx="23" fill="#00DF80" fill-opacity="0.1"/>
<rect x="15.085" y="15.585" width="15.83" height="15.83" rx="7.915" fill="white"/>
<mask id="mask0_4968_128287" style="mask-type:alpha" maskUnits="userSpaceOnUse" x="6" y="7" width="34" height="33">
<rect x="6.5" y="7" width="33" height="33" fill="#D9D9D9"/>
</mask>
<g mask="url(#mask0_4968_128287)">
<path d="M20.9632 29.7119L30.6554 20.0197L28.7307 18.095L24.847 21.9788L20.9632 25.8625L17.0451 21.9444L15.1204 23.8691L20.9632 29.7119ZM22.8879 37.1357C20.9862 37.1357 19.1989 36.7746 17.5263 36.0524C15.8536 35.3311 14.3987 34.3518 13.1614 33.1145C11.9241 31.8772 10.9448 30.4222 10.2235 28.7496C9.50125 27.0769 9.14014 25.2897 9.14014 23.3879C9.14014 21.4862 9.50125 19.6989 10.2235 18.0263C10.9448 16.3536 11.9241 14.8987 13.1614 13.6614C14.3987 12.4241 15.8536 11.4443 17.5263 10.7221C19.1989 10.0008 20.9862 9.64014 22.8879 9.64014C24.7897 9.64014 26.5769 10.0008 28.2496 10.7221C29.9222 11.4443 31.3772 12.4241 32.6145 13.6614C33.8518 14.8987 34.8311 16.3536 35.5524 18.0263C36.2746 19.6989 36.6357 21.4862 36.6357 23.3879C36.6357 25.2897 36.2746 27.0769 35.5524 28.7496C34.8311 30.4222 33.8518 31.8772 32.6145 33.1145C31.3772 34.3518 29.9222 35.3311 28.2496 36.0524C26.5769 36.7746 24.7897 37.1357 22.8879 37.1357Z" fill="#00DF80"/>
</g>
</svg>
