<svg width="10" height="13" viewBox="0 0 10 13" fill="none" xmlns="http://www.w3.org/2000/svg">
<path d="M0.109375 6.6875C0.317708 5.73958 0.828125 4.73177 1.64062 3.66406C2.45312 2.59635 3.57292 1.45833 5 0.25C6.42708 1.45833 7.54688 2.59635 8.35938 3.66406C9.17188 4.73177 9.68229 5.73958 9.89062 6.6875H8.92188C8.71354 5.9375 8.27865 5.1224 7.61719 4.24219C6.95573 3.36198 6.08333 2.44792 5 1.5C3.91667 2.44792 3.04427 3.36198 2.38281 4.24219C1.72135 5.1224 1.28646 5.9375 1.07812 6.6875H0.109375ZM9.98438 7.625C9.98438 7.88542 9.96875 8.14583 9.9375 8.40625C9.90625 8.66667 9.85417 8.92188 9.78125 9.17188L6.375 12.5781C6.125 12.6406 5.8724 12.6875 5.61719 12.7188C5.36198 12.75 5.10417 12.7604 4.84375 12.75L9.98438 7.625ZM6.65625 7.625H8L3.1875 12.4375C3.03125 12.375 2.8776 12.3073 2.72656 12.2344C2.57552 12.1615 2.42708 12.0781 2.28125 11.9844L6.65625 7.625ZM3.32812 7.625H4.67188L1.21875 11.0625C1.11458 10.9479 1.01823 10.8255 0.929688 10.6953C0.841146 10.5651 0.755208 10.4271 0.671875 10.2812L3.32812 7.625ZM0 7.64062L1.34375 7.625L0.125 8.84375C0.0729167 8.64583 0.0390625 8.44792 0.0234375 8.25C0.0078125 8.05208 0 7.84896 0 7.64062Z" fill="#1F2C39"/>
</svg>
