<svg width="26" height="25" viewBox="0 0 26 25" fill="none" xmlns="http://www.w3.org/2000/svg">
<path d="M19.4479 9.1875L18.3021 6.73958L15.8542 5.59375L18.3021 4.44792L19.4479 2L20.5938 4.44792L23.0417 5.59375L20.5938 6.73958L19.4479 9.1875ZM21.6354 16.7135L20.8604 15.0667L19.2135 14.2917L20.8604 13.5167L21.6354 11.8698L22.4104 13.5167L24.0573 14.2917L22.4104 15.0667L21.6354 16.7135ZM8.01563 22.8333L7.75521 20.4375C7.51215 20.4028 7.26042 20.3247 7 20.2031C6.73958 20.0816 6.51389 19.934 6.32292 19.7604L4.29167 20.6198L2 16.8698L3.97917 15.5677C3.89236 15.2726 3.84896 15.0122 3.84896 14.7865C3.84896 14.5608 3.89236 14.3003 3.97917 14.0052L2 12.7031L4.29167 8.95313L6.32292 9.8125C6.51389 9.63889 6.73958 9.49132 7 9.36979C7.26042 9.24826 7.51215 9.17014 7.75521 9.13542L8.01758 6.73958H12.3906L12.651 9.13542C12.8941 9.17014 13.1458 9.24826 13.4063 9.36979C13.6667 9.49132 13.8924 9.63889 14.0833 9.8125L16.1146 8.95313L18.4062 12.7031L16.4271 14.0052C16.5139 14.3003 16.5573 14.5608 16.5573 14.7865C16.5573 15.0122 16.5139 15.2726 16.4271 15.5677L18.4062 16.8698L16.1146 20.6198L14.0833 19.7604C13.8924 19.934 13.6667 20.0816 13.4063 20.2031C13.1458 20.3247 12.8941 20.4028 12.651 20.4375L12.3887 22.8333H8.01563ZM10.2031 17.7813C11.0712 17.7813 11.7873 17.4991 12.3516 16.9349C12.9158 16.3707 13.1979 15.6545 13.1979 14.7865C13.1979 13.9184 12.9158 13.2023 12.3516 12.638C11.7873 12.0738 11.0712 11.7917 10.2031 11.7917C9.33507 11.7917 8.61892 12.0738 8.05469 12.638C7.49045 13.2023 7.20833 13.9184 7.20833 14.7865C7.20833 15.6545 7.49045 16.3707 8.05469 16.9349C8.61892 17.4991 9.33507 17.7813 10.2031 17.7813ZM10.2031 16.2188C9.78646 16.2188 9.44358 16.0842 9.17448 15.8151C8.90538 15.546 8.77083 15.2031 8.77083 14.7865C8.77083 14.3698 8.90538 14.0269 9.17448 13.7578C9.44358 13.4887 9.78646 13.3542 10.2031 13.3542C10.6198 13.3542 10.9627 13.4887 11.2318 13.7578C11.5009 14.0269 11.6354 14.3698 11.6354 14.7865C11.6354 15.2031 11.5009 15.546 11.2318 15.8151C10.9627 16.0842 10.6198 16.2188 10.2031 16.2188ZM9.31771 21.2708H11.0885L11.2969 19.2917C11.8003 19.1701 12.2604 18.9965 12.6771 18.7708C13.0938 18.5451 13.4737 18.25 13.8169 17.8854L15.5156 18.6406L16.375 17.2865L14.7604 16.1406C14.9514 15.7066 15.0469 15.2552 15.0469 14.7865C15.0469 14.3177 14.9514 13.8663 14.7604 13.4323L16.375 12.2865L15.5156 10.9323L13.8169 11.6875C13.4737 11.3229 13.0938 11.0278 12.6771 10.8021C12.2604 10.5764 11.8003 10.4028 11.2969 10.2812L11.0885 8.30208H9.31771L9.10938 10.2812C8.6059 10.4028 8.14583 10.5764 7.72917 10.8021C7.3125 11.0278 6.93258 11.3229 6.5894 11.6875L4.89063 10.9323L4.03125 12.2865L5.64583 13.4323C5.45486 13.8663 5.35938 14.3177 5.35938 14.7865C5.35938 15.2552 5.45486 15.7066 5.64583 16.1406L4.03125 17.2865L4.89063 18.6406L6.5894 17.8854C6.93258 18.25 7.3125 18.5451 7.72917 18.7708C8.14583 18.9965 8.6059 19.1701 9.10938 19.2917L9.31771 21.2708Z" fill="url(#paint0_linear_5194_7735)"/>
<defs>
<linearGradient id="paint0_linear_5194_7735" x1="13.0286" y1="2" x2="13.0286" y2="41.7135" gradientUnits="userSpaceOnUse">
<stop stop-color="#3390EC"/>
<stop offset="1" stop-color="#0E559C"/>
</linearGradient>
</defs>
</svg>
