<svg width="123" height="109" viewBox="0 0 123 109" fill="none" xmlns="http://www.w3.org/2000/svg">
<g clip-path="url(#clip0_4773_147218)">
<path d="M99.565 93.0367C120.852 71.7535 120.852 37.2465 99.565 15.9633C78.2784 -5.31995 43.7659 -5.31995 22.4793 15.9633C1.19273 37.2465 1.19273 71.7535 22.4793 93.0367C43.7659 114.32 78.2784 114.32 99.565 93.0367Z" fill="#3E6A9D"/>
<path d="M109.562 59.1046L109.335 60.2921H110.544H114.376C118.421 60.2921 122 64.2531 122 69.4446C122 74.6362 118.421 78.5972 114.376 78.5972H8.62207C4.5778 78.5972 0.998291 74.6362 0.998291 69.4446C0.998291 64.2531 4.5778 60.2921 8.62207 60.2921H11.8662H13.075L12.8484 59.1046C12.5088 57.325 12.3249 55.4755 12.3249 53.5761C12.3249 39.5995 21.9188 28.5567 33.4265 28.5567C36.5817 28.5567 39.5765 29.3839 42.2728 30.8642L43.2882 31.4216L43.6915 30.3358C46.9921 21.4492 54.4579 15.3818 63.0088 15.3818C71.1318 15.3818 78.2695 20.8559 81.7974 29.0218L82.166 29.875L83.0438 29.5697C84.9316 28.9132 86.9218 28.5567 88.9839 28.5567C100.492 28.5567 110.086 39.5995 110.086 53.5761C110.086 55.4772 109.902 57.325 109.562 59.1046Z" fill="#F6FBFE" stroke="#3E6A9D" stroke-width="2"/>
<path d="M84.6399 68.0404L66.4378 40.7415C64.8918 38.4247 61.4869 38.4247 59.941 40.7415L41.7388 68.0404C40.0096 70.6338 41.8685 74.1091 44.9864 74.1091H54.0027V92.8979C54.0027 94.3174 55.1648 95.4793 56.5845 95.4793H69.7942C71.2139 95.4793 72.376 94.3174 72.376 92.8979V74.1091H81.3923C84.5102 74.1091 86.3691 70.6338 84.6399 68.0404Z" fill="white"/>
<path d="M82.5119 68.3178L82.5121 68.3179C84.0211 70.5788 82.3992 73.6091 79.6804 73.6091H70.6641H70.1641V74.1091V92.8979C70.1641 94.0412 69.226 94.9793 68.0823 94.9793H54.8726C53.7289 94.9793 52.7908 94.0412 52.7908 92.8979V74.1091V73.6091H52.2908H43.2745C40.5561 73.6091 38.9352 70.579 40.4429 68.3178L58.645 41.0191C59.993 38.9989 62.9619 38.9989 64.3099 41.0191L82.5119 68.3178Z" fill="#3E6A9D" stroke="white"/>
</g>
<defs>
<clipPath id="clip0_4773_147218">
<rect width="123" height="109" fill="white"/>
</clipPath>
</defs>
</svg>
