<svg width="17" height="20" viewBox="0 0 17 20" fill="none" xmlns="http://www.w3.org/2000/svg">
<path d="M7.8 16.95H9.3V11.925L11.35 13.975L12.4 12.925L8.5 9.125L4.65 12.975L5.7 14.025L7.8 11.925V16.95ZM2 20C1.6 20 1.25 19.85 0.95 19.55C0.65 19.25 0.5 18.9 0.5 18.5V1.5C0.5 1.1 0.65 0.75 0.95 0.45C1.25 0.15 1.6 0 2 0H11.025L16.5 5.475V18.5C16.5 18.9 16.35 19.25 16.05 19.55C15.75 19.85 15.4 20 15 20H2ZM10.275 6.15V1.5H2V18.5H15V6.15H10.275Z" fill="url(#paint0_linear_3487_142904)"/>
<defs>
<linearGradient id="paint0_linear_3487_142904" x1="8.5" y1="0" x2="8.5" y2="20" gradientUnits="userSpaceOnUse">
<stop stop-color="#5691CF"/>
<stop offset="0.46875" stop-color="#2469B1"/>
<stop offset="1" stop-color="#02458B"/>
</linearGradient>
</defs>
</svg>
