<svg width="24" height="24" viewBox="0 0 24 24" fill="none" xmlns="http://www.w3.org/2000/svg">
<path d="M14.7259 23.068H4.84693C4.35681 23.068 3.96118 22.6784 3.96118 22.2086V1.79135C3.96118 1.31586 4.36272 0.932037 4.84693 0.932037H14.7259C15.216 0.932037 15.6117 1.32159 15.6117 1.79135V22.2086C15.6117 22.6841 15.216 23.068 14.7259 23.068Z" fill="black" stroke="black" stroke-miterlimit="10"/>
<path d="M14.4466 3.02911H4.66022V20.2718H14.4466V3.02911Z" fill="white"/>
<path d="M7.68933 2.09708H11.8835" stroke="white" stroke-width="0.5" stroke-miterlimit="10" stroke-linecap="round"/>
<path d="M9.78641 22.6019C10.3012 22.6019 10.7184 22.1325 10.7184 21.5534C10.7184 20.9743 10.3012 20.5049 9.78641 20.5049C9.27166 20.5049 8.85437 20.9743 8.85437 21.5534C8.85437 22.1325 9.27166 22.6019 9.78641 22.6019Z" fill="white"/>
<path d="M13.2646 18.1748V18.7241L13.6788 18.3633L15.5286 16.7519H21.7049C21.8943 16.7519 22.0701 16.6682 22.1953 16.5293C22.3198 16.3913 22.3859 16.2091 22.3859 16.0239V9.33234C22.3859 9.14713 22.3198 8.96496 22.1953 8.82693C22.0701 8.68805 21.8943 8.60437 21.7049 8.60437H13.9457C13.7562 8.60437 13.5805 8.68805 13.4552 8.82693C13.3307 8.96496 13.2646 9.14713 13.2646 9.33234V18.1748ZM16.2821 12.9061H15.9199V12.4502H16.2821V12.9061ZM18.0063 12.9061H17.6442V12.4502H18.0063V12.9061ZM19.7306 12.9061H19.3685V12.4502H19.7306V12.9061Z" fill="#005BEA" stroke="#E6EEFF" stroke-width="0.5"/>
</svg>
