<svg width="49" height="43" viewBox="0 0 49 43" fill="none" xmlns="http://www.w3.org/2000/svg">
    <mask id="path-1-outside-1_980_26231" maskUnits="userSpaceOnUse" x="0.525208" y="0.995117" width="48" height="43" fill="black">
        <rect fill="white" x="0.525208" y="0.995117" width="48" height="43"/>
        <path fill-rule="evenodd" clip-rule="evenodd" d="M45.62 31.6004L30.28 6.16036C29.0195 4.18836 26.8405 2.99512 24.5 2.99512C22.1595 2.99512 19.9806 4.18836 18.72 6.16036L3.38002 31.6004C2.27711 33.4389 2.23899 35.7261 3.28002 37.6004C4.48397 39.7106 6.73048 41.0096 9.16002 41.0004H39.84C42.253 41.0261 44.4957 39.7598 45.72 37.6804C46.7922 35.7856 46.7539 33.4588 45.62 31.6004ZM24.5 33.0004C23.3954 33.0004 22.5 32.1049 22.5 31.0004C22.5 29.8958 23.3954 29.0004 24.5 29.0004C25.6046 29.0004 26.5 29.8958 26.5 31.0004C26.5 32.1049 25.6046 33.0004 24.5 33.0004ZM24.5 27.0004C25.6046 27.0004 26.5 26.1049 26.5 25.0004V17.0004C26.5 15.8958 25.6046 15.0004 24.5 15.0004C23.3954 15.0004 22.5 15.8958 22.5 17.0004V25.0004C22.5 26.1049 23.3954 27.0004 24.5 27.0004Z"/>
    </mask>
    <path fill-rule="evenodd" clip-rule="evenodd" d="M45.62 31.6004L30.28 6.16036C29.0195 4.18836 26.8405 2.99512 24.5 2.99512C22.1595 2.99512 19.9806 4.18836 18.72 6.16036L3.38002 31.6004C2.27711 33.4389 2.23899 35.7261 3.28002 37.6004C4.48397 39.7106 6.73048 41.0096 9.16002 41.0004H39.84C42.253 41.0261 44.4957 39.7598 45.72 37.6804C46.7922 35.7856 46.7539 33.4588 45.62 31.6004ZM24.5 33.0004C23.3954 33.0004 22.5 32.1049 22.5 31.0004C22.5 29.8958 23.3954 29.0004 24.5 29.0004C25.6046 29.0004 26.5 29.8958 26.5 31.0004C26.5 32.1049 25.6046 33.0004 24.5 33.0004ZM24.5 27.0004C25.6046 27.0004 26.5 26.1049 26.5 25.0004V17.0004C26.5 15.8958 25.6046 15.0004 24.5 15.0004C23.3954 15.0004 22.5 15.8958 22.5 17.0004V25.0004C22.5 26.1049 23.3954 27.0004 24.5 27.0004Z" fill="#FFC107"/>
    <path d="M30.28 6.16036L31.9927 5.12761L31.9792 5.10521L31.9651 5.08318L30.28 6.16036ZM45.62 31.6004L43.9073 32.6331L43.9127 32.6421L45.62 31.6004ZM18.72 6.16036L17.0349 5.08318L17.0208 5.10521L17.0073 5.12761L18.72 6.16036ZM3.38002 31.6004L1.66729 30.5676L1.66495 30.5715L3.38002 31.6004ZM3.28002 37.6004L1.53162 38.5715L1.53718 38.5815L1.54285 38.5914L3.28002 37.6004ZM9.16002 41.0004L9.16002 39.0003L9.15238 39.0004L9.16002 41.0004ZM39.84 41.0004L39.8614 39.0005L39.8507 39.0004H39.84V41.0004ZM45.72 37.6804L47.4435 38.6951L47.4522 38.6803L47.4607 38.6653L45.72 37.6804ZM28.5673 7.19312L43.9073 32.6331L47.3327 30.5676L31.9927 5.12761L28.5673 7.19312ZM24.5 4.99512C26.1581 4.99512 27.7018 5.84048 28.5949 7.23755L31.9651 5.08318C30.3371 2.53625 27.5228 0.995117 24.5 0.995117V4.99512ZM20.4051 7.23755C21.2982 5.84048 22.8419 4.99512 24.5 4.99512V0.995117C21.4772 0.995117 18.663 2.53625 17.0349 5.08318L20.4051 7.23755ZM5.09274 32.6331L20.4327 7.19312L17.0073 5.12761L1.66729 30.5676L5.09274 32.6331ZM5.02841 36.6292C4.3344 35.3797 4.35981 33.8549 5.09508 32.6292L1.66495 30.5715C0.194411 33.0228 0.143582 36.0725 1.53162 38.5715L5.02841 36.6292ZM9.15238 39.0004C7.44377 39.0069 5.86388 38.0934 5.01719 36.6093L1.54285 38.5914C3.10405 41.3279 6.01718 43.0124 9.16766 43.0003L9.15238 39.0004ZM39.84 39.0004H9.16002V43.0004H39.84V39.0004ZM43.9966 36.6656C43.1355 38.1281 41.5583 39.0186 39.8614 39.0005L39.8187 43.0002C42.9477 43.0336 45.8558 41.3916 47.4435 38.6951L43.9966 36.6656ZM43.9127 32.6421C44.6686 33.881 44.6942 35.4322 43.9794 36.6954L47.4607 38.6653C48.8902 36.139 48.8392 33.0366 47.3273 30.5587L43.9127 32.6421ZM20.5 31.0004C20.5 33.2095 22.2909 35.0004 24.5 35.0004V31.0004H20.5ZM24.5 27.0004C22.2909 27.0004 20.5 28.7912 20.5 31.0004H24.5V27.0004ZM28.5 31.0004C28.5 28.7912 26.7092 27.0004 24.5 27.0004V31.0004H28.5ZM24.5 35.0004C26.7092 35.0004 28.5 33.2095 28.5 31.0004H24.5V35.0004ZM24.5 25.0004V29.0004C26.7092 29.0004 28.5 27.2095 28.5 25.0004H24.5ZM24.5 17.0004V25.0004H28.5V17.0004H24.5ZM24.5 17.0004H28.5C28.5 14.7912 26.7092 13.0004 24.5 13.0004V17.0004ZM24.5 17.0004V13.0004C22.2909 13.0004 20.5 14.7912 20.5 17.0004H24.5ZM24.5 25.0004V17.0004H20.5V25.0004H24.5ZM24.5 25.0004H20.5C20.5 27.2095 22.2909 29.0004 24.5 29.0004V25.0004Z" fill="white" mask="url(#path-1-outside-1_980_26231)"/>
</svg>
