<svg width="41" height="40" viewBox="0 0 41 40" fill="none" xmlns="http://www.w3.org/2000/svg">
    <defs>
        <linearGradient id="paint0_linear_2675_84790" x1="13.353" y1="11.3848" x2="20.4021" y2="28.6155" gradientUnits="userSpaceOnUse">
            <stop offset="0.322917" stop-color="#31CACD"/>
            <stop offset="1" stop-color="#0076EE"/>
        </linearGradient>
        <clipPath id="clip0_2675_84790">
            <rect width="17.2308" height="17.2308" fill="white" transform="translate(11.7871 11.3848)"/>
        </clipPath>
        <clipPath id="clip1_2675_84790">
            <rect width="17.2308" height="17.2308" fill="white" transform="translate(11.7871 11.3848)"/>
        </clipPath>
    </defs><circle cx="20" cy="20" r="16" fill="white"/>
<g clip-path="url(#clip0_2675_84790)">
<g clip-path="url(#clip1_2675_84790)">
<path d="M13.5098 13.1078C13.5098 12.1602 14.2852 11.3848 15.2328 11.3848H25.5713C26.0283 11.3848 26.4666 11.5663 26.7897 11.8894C27.1128 12.2126 27.2944 12.6509 27.2944 13.1078V26.8925C27.2944 27.3494 27.1128 27.7877 26.7897 28.1109C26.4666 28.434 26.0283 28.6155 25.5713 28.6155H15.2328C14.7759 28.6155 14.3376 28.434 14.0144 28.1109C13.6913 27.7877 13.5098 27.3494 13.5098 26.8925V13.1078ZM16.0944 13.9694V15.6925H24.7098V13.9694H16.0944ZM16.0944 17.4155V19.1386H17.8175V17.4155H16.0944ZM19.5405 17.4155V19.1386H21.2636V17.4155H19.5405ZM22.9867 17.4155V19.1386H24.7098V17.4155H22.9867ZM16.0944 20.8617V22.5848H17.8175V20.8617H16.0944ZM19.5405 20.8617V22.5848H21.2636V20.8617H19.5405ZM22.9867 20.8617V26.0309H24.7098V20.8617H22.9867ZM16.0944 24.3078V26.0309H17.8175V24.3078H16.0944ZM19.5405 24.3078V26.0309H21.2636V24.3078H19.5405Z" fill="url(#paint0_linear_2675_84790)"/>
</g>
</g>

</svg>
