<svg width="18" height="18" viewBox="0 0 18 18" fill="none" xmlns="http://www.w3.org/2000/svg">
<g clip-path="url(#clip0_3599_145262)">
<g clip-path="url(#clip1_3599_145262)">
<path d="M2.10791 2.10784C2.10791 1.16015 2.88329 0.384766 3.83099 0.384766H14.1694C14.6264 0.384766 15.0647 0.566304 15.3878 0.889443C15.711 1.21258 15.8925 1.65085 15.8925 2.10784V15.8925C15.8925 16.3494 15.711 16.7877 15.3878 17.1109C15.0647 17.434 14.6264 17.6155 14.1694 17.6155H3.83099C3.374 17.6155 2.93573 17.434 2.61259 17.1109C2.28945 16.7877 2.10791 16.3494 2.10791 15.8925V2.10784ZM4.69253 2.96938V4.69246H13.3079V2.96938H4.69253ZM4.69253 6.41554V8.13861H6.4156V6.41554H4.69253ZM8.13868 6.41554V8.13861H9.86176V6.41554H8.13868ZM11.5848 6.41554V8.13861H13.3079V6.41554H11.5848ZM4.69253 9.86169V11.5848H6.4156V9.86169H4.69253ZM8.13868 9.86169V11.5848H9.86176V9.86169H8.13868ZM11.5848 9.86169V15.0309H13.3079V9.86169H11.5848ZM4.69253 13.3078V15.0309H6.4156V13.3078H4.69253ZM8.13868 13.3078V15.0309H9.86176V13.3078H8.13868Z" fill="url(#paint0_linear_3599_145262)"/>
</g>
</g>
<defs>
<linearGradient id="paint0_linear_3599_145262" x1="1.95111" y1="0.384766" x2="9.00022" y2="17.6155" gradientUnits="userSpaceOnUse">
<stop offset="0.322917" stop-color="#31CACD"/>
<stop offset="1" stop-color="#0076EE"/>
</linearGradient>
<clipPath id="clip0_3599_145262">
<rect width="17.2308" height="17.2308" fill="white" transform="translate(0.384766 0.384766)"/>
</clipPath>
<clipPath id="clip1_3599_145262">
<rect width="17.2308" height="17.2308" fill="white" transform="translate(0.384766 0.384766)"/>
</clipPath>
</defs>
</svg>
