<svg width="21" height="21" viewBox="0 0 21 21" fill="none" xmlns="http://www.w3.org/2000/svg">
<path d="M9.69696 8.0567C9.54492 7.86712 9.46903 7.63862 9.46903 7.36908C9.46903 7.09616 9.55507 6.86666 9.72676 6.68158C9.89853 6.49554 10.1265 6.389 10.4115 6.36085V6.11523H10.7755V6.36085C11.0416 6.39235 11.2536 6.48285 11.4115 6.63212C11.5683 6.78131 11.6693 6.98089 11.7128 7.23085L11.0776 7.31281C11.0382 7.11658 10.9376 6.98354 10.7755 6.91366V7.88854C11.1774 7.996 11.4515 8.13681 11.5968 8.30816C11.7427 8.48046 11.8152 8.7015 11.8152 8.971C11.8152 9.2722 11.7238 9.52546 11.5403 9.73193C11.3568 9.93835 11.1024 10.0662 10.7755 10.1174V10.5832H10.4115V10.1226C10.1248 10.0876 9.89153 9.98166 9.71138 9.8035C9.53115 9.62516 9.41684 9.3727 9.36646 9.04781L10.0172 8.971C10.0436 9.10404 10.0939 9.21846 10.1676 9.31481C10.241 9.41123 10.3218 9.48016 10.4115 9.52381V8.47881C10.0863 8.38581 9.84788 8.24508 9.69696 8.0567Z" fill="url(#paint0_linear_3599_145242)"/>
<path d="M11.0818 9.38532C11.161 9.29313 11.2004 9.18486 11.2004 9.0594C11.2004 8.94848 11.1672 8.85213 11.1006 8.77194C11.0349 8.69101 10.9263 8.62959 10.7754 8.58594V9.56432C10.9009 9.53705 11.0033 9.47732 11.0818 9.38532Z" fill="white"/>
<path d="M10.4114 6.90332C10.3133 6.93828 10.2366 6.99547 10.1791 7.07563C10.1218 7.15586 10.0938 7.24371 10.0938 7.34009C10.0938 7.42794 10.1194 7.50974 10.1716 7.58571C10.2236 7.66086 10.3039 7.72224 10.4114 7.76824V6.90332Z" fill="white"/>
<path d="M10.9536 18.481C11.0489 18.4385 15.2399 12.824 15.2399 12.824C16.3146 11.4056 16.9341 9.77065 16.9844 8.22018C17.0394 6.52661 16.4312 5.01176 15.2256 3.83899C15.2244 3.83772 15.2231 3.83649 15.2218 3.83522C13.9895 2.63853 12.3448 1.97949 10.5908 1.97949C8.83685 1.97949 7.19227 2.63853 5.96004 3.83522C5.95877 3.83645 5.9575 3.83768 5.95631 3.83895C4.75058 5.01168 4.14231 6.52653 4.19727 8.22011C4.24758 9.77061 4.86719 11.4056 5.94192 12.824L10.2283 18.4809C10.3856 18.5361 10.4399 18.6071 10.5894 18.6075C10.7399 18.6079 10.8583 18.5235 10.9536 18.481ZM10.5909 5.07453C12.4047 5.07453 13.8802 6.54353 13.8802 8.34922C13.8802 10.1548 12.4047 11.6238 10.5909 11.6238C8.77719 11.6238 7.30169 10.1548 7.30169 8.34922C7.30169 6.54353 8.77719 5.07453 10.5909 5.07453Z" fill="url(#paint1_linear_3599_145242)"/>
<defs>
<linearGradient id="paint0_linear_3599_145242" x1="10.5908" y1="6.11523" x2="10.5908" y2="10.5832" gradientUnits="userSpaceOnUse">
<stop stop-color="#4737A9"/>
<stop offset="1" stop-color="#9F66BA"/>
</linearGradient>
<linearGradient id="paint1_linear_3599_145242" x1="10.5908" y1="1.97949" x2="10.5908" y2="18.6076" gradientUnits="userSpaceOnUse">
<stop stop-color="#4737A9"/>
<stop offset="1" stop-color="#9F66BA"/>
</linearGradient>
</defs>
</svg>
