<svg width="41" height="40" viewBox="0 0 41 40" fill="none" xmlns="http://www.w3.org/2000/svg">
    <defs>
        <linearGradient id="paint0_linear_2675_84770" x1="19.9929" y1="16.1152" x2="19.9929" y2="20.5832" gradientUnits="userSpaceOnUse">
            <stop stop-color="#4737A9"/>
            <stop offset="1" stop-color="#9F66BA"/>
        </linearGradient>
        <linearGradient id="paint1_linear_2675_84770" x1="19.9927" y1="11.9805" x2="19.9927" y2="28.6086" gradientUnits="userSpaceOnUse">
            <stop stop-color="#4737A9"/>
            <stop offset="1" stop-color="#9F66BA"/>
        </linearGradient>
    </defs><circle cx="20" cy="20" r="16" fill="white"/>
<path d="M19.0991 18.0567C18.947 17.8671 18.8711 17.6386 18.8711 17.3691C18.8711 17.0962 18.9572 16.8667 19.1289 16.6816C19.3006 16.4955 19.5286 16.389 19.8136 16.3608V16.1152H20.1776V16.3608C20.4437 16.3923 20.6557 16.4828 20.8136 16.6321C20.9704 16.7813 21.0714 16.9809 21.1149 17.2308L20.4797 17.3128C20.4403 17.1166 20.3397 16.9835 20.1776 16.9137V17.8885C20.5795 17.996 20.8536 18.1368 20.9989 18.3082C21.1448 18.4805 21.2173 18.7015 21.2173 18.971C21.2173 19.2722 21.1259 19.5255 20.9424 19.7319C20.7589 19.9383 20.5045 20.0662 20.1776 20.1174V20.5832H19.8136V20.1226C19.5269 20.0876 19.2936 19.9817 19.1135 19.8035C18.9332 19.6252 18.8189 19.3727 18.7686 19.0478L19.4193 18.971C19.4457 19.104 19.496 19.2185 19.5697 19.3148C19.6431 19.4112 19.7239 19.4802 19.8136 19.5238V18.4788C19.4884 18.3858 19.25 18.2451 19.0991 18.0567Z" fill="url(#paint0_linear_2675_84770)"/>
<path d="M20.4832 19.3873C20.5624 19.2951 20.6018 19.1868 20.6018 19.0614C20.6018 18.9504 20.5686 18.8541 20.5019 18.7739C20.4362 18.693 20.3277 18.6315 20.1768 18.5879V19.5663C20.3022 19.539 20.4047 19.4793 20.4832 19.3873Z" fill="white"/>
<path d="M19.8137 16.9043C19.7156 16.9393 19.6389 16.9965 19.5815 17.0766C19.5242 17.1568 19.4961 17.2447 19.4961 17.3411C19.4961 17.4289 19.5217 17.5107 19.5739 17.5867C19.626 17.6618 19.7063 17.7232 19.8137 17.7692V16.9043Z" fill="white"/>
<path d="M20.3554 28.4819C20.4508 28.4394 24.6418 22.825 24.6418 22.825C25.7164 21.4066 26.336 19.7716 26.3863 18.2212C26.4413 16.5276 25.833 15.0127 24.6274 13.84C24.6262 13.8387 24.625 13.8375 24.6237 13.8362C23.3913 12.6395 21.7467 11.9805 19.9927 11.9805C18.2387 11.9805 16.5941 12.6395 15.3619 13.8362C15.3606 13.8374 15.3594 13.8387 15.3582 13.8399C14.1524 15.0127 13.5442 16.5275 13.5991 18.2211C13.6494 19.7716 14.269 21.4066 15.3438 22.8249L19.6301 28.4819C19.7875 28.537 19.8418 28.6081 19.9912 28.6085C20.1418 28.6089 20.2601 28.5244 20.3554 28.4819ZM19.9927 15.0755C21.8065 15.0755 23.2821 16.5445 23.2821 18.3502C23.2821 20.1558 21.8065 21.6248 19.9927 21.6248C18.179 21.6248 16.7035 20.1558 16.7035 18.3502C16.7035 16.5445 18.179 15.0755 19.9927 15.0755Z" fill="url(#paint1_linear_2675_84770)"/>

</svg>
