<svg width="23" height="23" viewBox="0 0 23 23" fill="none" xmlns="http://www.w3.org/2000/svg">
<path d="M3.26343 1.78516L12.4209 1.78516C11.8217 2.30703 11.3415 2.95155 11.013 3.67508C10.6844 4.39861 10.5151 5.18427 10.5166 5.97891C10.5141 6.71587 10.6614 7.44564 10.9497 8.12391L5.80718 8.12391C5.71718 8.11459 5.62622 8.12427 5.5402 8.15233C5.45418 8.18039 5.37501 8.2262 5.30782 8.28679C5.24062 8.34739 5.1869 8.42142 5.15013 8.50409C5.11336 8.58676 5.09436 8.67624 5.09436 8.76672C5.09436 8.8572 5.11336 8.94667 5.15013 9.02935C5.1869 9.11202 5.24062 9.18605 5.30782 9.24664C5.37501 9.30724 5.45418 9.35305 5.5402 9.38111C5.62622 9.40917 5.71718 9.41885 5.80718 9.40953L11.6991 9.40953C11.8091 9.54703 11.9328 9.68453 12.0566 9.81516C12.5761 10.3589 13.2002 10.792 13.8913 11.0885C14.5825 11.3851 15.3264 11.5389 16.0784 11.5408C16.1608 11.5476 16.2436 11.5476 16.3259 11.5408L16.3259 19.6602C16.3259 20.0248 16.1811 20.3746 15.9232 20.6324C15.6653 20.8903 15.3156 21.0352 14.9509 21.0352L3.26343 21.0352C2.89875 21.0352 2.54902 20.8903 2.29115 20.6324C2.03329 20.3746 1.88843 20.0248 1.88843 19.6602L1.88843 3.16015C1.88843 2.79548 2.03329 2.44575 2.29115 2.18788C2.54902 1.93002 2.89876 1.78516 3.26343 1.78516ZM5.80718 14.6964L12.4072 14.6964C12.4972 14.7057 12.5881 14.696 12.6742 14.668C12.7602 14.6399 12.8393 14.5941 12.9065 14.5335C12.9737 14.4729 13.0275 14.3989 13.0642 14.3162C13.101 14.2335 13.12 14.1441 13.12 14.0536C13.12 13.9631 13.101 13.8736 13.0642 13.791C13.0275 13.7083 12.9737 13.6343 12.9065 13.5737C12.8393 13.5131 12.7602 13.4673 12.6742 13.4392C12.5881 13.4111 12.4972 13.4015 12.4072 13.4108L5.80718 13.4108C5.71718 13.4015 5.62622 13.4111 5.5402 13.4392C5.45418 13.4673 5.37501 13.5131 5.30782 13.5737C5.24062 13.6343 5.1869 13.7083 5.15013 13.791C5.11336 13.8736 5.09436 13.9631 5.09436 14.0536C5.09436 14.1441 5.11336 14.2335 5.15013 14.3162C5.1869 14.3989 5.24062 14.4729 5.30782 14.5335C5.37501 14.5941 5.45418 14.6399 5.5402 14.668C5.62622 14.696 5.71718 14.7057 5.80718 14.6964ZM5.80718 12.0495L12.4072 12.0495C12.5767 12.0495 12.7394 11.9822 12.8593 11.8623C12.9792 11.7424 13.0466 11.5797 13.0466 11.4102C13.0466 11.2406 12.9792 11.078 12.8593 10.958C12.7394 10.8381 12.5767 10.7708 12.4072 10.7708L5.80718 10.7708C5.6376 10.7708 5.47498 10.8381 5.35507 10.958C5.23516 11.078 5.1678 11.2406 5.1678 11.4102C5.1678 11.5797 5.23516 11.7424 5.35507 11.8623C5.47498 11.9822 5.6376 12.0495 5.80718 12.0495Z" fill="url(#paint0_linear_3599_145283)"/>
<path d="M16.5804 1.31738C14.049 1.31738 11.9971 3.36928 11.9971 5.90072C11.9971 8.43215 14.049 10.484 16.5804 10.4841C19.1118 10.4841 21.1637 8.43215 21.1637 5.90072C21.1637 3.36928 19.1118 1.31738 16.5804 1.31738ZM17.0387 8.18895L17.0387 8.65072C17.0387 8.77733 16.9362 8.87988 16.8096 8.87988L16.3512 8.87988C16.2246 8.87988 16.1221 8.77733 16.1221 8.65072L16.1221 8.18408C15.7987 8.16746 15.4841 8.0546 15.2234 7.85895C15.1117 7.77501 15.106 7.60772 15.2071 7.51119L15.5437 7.19007C15.6231 7.11444 15.7411 7.111 15.8339 7.16915C15.9448 7.23848 16.0705 7.27572 16.2011 7.27572L17.0064 7.27572C17.1926 7.27572 17.3444 7.10613 17.3444 6.89788C17.3444 6.72744 17.241 6.57733 17.0932 6.53322L15.8041 6.1465C15.2716 5.98665 14.8995 5.47561 14.8995 4.90355C14.8995 4.20116 15.4452 3.63053 16.1218 3.61249L16.1218 3.15072C16.1218 3.0241 16.2243 2.92155 16.351 2.92155L16.8093 2.92155C16.9359 2.92155 17.0385 3.0241 17.0385 3.15072L17.0385 3.61736C17.3619 3.63397 17.6764 3.74655 17.9371 3.94249C18.0488 4.02642 18.0545 4.19371 17.9534 4.29025L17.6168 4.61137C17.5375 4.68699 17.4194 4.69043 17.3266 4.63228C17.2158 4.56267 17.09 4.52572 16.9594 4.52572L16.1542 4.52572C15.968 4.52572 15.8161 4.6953 15.8161 4.90356C15.8161 5.074 15.9195 5.2241 16.0674 5.26822L17.3564 5.65494C17.8889 5.81478 18.2611 6.32582 18.2611 6.89788C18.2611 7.60056 17.7156 8.1709 17.0387 8.18895Z" fill="url(#paint1_linear_3599_145283)"/>
<defs>
<linearGradient id="paint0_linear_3599_145283" x1="9.10718" y1="1.78516" x2="9.10718" y2="21.0352" gradientUnits="userSpaceOnUse">
<stop stop-color="#3366FF"/>
<stop offset="1" stop-color="#4D779E"/>
</linearGradient>
<linearGradient id="paint1_linear_3599_145283" x1="16.5804" y1="1.31738" x2="16.5804" y2="10.4841" gradientUnits="userSpaceOnUse">
<stop stop-color="#1C41C2"/>
<stop offset="1" stop-color="#4D779E"/>
</linearGradient>
</defs>
</svg>
