<svg width="41" height="40" viewBox="0 0 41 40" fill="none" xmlns="http://www.w3.org/2000/svg">
    <defs>
        <linearGradient id="paint0_linear_2675_84811" x1="18.5107" y1="10.7852" x2="18.5107" y2="30.0352" gradientUnits="userSpaceOnUse">
            <stop stop-color="#3366FF"/>
            <stop offset="1" stop-color="#4D779E"/>
        </linearGradient>
        <linearGradient id="paint1_linear_2675_84811" x1="25.9837" y1="10.3184" x2="25.9837" y2="19.485" gradientUnits="userSpaceOnUse">
            <stop stop-color="#1C41C2"/>
            <stop offset="1" stop-color="#4D779E"/>
        </linearGradient>
    </defs><circle cx="20" cy="20" r="16" fill="white"/>
<path d="M12.667 10.7852L21.8245 10.7852C21.2253 11.307 20.7451 11.9515 20.4166 12.6751C20.088 13.3986 19.9187 14.1843 19.9201 14.9789C19.9177 15.7159 20.065 16.4456 20.3532 17.1239L15.2107 17.1239C15.1207 17.1146 15.0298 17.1243 14.9438 17.1523C14.8577 17.1804 14.7786 17.2262 14.7114 17.2868C14.6442 17.3474 14.5905 17.4214 14.5537 17.5041C14.5169 17.5868 14.4979 17.6762 14.4979 17.7667C14.4979 17.8572 14.5169 17.9467 14.5537 18.0293C14.5905 18.112 14.6442 18.186 14.7114 18.2466C14.7786 18.3072 14.8577 18.353 14.9438 18.3811C15.0298 18.4092 15.1207 18.4189 15.2107 18.4095L21.1026 18.4095C21.2126 18.547 21.3364 18.6845 21.4601 18.8152C21.9797 19.3589 22.6038 19.792 23.2949 20.0885C23.986 20.3851 24.7299 20.5389 25.482 20.5408C25.5643 20.5476 25.6471 20.5476 25.7295 20.5408L25.7295 28.6602C25.7295 29.0248 25.5846 29.3746 25.3268 29.6324C25.0689 29.8903 24.7192 30.0352 24.3545 30.0352L12.667 30.0352C12.3023 30.0352 11.9526 29.8903 11.6947 29.6324C11.4369 29.3746 11.292 29.0248 11.292 28.6602L11.292 12.1602C11.292 11.7955 11.4369 11.4457 11.6947 11.1879C11.9526 10.93 12.3023 10.7852 12.667 10.7852ZM15.2107 23.6964L21.8107 23.6964C21.9007 23.7057 21.9917 23.696 22.0777 23.668C22.1637 23.6399 22.2429 23.5941 22.3101 23.5335C22.3773 23.4729 22.431 23.3989 22.4678 23.3162C22.5046 23.2335 22.5236 23.1441 22.5236 23.0536C22.5236 22.9631 22.5046 22.8736 22.4678 22.791C22.431 22.7083 22.3773 22.6343 22.3101 22.5737C22.2429 22.5131 22.1637 22.4673 22.0777 22.4392C21.9917 22.4111 21.9007 22.4015 21.8107 22.4108L15.2107 22.4108C15.1207 22.4015 15.0298 22.4111 14.9438 22.4392C14.8577 22.4673 14.7786 22.5131 14.7114 22.5737C14.6442 22.6343 14.5905 22.7083 14.5537 22.791C14.5169 22.8736 14.4979 22.9631 14.4979 23.0536C14.4979 23.1441 14.5169 23.2335 14.5537 23.3162C14.5905 23.3989 14.6442 23.4729 14.7114 23.5335C14.7786 23.5941 14.8577 23.6399 14.9438 23.668C15.0298 23.696 15.1207 23.7057 15.2107 23.6964ZM15.2107 21.0495L21.8107 21.0495C21.9803 21.0495 22.1429 20.9822 22.2628 20.8623C22.3828 20.7424 22.4501 20.5797 22.4501 20.4102C22.4501 20.2406 22.3828 20.078 22.2628 19.958C22.1429 19.8381 21.9803 19.7708 21.8107 19.7708L15.2107 19.7708C15.0412 19.7708 14.8785 19.8381 14.7586 19.958C14.6387 20.078 14.5714 20.2406 14.5714 20.4102C14.5714 20.5797 14.6387 20.7424 14.7586 20.8623C14.8785 20.9822 15.0412 21.0495 15.2107 21.0495Z" fill="url(#paint0_linear_2675_84811)"/>
<path d="M25.9837 10.3184C23.4523 10.3184 21.4004 12.3703 21.4004 14.9017C21.4004 17.4331 23.4523 19.485 25.9837 19.485C28.5152 19.485 30.5671 17.4331 30.5671 14.9017C30.5671 12.3703 28.5152 10.3184 25.9837 10.3184ZM26.4421 17.1899L26.4421 17.6517C26.4421 17.7783 26.3395 17.8809 26.2129 17.8809L25.7546 17.8809C25.6279 17.8809 25.5254 17.7783 25.5254 17.6517L25.5254 17.1851C25.202 17.1684 24.8874 17.0556 24.6268 16.8599C24.5151 16.776 24.5093 16.6087 24.6104 16.5122L24.947 16.191C25.0264 16.1154 25.1444 16.112 25.2372 16.1701C25.3481 16.2395 25.4738 16.2767 25.6045 16.2767L26.4097 16.2767C26.5959 16.2767 26.7477 16.1071 26.7477 15.8989C26.7477 15.7284 26.6443 15.5783 26.4965 15.5342L25.2074 15.1475C24.6749 14.9876 24.3028 14.4766 24.3028 13.9045C24.3028 13.2021 24.8485 12.6315 25.5251 12.6135L25.5251 12.1517C25.5251 12.0251 25.6277 11.9225 25.7543 11.9225L26.2126 11.9225C26.3392 11.9225 26.4418 12.0251 26.4418 12.1517L26.4418 12.6183C26.7652 12.6349 27.0797 12.7475 27.3404 12.9435C27.4521 13.0274 27.4578 13.1947 27.3567 13.2912L27.0201 13.6123C26.9408 13.688 26.8228 13.6914 26.7299 13.6333C26.6191 13.5636 26.4933 13.5267 26.3627 13.5267L25.5575 13.5267C25.3713 13.5267 25.2195 13.6963 25.2195 13.9045C25.2195 14.075 25.3229 14.2251 25.4707 14.2692L26.7597 14.6559C27.2923 14.8158 27.6644 15.3268 27.6644 15.8989C27.6644 16.6015 27.119 17.1719 26.4421 17.1899Z" fill="url(#paint1_linear_2675_84811)"/>

</svg>
