<svg width="33" height="32" viewBox="0 0 33 32" fill="none" xmlns="http://www.w3.org/2000/svg">
<g clip-path="url(#clip0_3599_145217)">
<path d="M22.9633 16.2176C23.5211 16.2063 24.0747 16.3165 24.5857 16.5404C25.2428 16.8378 25.811 17.3016 26.234 17.8859C26.6569 18.4702 26.9201 19.1547 26.9974 19.8719C27.0012 19.9896 26.9814 20.1068 26.9393 20.2167C26.8971 20.3267 26.8335 20.4271 26.7521 20.5122C26.6706 20.5973 26.573 20.6652 26.465 20.7121C26.357 20.759 26.2407 20.7838 26.123 20.7852H22.1694C22.0664 19.3962 21.4233 18.1029 20.3779 17.1825C20.673 16.9319 20.9962 16.7164 21.341 16.5404C21.852 16.3165 22.4056 16.2063 22.9633 16.2176Z" fill="url(#paint0_linear_3599_145217)"/>
<path d="M20.7072 14.3924C20.6887 14.7002 20.7334 15.0085 20.8384 15.2983C20.9435 15.5882 21.1067 15.8535 21.318 16.0779C21.5294 16.3024 21.7845 16.4812 22.0675 16.6035C22.3505 16.7257 22.6556 16.7888 22.9639 16.7888C23.2722 16.7888 23.5772 16.7257 23.8603 16.6035C24.1433 16.4812 24.3984 16.3024 24.6097 16.0779C24.8211 15.8535 24.9843 15.5882 25.0894 15.2983C25.1944 15.0085 25.2391 14.7002 25.2206 14.3924C25.2391 14.0847 25.1944 13.7764 25.0894 13.4865C24.9843 13.1967 24.8211 12.9314 24.6097 12.7069C24.3984 12.4825 24.1433 12.3036 23.8603 12.1814C23.5772 12.0592 23.2722 11.9961 22.9639 11.9961C22.6556 11.9961 22.3505 12.0592 22.0675 12.1814C21.7845 12.3036 21.5294 12.4825 21.318 12.7069C21.1067 12.9314 20.9435 13.1967 20.8384 13.4865C20.7334 13.7764 20.6887 14.0847 20.7072 14.3924Z" fill="url(#paint1_linear_3599_145217)"/>
<path d="M16.5969 16.1699C15.3161 16.1701 14.0803 16.6425 13.126 17.4967C12.1716 18.3509 11.5658 19.527 11.4242 20.8C11.4202 20.9499 11.446 21.0991 11.5004 21.2389C11.5547 21.3787 11.6364 21.5063 11.7407 21.6141C11.8449 21.7219 11.9697 21.8078 12.1076 21.8668C12.2455 21.9257 12.3938 21.9566 12.5438 21.9575H20.6464C20.7965 21.9568 20.945 21.9261 21.0831 21.8673C21.2212 21.8084 21.3462 21.7226 21.4506 21.6147C21.5551 21.5069 21.637 21.3793 21.6914 21.2393C21.7459 21.0994 21.7718 20.95 21.7677 20.8C21.626 19.5274 21.0203 18.3517 20.0664 17.4975C19.1125 16.6434 17.8773 16.1707 16.5969 16.1699Z" fill="url(#paint2_linear_3599_145217)"/>
<path d="M19.4917 13.8547C19.4917 14.427 19.3219 14.9865 19.004 15.4624C18.686 15.9383 18.234 16.3092 17.7053 16.5282C17.1765 16.7472 16.5947 16.8045 16.0333 16.6929C15.472 16.5812 14.9564 16.3056 14.5517 15.9009C14.147 15.4962 13.8714 14.9806 13.7597 14.4193C13.648 13.8579 13.7054 13.2761 13.9244 12.7473C14.1434 12.2185 14.5143 11.7666 14.9902 11.4486C15.4661 11.1307 16.0255 10.9609 16.5979 10.9609C17.3654 10.9609 18.1014 11.2658 18.6441 11.8085C19.1868 12.3512 19.4917 13.0872 19.4917 13.8547Z" fill="url(#paint3_linear_3599_145217)"/>
<path d="M10.2314 16.2176C9.67392 16.2065 9.12069 16.3166 8.60998 16.5404C7.95283 16.8378 7.38467 17.3016 6.96168 17.8859C6.5387 18.4702 6.27553 19.1547 6.1982 19.8719C6.19446 19.9896 6.21424 20.1068 6.25638 20.2167C6.29851 20.3267 6.36216 20.4271 6.44359 20.5122C6.52502 20.5973 6.6226 20.6652 6.73062 20.7121C6.83864 20.759 6.95492 20.7838 7.07266 20.7852H11.0254C11.1282 19.3962 11.7714 18.1028 12.8168 17.1825C12.5217 16.9319 12.1985 16.7164 11.8537 16.5404C11.3427 16.3165 10.7892 16.2063 10.2314 16.2176Z" fill="url(#paint4_linear_3599_145217)"/>
<path d="M12.4877 14.3924C12.5062 14.7002 12.4615 15.0085 12.3565 15.2983C12.2514 15.5882 12.0882 15.8535 11.8768 16.0779C11.6654 16.3024 11.4104 16.4812 11.1274 16.6035C10.8443 16.7257 10.5393 16.7888 10.231 16.7888C9.92267 16.7888 9.61762 16.7257 9.33458 16.6035C9.05155 16.4812 8.79651 16.3024 8.58514 16.0779C8.37377 15.8535 8.21054 15.5882 8.1055 15.2983C8.00045 15.0085 7.95579 14.7002 7.97428 14.3924C7.95579 14.0847 8.00045 13.7764 8.1055 13.4865C8.21054 13.1967 8.37377 12.9314 8.58514 12.7069C8.79651 12.4825 9.05155 12.3036 9.33458 12.1814C9.61762 12.0592 9.92267 11.9961 10.231 11.9961C10.5393 11.9961 10.8443 12.0592 11.1274 12.1814C11.4104 12.3036 11.6654 12.4825 11.8768 12.7069C12.0882 12.9314 12.2514 13.1967 12.3565 13.4865C12.4615 13.7764 12.5062 14.0847 12.4877 14.3924Z" fill="url(#paint5_linear_3599_145217)"/>
</g>
<defs>
<linearGradient id="paint0_linear_3599_145217" x1="20.3779" y1="18.501" x2="26.9979" y2="18.501" gradientUnits="userSpaceOnUse">
<stop stop-color="#96DEDA"/>
<stop offset="1" stop-color="#50C9C3"/>
</linearGradient>
<linearGradient id="paint1_linear_3599_145217" x1="20.7031" y1="14.3924" x2="25.2247" y2="14.3924" gradientUnits="userSpaceOnUse">
<stop stop-color="#96DEDA"/>
<stop offset="1" stop-color="#50C9C3"/>
</linearGradient>
<linearGradient id="paint2_linear_3599_145217" x1="11.4238" y1="19.0637" x2="21.7681" y2="19.0637" gradientUnits="userSpaceOnUse">
<stop stop-color="#00C6FB"/>
<stop offset="1" stop-color="#005BEA"/>
</linearGradient>
<linearGradient id="paint3_linear_3599_145217" x1="13.7041" y1="13.8547" x2="19.4917" y2="13.8547" gradientUnits="userSpaceOnUse">
<stop stop-color="#00C6FB"/>
<stop offset="1" stop-color="#005BEA"/>
</linearGradient>
<linearGradient id="paint4_linear_3599_145217" x1="6.19775" y1="18.501" x2="12.8168" y2="18.501" gradientUnits="userSpaceOnUse">
<stop stop-color="#96DEDA"/>
<stop offset="1" stop-color="#50C9C3"/>
</linearGradient>
<linearGradient id="paint5_linear_3599_145217" x1="7.97021" y1="14.3924" x2="12.4917" y2="14.3924" gradientUnits="userSpaceOnUse">
<stop stop-color="#96DEDA"/>
<stop offset="1" stop-color="#50C9C3"/>
</linearGradient>
<clipPath id="clip0_3599_145217">
<rect width="32" height="32" fill="white" transform="translate(0.597656)"/>
</clipPath>
</defs>
</svg>
