<svg width="41" height="40" viewBox="0 0 41 40" fill="none" xmlns="http://www.w3.org/2000/svg">
    <defs>
        <linearGradient id="paint0_linear_2675_84746" x1="23.7793" y1="22.501" x2="30.3993" y2="22.501" gradientUnits="userSpaceOnUse">
            <stop stop-color="#96DEDA"/>
            <stop offset="1" stop-color="#50C9C3"/>
        </linearGradient>
        <linearGradient id="paint1_linear_2675_84746" x1="24.1045" y1="18.3924" x2="28.626" y2="18.3924" gradientUnits="userSpaceOnUse">
            <stop stop-color="#96DEDA"/>
            <stop offset="1" stop-color="#50C9C3"/>
        </linearGradient>
        <linearGradient id="paint2_linear_2675_84746" x1="14.8262" y1="23.0637" x2="25.1705" y2="23.0637" gradientUnits="userSpaceOnUse">
            <stop stop-color="#00C6FB"/>
            <stop offset="1" stop-color="#005BEA"/>
        </linearGradient>
        <linearGradient id="paint3_linear_2675_84746" x1="17.1064" y1="17.8547" x2="22.894" y2="17.8547" gradientUnits="userSpaceOnUse">
            <stop stop-color="#00C6FB"/>
            <stop offset="1" stop-color="#005BEA"/>
        </linearGradient>
        <linearGradient id="paint4_linear_2675_84746" x1="9.59961" y1="22.501" x2="16.2187" y2="22.501" gradientUnits="userSpaceOnUse">
            <stop stop-color="#96DEDA"/>
            <stop offset="1" stop-color="#50C9C3"/>
        </linearGradient>
        <linearGradient id="paint5_linear_2675_84746" x1="11.3721" y1="18.3924" x2="15.8936" y2="18.3924" gradientUnits="userSpaceOnUse">
            <stop stop-color="#96DEDA"/>
            <stop offset="1" stop-color="#50C9C3"/>
        </linearGradient>
        <clipPath id="clip0_2675_84746">
            <rect width="32" height="32" fill="white" transform="translate(4 4)"/>
        </clipPath>
    </defs><circle cx="20" cy="20" r="16" fill="white"/>
<g clip-path="url(#clip0_2675_84746)">
<path d="M26.3647 20.2176C26.9225 20.2063 27.476 20.3165 27.987 20.5404C28.6442 20.8378 29.2123 21.3016 29.6353 21.8859C30.0583 22.4702 30.3215 23.1547 30.3988 23.8719C30.4025 23.9896 30.3828 24.1068 30.3406 24.2167C30.2985 24.3267 30.2349 24.4271 30.1534 24.5122C30.072 24.5973 29.9744 24.6652 29.8664 24.7121C29.7584 24.759 29.6421 24.7838 29.5243 24.7852H25.5707C25.4678 23.3962 24.8247 22.1029 23.7793 21.1825C24.0744 20.9319 24.3976 20.7164 24.7424 20.5404C25.2534 20.3165 25.8069 20.2063 26.3647 20.2176Z" fill="url(#paint0_linear_2675_84746)"/>
<path d="M24.1086 18.3924C24.0901 18.7002 24.1347 19.0085 24.2398 19.2983C24.3448 19.5882 24.508 19.8535 24.7194 20.0779C24.9308 20.3024 25.1858 20.4812 25.4689 20.6035C25.7519 20.7257 26.0569 20.7888 26.3653 20.7888C26.6736 20.7888 26.9786 20.7257 27.2616 20.6035C27.5447 20.4812 27.7997 20.3024 28.0111 20.0779C28.2225 19.8535 28.3857 19.5882 28.4907 19.2983C28.5958 19.0085 28.6404 18.7002 28.6219 18.3924C28.6404 18.0847 28.5958 17.7764 28.4907 17.4865C28.3857 17.1967 28.2225 16.9314 28.0111 16.7069C27.7997 16.4825 27.5447 16.3036 27.2616 16.1814C26.9786 16.0592 26.6736 15.9961 26.3653 15.9961C26.0569 15.9961 25.7519 16.0592 25.4689 16.1814C25.1858 16.3036 24.9308 16.4825 24.7194 16.7069C24.508 16.9314 24.3448 17.1967 24.2398 17.4865C24.1347 17.7764 24.0901 18.0847 24.1086 18.3924Z" fill="url(#paint1_linear_2675_84746)"/>
<path d="M19.9992 20.1699C18.7184 20.1701 17.4826 20.6425 16.5283 21.4967C15.574 22.3509 14.9681 23.527 14.8266 24.8C14.8225 24.9499 14.8484 25.0991 14.9027 25.2389C14.957 25.3787 15.0387 25.5063 15.143 25.6141C15.2473 25.7219 15.372 25.8078 15.5099 25.8668C15.6478 25.9257 15.7961 25.9566 15.9461 25.9575H24.0487C24.1988 25.9568 24.3473 25.9261 24.4854 25.8673C24.6236 25.8084 24.7485 25.7226 24.853 25.6147C24.9574 25.5069 25.0393 25.3793 25.0937 25.2393C25.1482 25.0994 25.1741 24.95 25.17 24.8C25.0284 23.5274 24.4227 22.3517 23.4688 21.4975C22.5149 20.6434 21.2796 20.1707 19.9992 20.1699Z" fill="url(#paint2_linear_2675_84746)"/>
<path d="M22.894 17.8547C22.894 18.427 22.7243 18.9865 22.4063 19.4624C22.0883 19.9383 21.6364 20.3092 21.1076 20.5282C20.5789 20.7472 19.997 20.8045 19.4357 20.6929C18.8743 20.5812 18.3587 20.3056 17.954 19.9009C17.5493 19.4962 17.2737 18.9806 17.162 18.4193C17.0504 17.8579 17.1077 17.2761 17.3267 16.7473C17.5457 16.2185 17.9166 15.7666 18.3925 15.4486C18.8684 15.1307 19.4279 14.9609 20.0002 14.9609C20.7677 14.9609 21.5037 15.2658 22.0464 15.8085C22.5891 16.3512 22.894 17.0872 22.894 17.8547Z" fill="url(#paint3_linear_2675_84746)"/>
<path d="M13.6333 20.2176C13.0758 20.2065 12.5225 20.3166 12.0118 20.5404C11.3547 20.8378 10.7865 21.3016 10.3635 21.8859C9.94055 22.4702 9.67739 23.1547 9.60006 23.8719C9.59632 23.9896 9.6161 24.1068 9.65823 24.2167C9.70037 24.3267 9.76402 24.4271 9.84545 24.5122C9.92688 24.5973 10.0245 24.6652 10.1325 24.7121C10.2405 24.759 10.3568 24.7838 10.4745 24.7852H14.4272C14.5301 23.3962 15.1732 22.1028 16.2187 21.1825C15.9236 20.9319 15.6004 20.7164 15.2556 20.5404C14.7446 20.3165 14.191 20.2063 13.6333 20.2176Z" fill="url(#paint4_linear_2675_84746)"/>
<path d="M15.8895 18.3924C15.908 18.7002 15.8634 19.0085 15.7583 19.2983C15.6533 19.5882 15.49 19.8535 15.2787 20.0779C15.0673 20.3024 14.8123 20.4812 14.5292 20.6035C14.2462 20.7257 13.9411 20.7888 13.6328 20.7888C13.3245 20.7888 13.0195 20.7257 12.7364 20.6035C12.4534 20.4812 12.1984 20.3024 11.987 20.0779C11.7756 19.8535 11.6124 19.5882 11.5074 19.2983C11.4023 19.0085 11.3576 18.7002 11.3761 18.3924C11.3576 18.0847 11.4023 17.7764 11.5074 17.4865C11.6124 17.1967 11.7756 16.9314 11.987 16.7069C12.1984 16.4825 12.4534 16.3036 12.7364 16.1814C13.0195 16.0592 13.3245 15.9961 13.6328 15.9961C13.9411 15.9961 14.2462 16.0592 14.5292 16.1814C14.8123 16.3036 15.0673 16.4825 15.2787 16.7069C15.49 16.9314 15.6533 17.1967 15.7583 17.4865C15.8634 17.7764 15.908 18.0847 15.8895 18.3924Z" fill="url(#paint5_linear_2675_84746)"/>
</g>

</svg>
