<svg width="41" height="40" viewBox="0 0 41 40" fill="none" xmlns="http://www.w3.org/2000/svg">
<circle cx="20" cy="20" r="16" fill="white"/>
<path d="M19.4979 12C17.8281 12.0001 16.1877 12.4173 14.7423 13.2096C13.2968 14.0019 12.0974 15.1412 11.2648 16.5127C10.4322 17.8843 9.99597 19.4395 10 21.0217C10.0041 22.6039 10.4483 24.1572 11.2879 25.5248C11.3825 25.6722 11.5161 25.7936 11.6755 25.8769C11.8348 25.9602 12.0144 26.0026 12.1964 25.9999H26.8036C26.9856 26.0026 27.1652 25.9602 27.3245 25.8769C27.4839 25.7936 27.6175 25.6722 27.7121 25.5248C28.5519 24.1569 28.9961 22.6033 29 21.0207C29.0038 19.4382 28.5672 17.8827 27.7342 16.511C26.9011 15.1394 25.7011 14.0001 24.2551 13.2081C22.809 12.4161 21.1682 11.9994 19.4979 12ZM19.4979 14.0003C19.7272 14.002 19.9496 14.0753 20.1304 14.2088C20.3113 14.3424 20.4405 14.5288 20.4982 14.7391C20.4551 14.8059 20.417 14.8754 20.3842 14.9473L20.0802 15.8081C19.9121 15.9248 19.7104 15.9903 19.5021 15.9959C19.2221 15.9959 18.9536 15.8906 18.7557 15.703C18.5577 15.5154 18.4465 15.261 18.4465 14.9958C18.4465 14.7305 18.5577 14.4761 18.7557 14.2886C18.9536 14.101 19.2221 13.9956 19.5021 13.9956L19.4979 14.0003ZM13.1653 23.0002C12.9565 23.0002 12.7524 22.9415 12.5788 22.8316C12.4053 22.7217 12.27 22.5655 12.1901 22.3828C12.1102 22.2 12.0893 21.9989 12.13 21.8049C12.1707 21.6109 12.2713 21.4327 12.4189 21.2928C12.5665 21.1529 12.7546 21.0577 12.9594 21.0191C13.1641 20.9805 13.3764 21.0003 13.5692 21.076C13.7621 21.1517 13.927 21.2799 14.043 21.4444C14.159 21.6088 14.2209 21.8022 14.2209 22C14.2209 22.2653 14.1097 22.5197 13.9117 22.7072C13.7137 22.8948 13.4452 23.0002 13.1653 23.0002ZM14.7487 18.0002C14.5399 18.0002 14.3358 17.9415 14.1622 17.8316C13.9886 17.7217 13.8533 17.5655 13.7734 17.3828C13.6935 17.2 13.6726 16.9989 13.7134 16.8049C13.7541 16.6109 13.8546 16.4327 14.0023 16.2928C14.1499 16.1529 14.338 16.0577 14.5427 16.0191C14.7475 15.9805 14.9597 16.0003 15.1526 16.076C15.3455 16.1517 15.5104 16.2799 15.6263 16.4444C15.7423 16.6088 15.8042 16.8022 15.8042 17C15.8042 17.2653 15.693 17.5197 15.4951 17.7072C15.2971 17.8948 15.0286 18.0002 14.7487 18.0002ZM22.8844 15.7369L20.8616 21.4866C21.2401 21.7861 21.4935 22.2037 21.5762 22.6643C21.6589 23.1249 21.5654 23.5984 21.3126 23.9996H17.6808C17.4973 23.7069 17.3966 23.3744 17.3883 23.034C17.3801 22.6937 17.4646 22.3571 17.6338 22.0568C17.8029 21.7565 18.051 21.5026 18.354 21.3196C18.6569 21.1367 19.0046 21.0309 19.3633 21.0124L21.3861 15.2619C21.419 15.1684 21.471 15.0821 21.5392 15.0077C21.6073 14.9333 21.6902 14.8724 21.7832 14.8284C21.8762 14.7844 21.9775 14.7582 22.0812 14.7513C22.1848 14.7443 22.289 14.7568 22.3876 14.788C22.4862 14.8192 22.5773 14.8685 22.6558 14.933C22.7343 14.9976 22.7986 15.0762 22.845 15.1643C22.8915 15.2524 22.9191 15.3483 22.9265 15.4466C22.9338 15.5448 22.9206 15.6435 22.8877 15.7369H22.8844ZM23.3676 17.5244L23.8797 16.0695C23.9957 16.0258 24.1191 16.0022 24.2439 15.9999C24.5239 15.9999 24.7924 16.1052 24.9903 16.2928C25.1883 16.4804 25.2995 16.7348 25.2995 17C25.2995 17.2653 25.1883 17.5197 24.9903 17.7072C24.7924 17.8948 24.5239 18.0002 24.2439 18.0002C24.0672 17.998 23.894 17.9532 23.7406 17.8699C23.5873 17.7867 23.4589 17.6677 23.3676 17.5244ZM25.8273 23.0025C25.6185 23.0025 25.4144 22.9439 25.2408 22.834C25.0672 22.7241 24.9319 22.5679 24.852 22.3851C24.7722 22.2024 24.7513 22.0013 24.792 21.8072C24.8327 21.6132 24.9332 21.435 25.0809 21.2952C25.2285 21.1553 25.4166 21.06 25.6213 21.0214C25.8261 20.9828 26.0383 21.0026 26.2312 21.0783C26.4241 21.154 26.589 21.2822 26.705 21.4467C26.8209 21.6112 26.8829 21.8046 26.8829 22.0024C26.8822 22.2667 26.7712 22.52 26.574 22.707C26.3768 22.8939 26.1095 22.9994 25.8306 23.0002L25.8273 23.0025Z" fill="url(#paint0_linear_2675_84724)"/>
<defs>
<linearGradient id="paint0_linear_2675_84724" x1="10" y1="19" x2="29" y2="19" gradientUnits="userSpaceOnUse">
<stop stop-color="#00C6FB"/>
<stop offset="1" stop-color="#005BEA"/>
</linearGradient>
</defs>
</svg>
