<svg width="20" height="14" viewBox="0 0 20 14" fill="none" xmlns="http://www.w3.org/2000/svg">
<path d="M10.0956 6.1541e-07C8.42571 0.000103562 6.78537 0.417322 5.33992 1.20959C3.89447 2.00187 2.69501 3.14119 1.86244 4.51272C1.02987 5.88425 0.593629 7.43951 0.597684 9.02172C0.601739 10.6039 1.04595 12.1572 1.88554 13.5248C1.98013 13.6722 2.11374 13.7936 2.27311 13.8769C2.43249 13.9602 2.61209 14.0026 2.7941 13.9999H17.4012C17.5832 14.0026 17.7628 13.9602 17.9222 13.8769C18.0816 13.7936 18.2152 13.6722 18.3098 13.5248C19.1495 12.1569 19.5938 10.6033 19.5976 9.02074C19.6015 7.4382 19.1649 5.88268 18.3318 4.51103C17.4988 3.13938 16.2987 2.00012 14.8527 1.20812C13.4067 0.41613 11.7658 -0.000584539 10.0956 6.1541e-07ZM10.0956 2.00032C10.3249 2.00196 10.5472 2.07525 10.7281 2.20883C10.9089 2.3424 11.0382 2.5288 11.0958 2.73909C11.0528 2.80588 11.0147 2.87544 10.9818 2.94726L10.6779 3.80812C10.5097 3.9248 10.3081 3.9903 10.0997 3.99594C9.81976 3.99594 9.55127 3.89057 9.35331 3.703C9.15535 3.51543 9.04414 3.26104 9.04414 2.99578C9.04414 2.73052 9.15535 2.47613 9.35331 2.28856C9.55127 2.101 9.81976 1.99562 10.0997 1.99562L10.0956 2.00032ZM3.76295 11.0002C3.55417 11.0002 3.35009 10.9415 3.1765 10.8316C3.00291 10.7217 2.86761 10.5655 2.78772 10.3828C2.70783 10.2 2.68692 9.99891 2.72765 9.8049C2.76838 9.61089 2.86892 9.43268 3.01654 9.2928C3.16417 9.15293 3.35225 9.05767 3.55701 9.01908C3.76178 8.98049 3.97402 9.0003 4.1669 9.076C4.35978 9.1517 4.52464 9.27989 4.64063 9.44436C4.75662 9.60884 4.81853 9.80221 4.81853 10C4.81853 10.2653 4.70731 10.5197 4.50935 10.7072C4.31139 10.8948 4.0429 11.0002 3.76295 11.0002ZM5.34631 6.00017C5.13754 6.00017 4.93346 5.94151 4.75987 5.83161C4.58628 5.72171 4.45098 5.56551 4.37109 5.38276C4.29119 5.2 4.27029 4.9989 4.31102 4.80489C4.35175 4.61088 4.45228 4.43267 4.59991 4.29279C4.74753 4.15292 4.93562 4.05766 5.14038 4.01907C5.34514 3.98048 5.55739 4.00029 5.75027 4.07599C5.94315 4.15169 6.10801 4.27988 6.224 4.44435C6.33998 4.60883 6.40189 4.8022 6.40189 5.00001C6.40189 5.26527 6.29068 5.51966 6.09272 5.70723C5.89476 5.8948 5.62627 6.00017 5.34631 6.00017ZM13.482 3.7369L11.4593 9.48664C11.8378 9.78609 12.0912 10.2037 12.1739 10.6643C12.2565 11.1249 12.163 11.5984 11.9102 11.9996H8.27848C8.09497 11.7069 7.99424 11.3744 7.986 11.034C7.97776 10.6937 8.0623 10.3571 8.23145 10.0568C8.4006 9.75651 8.64864 9.5026 8.95161 9.31964C9.25457 9.13669 9.60222 9.03086 9.96096 9.01239L11.9837 3.26186C12.0167 3.16844 12.0687 3.08208 12.1368 3.00771C12.205 2.93334 12.2879 2.87241 12.3809 2.82841C12.4739 2.78441 12.5751 2.75819 12.6788 2.75126C12.7825 2.74432 12.8866 2.75681 12.9852 2.788C13.0838 2.81919 13.175 2.86848 13.2535 2.93305C13.3319 2.99761 13.3962 3.0762 13.4427 3.16431C13.4891 3.25242 13.5168 3.34834 13.5241 3.44659C13.5314 3.54483 13.5183 3.64348 13.4853 3.7369H13.482ZM13.9652 5.52435L14.4773 4.0695C14.5933 4.02577 14.7167 4.00218 14.8416 3.99985C15.1215 3.99985 15.39 4.10523 15.588 4.29279C15.7859 4.48036 15.8971 4.73475 15.8971 5.00001C15.8971 5.26527 15.7859 5.51966 15.588 5.70723C15.39 5.8948 15.1215 6.00017 14.8416 6.00017C14.6648 5.99802 14.4916 5.9532 14.3383 5.86994C14.1849 5.78668 14.0565 5.66773 13.9652 5.52435ZM16.4249 11.0025C16.2162 11.0025 16.0121 10.9439 15.8385 10.834C15.6649 10.7241 15.5296 10.5679 15.4497 10.3851C15.3698 10.2024 15.3489 10.0013 15.3896 9.80725C15.4304 9.61324 15.5309 9.43503 15.6785 9.29515C15.8261 9.15528 16.0142 9.06002 16.219 9.02143C16.4238 8.98284 16.636 9.00264 16.8289 9.07834C17.0218 9.15404 17.1866 9.28224 17.3026 9.44671C17.4186 9.61119 17.4805 9.80456 17.4805 10.0024C17.4799 10.2667 17.3688 10.52 17.1716 10.707C16.9745 10.8939 16.7072 10.9994 16.4282 11.0002L16.4249 11.0025Z" fill="url(#paint0_linear_3599_145195)"/>
<defs>
<linearGradient id="paint0_linear_3599_145195" x1="0.597656" y1="7" x2="19.5977" y2="7" gradientUnits="userSpaceOnUse">
<stop stop-color="#00C6FB"/>
<stop offset="1" stop-color="#005BEA"/>
</linearGradient>
</defs>
</svg>
