<svg width="20" height="12" viewBox="0 0 20 12" fill="none" xmlns="http://www.w3.org/2000/svg">
<path d="M13.0797 0.740235H10.5863C10.3545 0.73996 10.1309 0.823975 9.95957 0.975766L7.10599 3.51634C7.10599 3.51634 7.10034 3.52497 7.09711 3.52733C6.87479 3.72967 6.74369 4.00918 6.73235 4.30501C6.721 4.60085 6.83033 4.88906 7.03653 5.10694C7.24924 5.3146 7.53396 5.43772 7.83507 5.45224C8.13617 5.46676 8.43203 5.37163 8.66484 5.18545C8.66484 5.18545 8.67372 5.18545 8.67615 5.17995L10.995 3.11437C11.0865 3.03781 11.2051 2.9989 11.3256 3.00587C11.4461 3.01285 11.5591 3.06517 11.6406 3.15174C11.7221 3.23832 11.7657 3.35234 11.7622 3.46965C11.7587 3.58695 11.7083 3.69831 11.6218 3.78013L10.8642 4.45453L15.0908 7.78961C15.1729 7.85629 15.2496 7.92899 15.3202 8.00708V2.54596L13.7355 1.0056C13.6497 0.921422 13.5475 0.854631 13.4349 0.809082C13.3224 0.763533 13.2016 0.740133 13.0797 0.740235ZM16.2523 3.63331V8.86833C16.2527 9.10744 16.3508 9.3366 16.525 9.50546C16.6991 9.67431 16.9352 9.76905 17.1811 9.76884H19.0388V2.54596H17.1295C16.388 2.55145 16.2523 3.01152 16.2523 3.63331ZM17.6456 8.86833C17.5537 8.86833 17.4639 8.84186 17.3875 8.79225C17.3112 8.74265 17.2516 8.67214 17.2165 8.58965C17.1813 8.50717 17.1721 8.4164 17.1901 8.32883C17.208 8.24126 17.2522 8.16083 17.3172 8.09769C17.3821 8.03456 17.4649 7.99157 17.555 7.97415C17.6451 7.95673 17.7384 7.96567 17.8233 7.99984C17.9082 8.03401 17.9807 8.09187 18.0317 8.1661C18.0828 8.24034 18.11 8.32762 18.11 8.4169C18.1098 8.53664 18.0608 8.65142 17.9738 8.73616C17.8868 8.8209 17.7687 8.8687 17.6456 8.86911V8.86833ZM0.461914 9.76884H2.31961C2.44161 9.76894 2.56245 9.74566 2.67519 9.70032C2.78793 9.65498 2.89036 9.58849 2.97664 9.50463C3.06291 9.42077 3.13132 9.3212 3.17796 9.21161C3.22461 9.10203 3.24856 8.98457 3.24845 8.86598V3.62075C3.24845 2.63781 2.74445 2.55145 2.44964 2.55145H0.461914V9.76884ZM1.85518 7.96311C1.94704 7.96311 2.03683 7.98959 2.1132 8.0392C2.18958 8.0888 2.2491 8.1593 2.28425 8.24179C2.31941 8.32428 2.3286 8.41505 2.31068 8.50262C2.29276 8.59018 2.24853 8.67062 2.18358 8.73376C2.11863 8.79689 2.03588 8.83988 1.94579 8.8573C1.8557 8.87472 1.76232 8.86578 1.67746 8.83161C1.59259 8.79744 1.52006 8.73958 1.46903 8.66535C1.418 8.59111 1.39076 8.50383 1.39076 8.41455C1.39119 8.29495 1.44025 8.18036 1.52726 8.09579C1.61426 8.01122 1.73214 7.96353 1.85518 7.96311ZM14.5077 8.48756L10.1744 5.06768L9.30372 5.84336C8.89532 6.20774 8.35474 6.39951 7.80088 6.37647C7.24702 6.35343 6.72527 6.11746 6.3504 5.72049C5.97552 5.32352 5.77824 4.79806 5.80194 4.2597C5.82565 3.72133 6.0684 3.21417 6.4768 2.84978L8.85384 0.740235H6.42107C6.29917 0.740391 6.1785 0.763907 6.06596 0.809441C5.95343 0.854975 5.85123 0.921631 5.76522 1.0056L4.1773 2.54596V8.86284C4.31816 8.83571 4.46372 8.84264 4.60118 8.88302C4.73864 8.92341 4.86379 8.99601 4.96561 9.09444C5.31453 9.4336 7.33538 11.1742 7.33538 11.1742C7.71762 11.4759 8.20746 11.6177 8.69725 11.5686C9.18704 11.5194 9.63671 11.2832 9.94745 10.9119L9.95311 10.9064L10.4725 11.3437C10.5824 11.4307 10.709 11.4957 10.8448 11.5351C10.9806 11.5745 11.1231 11.5875 11.2642 11.5734C11.4052 11.5593 11.5419 11.5183 11.6666 11.4527C11.7913 11.3872 11.9015 11.2984 11.9909 11.1914L12.9004 10.1017L13.0571 10.2258C13.1517 10.3006 13.2606 10.3565 13.3775 10.3903C13.4945 10.4241 13.6171 10.4352 13.7384 10.4229C13.8597 10.4105 13.9774 10.3751 14.0846 10.3185C14.1918 10.2619 14.2864 10.1853 14.3631 10.0931L14.6385 9.76334C14.7158 9.67128 14.7736 9.56533 14.8087 9.45154C14.8438 9.33776 14.8555 9.21837 14.8431 9.10019C14.8307 8.98201 14.7945 8.86735 14.7366 8.76278C14.6786 8.6582 14.6 8.56575 14.5053 8.4907L14.5077 8.48756Z" fill="url(#paint0_linear_3599_145229)"/>
<defs>
<linearGradient id="paint0_linear_3599_145229" x1="0.461914" y1="6.15959" x2="19.0388" y2="6.15959" gradientUnits="userSpaceOnUse">
<stop stop-color="#1E3C72"/>
<stop offset="0.01" stop-color="#1E3C72"/>
<stop offset="1" stop-color="#22B2E0"/>
</linearGradient>
</defs>
</svg>
