<svg width="41" height="40" viewBox="0 0 41 40" fill="none" xmlns="http://www.w3.org/2000/svg">
    <defs>
        <linearGradient id="paint0_linear_2675_84758" x1="10.8643" y1="20.1596" x2="29.4412" y2="20.1596" gradientUnits="userSpaceOnUse">
            <stop stop-color="#1E3C72"/>
            <stop offset="0.01" stop-color="#1E3C72"/>
            <stop offset="1" stop-color="#22B2E0"/>
        </linearGradient>
    </defs><circle cx="20" cy="20" r="16" fill="white"/>
<path d="M23.482 14.7402H20.9887C20.7568 14.74 20.5333 14.824 20.3619 14.9758L17.5083 17.5163C17.5083 17.5163 17.5027 17.525 17.4995 17.5273C17.2771 17.7297 17.146 18.0092 17.1347 18.305C17.1233 18.6009 17.2327 18.8891 17.4389 19.1069C17.6516 19.3146 17.9363 19.4377 18.2374 19.4522C18.5385 19.4668 18.8344 19.3716 19.0672 19.1854C19.0672 19.1854 19.0761 19.1854 19.0785 19.18L21.3974 17.1144C21.4889 17.0378 21.6074 16.9989 21.728 17.0059C21.8485 17.0129 21.9615 17.0652 22.043 17.1517C22.1245 17.2383 22.1681 17.3523 22.1646 17.4696C22.1611 17.5869 22.1107 17.6983 22.0241 17.7801L21.2665 18.4545L25.4932 21.7896C25.5753 21.8563 25.6519 21.929 25.7226 22.0071V16.546L24.1379 15.0056C24.052 14.9214 23.9499 14.8546 23.8373 14.8091C23.7247 14.7635 23.604 14.7401 23.482 14.7402ZM26.6546 17.6333V22.8683C26.6551 23.1074 26.7531 23.3366 26.9273 23.5055C27.1015 23.6743 27.3375 23.769 27.5835 23.7688H29.4412V16.546H27.5318C26.7903 16.5515 26.6546 17.0115 26.6546 17.6333ZM28.0479 22.8683C27.9561 22.8683 27.8663 22.8419 27.7899 22.7923C27.7135 22.7426 27.654 22.6721 27.6188 22.5897C27.5837 22.5072 27.5745 22.4164 27.5924 22.3288C27.6103 22.2413 27.6546 22.1608 27.7195 22.0977C27.7845 22.0346 27.8672 21.9916 27.9573 21.9741C28.0474 21.9567 28.1408 21.9657 28.2256 21.9998C28.3105 22.034 28.383 22.0919 28.4341 22.1661C28.4851 22.2403 28.5123 22.3276 28.5123 22.4169C28.5121 22.5366 28.4632 22.6514 28.3761 22.7362C28.2891 22.8209 28.1711 22.8687 28.0479 22.8691V22.8683ZM10.8643 23.7688H12.722C12.844 23.7689 12.9648 23.7457 13.0775 23.7003C13.1903 23.655 13.2927 23.5885 13.379 23.5046C13.4653 23.4208 13.5337 23.3212 13.5803 23.2116C13.6269 23.102 13.6509 22.9846 13.6508 22.866V17.6208C13.6508 16.6378 13.1468 16.5515 12.852 16.5515H10.8643V23.7688ZM12.2575 21.9631C12.3494 21.9631 12.4392 21.9896 12.5155 22.0392C12.5919 22.0888 12.6514 22.1593 12.6866 22.2418C12.7217 22.3243 12.7309 22.415 12.713 22.5026C12.6951 22.5902 12.6509 22.6706 12.5859 22.7338C12.521 22.7969 12.4382 22.8399 12.3481 22.8573C12.258 22.8747 12.1647 22.8658 12.0798 22.8316C11.9949 22.7974 11.9224 22.7396 11.8714 22.6653C11.8203 22.5911 11.7931 22.5038 11.7931 22.4145C11.7935 22.2949 11.8426 22.1804 11.9296 22.0958C12.0166 22.0112 12.1345 21.9635 12.2575 21.9631ZM24.91 22.4876L20.5768 19.0677L19.7061 19.8434C19.2977 20.2077 18.7571 20.3995 18.2032 20.3765C17.6494 20.3534 17.1276 20.1175 16.7527 19.7205C16.3779 19.3235 16.1806 18.7981 16.2043 18.2597C16.228 17.7213 16.4707 17.2142 16.8791 16.8498L19.2562 14.7402H16.8234C16.7015 14.7404 16.5808 14.7639 16.4683 14.8094C16.3558 14.855 16.2536 14.9216 16.1676 15.0056L14.5796 16.546V22.8628C14.7205 22.8357 14.8661 22.8426 15.0035 22.883C15.141 22.9234 15.2661 22.996 15.368 23.0944C15.7169 23.4336 17.7377 25.1742 17.7377 25.1742C18.12 25.4759 18.6098 25.6177 19.0996 25.5686C19.5894 25.5194 20.0391 25.2832 20.3498 24.9119L20.3555 24.9064L20.8748 25.3437C20.9848 25.4307 21.1113 25.4957 21.2471 25.5351C21.383 25.5745 21.5255 25.5875 21.6665 25.5734C21.8075 25.5593 21.9443 25.5183 22.069 25.4527C22.1937 25.3872 22.3039 25.2984 22.3933 25.1914L23.3027 24.1017L23.4594 24.2258C23.5541 24.3006 23.663 24.3565 23.7799 24.3903C23.8968 24.4241 24.0194 24.4352 24.1408 24.4229C24.2621 24.4105 24.3797 24.3751 24.4869 24.3185C24.5941 24.2619 24.6888 24.1853 24.7655 24.0931L25.0409 23.7633C25.1181 23.6713 25.1759 23.5653 25.211 23.4515C25.2461 23.3378 25.2578 23.2184 25.2454 23.1002C25.2331 22.982 25.1969 22.8674 25.1389 22.7628C25.0809 22.6582 25.0023 22.5658 24.9076 22.4907L24.91 22.4876Z" fill="url(#paint0_linear_2675_84758)"/>

</svg>
