<svg width="41" height="40" viewBox="0 0 41 40" fill="none" xmlns="http://www.w3.org/2000/svg">
    <defs>
        <linearGradient id="paint0_linear_2675_84729" x1="11" y1="20" x2="29" y2="20" gradientUnits="userSpaceOnUse">
            <stop stop-color="#57EBA7"/>
            <stop offset="1" stop-color="#009EFD"/>
        </linearGradient>
    </defs><circle cx="20" cy="20" r="16" fill="white"/>
<path d="M28.5794 17.0831H26.4739L25.8893 15.5663C25.5992 14.8071 25.0952 14.1562 24.443 13.6984C23.7909 13.2406 23.0208 12.9973 22.2333 13H17.7681C16.9806 12.9974 16.2106 13.2408 15.5584 13.6985C14.9063 14.1563 14.4023 14.8072 14.1121 15.5663L13.5274 17.0831H11.422C11.3579 17.0831 11.2946 17.0983 11.2369 17.1274C11.1793 17.1566 11.1288 17.199 11.0893 17.2514C11.0499 17.3039 11.0224 17.3649 11.0091 17.43C10.9959 17.495 10.9971 17.5624 11.0126 17.6269L11.224 18.5018C11.2468 18.5964 11.2995 18.6804 11.3737 18.7404C11.4479 18.8004 11.5393 18.833 11.6333 18.8329H12.3377C12.0949 19.0498 11.8998 19.3183 11.7659 19.6202C11.6319 19.9221 11.5621 20.2504 11.5613 20.5827V22.3333C11.5631 22.8971 11.7632 23.4408 12.1241 23.8624V25.8337C12.1243 26.1431 12.243 26.4398 12.454 26.6585C12.6651 26.8772 12.9512 27 13.2496 27H14.3751C14.6733 26.9998 14.9593 26.8768 15.1702 26.6582C15.381 26.4395 15.4996 26.143 15.4998 25.8337V24.6667H24.5008V25.8329C24.501 26.1422 24.6195 26.4387 24.8304 26.6574C25.0413 26.876 25.3273 26.999 25.6255 26.9992H26.7502C27.0485 26.999 27.3344 26.876 27.5453 26.6574C27.7562 26.4387 27.8747 26.1422 27.8749 25.8329V23.8616C28.236 23.44 28.4361 22.8963 28.4377 22.3325V20.5835C28.4369 20.2513 28.3673 19.9231 28.2334 19.6212C28.0996 19.3193 27.9047 19.0507 27.6621 18.8338H28.3665C28.4605 18.8338 28.5519 18.8012 28.6261 18.7412C28.7003 18.6812 28.753 18.5972 28.7758 18.5026L28.9872 17.6277C29.0028 17.5633 29.0042 17.496 28.991 17.4309C28.9779 17.3659 28.9507 17.3048 28.9113 17.2523C28.872 17.1998 28.8217 17.1573 28.7642 17.128C28.7067 17.0987 28.6435 17.0833 28.5794 17.0831ZM16.2011 16.4339C16.3263 16.1094 16.5423 15.8313 16.8213 15.6353C17.1003 15.4393 17.4295 15.3344 17.7665 15.3342H22.2317C22.5687 15.3344 22.8979 15.4393 23.1769 15.6353C23.4559 15.8313 23.6719 16.1094 23.7971 16.4339L24.5015 18.2502H15.4998L16.2011 16.4339ZM14.3751 22.326C14.0776 22.326 13.7923 22.2035 13.582 21.9854C13.3717 21.7673 13.2535 21.4715 13.2535 21.163C13.2535 20.8546 13.3717 20.5588 13.582 20.3407C13.7923 20.1225 14.0776 20 14.3751 20C14.7902 20.0878 15.1713 20.2999 15.4712 20.61C15.7712 20.9202 15.9768 21.3148 16.0626 21.7449C16.0626 22.4421 15.0498 22.326 14.3751 22.326ZM25.6263 22.326C24.9516 22.326 23.9388 22.4421 23.9388 21.7449C24.0247 21.3149 24.2304 20.9205 24.5303 20.6105C24.8303 20.3005 25.2113 20.0885 25.6263 20.0008C25.9237 20.0008 26.209 20.1234 26.4194 20.3415C26.6297 20.5596 26.7479 20.8554 26.7479 21.1638C26.7479 21.4723 26.6297 21.7681 26.4194 21.9862C26.209 22.2043 25.9237 22.326 25.6263 22.326Z" fill="url(#paint0_linear_2675_84729)"/>

</svg>
