<svg width="19" height="14" viewBox="0 0 19 14" fill="none" xmlns="http://www.w3.org/2000/svg">
<path d="M18.177 4.08315H16.0716L15.4869 2.56628C15.1968 1.80709 14.6928 1.15617 14.0407 0.698396C13.3885 0.240625 12.6185 -0.00274814 11.831 2.34112e-05H7.36571C6.57822 -0.00263685 5.80821 0.240775 5.15608 0.698533C4.50395 1.15629 3.99994 1.80716 3.70976 2.56628L3.12509 4.08315H1.01965C0.955513 4.08313 0.892213 4.09827 0.834567 4.12743C0.77692 4.15659 0.726444 4.199 0.686977 4.25142C0.64751 4.30385 0.620092 4.36492 0.606806 4.42998C0.59352 4.49505 0.594717 4.5624 0.610306 4.62691L0.821632 5.50181C0.844495 5.59643 0.897198 5.68041 0.971366 5.74041C1.04553 5.8004 1.13691 5.83297 1.23098 5.83294H1.9354C1.69254 6.0498 1.4975 6.3183 1.36354 6.62022C1.22957 6.92213 1.1598 7.2504 1.15897 7.58274V9.33334C1.16073 9.89708 1.36083 10.4408 1.72173 10.8624V12.8337C1.72193 13.1431 1.84061 13.4398 2.05166 13.6585C2.26271 13.8772 2.54887 14 2.84724 14H3.97275C4.27098 13.9998 4.55694 13.8768 4.76782 13.6582C4.9787 13.4395 5.09727 13.143 5.09747 12.8337V11.6667H14.0984V12.8329C14.0986 13.1422 14.2172 13.4387 14.4281 13.6574C14.639 13.876 14.9249 13.999 15.2232 13.9992H16.3479C16.6461 13.999 16.9321 13.876 17.143 13.6574C17.3538 13.4387 17.4724 13.1422 17.4726 12.8329V10.8616C17.8336 10.44 18.0337 9.89629 18.0354 9.33253V7.58355C18.0346 7.25128 17.9649 6.92307 17.8311 6.62117C17.6973 6.31927 17.5024 6.05073 17.2597 5.83376H17.9641C18.0582 5.83378 18.1496 5.80121 18.2237 5.74122C18.2979 5.68122 18.3506 5.59724 18.3735 5.50262L18.5848 4.62773C18.6005 4.56329 18.6018 4.49599 18.5887 4.43094C18.5756 4.36589 18.5483 4.3048 18.509 4.25231C18.4697 4.19982 18.4194 4.1573 18.3618 4.12799C18.3043 4.09868 18.2411 4.08334 18.177 4.08315ZM5.79877 3.43388C5.92396 3.10945 6.13997 2.83132 6.41897 2.63532C6.69796 2.43933 7.02716 2.33444 7.36415 2.33416H11.8294C12.1664 2.33444 12.4956 2.43933 12.7746 2.63532C13.0536 2.83132 13.2696 3.10945 13.3948 3.43388L14.0992 5.25022H5.09747L5.79877 3.43388ZM3.97275 9.32603C3.67528 9.32603 3.39 9.2035 3.17966 8.9854C2.96932 8.76729 2.85115 8.47147 2.85115 8.16302C2.85115 7.85457 2.96932 7.55876 3.17966 7.34065C3.39 7.12254 3.67528 7.00001 3.97275 7.00001C4.38781 7.08778 4.76892 7.29988 5.06887 7.61004C5.36882 7.9202 5.57443 8.31479 5.66023 8.74494C5.66023 9.4421 4.64743 9.32603 3.97275 9.32603ZM15.2239 9.32603C14.5493 9.32603 13.5365 9.4421 13.5365 8.74494C13.6224 8.31494 13.8281 7.92053 14.128 7.61052C14.4279 7.30051 14.809 7.08853 15.2239 7.00082C15.5214 7.00082 15.8067 7.12335 16.017 7.34146C16.2274 7.55957 16.3455 7.85538 16.3455 8.16383C16.3455 8.47228 16.2274 8.7681 16.017 8.98621C15.8067 9.20432 15.5214 9.32603 15.2239 9.32603Z" fill="url(#paint0_linear_3599_145200)"/>
<defs>
<linearGradient id="paint0_linear_3599_145200" x1="0.597656" y1="7" x2="18.5977" y2="7" gradientUnits="userSpaceOnUse">
<stop stop-color="#57EBA7"/>
<stop offset="1" stop-color="#009EFD"/>
</linearGradient>
</defs>
</svg>
