<svg width="16" height="16" viewBox="0 0 16 16" fill="none" xmlns="http://www.w3.org/2000/svg">
<path d="M5.43715 6.77996H10.236C10.3633 6.77996 10.4855 6.72862 10.5755 6.63722C10.6655 6.54583 10.7161 6.42187 10.7161 6.29262V5.80595C10.7161 5.6767 10.6655 5.55274 10.5755 5.46135C10.4855 5.36995 10.3633 5.31861 10.236 5.31861H5.43715C5.30983 5.31861 5.18771 5.36995 5.09768 5.46135C5.00765 5.55274 4.95707 5.6767 4.95707 5.80595V6.2933C4.95724 6.42243 5.0079 6.54621 5.09792 6.63746C5.18793 6.72871 5.30994 6.77996 5.43715 6.77996ZM4.95707 9.21601C4.95707 9.34526 5.00765 9.46922 5.09768 9.56061C5.18771 9.65201 5.30983 9.70335 5.43715 9.70335H10.236C10.3633 9.70335 10.4855 9.65201 10.5755 9.56061C10.6655 9.46922 10.7161 9.34526 10.7161 9.21601V8.72866C10.7161 8.59941 10.6655 8.47545 10.5755 8.38406C10.4855 8.29266 10.3633 8.24132 10.236 8.24132H5.43715C5.30983 8.24132 5.18771 8.29266 5.09768 8.38406C5.00765 8.47545 4.95707 8.59941 4.95707 8.72866V9.21601ZM7.83692 12.904C7.33214 12.904 6.84024 12.7422 6.43138 12.4417L0.158205 7.84141V14.3314C0.157941 14.5235 0.194983 14.7138 0.267211 14.8913C0.33944 15.0688 0.445438 15.2302 0.579142 15.3661C0.712847 15.502 0.871635 15.6098 1.04643 15.6834C1.22122 15.757 1.40858 15.7948 1.5978 15.7948H14.076C14.2653 15.7948 14.4526 15.757 14.6274 15.6834C14.8022 15.6098 14.961 15.502 15.0947 15.3661C15.2284 15.2302 15.3344 15.0688 15.4066 14.8913C15.4789 14.7138 15.5159 14.5235 15.5156 14.3314V7.84141L9.23912 12.4417C8.8302 12.7421 8.33834 12.9039 7.83358 12.904H7.83692ZM14.9641 5.16474C14.697 4.95327 14.4473 4.75467 14.076 4.46999V3.12657C14.076 2.739 13.9244 2.36729 13.6544 2.09324C13.3844 1.81918 13.0183 1.66522 12.6364 1.66522H10.3075L10.0404 1.46526C9.53425 1.09111 8.53268 0.192337 7.83692 0.205215C7.14116 0.19437 6.13959 1.09314 5.63346 1.4673L5.36638 1.66454H3.03739C2.84828 1.66454 2.66103 1.70236 2.48633 1.77584C2.31162 1.84932 2.15289 1.95703 2.01921 2.0928C1.88552 2.22857 1.77949 2.38975 1.70719 2.56713C1.63488 2.7445 1.59771 2.93461 1.5978 3.12657V4.46999C1.22655 4.75399 0.974819 4.95327 0.709736 5.16474C0.537899 5.30146 0.398947 5.47607 0.303395 5.67535C0.207842 5.87462 0.158193 6.09335 0.158205 6.31499V6.63898L3.03739 8.75035V3.12657H12.6358V8.75239L15.5156 6.63898V6.31499C15.5156 6.09335 15.466 5.87462 15.3704 5.67535C15.2749 5.47607 15.1359 5.30146 14.9641 5.16474Z" fill="url(#paint0_linear_3599_145222)"/>
<defs>
<linearGradient id="paint0_linear_3599_145222" x1="0.158203" y1="7.99995" x2="15.5156" y2="7.99995" gradientUnits="userSpaceOnUse">
<stop stop-color="#3D4E81"/>
<stop offset="0.48" stop-color="#5753C9"/>
<stop offset="1" stop-color="#6E7FF3"/>
</linearGradient>
</defs>
</svg>
