<svg width="41" height="40" viewBox="0 0 41 40" fill="none" xmlns="http://www.w3.org/2000/svg">
    <defs>
        <linearGradient id="paint0_linear_2675_84751" x1="12.5605" y1="19.9999" x2="27.918" y2="19.9999" gradientUnits="userSpaceOnUse">
            <stop stop-color="#3D4E81"/>
            <stop offset="0.48" stop-color="#5753C9"/>
            <stop offset="1" stop-color="#6E7FF3"/>
        </linearGradient>
    </defs><circle cx="20" cy="20" r="16" fill="white"/>
<path d="M17.8395 18.78H22.6384C22.7657 18.78 22.8878 18.7286 22.9778 18.6372C23.0679 18.5458 23.1184 18.4219 23.1184 18.2926V17.806C23.1184 17.6767 23.0679 17.5527 22.9778 17.4613C22.8878 17.37 22.7657 17.3186 22.6384 17.3186H17.8395C17.7122 17.3186 17.5901 17.37 17.5 17.4613C17.41 17.5527 17.3594 17.6767 17.3594 17.806V18.2933C17.3596 18.4224 17.4102 18.5462 17.5003 18.6375C17.5903 18.7287 17.7123 18.78 17.8395 18.78ZM17.3594 21.216C17.3594 21.3453 17.41 21.4692 17.5 21.5606C17.5901 21.652 17.7122 21.7034 17.8395 21.7034H22.6384C22.7657 21.7034 22.8878 21.652 22.9778 21.5606C23.0679 21.4692 23.1184 21.3453 23.1184 21.216V20.7287C23.1184 20.5994 23.0679 20.4755 22.9778 20.3841C22.8878 20.2927 22.7657 20.2413 22.6384 20.2413H17.8395C17.7122 20.2413 17.5901 20.2927 17.5 20.3841C17.41 20.4755 17.3594 20.5994 17.3594 20.7287V21.216ZM20.2393 24.904C19.7345 24.904 19.2426 24.7422 18.8337 24.4417L12.5605 19.8414V26.3314C12.5603 26.5235 12.5973 26.7138 12.6696 26.8913C12.7418 27.0688 12.8478 27.2302 12.9815 27.3661C13.1152 27.502 13.274 27.6098 13.4488 27.6834C13.6236 27.757 13.8109 27.7948 14.0001 27.7948H26.4784C26.6676 27.7948 26.855 27.757 27.0298 27.6834C27.2045 27.6098 27.3633 27.502 27.497 27.3661C27.6307 27.2302 27.7367 27.0688 27.809 26.8913C27.8812 26.7138 27.9182 26.5235 27.918 26.3314V19.8414L21.6415 24.4417C21.2325 24.7421 20.7407 24.9039 20.2359 24.904H20.2393ZM27.3664 17.1647C27.0994 16.9533 26.8496 16.7547 26.4784 16.47V15.1266C26.4784 14.739 26.3267 14.3673 26.0567 14.0932C25.7868 13.8192 25.4206 13.6652 25.0388 13.6652H22.7098L22.4427 13.4653C21.9366 13.0911 20.935 12.1923 20.2393 12.2052C19.5435 12.1944 18.5419 13.0931 18.0358 13.4673L17.7687 13.6645H15.4397C15.2506 13.6645 15.0634 13.7024 14.8887 13.7758C14.714 13.8493 14.5552 13.957 14.4216 14.0928C14.2879 14.2286 14.1818 14.3897 14.1095 14.5671C14.0372 14.7445 14.0001 14.9346 14.0001 15.1266V16.47C13.6289 16.754 13.3772 16.9533 13.1121 17.1647C12.9402 17.3015 12.8013 17.4761 12.7057 17.6753C12.6102 17.8746 12.5605 18.0934 12.5605 18.315V18.639L15.4397 20.7504V15.1266H25.0381V20.7524L27.918 18.639V18.315C27.918 18.0934 27.8683 17.8746 27.7728 17.6753C27.6772 17.4761 27.5383 17.3015 27.3664 17.1647Z" fill="url(#paint0_linear_2675_84751)"/>

</svg>
