<svg width="41" height="40" viewBox="0 0 41 40" fill="none" xmlns="http://www.w3.org/2000/svg">
    <defs>
        <linearGradient id="paint0_linear_2675_84777" x1="20.2976" y1="12.6738" x2="20.2976" y2="27.3405" gradientUnits="userSpaceOnUse">
            <stop stop-color="#007BEF"/>
            <stop offset="1" stop-color="#0B5498"/>
        </linearGradient>
    </defs><circle cx="20" cy="20" r="16" fill="white"/>
<path d="M21.0396 13.1221C20.7615 12.8352 20.3841 12.6739 19.9907 12.6738H14.6702C14.2767 12.6738 13.8993 12.835 13.6211 13.122C13.3428 13.4089 13.1865 13.7981 13.1865 14.2039V19.6906C13.1866 20.0964 13.343 20.4855 13.6212 20.7723L19.556 26.8925C19.8342 27.1794 20.2115 27.3405 20.6049 27.3405C20.9983 27.3405 21.3756 27.1794 21.6539 26.8925L26.9743 21.4058C27.2525 21.1189 27.4087 20.7298 27.4087 20.324C27.4087 19.9183 27.2525 19.5292 26.9743 19.2423L21.0396 13.1221ZM16.8957 18.029C16.5021 18.0289 16.1247 17.8675 15.8464 17.5805C15.5682 17.2934 15.4119 16.9041 15.412 16.4982C15.4121 16.0923 15.5686 15.703 15.847 15.4161C16.1254 15.1292 16.5029 14.968 16.8965 14.9681C17.2901 14.9682 17.6675 15.1296 17.9457 15.4166C18.224 15.7037 18.3802 16.093 18.3801 16.4989C18.38 16.9048 18.2236 17.2941 17.9452 17.581C17.6668 17.8679 17.2893 18.0291 16.8957 18.029Z" fill="url(#paint0_linear_2675_84777)"/>

</svg>
