<svg width="19" height="19" viewBox="0 0 19 19" fill="none" xmlns="http://www.w3.org/2000/svg">
<path d="M9.63778 3.12213C9.3596 2.83517 8.98228 2.67391 8.58882 2.67383H3.26835C2.87485 2.67383 2.49747 2.83503 2.21923 3.12197C1.94098 3.40891 1.78467 3.79808 1.78467 4.20387V9.69061C1.78475 10.0964 1.94112 10.4855 2.21939 10.7723L8.1541 16.8925C8.43233 17.1794 8.80964 17.3405 9.20306 17.3405C9.59648 17.3405 9.97379 17.1794 10.252 16.8925L15.5725 11.4058C15.8506 11.1189 16.0069 10.7298 16.0069 10.324C16.0069 9.91833 15.8506 9.52923 15.5725 9.2423L9.63778 3.12213ZM5.49386 8.02898C5.10027 8.02888 4.72283 7.86754 4.44459 7.58046C4.16635 7.29338 4.01009 6.90407 4.01019 6.49817C4.01028 6.09228 4.16673 5.70305 4.44512 5.41611C4.7235 5.12917 5.10101 4.96803 5.49461 4.96813C5.8882 4.96823 6.26563 5.12957 6.54388 5.41665C6.82212 5.70373 6.97838 6.09304 6.97828 6.49894C6.97819 6.90483 6.82174 7.29406 6.54335 7.581C6.26497 7.86794 5.88746 8.02908 5.49386 8.02898Z" fill="url(#paint0_linear_3599_145249)"/>
<defs>
<linearGradient id="paint0_linear_3599_145249" x1="8.89578" y1="2.67383" x2="8.89578" y2="17.3405" gradientUnits="userSpaceOnUse">
<stop stop-color="#007BEF"/>
<stop offset="1" stop-color="#0B5498"/>
</linearGradient>
</defs>
</svg>
