<svg width="41" height="40" viewBox="0 0 41 40" fill="none" xmlns="http://www.w3.org/2000/svg">
    <defs>
        <linearGradient id="paint0_linear_2675_84741" x1="20.5003" y1="12.9785" x2="20.5003" y2="26.4785" gradientUnits="userSpaceOnUse">
            <stop stop-color="#255989"/>
            <stop offset="1" stop-color="#2F6CC8"/>
        </linearGradient>
    </defs><circle cx="20" cy="20" r="16" fill="white"/>
<path d="M29.1237 24.5468L25.3227 13.9387C25.1164 13.3631 24.5691 12.9785 23.9559 12.9785H21.4673V15.3894C21.4673 15.6557 21.2507 15.8716 20.9834 15.8716H20.0158C19.7486 15.8716 19.532 15.6557 19.532 15.3894V12.9785H17.0464C16.4328 12.9785 15.8858 13.3628 15.6796 13.9387L11.8786 24.5468C11.5391 25.487 12.2399 26.4785 13.2436 26.4785H19.532V24.0676C19.532 23.8024 19.7497 23.5854 20.0158 23.5854H20.9834C21.2507 23.5854 21.4673 23.8013 21.4673 24.0676V26.4785H27.7297C28.7608 26.4785 29.4593 25.487 29.1237 24.5468ZM21.4673 21.1745C21.4673 21.4408 21.2507 21.6567 20.9834 21.6567H20.0158C19.7497 21.6567 19.532 21.4397 19.532 21.1745V18.2814C19.532 18.0162 19.7497 17.7992 20.0158 17.7992H20.9834C21.2495 17.7992 21.4673 18.0162 21.4673 18.2814V21.1745Z" fill="url(#paint0_linear_2675_84741)"/>

</svg>
