<svg width="41" height="40" viewBox="0 0 41 40" fill="none" xmlns="http://www.w3.org/2000/svg">
    <defs>
        <linearGradient id="paint0_linear_2675_84804" x1="19.7656" y1="18.6973" x2="19.7656" y2="25.3137" gradientUnits="userSpaceOnUse">
            <stop stop-color="#3A74AA"/>
            <stop offset="1" stop-color="#6CB0FF"/>
        </linearGradient>
        <linearGradient id="paint1_linear_2675_84804" x1="19.6315" y1="12.7422" x2="19.6315" y2="19.3587" gradientUnits="userSpaceOnUse">
            <stop stop-color="#3A74AA"/>
            <stop offset="1" stop-color="#6CB0FF"/>
        </linearGradient>
        <clipPath id="clip0_2675_84804">
            <rect width="18.0513" height="18.0513" fill="white" transform="translate(11.7871 10.5645)"/>
        </clipPath>
    </defs><circle cx="20" cy="20" r="16" fill="white"/>
<g clip-path="url(#clip0_2675_84804)">
<path d="M19.6298 18.6973C18.1655 18.6975 16.7528 19.2375 15.6618 20.2141C14.5707 21.1906 13.8781 22.5352 13.7163 23.9904C13.7116 24.1618 13.7412 24.3325 13.8033 24.4923C13.8654 24.6521 13.9588 24.7979 14.078 24.9212C14.1973 25.0444 14.3399 25.1426 14.4975 25.21C14.6552 25.2774 14.8247 25.3127 14.9962 25.3137H24.5848C27.0124 25.21 25.5081 20.7649 23.0172 19.7579C22.027 19.0713 20.8462 18.698 19.6298 18.6973Z" fill="url(#paint0_linear_2675_84804)"/>
<path d="M22.9397 16.0504C22.9397 16.7047 22.7457 17.3443 22.3822 17.8884C22.0187 18.4324 21.502 18.8564 20.8975 19.1068C20.293 19.3572 19.6278 19.4227 18.9861 19.2951C18.3443 19.1674 17.7549 18.8524 17.2922 18.3897C16.8295 17.927 16.5145 17.3376 16.3868 16.6958C16.2592 16.0541 16.3247 15.3889 16.5751 14.7844C16.8255 14.1799 17.2495 13.6632 17.7935 13.2997C18.3376 12.9362 18.9772 12.7422 19.6315 12.7422C20.5089 12.7422 21.3503 13.0907 21.9708 13.7111C22.5912 14.3316 22.9397 15.173 22.9397 16.0504Z" fill="url(#paint1_linear_2675_84804)"/>
</g>

</svg>
