<svg width="19" height="19" viewBox="0 0 19 19" fill="none" xmlns="http://www.w3.org/2000/svg">
<g clip-path="url(#clip0_3599_145275)">
<path d="M8.22718 8.69824C6.76295 8.69843 5.35018 9.23847 4.25917 10.215C3.16816 11.1916 2.4755 12.5361 2.31371 13.9914C2.30903 14.1628 2.33862 14.3334 2.40073 14.4933C2.46285 14.6531 2.55625 14.7989 2.67546 14.9221C2.79466 15.0454 2.93728 15.1436 3.09493 15.211C3.25259 15.2784 3.42212 15.3137 3.59359 15.3147H13.1822C15.6098 15.211 14.1055 10.7659 11.6146 9.75884C10.6244 9.0723 9.44364 8.69901 8.22718 8.69824Z" fill="url(#paint0_linear_3599_145275)"/>
<path d="M11.5366 6.0514C11.5366 6.70571 11.3426 7.34532 10.9791 7.88936C10.6156 8.43339 10.0989 8.85742 9.49441 9.10781C8.88991 9.3582 8.22473 9.42372 7.583 9.29607C6.94126 9.16842 6.35179 8.85334 5.88913 8.39067C5.42646 7.92801 5.11138 7.33854 4.98373 6.6968C4.85609 6.05507 4.9216 5.38989 5.17199 4.78539C5.42238 4.18089 5.84641 3.66422 6.39045 3.3007C6.93448 2.93719 7.5741 2.74316 8.2284 2.74316C9.1058 2.74316 9.94726 3.09171 10.5677 3.71212C11.1881 4.33254 11.5366 5.174 11.5366 6.0514Z" fill="url(#paint1_linear_3599_145275)"/>
</g>
<defs>
<linearGradient id="paint0_linear_3599_145275" x1="8.36303" y1="8.69824" x2="8.36303" y2="15.3147" gradientUnits="userSpaceOnUse">
<stop stop-color="#3A74AA"/>
<stop offset="1" stop-color="#6CB0FF"/>
</linearGradient>
<linearGradient id="paint1_linear_3599_145275" x1="8.2284" y1="2.74316" x2="8.2284" y2="9.35964" gradientUnits="userSpaceOnUse">
<stop stop-color="#3A74AA"/>
<stop offset="1" stop-color="#6CB0FF"/>
</linearGradient>
<clipPath id="clip0_3599_145275">
<rect width="18.0513" height="18.0513" fill="white" transform="translate(0.384766 0.564453)"/>
</clipPath>
</defs>
</svg>
