<svg width="18" height="18" viewBox="0 0 18 18" fill="none" xmlns="http://www.w3.org/2000/svg">
<g clip-path="url(#clip0_3599_145269)">
<path d="M7.54375 8.14844C6.16616 8.14862 4.83699 8.66411 3.81053 9.59629C2.78408 10.5285 2.1324 11.8119 1.98019 13.201C1.97578 13.3646 2.00362 13.5275 2.06206 13.68C2.1205 13.8326 2.20838 13.9718 2.32053 14.0894C2.43268 14.2071 2.56685 14.3008 2.71518 14.3652C2.86351 14.4295 3.02301 14.4632 3.18433 14.4642H12.2056C8.94301 13.8133 9.72952 9.77904 10.7307 9.16082C9.79914 8.5055 8.68824 8.14917 7.54375 8.14844Z" fill="url(#paint0_linear_3599_145269)"/>
<path d="M10.6576 5.62173C10.6576 6.24629 10.475 6.85683 10.133 7.37614C9.79103 7.89545 9.30493 8.3002 8.7362 8.53921C8.16747 8.77822 7.54165 8.84076 6.93789 8.71891C6.33412 8.59706 5.77953 8.29631 5.34424 7.85467C4.90896 7.41304 4.61252 6.85036 4.49242 6.2378C4.37233 5.62523 4.43397 4.99029 4.66954 4.41327C4.90512 3.83624 5.30405 3.34305 5.8159 2.99606C6.32774 2.64907 6.92951 2.46387 7.5451 2.46387C8.37058 2.46387 9.16226 2.79657 9.74596 3.38878C10.3297 3.981 10.6576 4.78421 10.6576 5.62173Z" fill="url(#paint1_linear_3599_145269)"/>
<path d="M13.1381 8.61133C11.5935 8.61133 10.3416 9.88154 10.3416 11.4486C10.3416 13.0157 11.5935 14.2859 13.1381 14.2859C14.6826 14.2859 15.9346 13.0157 15.9346 11.4486C15.9346 9.88154 14.6826 8.61133 13.1381 8.61133Z" fill="url(#paint2_linear_3599_145269)"/>
<path d="M12.2627 13.179L13.9724 10.6065H14.2682L12.5672 13.179H12.2627ZM12.4622 12.031C12.3409 12.031 12.2318 11.9995 12.1349 11.9365C12.0381 11.8724 11.9617 11.7866 11.9057 11.6793C11.8497 11.572 11.8217 11.4524 11.8217 11.3205C11.8217 11.1864 11.8497 11.0645 11.9057 10.9548C11.9629 10.8451 12.0399 10.7582 12.1367 10.694C12.2335 10.6287 12.342 10.596 12.4622 10.596C12.5824 10.596 12.6903 10.6287 12.7859 10.694C12.8816 10.7582 12.9574 10.8451 13.0134 10.9548C13.0694 11.0645 13.0974 11.1864 13.0974 11.3205C13.0974 11.4524 13.07 11.572 13.0152 11.6793C12.9604 11.7866 12.8845 11.8724 12.7877 11.9365C12.692 11.9995 12.5835 12.031 12.4622 12.031ZM12.4587 11.772C12.5509 11.772 12.6179 11.7341 12.6599 11.6583C12.7019 11.5813 12.7229 11.4687 12.7229 11.3205C12.7229 11.1677 12.7014 11.0516 12.6582 10.9723C12.615 10.893 12.5485 10.8533 12.4587 10.8533C12.37 10.8533 12.3041 10.8935 12.2609 10.974C12.2178 11.0534 12.1962 11.1689 12.1962 11.3205C12.1962 11.4675 12.2172 11.5795 12.2592 11.6565C12.3024 11.7335 12.3689 11.772 12.4587 11.772ZM14.1229 13.2C14.0004 13.2 13.8908 13.1685 13.7939 13.1055C13.6971 13.0425 13.6207 12.9574 13.5647 12.85C13.5087 12.7415 13.4807 12.6202 13.4807 12.486C13.4807 12.3519 13.5087 12.23 13.5647 12.1203C13.6219 12.0106 13.6989 11.9237 13.7957 11.8595C13.8937 11.7942 14.0028 11.7615 14.1229 11.7615C14.2431 11.7615 14.351 11.7942 14.4467 11.8595C14.5435 11.9237 14.6199 12.0106 14.6759 12.1203C14.7319 12.23 14.7599 12.3519 14.7599 12.486C14.7599 12.6202 14.7325 12.7415 14.6777 12.85C14.6229 12.9574 14.547 13.0425 14.4502 13.1055C14.3545 13.1685 14.2454 13.2 14.1229 13.2ZM14.1194 12.9375C14.2104 12.9375 14.2769 12.8996 14.3189 12.8238C14.3609 12.7468 14.3819 12.6354 14.3819 12.4895C14.3819 12.3367 14.3604 12.2206 14.3172 12.1413C14.274 12.062 14.2081 12.0223 14.1194 12.0223C14.0308 12.0223 13.9649 12.0625 13.9217 12.143C13.8797 12.2224 13.8587 12.3379 13.8587 12.4895C13.8587 12.6342 13.8797 12.745 13.9217 12.822C13.9637 12.899 14.0296 12.9375 14.1194 12.9375Z" fill="white"/>
</g>
<defs>
<linearGradient id="paint0_linear_3599_145269" x1="7.09267" y1="8.14844" x2="7.09267" y2="14.4642" gradientUnits="userSpaceOnUse">
<stop stop-color="#2C989A"/>
<stop offset="1" stop-color="#005BEA"/>
</linearGradient>
<linearGradient id="paint1_linear_3599_145269" x1="7.5451" y1="2.46387" x2="7.5451" y2="8.77959" gradientUnits="userSpaceOnUse">
<stop stop-color="#2C989A"/>
<stop offset="1" stop-color="#005BEA"/>
</linearGradient>
<linearGradient id="paint2_linear_3599_145269" x1="13.1381" y1="8.61133" x2="13.1381" y2="14.2859" gradientUnits="userSpaceOnUse">
<stop stop-color="#107A9B"/>
<stop offset="1" stop-color="#125B8B"/>
</linearGradient>
<clipPath id="clip0_3599_145269">
<rect width="16.9832" height="17.2308" fill="white" transform="translate(0.336914 0.384766)"/>
</clipPath>
</defs>
</svg>
