<svg width="41" height="40" viewBox="0 0 41 40" fill="none" xmlns="http://www.w3.org/2000/svg">
    <defs>
        <linearGradient id="paint0_linear_2675_84797" x1="18.4948" y1="19.1484" x2="18.4948" y2="25.4642" gradientUnits="userSpaceOnUse">
            <stop stop-color="#2C989A"/>
            <stop offset="1" stop-color="#005BEA"/>
        </linearGradient>
        <linearGradient id="paint1_linear_2675_84797" x1="18.9474" y1="13.4648" x2="18.9474" y2="19.7806" gradientUnits="userSpaceOnUse">
            <stop stop-color="#2C989A"/>
            <stop offset="1" stop-color="#005BEA"/>
        </linearGradient>
        <linearGradient id="paint2_linear_2675_84797" x1="24.5406" y1="19.6113" x2="24.5406" y2="25.2859" gradientUnits="userSpaceOnUse">
            <stop stop-color="#107A9B"/>
            <stop offset="1" stop-color="#125B8B"/>
        </linearGradient>
        <clipPath id="clip0_2675_84797">
            <rect width="16.9832" height="17.2308" fill="white" transform="translate(11.7393 11.3848)"/>
        </clipPath>
    </defs><circle cx="20" cy="20" r="16" fill="white"/>
<g clip-path="url(#clip0_2675_84797)">
<path d="M18.9459 19.1484C17.5683 19.1486 16.2391 19.6641 15.2126 20.5963C14.1862 21.5285 13.5345 22.8119 13.3823 24.201C13.3779 24.3646 13.4057 24.5275 13.4642 24.68C13.5226 24.8326 13.6105 24.9718 13.7226 25.0894C13.8348 25.2071 13.969 25.3008 14.1173 25.3652C14.2656 25.4295 14.4251 25.4632 14.5864 25.4642H23.6077C20.3451 24.8133 21.1316 20.779 22.1328 20.1608C21.2012 19.5055 20.0903 19.1492 18.9459 19.1484Z" fill="url(#paint0_linear_2675_84797)"/>
<path d="M22.0599 16.6227C22.0599 17.2473 21.8774 17.8578 21.5354 18.3771C21.1934 18.8964 20.7073 19.3012 20.1385 19.5402C19.5698 19.7792 18.944 19.8417 18.3402 19.7199C17.7365 19.598 17.1819 19.2973 16.7466 18.8556C16.3113 18.414 16.0149 17.8513 15.8948 17.2388C15.7747 16.6262 15.8363 15.9913 16.0719 15.4142C16.3075 14.8372 16.7064 14.344 17.2182 13.997C17.7301 13.65 18.3319 13.4648 18.9474 13.4648C19.7729 13.4648 20.5646 13.7975 21.1483 14.3898C21.732 14.982 22.0599 15.7852 22.0599 16.6227Z" fill="url(#paint1_linear_2675_84797)"/>
<path d="M24.5406 19.6113C22.9961 19.6113 21.7441 20.8815 21.7441 22.4486C21.7441 24.0157 22.9961 25.2859 24.5406 25.2859C26.0852 25.2859 27.3371 24.0157 27.3371 22.4486C27.3371 20.8815 26.0852 19.6113 24.5406 19.6113Z" fill="url(#paint2_linear_2675_84797)"/>
<path d="M23.8648 21.5951C23.9849 21.5951 24.0929 21.6271 24.1885 21.6913C24.2842 21.7555 24.36 21.8424 24.416 21.9521C24.472 22.0617 24.5 22.1842 24.5 22.3196C24.5 22.4537 24.4726 22.5745 24.4178 22.6818C24.3629 22.7891 24.2871 22.8743 24.1903 22.9373C24.0946 22.9991 23.9861 23.0301 23.8648 23.0301C23.7434 23.0301 23.6344 22.9991 23.5375 22.9373C23.4407 22.8743 23.3643 22.7891 23.3083 22.6818C23.2523 22.5745 23.2243 22.4537 23.2243 22.3196C23.2243 22.1842 23.2523 22.0617 23.3083 21.9521C23.3654 21.8424 23.4424 21.7555 23.5393 21.6913C23.6361 21.6271 23.7446 21.5951 23.8648 21.5951ZM23.8613 22.7711C23.9534 22.7711 24.0199 22.7314 24.0608 22.6521C24.1028 22.5716 24.1238 22.4607 24.1238 22.3196C24.1238 22.1737 24.1022 22.0594 24.059 21.9766C24.0159 21.8937 23.9499 21.8523 23.8613 21.8523C23.8029 21.8523 23.7545 21.8716 23.716 21.9101C23.6775 21.9474 23.6484 22.0011 23.6285 22.0711C23.6099 22.1411 23.6005 22.2239 23.6005 22.3196C23.6005 22.4596 23.6215 22.5698 23.6635 22.6503C23.7055 22.7308 23.7714 22.7711 23.8613 22.7711ZM25.5255 22.7606C25.6457 22.7606 25.7536 22.7932 25.8493 22.8586C25.9461 22.9227 26.0225 23.0096 26.0785 23.1193C26.1345 23.229 26.1625 23.3509 26.1625 23.4851C26.1625 23.6192 26.1351 23.7406 26.0803 23.8491C26.0254 23.9564 25.9496 24.0416 25.8528 24.1046C25.7571 24.1676 25.648 24.1991 25.5255 24.1991C25.403 24.1991 25.2934 24.1676 25.1965 24.1046C25.0997 24.0416 25.0233 23.9564 24.9673 23.8491C24.9113 23.7406 24.8833 23.6192 24.8833 23.4851C24.8833 23.3509 24.9113 23.229 24.9673 23.1193C25.0244 23.0096 25.1014 22.9227 25.1983 22.8586C25.2963 22.7932 25.4054 22.7606 25.5255 22.7606ZM25.522 23.9348C25.5815 23.9348 25.6305 23.9167 25.669 23.8806C25.7075 23.8444 25.7361 23.7931 25.7548 23.7266C25.7746 23.6589 25.7845 23.5796 25.7845 23.4886C25.7845 23.3917 25.7746 23.3089 25.7548 23.2401C25.7349 23.1701 25.7058 23.1164 25.6673 23.0791C25.6288 23.0406 25.5804 23.0213 25.522 23.0213C25.4637 23.0213 25.4153 23.0406 25.3768 23.0791C25.3394 23.1164 25.3109 23.1701 25.291 23.2401C25.2724 23.3101 25.263 23.3929 25.263 23.4886C25.263 23.5796 25.2724 23.6589 25.291 23.7266C25.3097 23.7931 25.3383 23.8444 25.3768 23.8806C25.4153 23.9167 25.4637 23.9348 25.522 23.9348ZM25.6708 21.6056L23.9698 24.1781L23.6688 24.1728L25.375 21.6056H25.6708Z" fill="white"/>
</g>

</svg>
