<svg width="25" height="18" viewBox="0 0 25 18" fill="none" xmlns="http://www.w3.org/2000/svg">
<path d="M23.8892 5.28755H21.0607L20.2752 3.357C19.8855 2.39076 19.2084 1.56231 18.3323 0.979688C17.4562 0.39707 16.4217 0.0873227 15.3637 0.0908501H9.3649C8.30695 0.0874643 7.2725 0.397261 6.3964 0.979862C5.52031 1.56246 4.84321 2.39084 4.45337 3.357L3.66791 5.28755H0.839386C0.753218 5.28753 0.668179 5.3068 0.590735 5.34391C0.51329 5.38103 0.445479 5.435 0.392458 5.50172C0.339437 5.56845 0.302601 5.64617 0.284753 5.72898C0.266904 5.81179 0.268512 5.89751 0.289455 5.97962L0.573358 7.09313C0.604072 7.21355 0.674875 7.32043 0.774515 7.39679C0.874155 7.47315 0.996916 7.5146 1.12329 7.51456H2.06963C1.74336 7.79057 1.48135 8.13229 1.30137 8.51655C1.12139 8.9008 1.02767 9.3186 1.02655 9.74158V11.9696C1.02891 12.6871 1.29774 13.3791 1.78258 13.9157V16.4247C1.78286 16.8184 1.94228 17.196 2.22582 17.4743C2.50935 17.7526 2.89379 17.909 3.29463 17.909H4.80667C5.20733 17.9087 5.5915 17.7523 5.8748 17.474C6.15811 17.1956 6.31739 16.8183 6.31767 16.4247V14.9393H18.4099V16.4236C18.4101 16.8172 18.5694 17.1946 18.8527 17.4729C19.136 17.7512 19.5202 17.9077 19.9209 17.908H21.4318C21.8325 17.9077 22.2167 17.7512 22.5 17.4729C22.7833 17.1946 22.9426 16.8172 22.9428 16.4236V13.9146C23.4279 13.3781 23.6967 12.6861 23.6989 11.9686V9.74261C23.6978 9.31973 23.6042 8.902 23.4244 8.51776C23.2446 8.13352 22.9829 7.79175 22.6568 7.5156H23.6032C23.7296 7.51564 23.8523 7.47418 23.952 7.39782C24.0516 7.32147 24.1224 7.21458 24.1531 7.09416L24.437 5.98066C24.4581 5.89865 24.4599 5.81299 24.4422 5.7302C24.4246 5.64741 24.388 5.56966 24.3352 5.50285C24.2824 5.43604 24.2148 5.38193 24.1375 5.34462C24.0602 5.30732 23.9753 5.2878 23.8892 5.28755ZM7.25981 4.46121C7.42801 4.0483 7.7182 3.69432 8.09301 3.44487C8.46782 3.19542 8.91007 3.06192 9.3628 3.06157H15.3616C15.8143 3.06192 16.2566 3.19542 16.6314 3.44487C17.0062 3.69432 17.2964 4.0483 17.4646 4.46121L18.4109 6.77292H6.31767L7.25981 4.46121ZM4.80667 11.9603C4.40705 11.9603 4.02379 11.8044 3.74121 11.5268C3.45863 11.2492 3.29988 10.8727 3.29988 10.4801C3.29988 10.0876 3.45863 9.71106 3.74121 9.43347C4.02379 9.15588 4.40705 8.99993 4.80667 8.99993C5.36428 9.11163 5.87628 9.38157 6.27925 9.77632C6.68221 10.1711 6.95843 10.6733 7.07369 11.2207C7.07369 12.108 5.71306 11.9603 4.80667 11.9603ZM19.9219 11.9603C19.0155 11.9603 17.6549 12.108 17.6549 11.2207C17.7703 10.6735 18.0466 10.1715 18.4496 9.77694C18.8525 9.38238 19.3644 9.11259 19.9219 9.00096C20.3215 9.00096 20.7048 9.15691 20.9874 9.4345C21.2699 9.71209 21.4287 10.0886 21.4287 10.4812C21.4287 10.8737 21.2699 11.2502 20.9874 11.5278C20.7048 11.8054 20.3215 11.9614 19.9219 11.9614V11.9603Z" fill="#918686"/>
</svg>
