<svg width="22" height="24" viewBox="0 0 22 24" fill="none" xmlns="http://www.w3.org/2000/svg">
<path fill-rule="evenodd" clip-rule="evenodd" d="M15.6344 0C19.4421 0 22 2.59528 22 6.45746V17.5425C22 21.4385 19.5208 23.9723 15.684 23.9964L6.36686 24C2.5591 24 0 21.4047 0 17.5425V6.45746C0 2.56032 2.47916 0.0277248 6.31599 0.0048217L15.6331 0H15.6344ZM15.6344 1.80814L6.32205 1.81296C3.50256 1.82983 1.81668 3.56565 1.81668 6.45746V17.5425C1.81668 20.4536 3.5183 22.1919 6.36565 22.1919L15.678 22.1882C18.4974 22.1714 20.1833 20.4331 20.1833 17.5425V6.45746C20.1833 3.54636 18.4829 1.80814 15.6344 1.80814ZM15.4007 16.2415C15.9021 16.2415 16.3091 16.6465 16.3091 17.1456C16.3091 17.6446 15.9021 18.0497 15.4007 18.0497H6.65644C6.15503 18.0497 5.7481 17.6446 5.7481 17.1456C5.7481 16.6465 6.15503 16.2415 6.65644 16.2415H15.4007ZM15.4007 11.195C15.9021 11.195 16.3091 11.6 16.3091 12.0991C16.3091 12.5981 15.9021 13.0032 15.4007 13.0032H6.65644C6.15503 13.0032 5.7481 12.5981 5.7481 12.0991C5.7481 11.6 6.15503 11.195 6.65644 11.195H15.4007ZM9.99271 6.1602C10.4941 6.1602 10.9011 6.56522 10.9011 7.06427C10.9011 7.56332 10.4941 7.96834 9.99271 7.96834H6.65608C6.15467 7.96834 5.74774 7.56332 5.74774 7.06427C5.74774 6.56522 6.15467 6.1602 6.65608 6.1602H9.99271Z" fill="#918686"/>
</svg>
