<svg width="23" height="14" viewBox="0 0 23 14" fill="none" xmlns="http://www.w3.org/2000/svg">
<path d="M12.535 0H15.622H12.535ZM12.535 0C12.248 -0.000334635 11.9712 0.102218 11.759 0.287504L12.535 0ZM7.11676 2.19962L7.11775 2.19874L9.05924 0.500001H7.37835C7.29036 0.500148 7.20374 0.516922 7.12361 0.54889C7.04341 0.580883 6.97193 0.627187 6.91273 0.68416L6.91159 0.685262L5.1 2.41784V9.42091C5.15516 9.43085 5.20988 9.44365 5.26392 9.4593C5.50983 9.53053 5.73573 9.65914 5.92096 9.83569L5.92195 9.83663C6.12523 10.0314 6.84452 10.6542 7.53055 11.2427C7.86976 11.5337 8.19557 11.8118 8.43663 12.0173L8.72558 12.2633L8.80558 12.3313L8.82503 12.3478C9.19419 12.6318 9.6692 12.7674 10.1469 12.7201C10.6279 12.6725 11.0643 12.4442 11.3628 12.0926L11.3794 12.073L11.3979 12.0553L11.4049 12.0486L11.727 11.7397L12.0704 12.0247L12.7068 12.5531C12.7905 12.6172 12.8874 12.6661 12.9925 12.6962C13.0999 12.7269 13.2129 12.7371 13.325 12.726C13.437 12.7149 13.5449 12.6829 13.6425 12.6323L13.8725 13.0763L13.6425 12.6323C13.7399 12.5818 13.8247 12.5141 13.8925 12.4341C13.8925 12.4341 13.8926 12.434 13.8926 12.434L15.0184 11.1041L15.3288 10.7374L15.7076 11.033L15.9013 11.1842C15.9672 11.2355 16.0441 11.2747 16.1279 11.2986C16.2118 11.3225 16.3002 11.3304 16.3877 11.3217C16.4753 11.3129 16.5595 11.2877 16.6353 11.2482C16.7111 11.2088 16.7766 11.1561 16.8288 11.0942L16.8295 11.0934L17.1705 10.6909L17.1712 10.6901C17.2239 10.6282 17.2624 10.5581 17.2855 10.4842C17.3086 10.4104 17.3161 10.3335 17.3081 10.2575C17.3 10.1814 17.2763 10.1068 17.2375 10.0378C17.1987 9.96878 17.1453 9.9063 17.0792 9.85472L16.685 9.54683L16.6875 9.54372L12.0443 5.93087L11.2772 6.60459L7.11676 2.19962ZM7.11676 2.19962C6.51177 2.7318 6.14754 3.47718 6.11196 4.27375C6.07638 5.07044 6.37293 5.84405 6.92941 6.42504C7.48519 7.00529 8.25427 7.3462 9.06585 7.37949C9.87724 7.41277 10.6727 7.13622 11.277 6.60484L7.11676 2.19962ZM15.622 0.500001L15.6224 0.500001C15.7102 0.499928 15.7966 0.51656 15.8766 0.548452C15.9565 0.580333 16.0277 0.626543 16.0865 0.683407L16.088 0.684909L17.896 2.41754V7.80335L13.6635 4.51067L14.1468 4.08647L14.1524 4.08154L14.1579 4.07644C14.3602 3.88789 14.4821 3.62677 14.4906 3.34687C14.4992 3.06689 14.3932 2.79865 14.2019 2.59833C14.0113 2.39869 13.7513 2.28194 13.4788 2.26638C13.2063 2.25083 12.9351 2.33716 12.7228 2.5123L12.7169 2.51722L12.7111 2.52231L9.89822 4.99261L9.84642 5.03345C9.65452 5.18476 9.40708 5.26442 9.15241 5.25231C8.90128 5.24037 8.66735 5.14039 8.49394 4.97687C8.33503 4.80767 8.25449 4.59008 8.26302 4.37081C8.27163 4.14945 8.3707 3.93541 8.54629 3.77661C8.56348 3.76148 8.57664 3.74793 8.58509 3.73877L12.0879 0.664105C12.088 0.663994 12.0881 0.663883 12.0883 0.663772C12.2073 0.560032 12.3662 0.499804 12.5344 0.500001H12.535L15.622 0.500001ZM20.7 10.5208H20.6996C20.5209 10.521 20.3534 10.4529 20.2331 10.3379C20.1135 10.2236 20.0503 10.073 20.05 9.92071V3.53146C20.05 3.16321 20.0967 2.96561 20.1653 2.86225C20.2022 2.80669 20.2889 2.70704 20.6379 2.70417H22.5V10.5208H20.7ZM20.6859 10.2498C20.7149 10.2684 20.7446 10.2855 20.775 10.3011V10.4242L21.2767 10.4226C21.5547 10.4217 21.825 10.3155 22.0276 10.121C22.2309 9.9258 22.3495 9.6568 22.35 9.37148V9.37058C22.35 9.15785 22.2841 8.95176 22.1632 8.77848L21.7531 9.06444L22.1632 8.77848C22.0426 8.60547 21.8735 8.47375 21.6795 8.39677C21.4857 8.31984 21.2736 8.30001 21.0692 8.33898C20.8647 8.37796 20.6741 8.47466 20.5225 8.61994C20.3706 8.76545 20.2647 8.95347 20.2215 9.16147C20.1783 9.36964 20.2007 9.58516 20.2848 9.77983C20.3688 9.97422 20.5096 10.1369 20.6859 10.2498ZM0.5 10.5208V2.71088H2.461C2.60686 2.71088 2.70077 2.73532 2.76322 2.78993C2.81565 2.83579 2.95 2.99588 2.95 3.51612L2.95 9.91875L2.95 9.9192C2.95007 9.9952 2.93453 10.071 2.90368 10.1425C2.8728 10.214 2.8269 10.2804 2.76751 10.3373L3.11347 10.6983L2.76751 10.3373C2.70809 10.3943 2.63638 10.4405 2.55596 10.4724C2.47552 10.5043 2.38862 10.5209 2.30042 10.5208H2.3H0.5ZM1.725 8.31666L1.72334 8.31667C1.44565 8.31759 1.17557 8.42353 0.973043 8.61763C0.769795 8.81241 0.651032 9.08092 0.65 9.3659V9.36771C0.65 9.58045 0.715937 9.78653 0.836755 9.95982C0.957381 10.1328 1.12655 10.2645 1.32048 10.3415C1.51427 10.4185 1.72637 10.4383 1.9308 10.3993C2.1353 10.3603 2.32593 10.2636 2.47754 10.1183C2.62937 9.97284 2.73535 9.78482 2.77852 9.57683C2.82173 9.36866 2.79934 9.15313 2.71519 8.95846C2.63117 8.76406 2.49041 8.60138 2.31408 8.48847C2.13796 8.37568 1.933 8.31666 1.725 8.31666Z" stroke="#787777"/>
</svg>
