<svg width="23" height="24" viewBox="0 0 23 24" fill="none" xmlns="http://www.w3.org/2000/svg">
<path fill-rule="evenodd" clip-rule="evenodd" d="M13.1459 15.9491C14.4967 15.9491 15.5962 17.035 15.5962 18.3697V21.8026C15.5962 22.0894 15.8274 22.3193 16.1236 22.326H18.262C19.9472 22.326 21.3171 20.9801 21.3171 19.3262V9.59012C21.3092 9.02096 21.0366 8.48528 20.5687 8.12927L13.1717 2.26131C12.1788 1.47899 10.7898 1.47899 9.79351 2.26354L2.44698 8.12704C1.96117 8.49421 1.68854 9.02989 1.68293 9.6091V19.3262C1.68293 20.9801 3.05283 22.326 4.738 22.326H6.89663C7.20068 22.326 7.44751 22.086 7.44751 21.7914C7.44751 21.7267 7.45537 21.662 7.46883 21.6006V18.3697C7.46883 17.0428 8.56161 15.9581 9.90234 15.9491H13.1459ZM18.262 24H16.1034C14.867 23.971 13.9133 23.0056 13.9133 21.8026V18.3697C13.9133 17.9579 13.5689 17.6231 13.1459 17.6231H9.90795C9.49395 17.6254 9.15176 17.9613 9.15176 18.3697V21.7914C9.15176 21.8751 9.14054 21.9555 9.11698 22.0314C8.9958 23.1362 8.04663 24 6.89663 24H4.738C2.12497 24 0 21.903 0 19.3262V9.60128C0.0112195 8.49197 0.525073 7.47641 1.41254 6.80792L8.74449 0.954465C10.359 -0.317783 12.6085 -0.317783 14.2196 0.952233L21.6043 6.81127C22.4716 7.4686 22.9854 8.48193 23 9.57785V19.3262C23 21.903 20.875 24 18.262 24Z" fill="#918686"/>
</svg>
