<svg width="156" height="77" viewBox="0 0 156 77" fill="none" xmlns="http://www.w3.org/2000/svg">
<path d="M0.0043335 61.8909C5.84541 61.8909 40.1122 58.6964 47.7304 59.9676C55.3442 61.2341 119.905 56.4917 119.905 56.4917C119.905 56.4917 104.22 32.6763 100.344 28.5015C96.4713 24.3314 80.22 5.74158 74.8885 0C67.7799 3.82772 63.7247 11.5723 60.2532 15.3109C56.7816 19.0495 53.6891 25.4712 52.4607 26.794C46.7939 20.6913 43.6185 17.2716 40.4475 13.8567C36.3052 13.8567 34.5281 19.1386 28.687 25.429C22.8503 31.7147 23.6082 34.1774 16.6303 38.4132C9.64799 42.6491 -7.62939e-06 61.8956 -7.62939e-06 61.8956L0.0043335 61.8909Z" fill="#C3C0DD"/>
<path d="M87.8379 15.9255C86.0303 13.9788 76.1906 2.28923 75.9075 1.98432C75.6244 1.67942 75.3369 -0.0655708 74.5093 0.820997C73.6861 1.70756 69.6526 5.29605 68.6726 6.35618C67.6926 7.41631 63.7245 12.4402 62.9927 13.2236C62.2609 14.0069 59.1553 17.6986 58.2014 19.9549C57.2474 22.2112 53.9893 26.5924 53.5059 27.1131L51.2147 29.5805C50.7051 30.1293 48.623 36.0163 47.6691 37.0389C46.7152 38.0615 50.7792 35.946 51.6677 34.1681C52.5563 32.3903 56.1716 27.4696 57.8224 25.6918C59.4732 23.914 62.0126 22.685 63.1843 19.9174C64.3604 17.1498 66.3553 15.1327 68.102 13.2517C69.8487 11.3707 71.4037 12.1587 72.2269 13.0453C73.0501 13.9319 75.62 13.4909 75.7812 12.1587C75.938 10.8265 75.1453 9.59755 76.513 10.212C77.8763 10.8265 80.0977 11.8867 80.7337 12.5715C81.3696 13.2564 80.9253 14.6918 82.9551 15.5784C84.9849 16.4649 87.8423 15.9208 87.8423 15.9208L87.8379 15.9255Z" fill="#DDDCEF"/>
<path d="M153.523 75.1188C153.523 74.0774 123.364 73.2378 86.1568 73.2378C48.9499 73.2378 18.7907 74.0821 18.7907 75.1188C18.7907 76.1555 48.9499 76.9998 86.1568 76.9998C123.364 76.9998 153.523 76.1555 153.523 75.1188Z" fill="#C3C0DD"/>
<path d="M33.861 74.5745C29.8532 74.5745 26.6043 69.6937 26.6043 63.673C26.6043 57.6523 29.8532 52.7715 33.861 52.7715C37.8687 52.7715 41.1177 57.6523 41.1177 63.673C41.1177 69.6937 37.8687 74.5745 33.861 74.5745Z" fill="url(#paint0_linear_4228_162283)"/>
<path d="M33.8569 52.7715H37.751V74.5745H33.8569V52.7715Z" fill="url(#paint1_linear_4228_162283)"/>
<path d="M37.7509 74.5745C34.6958 74.5745 32.2191 69.6937 32.2191 63.673C32.2191 57.6523 34.6958 52.7715 37.7509 52.7715C40.806 52.7715 43.2827 57.6523 43.2827 63.673C43.2827 69.6937 40.806 74.5745 37.7509 74.5745Z" fill="url(#paint2_linear_4228_162283)"/>
<path d="M38.2648 72.5669C36.042 72.5669 34.2401 68.585 34.2401 63.6731C34.2401 58.7612 36.042 54.7793 38.2648 54.7793C40.4876 54.7793 42.2896 58.7612 42.2896 63.6731C42.2896 68.585 40.4876 72.5669 38.2648 72.5669Z" fill="#13192E"/>
<path d="M49.5464 36.499L47.9783 34.8291L45.6436 34.6415C44.8247 34.5758 44.1844 33.4734 44.1844 32.1366C44.1844 30.7481 44.8726 29.627 45.722 29.627H47.0941C47.8694 29.627 48.5707 30.3728 48.8843 31.5267L49.2415 32.8308L50.6048 34.1395C51.0839 34.5992 51.1667 35.6734 50.7703 36.3067C50.4437 36.8321 49.934 36.9165 49.5507 36.5037L49.5464 36.499Z" fill="url(#paint3_linear_4228_162283)"/>
<path style="mix-blend-mode:screen" d="M45.8875 30.0493H46.0618C46.8941 30.0493 47.5688 30.776 47.5688 31.6723V32.4182C47.5688 33.3146 46.8941 34.0412 46.0618 34.0412H45.8875C45.0552 34.0412 44.3804 33.3146 44.3804 32.4182V31.6723C44.3804 30.776 45.0552 30.0493 45.8875 30.0493Z" fill="url(#paint4_linear_4228_162283)"/>
<path d="M24.553 67.5246C24.553 69.1664 25.8554 70.1702 30.2852 70.1702C34.715 70.1702 52.3427 69.3681 56.019 69.3681C59.6953 69.3681 100.125 68.8474 100.125 68.8474C100.125 68.8474 102.939 49.4273 93.5395 47.8231C84.1398 46.2188 24.5486 67.5246 24.5486 67.5246H24.553Z" fill="#13192E"/>
<path d="M85.1637 76.3948C79.7967 76.3948 75.446 70.5795 75.446 63.4059C75.446 56.2323 79.7967 50.417 85.1637 50.417C90.5306 50.417 94.8813 56.2323 94.8813 63.4059C94.8813 70.5795 90.5306 76.3948 85.1637 76.3948Z" fill="url(#paint5_linear_4228_162283)"/>
<path d="M85.1592 50.417H90.373V76.3995H85.1592V50.417Z" fill="url(#paint6_linear_4228_162283)"/>
<path d="M90.3731 76.3948C86.2811 76.3948 82.9639 70.5795 82.9639 63.4059C82.9639 56.2323 86.2811 50.417 90.3731 50.417C94.465 50.417 97.7822 56.2323 97.7822 63.4059C97.7822 70.5795 94.465 76.3948 90.3731 76.3948Z" fill="url(#paint7_linear_4228_162283)"/>
<path d="M91.0612 74.0023C88.083 74.0023 85.6688 69.258 85.6688 63.4057C85.6688 57.5533 88.083 52.8091 91.0612 52.8091C94.0393 52.8091 96.4536 57.5533 96.4536 63.4057C96.4536 69.258 94.0393 74.0023 91.0612 74.0023Z" fill="#151C32"/>
<path d="M92.002 63.6032C92.002 64.6305 91.5794 65.4607 91.0611 65.4607C90.5428 65.4607 90.1203 64.6305 90.1203 63.6032C90.1203 62.5759 90.5428 61.7456 91.0611 61.7456C91.5794 61.7456 92.002 62.5759 92.002 63.6032Z" fill="url(#paint8_linear_4228_162283)"/>
<path d="M96.5537 63.6031C96.5537 57.6176 94.0884 52.7485 91.0611 52.7485C88.0339 52.7485 85.5685 57.6176 85.5685 63.6031C85.5685 69.5886 88.0339 74.4577 91.0611 74.4577C94.0884 74.4577 96.5537 69.5886 96.5537 63.6031ZM96.1835 63.6031C96.1835 69.1852 93.8836 73.7259 91.0611 73.7259C88.2386 73.7259 85.9387 69.1852 85.9387 63.6031C85.9387 58.021 88.2386 53.4803 91.0611 53.4803C93.8836 53.4803 96.1835 58.021 96.1835 63.6031Z" fill="url(#paint9_linear_4228_162283)"/>
<path d="M91.0609 64.3162L90.0068 53.335C90.0068 53.335 91.5226 52.7955 92.2544 53.335L91.0609 64.3162Z" fill="url(#paint10_linear_4228_162283)"/>
<path d="M91.4053 63.8236L85.7951 62.4117C85.7951 62.4117 86.0041 59.3955 86.4876 58.1899L91.4053 63.8236Z" fill="url(#paint11_linear_4228_162283)"/>
<path d="M91.2744 63.0215L88.8613 73.1302C88.8613 73.1302 87.4718 71.8027 87.0406 70.5174L91.2744 63.0215Z" fill="url(#paint12_linear_4228_162283)"/>
<path d="M90.8477 63.0215L94.9683 70.6769C94.9683 70.6769 93.9011 72.8769 93.1476 73.2897L90.8477 63.0215Z" fill="url(#paint13_linear_4228_162283)"/>
<path d="M90.7171 63.8235L95.6783 58.4478C95.6783 58.4478 96.4057 61.1309 96.3709 62.6695L90.7171 63.8188V63.8235Z" fill="url(#paint14_linear_4228_162283)"/>
<path d="M152.547 65.8922L142.176 65.5732V45.792L155.13 50.2577L152.547 65.8922Z" fill="#13192E"/>
<path d="M140.922 72.042C136.286 72.042 132.528 67.0184 132.528 60.8215C132.528 54.6247 136.286 49.6011 140.922 49.6011C145.558 49.6011 149.315 54.6247 149.315 60.8215C149.315 67.0184 145.558 72.042 140.922 72.042Z" fill="url(#paint15_linear_4228_162283)"/>
<path d="M140.918 49.5962H145.421V72.0418H140.918V49.5962Z" fill="url(#paint16_linear_4228_162283)"/>
<path d="M145.421 72.042C141.887 72.042 139.023 67.0184 139.023 60.8215C139.023 54.6247 141.887 49.6011 145.421 49.6011C148.955 49.6011 151.82 54.6247 151.82 60.8215C151.82 67.0184 148.955 72.042 145.421 72.042Z" fill="url(#paint17_linear_4228_162283)"/>
<path d="M146.018 69.9781C143.446 69.9781 141.362 65.8785 141.362 60.8215C141.362 55.7645 143.446 51.665 146.018 51.665C148.59 51.665 150.674 55.7645 150.674 60.8215C150.674 65.8785 148.59 69.9781 146.018 69.9781Z" fill="#151C32"/>
<path d="M146.828 60.9856C146.828 60.099 146.467 59.3813 146.018 59.3813C145.569 59.3813 145.208 60.099 145.208 60.9856C145.208 61.8722 145.569 62.5899 146.018 62.5899C146.467 62.5899 146.828 61.8722 146.828 60.9856Z" fill="url(#paint18_linear_4228_162283)"/>
<path d="M150.761 60.9854C150.761 66.1547 148.631 70.3624 146.013 70.3624C143.396 70.3624 141.27 66.1547 141.27 60.9854C141.27 55.8161 143.4 51.6084 146.013 51.6084C148.627 51.6084 150.761 55.8161 150.761 60.9854ZM150.443 60.9854C150.443 56.1632 148.457 52.2417 146.018 52.2417C143.579 52.2417 141.592 56.1632 141.592 60.9854C141.592 65.8076 143.579 69.7291 146.018 69.7291C148.457 69.7291 150.443 65.8076 150.443 60.9854Z" fill="url(#paint19_linear_4228_162283)"/>
<path d="M146.018 60.3711L145.108 69.856C145.108 69.856 146.419 70.3204 147.05 69.856L146.018 60.3711Z" fill="url(#paint20_linear_4228_162283)"/>
<path d="M146.314 60.7979L141.466 62.0175C141.466 62.0175 141.649 64.6256 142.067 65.6669L146.314 60.7979Z" fill="url(#paint21_linear_4228_162283)"/>
<path d="M146.201 61.4873L144.114 52.7529C144.114 52.7529 142.916 53.8975 142.542 55.0092L146.196 61.4873H146.201Z" fill="url(#paint22_linear_4228_162283)"/>
<path d="M145.835 61.4871L149.394 54.873C149.394 54.873 148.47 52.9732 147.821 52.6167L145.835 61.4871Z" fill="url(#paint23_linear_4228_162283)"/>
<path d="M145.717 60.7979L150.003 65.4418C150.003 65.4418 150.63 63.1245 150.604 61.7923L145.721 60.7979H145.717Z" fill="url(#paint24_linear_4228_162283)"/>
<path d="M24.1046 70.17C21.5739 67.4447 19.4875 63.9969 19.4875 63.9969V52.0493C19.4875 52.0493 22.3666 44.5909 46.4932 35.289C46.4932 35.289 54.9477 26.489 69.0429 20.2877C87.1367 18.3879 112.949 18.2425 117.248 18.6694C123.904 19.3308 131.622 22.3001 140.408 29.0361C149.198 35.7675 154.856 38.9807 155.749 44.0702C156.515 48.4233 155.3 59.1841 155.13 62.3739C155.1 62.9227 154.908 63.4434 154.577 63.8656L152.547 65.892C152.547 65.892 155.675 49.1598 146.588 49.1598C137.502 49.1598 139.293 68.5658 139.293 68.5658L97.2203 69.715C97.7822 60.2677 97.5949 49.9994 89.9723 49.399C81.1606 48.7048 79.6492 60.2771 79.6492 70.1653H54.5295L52.1861 67.6417H26.2389L24.1046 70.1653V70.17Z" fill="url(#paint25_linear_4228_162283)"/>
<path d="M116.956 21.2305C113.158 20.5316 110.009 20.7145 107.953 21.5401C105.897 22.3657 99.2369 29.4864 96.6539 32.7465C94.071 36.0066 94.071 36.9683 94.071 37.9299C94.071 38.8915 97.8953 46.2139 98.2917 51.1346C98.6881 56.0553 99.4982 62.0408 98.871 65.0335H122.989C122.989 65.0335 123.882 30.828 116.956 21.2258V21.2305Z" fill="url(#paint26_linear_4228_162283)"/>
<path d="M116.956 21.2307C118.52 24.6222 121.721 32.2401 122.614 41.0589C123.507 49.8776 123.559 62.6273 123.559 65.0337H136.958C137.433 53.4051 139.441 48.8363 143.017 46.913C143.017 44.6661 142.895 35.2329 141.244 32.2542C139.593 29.2755 125.82 17.9002 116.956 21.2307Z" fill="url(#paint27_linear_4228_162283)"/>
<path d="M27.2321 49.8824C25.9908 49.8824 23.1639 54.6389 23.1639 54.6389C23.1639 54.6389 25.0499 63.6218 27.2321 65.2214C29.4144 66.0235 48.3793 65.4888 48.3793 65.4888C48.3793 65.4888 55.2789 58.1101 56.272 55.3331C55.7754 53.3536 51.4806 50.4969 50.91 49.8824C46.1448 49.6666 39.5938 50.2576 37.2591 50.2576C34.9244 50.2576 29.5668 50.2576 27.2321 49.8824Z" fill="url(#paint28_linear_4228_162283)"/>
<path d="M56.0234 49.5586C57.4129 51.9087 58.1577 53.513 59.325 53.968C60.4924 54.423 70.3712 54.0993 73.8951 53.3019C77.4189 52.4998 81.3913 49.3475 81.6875 46.7816C81.4436 43.0665 74.788 44.0703 72.8018 44.0703C70.8155 44.0703 58.1098 48.5454 56.0234 49.5633V49.5586Z" fill="url(#paint29_linear_4228_162283)"/>
<path d="M26.0168 49.3476C26.0168 49.8823 23.8825 53.1143 23.1638 53.1143C22.4451 53.1143 21.2996 50.7595 21.2996 49.5821C21.2996 48.4047 24.6491 45.6793 25.5682 45.9092C26.4873 46.139 26.0168 48.6252 26.0168 49.3476Z" fill="url(#paint30_linear_4228_162283)"/>
<path d="M109.761 21.6012C104.734 24.9363 98.1177 32.4792 96.3318 35.2046C94.546 37.93 109.364 36.8088 115.319 36.8088C121.273 36.8088 120.232 37.2076 120.232 35.8472C120.232 34.6792 118.01 25.1662 115.545 21.6809C115.14 21.1086 110.331 21.4041 109.761 21.6012Z" fill="url(#paint31_linear_4228_162283)"/>
<path d="M118.42 21.2541C117.475 21.7091 122.144 31.6537 122.44 36.1944C125.319 36.4102 137.681 36.0865 139.145 34.5104C139.018 33.3283 135.738 28.0933 130.058 24.5612C126.757 22.5066 121.756 21.029 118.415 21.2541H118.42Z" fill="url(#paint32_linear_4228_162283)"/>
<path d="M105.339 21.2304C100.775 23.6603 93.2042 35.045 91.34 35.5281C89.48 36.0113 49.5682 34.8057 49.5682 34.8057C53.5058 29.7443 65.31 23.2381 68.3721 21.6104C71.4341 19.9827 100.653 20.1891 105.335 21.2304H105.339Z" fill="url(#paint33_linear_4228_162283)"/>
<path style="mix-blend-mode:screen" d="M66.6734 49.3755C66.5558 50.7781 67.3747 52.0024 68.4941 52.1103C69.6179 52.2181 70.624 51.1674 70.7373 49.7648C70.8549 48.3623 70.036 47.138 68.9166 47.0301C67.7928 46.9222 66.7866 47.9729 66.6734 49.3755Z" fill="url(#paint34_radial_4228_162283)"/>
<path style="mix-blend-mode:screen" d="M62.2609 50.3559C62.1651 51.5286 62.8446 52.5465 63.7811 52.6403C64.7176 52.7295 65.5583 51.857 65.6541 50.6843C65.7499 49.5115 65.0704 48.4936 64.1339 48.3998C63.1974 48.3107 62.3568 49.1832 62.2609 50.3559Z" fill="url(#paint35_radial_4228_162283)"/>
<path d="M63.3108 64.757C63.3108 66.2581 64.1384 67.473 65.162 67.473C66.1856 67.473 67.0132 66.2581 67.0132 64.757C67.0132 63.2559 66.1856 62.041 65.162 62.041C64.1384 62.041 63.3108 63.2559 63.3108 64.757Z" fill="url(#paint36_linear_4228_162283)"/>
<path d="M63.96 64.7569C63.96 65.7326 64.5001 66.5207 65.1665 66.5207C65.8329 66.5207 66.373 65.7326 66.373 64.7569C66.373 63.7812 65.8329 62.9932 65.1665 62.9932C64.5001 62.9932 63.96 63.7812 63.96 64.7569Z" fill="url(#paint37_linear_4228_162283)"/>
<path d="M21.2952 63.6733C21.2952 64.9914 21.9312 66.0609 22.7108 66.0609C23.4905 66.0609 24.1265 64.9914 24.1265 63.6733C24.1265 62.3552 23.4905 61.2856 22.7108 61.2856C21.9312 61.2856 21.2952 62.3552 21.2952 63.6733Z" fill="url(#paint38_linear_4228_162283)"/>
<path d="M22.7153 65.2259C22.2053 65.2259 21.7918 64.5308 21.7918 63.6733C21.7918 62.8158 22.2053 62.1206 22.7153 62.1206C23.2252 62.1206 23.6387 62.8158 23.6387 63.6733C23.6387 64.5308 23.2252 65.2259 22.7153 65.2259Z" fill="url(#paint39_linear_4228_162283)"/>
<path d="M44.8467 62.1206H29.2226C29.0975 62.1206 28.9961 62.0114 28.9961 61.8767V58.0583C28.9961 57.9236 29.0975 57.8144 29.2226 57.8144H44.8467C44.9718 57.8144 45.0732 57.9236 45.0732 58.0583V61.8767C45.0732 62.0114 44.9718 62.1206 44.8467 62.1206Z" fill="url(#paint40_linear_4228_162283)"/>
<path d="M38.3565 54.7045H35.4294C34.7891 54.7045 34.2708 54.1463 34.2708 53.4567C34.2708 52.7672 34.7891 52.209 35.4294 52.209H38.3565C38.9968 52.209 39.5151 52.7672 39.5151 53.4567C39.5151 54.1463 38.9968 54.7045 38.3565 54.7045Z" fill="url(#paint41_linear_4228_162283)"/>
<path d="M101.106 38.1787L103.484 36.5088L107.021 36.3211C108.262 36.2555 109.238 35.1531 109.238 33.8162C109.238 32.4278 108.192 31.3066 106.907 31.3066H104.83C103.654 31.3066 102.591 32.0525 102.112 33.2064L101.572 34.5105L99.5027 35.8192C98.7753 36.2789 98.6533 37.3531 99.2544 37.9864C99.751 38.5118 100.522 38.5962 101.106 38.1834V38.1787Z" fill="url(#paint42_linear_4228_162283)"/>
<path style="mix-blend-mode:screen" d="M105.962 35.7256H107.09C108.114 35.7256 108.946 34.8296 108.946 33.7273C108.946 32.625 108.114 31.729 107.09 31.729H105.962C104.939 31.729 104.107 32.625 104.107 33.7273C104.107 34.8296 104.939 35.7256 105.962 35.7256Z" fill="url(#paint43_linear_4228_162283)"/>
<path d="M114.604 42.832C114.604 43.3855 115.349 43.7467 116.717 43.7467C118.084 43.7467 120.915 43.545 121.02 42.5036C120.388 41.9782 115.466 42.316 114.608 42.832H114.604Z" fill="url(#paint44_linear_4228_162283)"/>
<path d="M135.76 39.7455C135.76 40.299 136.357 40.6602 137.45 40.6602C138.543 40.6602 140.813 40.4585 140.896 39.4172C140.39 38.8918 136.444 39.2295 135.756 39.7455H135.76Z" fill="url(#paint45_linear_4228_162283)"/>
<path d="M150.426 36.6495C151.85 36.6495 154.791 39.8064 154.791 41.4341C154.791 43.0619 146.767 41.861 146.101 39.4171C145.835 38.4414 148.257 36.3774 150.426 36.6495Z" fill="#DCE0E4"/>
<path d="M49.8037 25.2414C48.7453 23.6934 40.6653 14.5322 40.1993 14.5322C39.7332 14.5322 37.2809 15.5361 35.5473 17.9941C33.8137 20.4568 28.5868 26.6299 27.0449 28.2904C25.4986 29.9557 25.2677 31.9821 23.7432 33.6192C22.2187 35.261 19.0259 38.6994 18.3682 39.4077C17.7105 40.116 20.8858 39.3374 21.4129 38.7698C21.9399 38.2022 24.3966 36.6495 26.8271 33.4832C29.2576 30.3169 32.1585 24.6457 32.4547 25.8747C32.7509 27.1037 30.9738 29.4725 30.7603 30.5233C30.5469 31.5693 30.6776 33.258 31.7143 31.5506C32.7509 29.8431 35.164 26.4235 35.164 26.4235C35.164 26.4235 36.5187 22.5066 36.9847 24.4627C37.4508 26.4235 37.747 29.4819 38.9317 27.1084C40.1165 24.7348 37.4508 22.319 39.9031 23.7779C42.3554 25.2367 42.3554 24.9646 43.5837 25.6917C44.812 26.4188 44.7685 26.7378 45.8661 26.7378C46.9638 26.7378 45.5699 24.641 45.191 24.003C44.812 23.3651 43.4966 22.4081 44.812 22.4081C46.1274 22.4081 45.6178 22.8631 47.0552 24.003C48.4926 25.1429 49.8037 25.232 49.8037 25.232V25.2414Z" fill="#DDDCEF"/>
<defs>
<linearGradient id="paint0_linear_4228_162283" x1="33.861" y1="74.6261" x2="33.861" y2="42.3297" gradientUnits="userSpaceOnUse">
<stop stop-color="#2C3E63"/>
<stop offset="1" stop-color="#13192E"/>
</linearGradient>
<linearGradient id="paint1_linear_4228_162283" x1="35.8083" y1="-28.1642" x2="35.8083" y2="-28.1642" gradientUnits="userSpaceOnUse">
<stop stop-color="#2C3E63"/>
<stop offset="1" stop-color="#13192E"/>
</linearGradient>
<linearGradient id="paint2_linear_4228_162283" x1="37.7553" y1="-28.1642" x2="37.7553" y2="-28.1642" gradientUnits="userSpaceOnUse">
<stop stop-color="#2C3E63"/>
<stop offset="1" stop-color="#13192E"/>
</linearGradient>
<linearGradient id="paint3_linear_4228_162283" x1="47.6034" y1="29.627" x2="47.6034" y2="36.7649" gradientUnits="userSpaceOnUse">
<stop stop-color="#F95A78"/>
<stop offset="1" stop-color="#C02A46"/>
</linearGradient>
<linearGradient id="paint4_linear_4228_162283" x1="45.9747" y1="30.1244" x2="45.9747" y2="33.5065" gradientUnits="userSpaceOnUse">
<stop stop-color="#2C3E63"/>
<stop offset="1"/>
</linearGradient>
<linearGradient id="paint5_linear_4228_162283" x1="85.1637" y1="76.4558" x2="85.1637" y2="37.9769" gradientUnits="userSpaceOnUse">
<stop stop-color="#2C3E63"/>
<stop offset="1" stop-color="#13192E"/>
</linearGradient>
<linearGradient id="paint6_linear_4228_162283" x1="87.7683" y1="76.4558" x2="87.7683" y2="37.9769" gradientUnits="userSpaceOnUse">
<stop stop-color="#2C3E63"/>
<stop offset="1" stop-color="#13192E"/>
</linearGradient>
<linearGradient id="paint7_linear_4228_162283" x1="90.3731" y1="76.4558" x2="90.3731" y2="37.9769" gradientUnits="userSpaceOnUse">
<stop stop-color="#2C3E63"/>
<stop offset="1" stop-color="#13192E"/>
</linearGradient>
<linearGradient id="paint8_linear_4228_162283" x1="91.0611" y1="74.9128" x2="91.0611" y2="53.4241" gradientUnits="userSpaceOnUse">
<stop stop-color="#EBEFF7"/>
<stop offset="1" stop-color="#B3B6C2"/>
</linearGradient>
<linearGradient id="paint9_linear_4228_162283" x1="91.0611" y1="74.9127" x2="91.0611" y2="53.424" gradientUnits="userSpaceOnUse">
<stop stop-color="#EBEFF7"/>
<stop offset="1" stop-color="#B3B6C2"/>
</linearGradient>
<linearGradient id="paint10_linear_4228_162283" x1="91.1306" y1="74.9128" x2="91.1306" y2="53.4241" gradientUnits="userSpaceOnUse">
<stop stop-color="#EBEFF7"/>
<stop offset="1" stop-color="#B3B6C2"/>
</linearGradient>
<linearGradient id="paint11_linear_4228_162283" x1="88.6002" y1="74.9128" x2="88.6002" y2="53.424" gradientUnits="userSpaceOnUse">
<stop stop-color="#EBEFF7"/>
<stop offset="1" stop-color="#B3B6C2"/>
</linearGradient>
<linearGradient id="paint12_linear_4228_162283" x1="89.1575" y1="74.9127" x2="89.1575" y2="53.424" gradientUnits="userSpaceOnUse">
<stop stop-color="#EBEFF7"/>
<stop offset="1" stop-color="#B3B6C2"/>
</linearGradient>
<linearGradient id="paint13_linear_4228_162283" x1="92.908" y1="74.9127" x2="92.908" y2="53.424" gradientUnits="userSpaceOnUse">
<stop stop-color="#EBEFF7"/>
<stop offset="1" stop-color="#B3B6C2"/>
</linearGradient>
<linearGradient id="paint14_linear_4228_162283" x1="93.544" y1="74.9126" x2="93.544" y2="53.4239" gradientUnits="userSpaceOnUse">
<stop stop-color="#EBEFF7"/>
<stop offset="1" stop-color="#B3B6C2"/>
</linearGradient>
<linearGradient id="paint15_linear_4228_162283" x1="140.922" y1="72.0936" x2="140.922" y2="38.8497" gradientUnits="userSpaceOnUse">
<stop stop-color="#2C3E63"/>
<stop offset="1" stop-color="#13192E"/>
</linearGradient>
<linearGradient id="paint16_linear_4228_162283" x1="143.174" y1="72.0934" x2="143.174" y2="38.8495" gradientUnits="userSpaceOnUse">
<stop stop-color="#2C3E63"/>
<stop offset="1" stop-color="#13192E"/>
</linearGradient>
<linearGradient id="paint17_linear_4228_162283" x1="145.421" y1="72.0936" x2="145.421" y2="38.8497" gradientUnits="userSpaceOnUse">
<stop stop-color="#2C3E63"/>
<stop offset="1" stop-color="#13192E"/>
</linearGradient>
<linearGradient id="paint18_linear_4228_162283" x1="146.018" y1="51.2146" x2="146.018" y2="69.7809" gradientUnits="userSpaceOnUse">
<stop stop-color="#EBEFF7"/>
<stop offset="1" stop-color="#B3B6C2"/>
</linearGradient>
<linearGradient id="paint19_linear_4228_162283" x1="146.018" y1="51.2144" x2="146.018" y2="69.7807" gradientUnits="userSpaceOnUse">
<stop stop-color="#EBEFF7"/>
<stop offset="1" stop-color="#B3B6C2"/>
</linearGradient>
<linearGradient id="paint20_linear_4228_162283" x1="146.075" y1="51.2146" x2="146.075" y2="69.7809" gradientUnits="userSpaceOnUse">
<stop stop-color="#EBEFF7"/>
<stop offset="1" stop-color="#B3B6C2"/>
</linearGradient>
<linearGradient id="paint21_linear_4228_162283" x1="143.888" y1="51.2145" x2="143.888" y2="69.7808" gradientUnits="userSpaceOnUse">
<stop stop-color="#EBEFF7"/>
<stop offset="1" stop-color="#B3B6C2"/>
</linearGradient>
<linearGradient id="paint22_linear_4228_162283" x1="144.371" y1="51.2143" x2="144.371" y2="69.7807" gradientUnits="userSpaceOnUse">
<stop stop-color="#EBEFF7"/>
<stop offset="1" stop-color="#B3B6C2"/>
</linearGradient>
<linearGradient id="paint23_linear_4228_162283" x1="147.612" y1="51.2141" x2="147.612" y2="69.7805" gradientUnits="userSpaceOnUse">
<stop stop-color="#EBEFF7"/>
<stop offset="1" stop-color="#B3B6C2"/>
</linearGradient>
<linearGradient id="paint24_linear_4228_162283" x1="148.161" y1="51.2145" x2="148.161" y2="69.7808" gradientUnits="userSpaceOnUse">
<stop stop-color="#EBEFF7"/>
<stop offset="1" stop-color="#B3B6C2"/>
</linearGradient>
<linearGradient id="paint25_linear_4228_162283" x1="87.7437" y1="18.4712" x2="87.7437" y2="70.17" gradientUnits="userSpaceOnUse">
<stop stop-color="#F95A78"/>
<stop offset="1" stop-color="#C02A46"/>
</linearGradient>
<linearGradient id="paint26_linear_4228_162283" x1="108.549" y1="20.7988" x2="108.549" y2="65.0335" gradientUnits="userSpaceOnUse">
<stop stop-color="#F95A78"/>
<stop offset="1" stop-color="#C02A46"/>
</linearGradient>
<linearGradient id="paint27_linear_4228_162283" x1="129.986" y1="20.626" x2="129.986" y2="65.0337" gradientUnits="userSpaceOnUse">
<stop stop-color="#F95A78"/>
<stop offset="1" stop-color="#C02A46"/>
</linearGradient>
<linearGradient id="paint28_linear_4228_162283" x1="23.1595" y1="57.7489" x2="56.272" y2="57.7489" gradientUnits="userSpaceOnUse">
<stop stop-color="#2C3E63"/>
<stop offset="1" stop-color="#13192E"/>
</linearGradient>
<linearGradient id="paint29_linear_4228_162283" x1="56.0234" y1="49.0614" x2="81.6875" y2="49.0614" gradientUnits="userSpaceOnUse">
<stop stop-color="#EBEFF7"/>
<stop offset="1" stop-color="#B3B6C2"/>
</linearGradient>
<linearGradient id="paint30_linear_4228_162283" x1="22.1489" y1="52.2137" x2="25.6876" y2="46.5929" gradientUnits="userSpaceOnUse">
<stop stop-color="#EBEFF7"/>
<stop offset="1" stop-color="#B3B6C2"/>
</linearGradient>
<linearGradient id="paint31_linear_4228_162283" x1="96.1794" y1="29.1956" x2="120.302" y2="29.1956" gradientUnits="userSpaceOnUse">
<stop stop-color="#2C3E63"/>
<stop offset="1" stop-color="#13192E"/>
</linearGradient>
<linearGradient id="paint32_linear_4228_162283" x1="118.294" y1="28.7407" x2="139.145" y2="28.7407" gradientUnits="userSpaceOnUse">
<stop stop-color="#2C3E63"/>
<stop offset="1" stop-color="#13192E"/>
</linearGradient>
<linearGradient id="paint33_linear_4228_162283" x1="72.7888" y1="22.5017" x2="89.2377" y2="39.2715" gradientUnits="userSpaceOnUse">
<stop stop-color="#2C3E63"/>
<stop offset="1" stop-color="#13192E"/>
</linearGradient>
<radialGradient id="paint34_radial_4228_162283" cx="0" cy="0" r="1" gradientUnits="userSpaceOnUse" gradientTransform="translate(68.2031 49.5243) rotate(-174.499) scale(2.03909 2.5502)">
<stop stop-color="#EBEFF7"/>
<stop offset="1" stop-color="#B3B6C2"/>
</radialGradient>
<radialGradient id="paint35_radial_4228_162283" cx="0" cy="0" r="1" gradientUnits="userSpaceOnUse" gradientTransform="translate(63.4684 50.4718) rotate(-174.499) scale(1.70174 2.12829)">
<stop stop-color="#EBEFF7"/>
<stop offset="1" stop-color="#B3B6C2"/>
</radialGradient>
<linearGradient id="paint36_linear_4228_162283" x1="65.1402" y1="67.3698" x2="65.1857" y2="62.7728" gradientUnits="userSpaceOnUse">
<stop stop-color="#2C3E63"/>
<stop offset="1" stop-color="#13192E"/>
</linearGradient>
<linearGradient id="paint37_linear_4228_162283" x1="65.1491" y1="66.455" x2="65.1794" y2="63.467" gradientUnits="userSpaceOnUse">
<stop stop-color="#EBEFF7"/>
<stop offset="1" stop-color="#B3B6C2"/>
</linearGradient>
<linearGradient id="paint38_linear_4228_162283" x1="22.6934" y1="65.9718" x2="22.7338" y2="61.9283" gradientUnits="userSpaceOnUse">
<stop stop-color="#2C3E63"/>
<stop offset="1" stop-color="#13192E"/>
</linearGradient>
<linearGradient id="paint39_linear_4228_162283" x1="22.6978" y1="65.1696" x2="22.7281" y2="62.5381" gradientUnits="userSpaceOnUse">
<stop stop-color="#EBEFF7"/>
<stop offset="1" stop-color="#B3B6C2"/>
</linearGradient>
<linearGradient id="paint40_linear_4228_162283" x1="46.2449" y1="54.2494" x2="21.1916" y2="67.6656" gradientUnits="userSpaceOnUse">
<stop stop-color="#EBEFF7"/>
<stop offset="1" stop-color="#B3B6C2"/>
</linearGradient>
<linearGradient id="paint41_linear_4228_162283" x1="36.8973" y1="52.1996" x2="36.8973" y2="53.7101" gradientUnits="userSpaceOnUse">
<stop stop-color="#EBEFF7"/>
<stop offset="1" stop-color="#B3B6C2"/>
</linearGradient>
<linearGradient id="paint42_linear_4228_162283" x1="104.054" y1="31.3066" x2="104.054" y2="38.4446" gradientUnits="userSpaceOnUse">
<stop stop-color="#F95A78"/>
<stop offset="1" stop-color="#C02A46"/>
</linearGradient>
<linearGradient id="paint43_linear_4228_162283" x1="106.524" y1="31.8087" x2="106.524" y2="35.1908" gradientUnits="userSpaceOnUse">
<stop stop-color="#2C3E63"/>
<stop offset="1"/>
</linearGradient>
<linearGradient id="paint44_linear_4228_162283" x1="117.812" y1="42.2397" x2="117.812" y2="43.7467" gradientUnits="userSpaceOnUse">
<stop stop-color="#F95A78"/>
<stop offset="1" stop-color="#C02A46"/>
</linearGradient>
<linearGradient id="paint45_linear_4228_162283" x1="138.326" y1="39.1533" x2="138.326" y2="40.6602" gradientUnits="userSpaceOnUse">
<stop stop-color="#F95A78"/>
<stop offset="1" stop-color="#C02A46"/>
</linearGradient>
</defs>
</svg>
