<svg width="144" height="96" viewBox="0 0 144 96" fill="none" xmlns="http://www.w3.org/2000/svg">
<path d="M103.226 0H39.3726V88.9825H103.226V0Z" fill="white"/>
<path d="M98.0234 4.74463H44.6182V7.42544H98.0234V4.74463Z" fill="#DDDCEF"/>
<path d="M98.0234 12.1196H44.6182V14.8004H98.0234V12.1196Z" fill="#DDDCEF"/>
<path d="M98.0234 19.499H44.6182V22.1798H98.0234V19.499Z" fill="#DDDCEF"/>
<path d="M98.0234 26.8789H44.6182V29.5597H98.0234V26.8789Z" fill="#DDDCEF"/>
<path d="M98.0234 34.2539H44.6182V36.9347H98.0234V34.2539Z" fill="#DDDCEF"/>
<path d="M98.0234 41.6338H44.6182V44.3146H98.0234V41.6338Z" fill="#DDDCEF"/>
<path d="M98.0234 49.0132H44.6182V51.694H98.0234V49.0132Z" fill="#DDDCEF"/>
<path d="M98.0234 56.3882H44.6182V59.069H98.0234V56.3882Z" fill="#DDDCEF"/>
<path d="M98.0234 63.7681H44.6182V66.4489H98.0234V63.7681Z" fill="#DDDCEF"/>
<path d="M98.0234 71.1426H44.6182V73.8234H98.0234V71.1426Z" fill="#DDDCEF"/>
<path d="M98.0234 78.5225H44.6182V81.2033H98.0234V78.5225Z" fill="#DDDCEF"/>
<path d="M38.5324 45.6396C43.8067 51.1985 48.5771 53.6568 53.1411 54.2992C57.7051 54.9415 65.8445 46.9851 70.2454 48.8768C74.6462 50.7686 95.6426 73.7527 98.0758 76.3222C100.509 78.8867 98.9397 84.0713 94.4236 82.8421C93.6606 86.3727 91.9905 87.8649 89.3509 87.0657C88.2375 89.6858 86.6634 92.4627 82.6033 91.4511C80.5252 94.6579 77.065 95.2548 73.6576 91.6635C70.2502 88.0722 60.0327 77.6019 52.8292 76.3222C45.6256 75.0375 35.3889 67.0102 29.9131 62.8423L38.5276 45.6396H38.5324Z" fill="url(#paint0_linear_4321_161229)"/>
<g style="mix-blend-mode:multiply">
<path d="M47.3389 74.4659C50.6215 72.1695 53.3234 71.4209 55.3775 72.4022C57.4315 73.3835 57.3835 75.518 57.3835 76.1604C61.3477 76.0086 63.7761 79.0435 63.7761 79.0435C67.2699 78.1684 69.2519 80.9302 69.2519 83.5199C72.0258 82.1947 73.6816 83.9044 74.4062 84.6631C75.1261 85.4218 75.9564 88.5376 73.1105 91.0818L47.3437 74.4659H47.3389Z" fill="#E5C6C3"/>
</g>
<g style="mix-blend-mode:multiply">
<path d="M61.9048 71.5118C65.0147 72.9837 68.9788 71.3499 69.4827 68.6185C69.9866 65.8872 70.0778 60.3384 72.583 58.3607C73.9459 57.2833 71.7527 56.4639 71.7527 56.4639L68.7964 58.3607L66.9103 62.048L61.9048 71.5118Z" fill="#E5C6C3"/>
</g>
<path d="M104.161 47.6729C97.668 51.947 95.5371 53.7679 91.5826 53.7679C87.6281 53.7679 76.0621 49.074 72.5107 49.074C68.9593 49.074 63.5266 55.0425 61.9045 58.0369C60.2824 61.0314 60.8487 66.8229 60.8487 69.8072C60.8487 72.9534 68.3066 72.8522 69.0649 67.8851C69.8279 62.913 69.8759 60.3991 71.7044 58.477C73.5329 56.5549 98.0807 76.3322 98.0807 76.3322C102.342 76.3322 113.193 66.2817 115.123 63.1811L104.166 47.6779L104.161 47.6729Z" fill="url(#paint1_linear_4321_161229)"/>
<g style="mix-blend-mode:multiply">
<path d="M74.9248 59.4634C83.8753 64.2635 98.7719 76.2462 98.7719 76.2462L98.076 76.3272C98.076 76.3272 80.3815 62.3414 74.9248 59.4684V59.4634Z" fill="#E5C6C3"/>
</g>
<g style="mix-blend-mode:multiply">
<path d="M94.4238 82.8472C91.5011 80.3637 83.5776 73.5757 83.5776 73.5757L94.1694 83.8487L94.4286 82.8422L94.4238 82.8472Z" fill="#E5C6C3"/>
</g>
<g style="mix-blend-mode:multiply">
<path d="M89.3512 87.0704C86.8316 84.8954 81.063 78.3604 81.063 78.3604L88.8665 88.1326L89.3512 87.0704Z" fill="#E5C6C3"/>
</g>
<g style="mix-blend-mode:multiply">
<path d="M82.608 91.4512C79.6373 89.3217 76.0859 83.52 76.0859 83.52C76.0859 83.52 79.3494 89.6252 81.9313 92.3515L82.6128 91.4562L82.608 91.4512Z" fill="#E5C6C3"/>
</g>
<path style="mix-blend-mode:multiply" d="M62.6865 71.3855C64.0207 72.0076 64.9421 70.9555 65.2349 69.605C65.5756 68.0016 65.7484 66.5904 65.1005 65.7507C64.4718 64.9414 61.7651 65.1033 61.4099 65.8822C61.098 66.5651 61.1604 68.3152 61.1892 68.8311C61.2228 69.3217 61.2756 70.7228 62.6913 71.3855H62.6865Z" fill="url(#paint2_linear_4321_161229)"/>
<path style="mix-blend-mode:screen" d="M62.7198 71.4462C63.9676 72.0582 64.7835 71.1326 65.009 69.9389C65.273 68.558 65.3834 67.3541 64.7979 66.5954C64.2316 65.862 61.7984 65.7861 61.4768 66.4386C61.1889 67.0153 61.2513 68.5782 61.2849 69.0486C61.3184 69.4988 61.376 70.7836 62.7198 71.4462Z" fill="url(#paint3_linear_4321_161229)"/>
<path d="M61.6933 90.7835C61.2182 92.8776 63.2482 95.5533 64.904 95.9782C66.5597 96.4081 73.8304 90.4547 74.5407 88.2797C75.251 86.1048 72.9522 82.6501 69.7751 83.7173C66.5981 84.7846 62.442 89.2914 61.6981 90.7785L61.6933 90.7835Z" fill="url(#paint4_linear_4321_161229)"/>
<g style="mix-blend-mode:multiply">
<path d="M69.2908 83.9043C69.2908 85.0828 64.4053 90.2522 61.6313 91.274C61.6313 91.274 67.6015 84.2887 69.2908 83.9043Z" fill="#E5C6C3"/>
</g>
<path style="mix-blend-mode:multiply" d="M71.1141 84.5676C69.5304 84.9925 67.6491 87.0461 67.8843 87.906C68.1147 88.7457 69.4248 90.9105 70.6822 90.6526C71.9684 90.3895 74.1712 87.9869 74.1568 87.1776C74.1376 86.343 72.7267 84.1428 71.1141 84.5727V84.5676Z" fill="url(#paint5_linear_4321_161229)"/>
<path style="mix-blend-mode:screen" d="M71.2295 84.5421C69.7178 84.9467 67.9325 86.9244 68.1581 87.754C68.3788 88.5633 69.6362 90.6573 70.8312 90.4095C72.0598 90.1566 74.1522 87.8501 74.133 87.0661C74.1139 86.2618 72.7653 84.1324 71.2295 84.5421Z" fill="url(#paint6_linear_4321_161229)"/>
<path d="M55.8813 86.575C55.4062 88.6691 57.4362 91.3448 59.0919 91.7697C60.7477 92.1997 68.0184 86.2462 68.7287 84.0712C69.439 81.8963 67.1402 78.4416 63.9631 79.5088C60.7861 80.5761 56.63 85.0829 55.8861 86.57L55.8813 86.575Z" fill="url(#paint7_linear_4321_161229)"/>
<path style="mix-blend-mode:multiply" d="M65.494 80.5008C63.9103 80.9256 62.029 82.9792 62.2642 83.8391C62.4945 84.6788 63.8047 86.8436 65.0621 86.5857C66.3483 86.3227 68.5511 83.92 68.5367 83.1107C68.5175 82.2762 67.1065 80.0759 65.494 80.5058V80.5008Z" fill="url(#paint8_linear_4321_161229)"/>
<path style="mix-blend-mode:screen" d="M65.6767 80.4651C64.2081 80.8596 62.4756 82.7867 62.6964 83.596C62.9123 84.3851 64.1313 86.4286 65.2927 86.1858C66.4829 85.9379 68.5178 83.6921 68.4986 82.9284C68.4794 82.1444 67.1644 80.0655 65.6767 80.4651Z" fill="url(#paint9_linear_4321_161229)"/>
<path d="M50.9046 81.1881C49.7863 83.1254 51.0725 85.6595 51.9844 86.6205C52.8962 87.5816 53.7745 88.401 55.8045 87.7232C57.8346 87.0454 62.8353 82.1289 63.4112 80.2018C63.9871 78.2797 59.7446 75.9884 56.8891 76.57C54.6287 77.0303 51.61 79.9539 50.8998 81.1831L50.9046 81.1881Z" fill="url(#paint10_linear_4321_161229)"/>
<g style="mix-blend-mode:multiply">
<path d="M57.2825 76.5143C57.1049 77.4096 52.9536 81.0515 50.77 81.446L53.9519 78.3555C53.9519 78.3555 56.0971 76.5093 57.2825 76.5093V76.5143Z" fill="#E5C6C3"/>
</g>
<path style="mix-blend-mode:multiply" d="M59.538 77.5406C58.0551 77.8491 56.0874 79.7004 56.2458 80.5502C56.4042 81.3999 57.5704 83.7065 58.871 83.4384C60.1667 83.1703 62.2976 80.8031 62.2784 80.0292C62.2592 79.2553 61.0018 77.2371 59.538 77.5406Z" fill="url(#paint11_linear_4321_161229)"/>
<path style="mix-blend-mode:screen" d="M59.6771 77.5158C58.2853 77.8041 56.452 79.5441 56.6008 80.3483C56.7496 81.1526 57.8486 83.3276 59.0628 83.0746C60.277 82.8268 62.2686 80.5962 62.2494 79.8678C62.2302 79.1394 61.0496 77.2325 59.6819 77.5158H59.6771Z" fill="url(#paint12_linear_4321_161229)"/>
<path d="M47.6605 74.2384C45.6976 75.4574 45.2273 78.4063 46.2399 80.2778C47.2525 82.1493 48.8795 82.1998 50.9047 81.1882C52.9348 80.1715 56.9421 77.5514 56.9421 76.3223C56.9421 75.0932 55.1664 69.5849 47.6605 74.2384Z" fill="url(#paint13_linear_4321_161229)"/>
<path style="mix-blend-mode:multiply" d="M54.2501 73.2725C52.7384 73.2725 50.4731 74.6382 50.4731 75.4727C50.4731 76.3073 51.2026 78.715 52.5224 78.715C53.8422 78.715 56.3665 76.8941 56.4865 76.1607C56.6065 75.4272 55.7426 73.2725 54.2549 73.2725H54.2501Z" fill="url(#paint14_linear_4321_161229)"/>
<path style="mix-blend-mode:screen" d="M54.4946 73.2725C53.146 73.2725 51.1304 74.5522 51.1304 75.3311C51.1304 76.1101 51.7783 78.3609 52.9541 78.3609C54.1299 78.3609 56.3807 76.6563 56.4863 75.9684C56.5918 75.2805 55.824 73.2725 54.4946 73.2725Z" fill="url(#paint15_linear_4321_161229)"/>
<path d="M28.4016 65.8521L43.7686 46.9095L40.3515 43.5762L25.0566 63.2472L28.4016 65.8521Z" fill="url(#paint16_linear_4321_161229)"/>
<path d="M23.2495 63.9411C23.6793 64.3176 24.3366 64.258 24.6917 63.8105L40.9028 43.3809C41.2261 42.9736 41.1832 42.3865 40.8042 42.0305L15.4954 18.2524C12.8097 15.7291 8.4101 16.8793 7.30286 20.3941L0.980743 40.4629C0.384842 42.3546 0.963306 44.4196 2.45517 45.7264L23.2495 63.9411Z" fill="url(#paint17_linear_4321_161229)"/>
<path d="M113.223 68.0271L100.169 47.2483L103.951 44.3804L116.846 65.8774L113.223 68.0271Z" fill="url(#paint18_linear_4321_161229)"/>
<path d="M118.562 66.7988C118.09 67.1181 117.447 66.9791 117.149 66.4933L103.409 44.0888C103.144 43.6556 103.245 43.0919 103.645 42.7786L129.123 22.8347C131.912 20.6511 136.025 21.9808 137.009 25.3841L142.991 46.0936C143.593 48.1755 142.785 50.4078 140.99 51.6223L118.562 66.7988Z" fill="url(#paint19_linear_4321_161229)"/>
<g style="mix-blend-mode:multiply">
<path d="M80.9858 29.428L81.2017 29.3774C83.2222 28.8867 84.494 26.737 84.0284 24.6076L82.7662 18.811C82.3007 16.6815 80.2707 15.3411 78.2502 15.8317L74.0461 16.8484C72.0257 17.339 70.7443 19.4786 71.2098 21.6081L72.472 27.4047C72.9375 29.5342 74.9772 30.8796 76.9976 30.3941L77.2088 30.3435L80.0835 43.5351C80.1939 44.0358 80.669 44.3494 81.1441 44.2331L81.7344 44.0915L81.7824 44.0814L83.1982 43.7374C83.6733 43.6211 83.9708 43.1203 83.8605 42.6196L80.9858 29.428ZM75.4763 20.4144C75.0636 20.5156 74.6508 20.2475 74.5549 19.8125L74.3917 19.0639C74.2957 18.6289 74.5597 18.1939 74.9676 18.0927L77.9239 17.3795C78.3366 17.2784 78.7493 17.5565 78.8453 17.9865L79.0085 18.7351C79.1045 19.1701 78.8405 19.6 78.4278 19.6961L75.4715 20.4093L75.4763 20.4144Z" fill="#E1E7EA"/>
</g>
<path d="M72.9377 20.0046C69.5159 20.0046 66.7275 17.0709 66.7275 13.4645C66.7275 9.85803 69.5111 6.92432 72.9377 6.92432C76.3643 6.92432 79.143 9.85803 79.143 13.4645C79.143 17.0709 76.3595 20.0046 72.9377 20.0046ZM72.9377 7.67292C69.9094 7.67292 67.4426 10.2677 67.4426 13.4594C67.4426 16.6511 69.9046 19.2459 72.9377 19.2459C75.9708 19.2459 78.4279 16.6511 78.4279 13.4594C78.4279 10.2677 75.966 7.67292 72.9377 7.67292Z" fill="#BEC4CC"/>
<path d="M81.6676 25.8777L85.0271 41.2898C85.1374 41.7905 84.8399 42.2913 84.3648 42.4076L82.3107 42.9033C81.8356 43.0197 81.3605 42.7061 81.2501 42.2053L77.8907 26.7932C77.7803 26.2823 78.0778 25.7816 78.553 25.6703L80.607 25.1746C81.0821 25.0583 81.5573 25.3719 81.6676 25.8827V25.8777Z" fill="url(#paint20_linear_4321_161229)"/>
<path d="M80.2469 30.3668L79.854 30.4619L82.5536 42.8453L82.9465 42.7501L80.2469 30.3668Z" fill="url(#paint21_linear_4321_161229)"/>
<path d="M81.6213 30.0378L80.7935 30.2383L83.4931 42.6216L84.3209 42.4211L81.6213 30.0378Z" fill="url(#paint22_linear_4321_161229)"/>
<path d="M79.4167 14.5017L75.2127 15.5183C73.1922 16.009 71.9108 18.1486 72.3763 20.278L73.6385 26.0746C74.104 28.2041 76.1437 29.5496 78.1641 29.064L82.3682 28.0473C84.3887 27.5567 85.6605 25.407 85.1949 23.2775L83.9328 17.4809C83.4672 15.3514 81.4372 14.011 79.4167 14.5017ZM80.1798 17.4101C80.2758 17.8451 80.0118 18.275 79.5991 18.3711L76.6428 19.0843C76.2301 19.1855 75.8173 18.9174 75.7214 18.4824L75.5582 17.7338C75.4622 17.2988 75.7262 16.8638 76.1341 16.7626L79.0904 16.0444C79.5031 15.9432 79.9158 16.2214 80.0118 16.6514L80.175 17.4L80.1798 17.4101Z" fill="url(#paint23_linear_4321_161229)"/>
<path d="M52.8291 23.617C54.1297 27.0312 55.8094 28.665 59.8647 28.665C63.92 28.665 69.5734 22.9543 70.5477 20.7439C71.5219 18.5335 71.2148 15.4886 70.4709 14.5477C69.727 13.6069 52.8339 23.617 52.8339 23.617H52.8291Z" fill="url(#paint24_linear_4321_161229)"/>
<path d="M68.0715 13.1514C63.0371 13.1514 52.9685 17.1321 52.4789 21.3304C51.9894 25.5286 56.9518 26.8589 60.2776 26.2671C63.5986 25.6753 75.6974 13.7381 68.0763 13.1514H68.0715Z" fill="url(#paint25_linear_4321_161229)"/>
<path d="M68.7194 14.7194C67.6444 14.3148 66.3054 14.6638 67.0781 15.4731C67.846 16.2824 68.9498 16.4291 69.2473 15.9536C69.5449 15.4731 69.0985 14.861 68.7242 14.7194H68.7194Z" fill="url(#paint26_linear_4321_161229)"/>
<path d="M55.099 20.2128C54.5375 21.2953 56.534 24.8713 59.855 24.2441C63.176 23.6169 56.6636 18.5639 55.099 20.2128Z" fill="url(#paint27_linear_4321_161229)"/>
<path d="M59.8887 17.6531C58.6121 18.5333 60.9445 21.5985 62.7154 21.5378C64.4863 21.4771 62.9986 17.1524 59.8887 17.6531Z" fill="url(#paint28_linear_4321_161229)"/>
<path d="M72.9377 6.91961C69.5159 6.91961 66.7275 9.85332 66.7275 13.4598C66.7275 14.3348 66.8091 14.7698 67.1067 15.5336C67.4042 15.7916 67.7882 16.0343 68.0713 16.1406C67.673 15.3363 67.4426 14.4309 67.4426 13.4598C67.4426 10.2681 69.9046 7.67327 72.9377 7.67327C75.9708 7.67327 78.4279 10.2681 78.4279 13.4598C78.4279 15.5791 77.3385 17.4304 75.7212 18.437C75.726 18.4521 75.7404 18.4622 75.7404 18.4825C75.7596 18.5938 75.7836 18.705 75.846 18.7961C75.9036 18.8871 75.9516 18.8871 76.0427 18.9327C76.0907 18.9579 76.1243 18.9984 76.1675 19.0288C77.948 17.8755 79.1382 15.8118 79.1382 13.4547C79.1382 9.84826 76.3547 6.91455 72.9329 6.91455L72.9377 6.91961Z" fill="#BEC4CC"/>
<g style="mix-blend-mode:multiply">
<path d="M69.2375 14.957C64.4335 16.5402 55.9437 23.5002 56.6636 27.663C57.3835 31.8258 62.4994 31.5325 65.5037 29.929C68.508 28.3256 76.681 13.1259 69.2375 14.957Z" fill="#E1E7EA"/>
</g>
<defs>
<linearGradient id="paint0_linear_4321_161229" x1="83.4623" y1="95.9983" x2="57.4991" y2="64.2454" gradientUnits="userSpaceOnUse">
<stop stop-color="#FDC3A2"/>
<stop offset="1" stop-color="#FCA98D"/>
</linearGradient>
<linearGradient id="paint1_linear_4321_161229" x1="70.5094" y1="49.7619" x2="101.511" y2="71.66" gradientUnits="userSpaceOnUse">
<stop stop-color="#FDC3A2"/>
<stop offset="1" stop-color="#FCA98D"/>
</linearGradient>
<linearGradient id="paint2_linear_4321_161229" x1="64.4771" y1="65.2271" x2="60.4443" y2="73.3831" gradientUnits="userSpaceOnUse">
<stop stop-color="#F2DDCE"/>
<stop offset="1" stop-color="white"/>
</linearGradient>
<linearGradient id="paint3_linear_4321_161229" x1="64.2142" y1="66.1078" x2="60.7297" y2="73.148" gradientUnits="userSpaceOnUse">
<stop/>
<stop offset="0.15" stop-color="#050403"/>
<stop offset="0.32" stop-color="#130F0D"/>
<stop offset="0.51" stop-color="#2B231E"/>
<stop offset="0.71" stop-color="#4D3E36"/>
<stop offset="0.91" stop-color="#776154"/>
<stop offset="1" stop-color="#8C7263"/>
</linearGradient>
<linearGradient id="paint4_linear_4321_161229" x1="68.1482" y1="95.3712" x2="68.1482" y2="85.1892" gradientUnits="userSpaceOnUse">
<stop stop-color="#FDC3A2"/>
<stop offset="1" stop-color="#FCA98D"/>
</linearGradient>
<linearGradient id="paint5_linear_4321_161229" x1="72.5215" y1="89.9616" x2="67.6686" y2="84.3599" gradientUnits="userSpaceOnUse">
<stop stop-color="#F2DDCE"/>
<stop offset="1" stop-color="white"/>
</linearGradient>
<linearGradient id="paint6_linear_4321_161229" x1="69.4721" y1="90.2871" x2="74.7958" y2="83.4158" gradientUnits="userSpaceOnUse">
<stop/>
<stop offset="0.13" stop-color="#060504"/>
<stop offset="0.31" stop-color="#171310"/>
<stop offset="0.51" stop-color="#332A24"/>
<stop offset="0.73" stop-color="#5B4B41"/>
<stop offset="0.96" stop-color="#8D7465"/>
<stop offset="1" stop-color="#967B6B"/>
</linearGradient>
<linearGradient id="paint7_linear_4321_161229" x1="62.3314" y1="91.1678" x2="62.3314" y2="80.9858" gradientUnits="userSpaceOnUse">
<stop stop-color="#FDC3A2"/>
<stop offset="1" stop-color="#FCA98D"/>
</linearGradient>
<linearGradient id="paint8_linear_4321_161229" x1="66.8987" y1="85.8795" x2="62.0473" y2="80.2834" gradientUnits="userSpaceOnUse">
<stop stop-color="#F2DDCE"/>
<stop offset="1" stop-color="white"/>
</linearGradient>
<linearGradient id="paint9_linear_4321_161229" x1="64.3691" y1="85.5444" x2="69.5402" y2="78.8198" gradientUnits="userSpaceOnUse">
<stop/>
<stop offset="0.13" stop-color="#060504"/>
<stop offset="0.31" stop-color="#171310"/>
<stop offset="0.51" stop-color="#332A24"/>
<stop offset="0.73" stop-color="#5B4B41"/>
<stop offset="0.96" stop-color="#8D7465"/>
<stop offset="1" stop-color="#967B6B"/>
</linearGradient>
<linearGradient id="paint10_linear_4321_161229" x1="56.9707" y1="87.3995" x2="56.9707" y2="78.0217" gradientUnits="userSpaceOnUse">
<stop stop-color="#FDC3A2"/>
<stop offset="1" stop-color="#FCA98D"/>
</linearGradient>
<linearGradient id="paint11_linear_4321_161229" x1="60.7209" y1="82.562" x2="56.2028" y2="77.0468" gradientUnits="userSpaceOnUse">
<stop stop-color="#F2DDCE"/>
<stop offset="1" stop-color="white"/>
</linearGradient>
<linearGradient id="paint12_linear_4321_161229" x1="58.1513" y1="82.8044" x2="62.8038" y2="75.8155" gradientUnits="userSpaceOnUse">
<stop/>
<stop offset="0.13" stop-color="#060504"/>
<stop offset="0.31" stop-color="#171310"/>
<stop offset="0.51" stop-color="#332A24"/>
<stop offset="0.73" stop-color="#5B4B41"/>
<stop offset="0.96" stop-color="#8D7465"/>
<stop offset="1" stop-color="#967B6B"/>
</linearGradient>
<linearGradient id="paint13_linear_4321_161229" x1="51.3318" y1="81.3703" x2="51.3318" y2="73.6668" gradientUnits="userSpaceOnUse">
<stop stop-color="#FDC3A2"/>
<stop offset="1" stop-color="#FCA98D"/>
</linearGradient>
<linearGradient id="paint14_linear_4321_161229" x1="54.4997" y1="78.0979" x2="51.3203" y2="71.8864" gradientUnits="userSpaceOnUse">
<stop stop-color="#F2DDCE"/>
<stop offset="1" stop-color="white"/>
</linearGradient>
<linearGradient id="paint15_linear_4321_161229" x1="52.3542" y1="78.2598" x2="56.5248" y2="71.4037" gradientUnits="userSpaceOnUse">
<stop/>
<stop offset="0.13" stop-color="#060504"/>
<stop offset="0.31" stop-color="#171310"/>
<stop offset="0.51" stop-color="#332A24"/>
<stop offset="0.73" stop-color="#5B4B41"/>
<stop offset="0.96" stop-color="#8D7465"/>
<stop offset="1" stop-color="#967B6B"/>
</linearGradient>
<linearGradient id="paint16_linear_4321_161229" x1="42.9375" y1="47.3664" x2="24.0163" y2="61.9758" gradientUnits="userSpaceOnUse">
<stop stop-color="#EBEFF7"/>
<stop offset="1" stop-color="#B3B6C2"/>
</linearGradient>
<linearGradient id="paint17_linear_4321_161229" x1="15.6999" y1="62.1818" x2="28.5742" y2="18.3431" gradientUnits="userSpaceOnUse">
<stop stop-color="#2C3E63"/>
<stop offset="1" stop-color="#13192E"/>
</linearGradient>
<linearGradient id="paint18_linear_4321_161229" x1="100.964" y1="47.8181" x2="118.073" y2="64.7323" gradientUnits="userSpaceOnUse">
<stop stop-color="#EBEFF7"/>
<stop offset="1" stop-color="#B3B6C2"/>
</linearGradient>
<linearGradient id="paint19_linear_4321_161229" x1="117.624" y1="28.3261" x2="150.218" y2="83.059" gradientUnits="userSpaceOnUse">
<stop stop-color="#10CAC1"/>
<stop offset="0.46" stop-color="#048F89"/>
<stop offset="0.51" stop-color="#009E97"/>
<stop offset="0.56" stop-color="#076A65"/>
<stop offset="1" stop-color="#0FC8C0"/>
</linearGradient>
<linearGradient id="paint20_linear_4321_161229" x1="79.5743" y1="34.4931" x2="83.3726" y2="33.6651" gradientUnits="userSpaceOnUse">
<stop stop-color="#EBEFF7"/>
<stop offset="1" stop-color="#B3B6C2"/>
</linearGradient>
<linearGradient id="paint21_linear_4321_161229" x1="83.2383" y1="45.0149" x2="81.9241" y2="39.5879" gradientUnits="userSpaceOnUse">
<stop stop-color="#EBEFF7"/>
<stop offset="1" stop-color="#B3B6C2"/>
</linearGradient>
<linearGradient id="paint22_linear_4321_161229" x1="84.3976" y1="44.738" x2="83.0834" y2="39.311" gradientUnits="userSpaceOnUse">
<stop stop-color="#EBEFF7"/>
<stop offset="1" stop-color="#B3B6C2"/>
</linearGradient>
<linearGradient id="paint23_linear_4321_161229" x1="73.0121" y1="23.1849" x2="84.6278" y2="20.6527" gradientUnits="userSpaceOnUse">
<stop stop-color="#2C3E63"/>
<stop offset="1" stop-color="#13192E"/>
</linearGradient>
<linearGradient id="paint24_linear_4321_161229" x1="68.82" y1="29.6462" x2="63.2899" y2="22.5546" gradientUnits="userSpaceOnUse">
<stop stop-color="#2C3E63"/>
<stop offset="1" stop-color="#13192E"/>
</linearGradient>
<linearGradient id="paint25_linear_4321_161229" x1="66.5021" y1="9.94452" x2="48.5133" y2="37.694" gradientUnits="userSpaceOnUse">
<stop stop-color="#2C3E63"/>
<stop offset="1" stop-color="#13192E"/>
</linearGradient>
<linearGradient id="paint26_linear_4321_161229" x1="69.4825" y1="17.2434" x2="68.1589" y2="15.5447" gradientUnits="userSpaceOnUse">
<stop stop-color="#2C3E63"/>
<stop offset="1" stop-color="#13192E"/>
</linearGradient>
<linearGradient id="paint27_linear_4321_161229" x1="58.3481" y1="20.5972" x2="57.0672" y2="24.1932" gradientUnits="userSpaceOnUse">
<stop stop-color="#2C3E63"/>
<stop offset="1" stop-color="#13192E"/>
</linearGradient>
<linearGradient id="paint28_linear_4321_161229" x1="61.9283" y1="18.1893" x2="60.8743" y2="21.1297" gradientUnits="userSpaceOnUse">
<stop stop-color="#2C3E63"/>
<stop offset="1" stop-color="#13192E"/>
</linearGradient>
</defs>
</svg>
