<svg width="152" height="91" viewBox="0 0 152 91" fill="none" xmlns="http://www.w3.org/2000/svg">
<path d="M145.355 38.8833H104.691V43.226H145.355V38.8833Z" fill="url(#paint0_linear_4225_161812)"/>
<path d="M99.8678 38.186H107.125V45.5575C107.125 46.2947 106.528 46.8914 105.79 46.8914H101.198C100.46 46.8914 99.8628 46.2947 99.8628 45.5575V38.186H99.8678Z" fill="url(#paint1_linear_4225_161812)"/>
<path d="M149.897 46.8916H145.305C144.567 46.8916 143.97 46.2949 143.97 45.5577V38.1862H151.227V45.5577C151.227 46.2949 150.63 46.8916 149.892 46.8916H149.897Z" fill="url(#paint2_linear_4225_161812)"/>
<path d="M105.83 21.4976L101.519 21.282C100.686 21.2418 100.028 20.5548 100.028 19.7174C100.028 18.8549 100.731 18.1528 101.594 18.1528H102.99C103.777 18.1528 104.495 18.6192 104.816 19.3363L105.178 20.1486H107.2L105.83 21.4976Z" fill="url(#paint3_linear_4225_161812)"/>
<path d="M151.985 29.3807V37.7752C151.985 38.3067 151.859 38.8333 151.634 39.3197L151.152 40.3276C150.554 41.5612 149.31 42.3485 147.935 42.3485H141.465C141.023 42.3485 140.587 42.2683 140.18 42.1078L139.181 41.7217C138.198 41.3356 137.149 41.145 136.095 41.145H115.015C113.951 41.145 112.907 41.3406 111.923 41.7217L110.925 42.1078C110.513 42.2683 110.076 42.3485 109.64 42.3485H103.17C101.8 42.3485 100.55 41.5662 99.9582 40.3276L99.4713 39.3197C99.2404 38.8383 99.125 38.3117 99.125 37.7752V29.3807C99.125 28.468 99.4713 27.5855 100.104 26.9286L101.429 25.5395C101.429 25.5395 101.429 25.5345 101.434 25.5295L101.499 25.4643L105.845 20.896C105.845 20.896 107.341 16.6034 110.543 11.9248C110.543 11.9248 112.686 10.967 125.108 10.9269L126.012 10.9219C138.439 10.967 140.582 11.9248 140.582 11.9248C143.784 16.6034 145.28 20.896 145.28 20.896L149.982 25.8404H149.987L151.021 26.9336C151.649 27.5955 152 28.4781 152 29.3857L151.985 29.3807Z" fill="url(#paint4_linear_4225_161812)"/>
<path d="M151.985 29.3803V37.7747C151.985 38.3063 151.859 38.8328 151.634 39.3192L151.152 40.3272C150.555 41.5608 149.31 42.3481 147.935 42.3481H141.465C141.023 42.3481 140.587 42.2678 140.18 42.1074L139.181 41.7212C138.198 41.3351 137.149 41.1446 136.095 41.1446H115.015C113.951 41.1446 112.907 41.3401 111.923 41.7212L110.925 42.1074C110.513 42.2678 110.076 42.3481 109.64 42.3481H103.17C101.8 42.3481 100.55 41.5658 99.9582 40.3272L99.4713 39.3192C99.2404 38.8378 99.125 38.3113 99.125 37.7747V29.3803C99.125 28.4676 99.4713 27.585 100.104 26.9281L101.429 25.5391C100.887 26.4918 109.815 29.8667 113.926 30.1525C118.152 30.4383 133.093 30.308 137.199 30.1525C141.305 29.992 148.938 27.4496 149.977 25.8399H149.982L151.016 26.9331C151.644 27.5951 151.995 28.4776 151.995 29.3853L151.985 29.3803Z" fill="url(#paint5_linear_4225_161812)"/>
<path d="M144.04 20.8158C142.67 20.7406 140.431 20.6654 137.967 20.6002C137.079 20.5801 136.155 20.5551 135.237 20.535C132.24 20.4698 129.264 20.4247 127.347 20.3946C126.529 20.3846 125.901 20.3796 125.545 20.3796C123.412 20.3796 111.226 20.5802 107.055 20.8158C107.693 18.5793 109.866 14.9688 111.02 12.9629C111.823 12.6972 112.937 12.5016 114.257 12.3612C115.522 12.2208 116.973 12.1355 118.514 12.0854C119.708 12.0453 120.948 12.0202 122.202 12.0102C123.327 11.9951 124.456 11.9951 125.55 11.9951C126.112 11.9951 126.689 11.9951 127.267 12.0001C127.678 12.0001 128.09 12.0001 128.501 12.0051C131.919 12.0302 135.332 12.1355 137.786 12.4765C138.695 12.6069 139.473 12.7624 140.075 12.9629C140.472 13.6499 140.989 14.5275 141.526 15.4753C141.957 16.2425 142.394 17.0499 142.79 17.8372C143.096 18.454 143.378 19.0507 143.603 19.6123C143.784 20.0436 143.93 20.4548 144.035 20.8209L144.04 20.8158Z" fill="url(#paint6_linear_4225_161812)"/>
<path d="M137.189 30.1475C137.189 30.1475 130.042 30.5637 125.55 30.5637C120.446 30.5637 113.911 30.1475 113.911 30.1475C113.911 30.1475 110.046 31.6017 110.046 33.2565C110.046 34.5302 112.28 37.9653 113.314 39.4847C113.63 39.951 114.152 40.2268 114.714 40.2268H136.381C136.943 40.2268 137.465 39.951 137.781 39.4847C138.815 37.9653 141.049 34.5302 141.049 33.2565C141.049 31.6017 137.184 30.1475 137.184 30.1475H137.189Z" fill="url(#paint7_linear_4225_161812)"/>
<path d="M102.929 40.6486C103.819 40.6486 104.54 39.9279 104.54 39.0389C104.54 38.1499 103.819 37.4292 102.929 37.4292C102.039 37.4292 101.318 38.1499 101.318 39.0389C101.318 39.9279 102.039 40.6486 102.929 40.6486Z" fill="url(#paint8_linear_4225_161812)"/>
<path d="M102.929 40.0868C103.508 40.0868 103.978 39.6176 103.978 39.0388C103.978 38.46 103.508 37.9907 102.929 37.9907C102.35 37.9907 101.88 38.46 101.88 39.0388C101.88 39.6176 102.35 40.0868 102.929 40.0868Z" fill="url(#paint9_linear_4225_161812)"/>
<path d="M102.176 26.502C101.398 26.4067 100.505 26.9783 100.083 28.0866C99.8473 28.7134 99.8373 29.5859 99.8925 30.4134C101.9 32.4192 106.588 32.4694 107.817 32.344C109.047 32.2186 111.833 30.6641 112.134 29.9871C112.435 29.3101 103.381 26.6524 102.176 26.502Z" fill="url(#paint10_linear_4225_161812)"/>
<path style="mix-blend-mode:screen" d="M104.771 29.2698C104.771 30.1474 104.058 30.8594 103.18 30.8594C102.302 30.8594 101.589 30.1474 101.589 29.2698C101.589 28.3923 102.302 27.6802 103.18 27.6802C104.058 27.6802 104.771 28.3923 104.771 29.2698Z" fill="url(#paint11_radial_4225_161812)"/>
<path style="mix-blend-mode:screen" d="M108.139 30.1477C108.139 30.8799 107.542 31.4766 106.809 31.4766C106.076 31.4766 105.479 30.8799 105.479 30.1477C105.479 29.4156 106.076 28.8188 106.809 28.8188C107.542 28.8188 108.139 29.4156 108.139 30.1477Z" fill="url(#paint12_radial_4225_161812)"/>
<path d="M148.918 26.502C149.696 26.4067 150.589 26.9783 151.011 28.0866C151.247 28.7134 151.257 29.5859 151.202 30.4134C149.194 32.4192 144.506 32.4694 143.277 32.344C142.047 32.2186 139.262 30.6641 138.96 29.9871C138.659 29.3101 147.714 26.6524 148.918 26.502Z" fill="url(#paint13_linear_4225_161812)"/>
<path style="mix-blend-mode:screen" d="M146.324 29.2698C146.324 30.1474 147.036 30.8594 147.915 30.8594C148.793 30.8594 149.506 30.1474 149.506 29.2698C149.506 28.3923 148.793 27.6802 147.915 27.6802C147.036 27.6802 146.324 28.3923 146.324 29.2698Z" fill="url(#paint14_radial_4225_161812)"/>
<path style="mix-blend-mode:screen" d="M142.96 30.1477C142.96 30.8799 143.558 31.4766 144.29 31.4766C145.023 31.4766 145.621 30.8799 145.621 30.1477C145.621 29.4156 145.023 28.8188 144.29 28.8188C143.558 28.8188 142.96 29.4156 142.96 30.1477Z" fill="url(#paint15_radial_4225_161812)"/>
<path d="M119.487 35.8848H131.834C131.934 35.8848 132.014 35.965 132.014 36.0653V38.8634C132.014 38.9637 131.934 39.044 131.834 39.044H119.487C119.386 39.044 119.306 38.9637 119.306 38.8634V36.0653C119.306 35.965 119.386 35.8848 119.487 35.8848Z" fill="url(#paint16_linear_4225_161812)"/>
<path d="M126.704 33.6029H124.39C123.883 33.6029 123.472 33.1917 123.472 32.6853C123.472 32.1788 123.883 31.7676 124.39 31.7676H126.704C127.211 31.7676 127.622 32.1788 127.622 32.6853C127.622 33.1917 127.211 33.6029 126.704 33.6029Z" fill="url(#paint17_linear_4225_161812)"/>
<path style="mix-blend-mode:screen" d="M142.961 19.627C141.149 19.8777 138.022 20.1636 134.509 19.8376C129.63 19.3763 124.601 15.3245 122.9 12.5063C123.954 12.4912 125.008 12.4912 126.037 12.4912C126.564 12.4912 127.106 12.4912 127.648 12.4912C128.034 12.4912 128.421 12.4912 128.807 12.4912C132.014 12.5163 135.206 12.6116 137.51 12.9325C138.358 13.0529 139.091 13.2033 139.653 13.3888C140.025 14.0307 140.506 14.8531 141.013 15.7407C141.415 16.4628 141.826 17.215 142.203 17.9521C142.489 18.5288 142.755 19.0905 142.966 19.612L142.961 19.627Z" fill="url(#paint18_linear_4225_161812)"/>
<path d="M145.27 21.4976L149.581 21.282C150.414 21.2418 151.072 20.5548 151.072 19.7174C151.072 18.8549 150.369 18.1528 149.506 18.1528H148.11C147.322 18.1528 146.605 18.6192 146.283 19.3363L145.922 20.1486H143.899L145.27 21.4976Z" fill="url(#paint19_linear_4225_161812)"/>
<path style="mix-blend-mode:screen" d="M148.868 20.9106H149.626C150.314 20.9106 150.871 20.354 150.871 19.667C150.871 18.98 150.314 18.4233 149.626 18.4233H148.868C148.181 18.4233 147.624 18.98 147.624 19.667C147.624 20.354 148.181 20.9106 148.868 20.9106Z" fill="url(#paint20_linear_4225_161812)"/>
<path style="mix-blend-mode:screen" d="M101.499 20.9106H102.256C102.944 20.9106 103.501 20.354 103.501 19.667C103.501 18.98 102.944 18.4233 102.256 18.4233H101.499C100.811 18.4233 100.254 18.98 100.254 19.667C100.254 20.354 100.811 20.9106 101.499 20.9106Z" fill="url(#paint21_linear_4225_161812)"/>
<path d="M46.2444 38.8833H5.58057V43.226H46.2444V38.8833Z" fill="url(#paint22_linear_4225_161812)"/>
<path d="M0.75293 38.186H8.01038V45.5575C8.01038 46.2947 7.41312 46.8914 6.67533 46.8914H2.08798C1.35019 46.8914 0.75293 46.2947 0.75293 45.5575V38.186Z" fill="url(#paint23_linear_4225_161812)"/>
<path d="M50.7823 46.8916H46.1899C45.4521 46.8916 44.8549 46.2949 44.8549 45.5577V38.1862H52.1123V45.5577C52.1123 46.2949 51.515 46.8866 50.7823 46.8866V46.8916Z" fill="url(#paint24_linear_4225_161812)"/>
<path d="M6.71503 21.4976L2.40372 21.282C1.57057 21.2418 0.913086 20.5548 0.913086 19.7174C0.913086 18.8549 1.61574 18.1528 2.47901 18.1528H3.87428C4.66226 18.1528 5.37998 18.6192 5.70119 19.3363L6.06256 20.1486H8.08521L6.71503 21.4976Z" fill="url(#paint25_linear_4225_161812)"/>
<path d="M52.875 29.3807V37.7752C52.875 38.3067 52.7495 38.8333 52.5236 39.3197L52.0418 40.3276C51.4446 41.5612 50.1998 42.3485 48.8246 42.3485H42.3552C41.9135 42.3485 41.4769 42.2683 41.0703 42.1078L40.0715 41.7217C39.0878 41.3356 38.0389 41.145 36.9849 41.145H15.8951C14.8361 41.145 13.7871 41.3406 12.8034 41.7217L11.8046 42.1078C11.3931 42.2683 10.9564 42.3485 10.5198 42.3485H4.0453C2.67512 42.3485 1.42539 41.5662 0.833151 40.3276L0.34631 39.3197C0.115437 38.8383 0 38.3117 0 37.7752V29.3807C0 28.468 0.34631 27.5855 0.978701 26.9286L2.30371 25.5395C2.30371 25.5395 2.30371 25.5345 2.30873 25.5295L2.37398 25.4643L6.72042 20.896C6.72042 20.896 8.21607 16.6034 11.4182 11.9248C11.4182 11.9248 13.5613 10.967 25.9833 10.9269L26.8867 10.9219C39.3137 10.967 41.4568 11.9248 41.4568 11.9248C44.6589 16.6034 46.1545 20.896 46.1545 20.896L50.8573 25.8404H50.8624L51.8963 26.9336C52.5236 27.5955 52.875 28.4781 52.875 29.3857V29.3807Z" fill="url(#paint26_linear_4225_161812)"/>
<path d="M52.875 29.3803V37.7747C52.875 38.3063 52.7495 38.8328 52.5236 39.3192L52.0418 40.3272C51.4446 41.5608 50.1998 42.3481 48.8246 42.3481H42.3552C41.9135 42.3481 41.4769 42.2678 41.0703 42.1074L40.0715 41.7212C39.0878 41.3351 38.0389 41.1446 36.9849 41.1446H15.8951C14.8361 41.1446 13.7871 41.3401 12.8034 41.7212L11.8046 42.1074C11.3931 42.2678 10.9564 42.3481 10.5198 42.3481H4.0453C2.67512 42.3481 1.42539 41.5658 0.833151 40.3272L0.34631 39.3192C0.115437 38.8378 0 38.3113 0 37.7747V29.3803C0 28.4676 0.34631 27.585 0.978701 26.9281L2.30371 25.5391C1.76166 26.4918 10.6904 29.8667 14.801 30.1525C19.027 30.4383 33.9685 30.308 38.074 30.1525C42.1795 29.992 49.8134 27.4496 50.8523 25.8399H50.8573L51.8912 26.9331C52.5186 27.5951 52.8699 28.4776 52.8699 29.3853L52.875 29.3803Z" fill="url(#paint27_linear_4225_161812)"/>
<path d="M44.9248 20.8158C43.5546 20.7406 41.3162 20.6654 38.8519 20.6002C37.9635 20.5801 37.04 20.5551 36.1215 20.535C33.1252 20.4698 30.1489 20.4247 28.2317 20.3946C27.4136 20.3846 26.7862 20.3796 26.4299 20.3796C24.2968 20.3796 12.1107 20.5802 7.93994 20.8158C8.57735 18.5793 10.7506 14.9688 11.9049 12.9629C12.708 12.6972 13.8222 12.5016 15.1422 12.3612C16.407 12.2208 17.8575 12.1355 19.3983 12.0854C20.5928 12.0453 21.8325 12.0202 23.0872 12.0102C24.2115 11.9951 25.3407 11.9951 26.4349 11.9951C26.997 11.9951 27.5742 11.9951 28.1514 12.0001C28.5629 12.0001 28.9795 12.0001 29.386 12.0051C32.804 12.0302 36.2169 12.1355 38.6712 12.4765C39.5796 12.6069 40.3575 12.7624 40.9598 12.9629C41.3563 13.6499 41.8733 14.5275 42.4103 15.4753C42.8419 16.2425 43.2786 17.0499 43.6751 17.8372C43.9812 18.454 44.2673 19.0507 44.4882 19.6123C44.6688 20.0436 44.8144 20.4548 44.9198 20.8209L44.9248 20.8158Z" fill="url(#paint28_linear_4225_161812)"/>
<path d="M38.0738 30.1475C38.0738 30.1475 30.9268 30.5637 26.4348 30.5637C21.3305 30.5637 14.7958 30.1475 14.7958 30.1475C14.7958 30.1475 10.9312 31.6017 10.9312 33.2565C10.9312 34.5302 13.1646 37.9653 14.1985 39.4847C14.5147 39.951 15.0367 40.2268 15.5988 40.2268H37.2657C37.8279 40.2268 38.3498 39.951 38.666 39.4847C39.7 37.9653 41.9334 34.5302 41.9334 33.2565C41.9334 31.6017 38.0688 30.1475 38.0688 30.1475H38.0738Z" fill="url(#paint29_linear_4225_161812)"/>
<path d="M3.81422 40.6486C4.704 40.6486 5.42531 39.9279 5.42531 39.0389C5.42531 38.1499 4.704 37.4292 3.81422 37.4292C2.92444 37.4292 2.20312 38.1499 2.20312 39.0389C2.20312 39.9279 2.92444 40.6486 3.81422 40.6486Z" fill="url(#paint30_linear_4225_161812)"/>
<path d="M3.8141 40.0868C4.39343 40.0868 4.86307 39.6176 4.86307 39.0388C4.86307 38.46 4.39343 37.9907 3.8141 37.9907C3.23478 37.9907 2.76514 38.46 2.76514 39.0388C2.76514 39.6176 3.23478 40.0868 3.8141 40.0868Z" fill="url(#paint31_linear_4225_161812)"/>
<path d="M3.06627 26.502C2.28833 26.4067 1.39495 26.9783 0.973356 28.0866C0.737464 28.7134 0.727426 29.5859 0.782635 30.4134C2.79023 32.4192 7.47796 32.4694 8.70761 32.344C9.93726 32.2186 12.7228 30.6641 13.0239 29.9871C13.3251 29.3101 4.27083 26.6524 3.06627 26.502Z" fill="url(#paint32_linear_4225_161812)"/>
<path style="mix-blend-mode:screen" d="M5.65664 29.2698C5.65664 30.1474 4.94395 30.8594 4.06563 30.8594C3.1873 30.8594 2.47461 30.1474 2.47461 29.2698C2.47461 28.3923 3.1873 27.6802 4.06563 27.6802C4.94395 27.6802 5.65664 28.3923 5.65664 29.2698Z" fill="url(#paint33_radial_4225_161812)"/>
<path style="mix-blend-mode:screen" d="M9.02432 30.1477C9.02432 30.8799 8.42706 31.4766 7.69429 31.4766C6.96152 31.4766 6.36426 30.8799 6.36426 30.1477C6.36426 29.4156 6.96152 28.8188 7.69429 28.8188C8.42706 28.8188 9.02432 29.4156 9.02432 30.1477Z" fill="url(#paint34_radial_4225_161812)"/>
<path d="M49.8029 26.502C50.5808 26.4067 51.4742 26.9783 51.8958 28.0866C52.1317 28.7134 52.1417 29.5859 52.0865 30.4134C50.0789 32.4192 45.3912 32.4694 44.1616 32.344C42.9319 32.2186 40.1464 30.6641 39.8452 29.9871C39.5441 29.3101 48.5983 26.6524 49.8029 26.502Z" fill="url(#paint35_linear_4225_161812)"/>
<path style="mix-blend-mode:screen" d="M47.2134 29.2698C47.2134 30.1474 47.9261 30.8594 48.8044 30.8594C49.6827 30.8594 50.3954 30.1474 50.3954 29.2698C50.3954 28.3923 49.6827 27.6802 48.8044 27.6802C47.9261 27.6802 47.2134 28.3923 47.2134 29.2698Z" fill="url(#paint36_radial_4225_161812)"/>
<path style="mix-blend-mode:screen" d="M43.8452 30.1477C43.8452 30.8799 44.4425 31.4766 45.1752 31.4766C45.908 31.4766 46.5053 30.8799 46.5053 30.1477C46.5053 29.4156 45.908 28.8188 45.1752 28.8188C44.4425 28.8188 43.8452 29.4156 43.8452 30.1477Z" fill="url(#paint37_radial_4225_161812)"/>
<path d="M32.7183 35.8848H20.3716C20.2718 35.8848 20.1909 35.9656 20.1909 36.0653V38.8634C20.1909 38.9631 20.2718 39.044 20.3716 39.044H32.7183C32.8181 39.044 32.899 38.9631 32.899 38.8634V36.0653C32.899 35.9656 32.8181 35.8848 32.7183 35.8848Z" fill="url(#paint38_linear_4225_161812)"/>
<path d="M27.594 33.6029H25.2803C24.7734 33.6029 24.3618 33.1917 24.3618 32.6853C24.3618 32.1788 24.7734 31.7676 25.2803 31.7676H27.594C28.101 31.7676 28.5125 32.1788 28.5125 32.6853C28.5125 33.1917 28.101 33.6029 27.594 33.6029Z" fill="url(#paint39_linear_4225_161812)"/>
<path style="mix-blend-mode:screen" d="M43.8455 19.627C42.0337 19.8777 38.9069 20.1636 35.3936 19.8376C30.5151 19.3763 25.4861 15.3245 23.7847 12.5063C24.8387 12.4912 25.8926 12.4912 26.9215 12.4912C27.4485 12.4912 27.9906 12.4912 28.5326 12.4912C28.9191 12.4912 29.3055 12.4912 29.692 12.4912C32.8991 12.5163 36.0912 12.6116 38.3949 12.9325C39.2431 13.0529 39.9759 13.2033 40.538 13.3888C40.9094 14.0307 41.3913 14.8531 41.8982 15.7407C42.2997 16.4628 42.7112 17.215 43.0877 17.9521C43.3738 18.5288 43.6398 19.0905 43.8506 19.612L43.8455 19.627Z" fill="url(#paint40_linear_4225_161812)"/>
<path d="M46.1544 21.4976L50.4657 21.282C51.2988 21.2418 51.9563 20.5548 51.9563 19.7174C51.9563 18.8549 51.2536 18.1528 50.3904 18.1528H48.9951C48.2071 18.1528 47.4894 18.6192 47.1682 19.3363L46.8068 20.1486H44.7842L46.1544 21.4976Z" fill="url(#paint41_linear_4225_161812)"/>
<path style="mix-blend-mode:screen" d="M49.7579 20.9106H50.5158C51.2034 20.9106 51.7605 20.354 51.7605 19.667C51.7605 18.98 51.2034 18.4233 50.5158 18.4233H49.7579C49.0703 18.4233 48.5132 18.98 48.5132 19.667C48.5132 20.354 49.0703 20.9106 49.7579 20.9106Z" fill="url(#paint42_linear_4225_161812)"/>
<path style="mix-blend-mode:screen" d="M2.38875 20.9106H3.14662C3.83422 20.9106 4.39132 20.354 4.39132 19.667C4.39132 18.98 3.83422 18.4233 3.14662 18.4233H2.38875C1.70115 18.4233 1.14404 18.98 1.14404 19.667C1.14404 20.354 1.70115 20.9106 2.38875 20.9106Z" fill="url(#paint43_linear_4225_161812)"/>
<g style="mix-blend-mode:multiply">
<path d="M121.675 57.3777C121.675 58.6364 101.223 59.6544 75.9923 59.6544C50.7619 59.6544 30.3096 58.6364 30.3096 57.3777C30.3096 56.119 50.7619 55.1011 75.9923 55.1011C101.223 55.1011 121.675 56.119 121.675 57.3777Z" fill="#C3C0DD"/>
</g>
<path d="M107.753 17.0046L114.684 16.6586C116.024 16.5934 117.078 15.4852 117.078 14.1462C117.078 12.7572 115.949 11.6289 114.558 11.6289H112.315C111.045 11.6289 109.896 12.3761 109.379 13.5294L108.797 14.8332H105.549L107.753 16.9996V17.0046Z" fill="url(#paint44_linear_4225_161812)"/>
<path style="mix-blend-mode:screen" d="M113.54 16.0617H114.754C115.858 16.0617 116.757 15.1641 116.757 14.0609C116.757 12.9577 115.858 12.0601 114.754 12.0601H113.54C112.436 12.0601 111.537 12.9577 111.537 14.0609C111.537 15.1641 112.436 16.0617 113.54 16.0617Z" fill="url(#paint45_linear_4225_161812)"/>
<path d="M107.898 44.9409H42.5459V51.9213H107.898V44.9409Z" fill="url(#paint46_linear_4225_161812)"/>
<path d="M34.7915 43.8228H46.4556V55.6673C46.4556 56.8457 45.497 57.8085 44.3125 57.8085H36.9346C35.7551 57.8085 34.7915 56.8507 34.7915 55.6673V43.8228Z" fill="url(#paint47_linear_4225_161812)"/>
<path d="M115.19 57.8086H107.812C106.633 57.8086 105.669 56.8508 105.669 55.6673V43.8228H117.333V55.6673C117.333 56.8458 116.375 57.8086 115.19 57.8086Z" fill="url(#paint48_linear_4225_161812)"/>
<path d="M44.3677 17.0046L37.4365 16.6586C36.0965 16.5934 35.0425 15.4852 35.0425 14.1462C35.0425 12.7572 36.1717 11.6289 37.562 11.6289H39.8055C41.0753 11.6289 42.2246 12.3761 42.7416 13.5294L43.3238 14.8332H46.5711L44.3677 16.9996V17.0046Z" fill="url(#paint49_linear_4225_161812)"/>
<path d="M118.549 29.6715V43.1558C118.549 44.0133 118.353 44.8608 117.981 45.6331L117.208 47.2528C116.255 49.2386 114.252 50.4972 112.044 50.4972H101.645C100.937 50.4972 100.234 50.3669 99.5768 50.1111L97.9707 49.4943C96.3897 48.8775 94.7083 48.5616 93.0119 48.5616H59.1238C57.4173 48.5616 55.736 48.8725 54.155 49.4943L52.5489 50.1111C51.8914 50.3669 51.1888 50.4972 50.4811 50.4972H40.0817C37.8834 50.4972 35.8708 49.2386 34.9222 47.2528L34.1393 45.6331C33.7679 44.8608 33.5771 44.0133 33.5771 43.1558V29.6715C33.5771 28.2072 34.1393 26.7881 35.1531 25.73L37.2812 23.4985C37.2812 23.4985 37.2812 23.4885 37.2912 23.4835L37.3966 23.3782L44.383 16.0317C44.383 16.0317 46.7871 9.13163 51.9316 1.61471C51.9316 1.61471 55.3746 0.0752176 75.3351 0.0100276V0H76.7856V0.0100276C96.7511 0.0752176 100.199 1.61471 100.199 1.61471C105.344 9.13163 107.748 16.0317 107.748 16.0317L115.306 23.9749H115.316L116.983 25.73C117.986 26.7931 118.559 28.2072 118.559 29.6715H118.549Z" fill="url(#paint50_linear_4225_161812)"/>
<path d="M118.549 29.6715V43.1559C118.549 44.0134 118.353 44.8608 117.981 45.6331L117.208 47.2528C116.255 49.2386 114.252 50.4973 112.044 50.4973H101.645C100.937 50.4973 100.234 50.3669 99.5768 50.1111L97.9707 49.4943C96.3897 48.8775 94.7083 48.5616 93.0119 48.5616H59.1238C57.4173 48.5616 55.736 48.8725 54.155 49.4943L52.5489 50.1111C51.8914 50.3669 51.1888 50.4973 50.4811 50.4973H40.0817C37.8834 50.4973 35.8708 49.2386 34.9222 47.2528L34.1393 45.6331C33.7679 44.8608 33.5771 44.0134 33.5771 43.1559V29.6715C33.5771 28.2073 34.1393 26.7881 35.1531 25.73L37.2812 23.4985C36.4079 25.028 50.7621 30.4538 57.3621 30.9101C64.1528 31.3715 88.1636 31.1559 94.7686 30.9101C101.369 30.6544 113.63 26.5625 115.306 23.9799H115.316L116.983 25.7351C117.986 26.7982 118.559 28.2123 118.559 29.6766L118.549 29.6715Z" fill="url(#paint51_linear_4225_161812)"/>
<path d="M105.775 15.9014C103.577 15.7761 99.9735 15.6607 96.0186 15.5554C94.5932 15.5203 93.1075 15.4802 91.637 15.4501C86.8238 15.3448 82.0357 15.2696 78.954 15.2295C77.634 15.2144 76.6302 15.2044 76.0631 15.2044C72.6351 15.2044 53.0561 15.5253 46.3457 15.9065C47.3696 12.311 50.8628 6.51406 52.7148 3.28465C54.0097 2.8584 55.7964 2.54248 57.9145 2.32184C59.9522 2.1012 62.281 1.96079 64.7553 1.87554C66.6776 1.81035 68.6701 1.77023 70.6827 1.75017C72.4896 1.7251 74.3014 1.7251 76.0631 1.7251C76.9715 1.7251 77.895 1.7251 78.8235 1.73513C79.481 1.73513 80.1485 1.73513 80.811 1.74516C86.3068 1.78527 91.7876 1.95076 95.7325 2.50237C97.193 2.70797 98.4427 2.96371 99.4064 3.28465C100.039 4.38786 100.872 5.79697 101.74 7.32142C102.433 8.55501 103.13 9.84879 103.778 11.1175C104.275 12.1054 104.726 13.0682 105.088 13.9658C105.374 14.6578 105.615 15.3147 105.78 15.9115L105.775 15.9014Z" fill="url(#paint52_linear_4225_161812)"/>
<path d="M94.7637 30.8999C94.7637 30.8999 83.2803 31.5668 76.063 31.5668C67.857 31.5668 57.3623 30.8999 57.3623 30.8999C57.3623 30.8999 51.1538 33.2367 51.1538 35.8945C51.1538 37.9404 54.7424 43.4565 56.4037 45.8986C56.9106 46.6458 57.7538 47.0871 58.6522 47.0871H93.4688C94.3723 47.0871 95.2104 46.6458 95.7173 45.8986C97.3786 43.4565 100.967 37.9354 100.967 35.8945C100.967 33.2367 94.7587 30.8999 94.7587 30.8999H94.7637Z" fill="url(#paint53_linear_4225_161812)"/>
<path d="M39.7101 47.7842C41.1431 47.7842 42.3049 46.6235 42.3049 45.1917C42.3049 43.7598 41.1431 42.5991 39.7101 42.5991C38.277 42.5991 37.1152 43.7598 37.1152 45.1917C37.1152 46.6235 38.277 47.7842 39.7101 47.7842Z" fill="url(#paint54_linear_4225_161812)"/>
<path d="M41.3962 45.1917C41.3962 46.1245 40.6433 46.8767 39.7098 46.8767C38.7763 46.8767 38.0234 46.1245 38.0234 45.1917C38.0234 44.259 38.7763 43.5068 39.7098 43.5068C40.6433 43.5068 41.3962 44.259 41.3962 45.1917Z" fill="url(#paint55_linear_4225_161812)"/>
<path d="M38.5055 25.0481C37.2558 24.8927 35.8203 25.8154 35.1428 27.5906C34.7613 28.5985 34.7513 30.0026 34.8366 31.3264C38.0588 34.5458 45.5973 34.6311 47.5748 34.4255C49.5523 34.2249 54.0242 31.7276 54.506 30.6394C54.9878 29.5513 40.4378 25.2838 38.5055 25.0431V25.0481Z" fill="url(#paint56_linear_4225_161812)"/>
<path style="mix-blend-mode:screen" d="M42.6711 29.4964C42.6711 30.9105 41.5268 32.0539 40.1114 32.0539C38.6961 32.0539 37.5518 30.9105 37.5518 29.4964C37.5518 28.0823 38.6961 26.939 40.1114 26.939C41.5268 26.939 42.6711 28.0823 42.6711 29.4964Z" fill="url(#paint57_radial_4225_161812)"/>
<path style="mix-blend-mode:screen" d="M45.9442 33.0366C47.1251 33.0366 48.0823 32.0802 48.0823 30.9004C48.0823 29.7206 47.1251 28.7642 45.9442 28.7642C44.7634 28.7642 43.8062 29.7206 43.8062 30.9004C43.8062 32.0802 44.7634 33.0366 45.9442 33.0366Z" fill="url(#paint58_radial_4225_161812)"/>
<path d="M113.62 25.0481C114.869 24.8927 116.305 25.8154 116.982 27.5906C117.364 28.5985 117.374 30.0026 117.289 31.3264C114.066 34.5458 106.528 34.6311 104.55 34.4255C102.573 34.2249 98.1009 31.7276 97.6191 30.6394C97.1373 29.5513 111.687 25.2838 113.62 25.0431V25.0481Z" fill="url(#paint59_linear_4225_161812)"/>
<path style="mix-blend-mode:screen" d="M109.449 29.4964C109.449 30.9105 110.594 32.0539 112.009 32.0539C113.424 32.0539 114.569 30.9105 114.569 29.4964C114.569 28.0823 113.424 26.939 112.009 26.939C110.594 26.939 109.449 28.0823 109.449 29.4964Z" fill="url(#paint60_radial_4225_161812)"/>
<path style="mix-blend-mode:screen" d="M106.177 33.0366C107.357 33.0366 108.315 32.0802 108.315 30.9004C108.315 29.7206 107.357 28.7642 106.177 28.7642C104.996 28.7642 104.039 29.7206 104.039 30.9004C104.039 32.0802 104.996 33.0366 106.177 33.0366Z" fill="url(#paint61_radial_4225_161812)"/>
<path d="M86.1609 40.1221H66.3209C66.1601 40.1221 66.0298 40.2523 66.0298 40.4129V44.906C66.0298 45.0666 66.1601 45.1969 66.3209 45.1969H86.1609C86.3217 45.1969 86.452 45.0666 86.452 44.906V40.4129C86.452 40.2523 86.3217 40.1221 86.1609 40.1221Z" fill="url(#paint62_linear_4225_161812)"/>
<path style="mix-blend-mode:screen" d="M104.043 14.0012C101.132 14.4023 96.1033 14.8637 90.457 14.3422C82.6173 13.6 74.5317 7.09101 71.7964 2.55779C73.4878 2.53272 75.1892 2.53271 76.8405 2.53271C77.6887 2.53271 78.557 2.53272 79.4303 2.54275C80.0476 2.54275 80.675 2.54274 81.2923 2.55277C86.4418 2.59289 91.5812 2.74333 95.2802 3.26485C96.6454 3.4554 97.8198 3.69611 98.7232 3.99699C99.3155 5.03 100.098 6.34884 100.906 7.77801C101.554 8.93639 102.211 10.1449 102.814 11.3334C103.275 12.2611 103.702 13.1637 104.043 14.0012Z" fill="url(#paint63_linear_4225_161812)"/>
<path style="mix-blend-mode:screen" d="M43.8057 17.6768C40.8244 20.6554 38.2948 22.5008 39.2886 23.4987C40.2874 24.4966 54.5262 30.2434 62.0196 30.2434C69.5129 30.2434 89.6691 31.5472 95.3958 29.767C101.117 27.9868 112.209 25.1134 113.133 24.1908C114.056 23.2681 107.893 17.6768 107.893 17.6768H43.8057Z" fill="url(#paint64_linear_4225_161812)"/>
<path style="mix-blend-mode:screen" d="M37.4166 16.0617H38.6312C39.7354 16.0617 40.6338 15.1641 40.6338 14.0609C40.6338 12.9577 39.7354 12.0601 38.6312 12.0601H37.4166C36.3125 12.0601 35.4141 12.9577 35.4141 14.0609C35.4141 15.1641 36.3125 16.0617 37.4166 16.0617Z" fill="url(#paint65_linear_4225_161812)"/>
<path d="M76.0632 37.4294C77.1996 37.4294 78.1209 36.5089 78.1209 35.3734C78.1209 34.2379 77.1996 33.3174 76.0632 33.3174C74.9267 33.3174 74.0054 34.2379 74.0054 35.3734C74.0054 36.5089 74.9267 37.4294 76.0632 37.4294Z" fill="url(#paint66_linear_4225_161812)"/>
<path d="M120.988 62.4821C115.843 54.3283 116.064 41.9723 114.021 36.2406C112.4 31.6873 108.53 31.4666 106.121 31.9531C103.697 28.7036 99.1249 28.9393 97.1374 30.5841C95.5213 27.5402 92.806 26.6125 91.21 26.9334C89.6139 27.2544 86.6226 27.7358 86.4168 30.8599C84.5749 27.9063 75.7164 12.3309 74.1755 11.3029C72.6347 10.2749 70.6372 10.2347 69.7237 11.6037C68.8103 12.9727 68.1628 13.5795 70.5267 18.564C72.8907 23.5486 78.5722 31.7224 80.6099 35.9397C82.6476 40.157 86.9087 48.9727 85.2575 49.6045C83.6012 50.2314 82.1858 43.251 80.9863 41.4157C79.7868 39.5803 76.2434 35.8244 74.2408 36.2255C72.2432 36.6267 71.7765 38.0107 72.5444 40.0868C75.0739 44.9911 74.296 45.5728 76.0125 48.7872C77.729 52.0015 80.9763 58.7061 83.8521 60.6217C86.733 62.5372 101.86 71.8945 107.742 76.3525L120.988 62.4821Z" fill="url(#paint67_linear_4225_161812)"/>
<path style="mix-blend-mode:multiply" d="M70.3718 10.9623C68.8711 11.7596 68.8962 13.254 69.5135 14.3421C70.1911 15.5356 70.8435 16.4583 71.7921 16.6238C72.7608 16.7943 75.5062 15.0643 75.466 14.1867C75.4309 13.3693 74.1611 11.9502 73.7596 11.534C73.3731 11.1378 72.284 9.93931 70.3718 10.9573V10.9623Z" fill="url(#paint68_linear_4225_161812)"/>
<path style="mix-blend-mode:screen" d="M70.296 10.9474C68.8756 11.6796 68.8957 13.0185 69.4679 13.9763C70.0953 15.0243 70.6875 15.8166 71.5608 15.9571C72.4492 16.0975 75.0239 14.573 75.0088 13.8058C74.9988 13.0837 73.8494 11.825 73.478 11.4489C73.1217 11.0929 72.1179 10.0047 70.291 10.9474H70.296Z" fill="url(#paint69_linear_4225_161812)"/>
<path style="mix-blend-mode:multiply" d="M72.5837 37.1081C71.8359 37.9155 72.0969 39.3848 72.6289 40.4378C73.2211 41.6012 73.7481 42.4938 74.3303 42.6443C74.9225 42.7997 76.2476 41.0546 76.0819 40.1971C75.9263 39.3948 74.9577 38.0208 74.6515 37.6196C74.3604 37.2335 73.5323 36.0751 72.5787 37.1081H72.5837Z" fill="url(#paint70_linear_4225_161812)"/>
<path style="mix-blend-mode:screen" d="M72.539 37.0979C71.8263 37.8401 72.0572 39.1539 72.544 40.0866C73.081 41.1046 73.5578 41.8769 74.0899 41.9972C74.6319 42.1226 75.8867 40.5831 75.7562 39.8309C75.6307 39.1238 74.7574 37.9003 74.4813 37.5442C74.2153 37.1982 73.4524 36.1502 72.539 37.0979Z" fill="url(#paint71_linear_4225_161812)"/>
<g style="mix-blend-mode:multiply">
<path d="M97.1426 30.584C98.0309 31.9079 98.7286 32.8356 98.7286 32.8356C98.7286 32.8356 98.2267 30.5539 97.8503 30.1177L97.1426 30.579V30.584Z" fill="#E5C6C3"/>
</g>
<g style="mix-blend-mode:multiply">
<path d="M107.31 33.7434C107.12 33.0614 106.126 31.9582 106.126 31.9582L106.728 31.8579C106.728 31.8579 107.396 33.1918 107.305 33.7434H107.31Z" fill="#E5C6C3"/>
</g>
<g style="mix-blend-mode:multiply">
<path d="M86.4219 30.86C88.0179 33.5879 88.2839 34.0242 88.2839 34.0242C87.8523 31.888 86.8134 29.3506 86.8134 29.3506C86.8134 29.3506 86.3968 30.0677 86.4269 30.86H86.4219Z" fill="#E5C6C3"/>
</g>
<path d="M104.149 77.596L121.213 60.7368L124.667 63.9662L106.894 80.7953L104.149 77.596Z" fill="url(#paint72_linear_4225_161812)"/>
<path d="M105.635 81.9236L125.46 62.7627L136.261 70.766L114.408 91L105.635 81.9236Z" fill="url(#paint73_linear_4225_161812)"/>
<defs>
<linearGradient id="paint0_linear_4225_161812" x1="125.028" y1="43.3914" x2="125.028" y2="40.9243" gradientUnits="userSpaceOnUse">
<stop stop-color="#B5B3C3"/>
<stop offset="1" stop-color="#918F9C"/>
</linearGradient>
<linearGradient id="paint1_linear_4225_161812" x1="103.497" y1="46.736" x2="103.497" y2="41.1597" gradientUnits="userSpaceOnUse">
<stop stop-color="#B5B3C3"/>
<stop offset="1" stop-color="#918F9C"/>
</linearGradient>
<linearGradient id="paint2_linear_4225_161812" x1="147.603" y1="46.7361" x2="147.603" y2="41.1599" gradientUnits="userSpaceOnUse">
<stop stop-color="#B5B3C3"/>
<stop offset="1" stop-color="#918F9C"/>
</linearGradient>
<linearGradient id="paint3_linear_4225_161812" x1="103.662" y1="18.1278" x2="103.577" y2="21.2619" gradientUnits="userSpaceOnUse">
<stop stop-color="white"/>
<stop offset="1" stop-color="#CDCADC"/>
</linearGradient>
<linearGradient id="paint4_linear_4225_161812" x1="125.55" y1="10.8216" x2="125.55" y2="29.812" gradientUnits="userSpaceOnUse">
<stop stop-color="#F0F0F0"/>
<stop offset="0.52" stop-color="#CDCADC"/>
<stop offset="1" stop-color="#EDEDED"/>
</linearGradient>
<linearGradient id="paint5_linear_4225_161812" x1="99.4061" y1="33.9386" x2="150.876" y2="33.9386" gradientUnits="userSpaceOnUse">
<stop stop-color="#CDCADC"/>
<stop offset="0.05" stop-color="#D3D1E0"/>
<stop offset="0.2" stop-color="#E6E5EB"/>
<stop offset="0.36" stop-color="#F1F1F2"/>
<stop offset="0.52" stop-color="#F5F5F5"/>
<stop offset="0.66" stop-color="#F1F0F2"/>
<stop offset="0.81" stop-color="#E5E4EB"/>
<stop offset="0.97" stop-color="#D2CFDF"/>
<stop offset="1" stop-color="#CDCADC"/>
</linearGradient>
<linearGradient id="paint6_linear_4225_161812" x1="137.465" y1="10.8568" x2="112.688" y2="25.9198" gradientUnits="userSpaceOnUse">
<stop stop-color="#B5B3C3"/>
<stop offset="1" stop-color="#918F9C"/>
</linearGradient>
<linearGradient id="paint7_linear_4225_161812" x1="125.615" y1="40.1366" x2="125.53" y2="31.4162" gradientUnits="userSpaceOnUse">
<stop stop-color="#B5B3C3"/>
<stop offset="1" stop-color="#918F9C"/>
</linearGradient>
<linearGradient id="paint8_linear_4225_161812" x1="102.944" y1="40.5934" x2="102.914" y2="37.8605" gradientUnits="userSpaceOnUse">
<stop stop-color="#B5B3C3"/>
<stop offset="1" stop-color="#918F9C"/>
</linearGradient>
<linearGradient id="paint9_linear_4225_161812" x1="102.939" y1="40.0467" x2="102.919" y2="38.2715" gradientUnits="userSpaceOnUse">
<stop stop-color="#E9E5F9"/>
<stop offset="1" stop-color="#C4C1D2"/>
</linearGradient>
<linearGradient id="paint10_linear_4225_161812" x1="106.031" y1="32.2838" x2="105.981" y2="27.2541" gradientUnits="userSpaceOnUse">
<stop stop-color="#E9E5F9"/>
<stop offset="1" stop-color="#C4C1D2"/>
</linearGradient>
<radialGradient id="paint11_radial_4225_161812" cx="0" cy="0" r="1" gradientUnits="userSpaceOnUse" gradientTransform="translate(103.18 29.2698) scale(1.59102 1.58963)">
<stop stop-color="#E9E5F9"/>
<stop offset="1" stop-color="#C4C1D2"/>
</radialGradient>
<radialGradient id="paint12_radial_4225_161812" cx="0" cy="0" r="1" gradientUnits="userSpaceOnUse" gradientTransform="translate(106.809 30.1477) scale(1.33003 1.32888)">
<stop stop-color="#E9E5F9"/>
<stop offset="1" stop-color="#C4C1D2"/>
</radialGradient>
<linearGradient id="paint13_linear_4225_161812" x1="145.069" y1="32.2838" x2="145.119" y2="27.2541" gradientUnits="userSpaceOnUse">
<stop stop-color="#E9E5F9"/>
<stop offset="1" stop-color="#C4C1D2"/>
</linearGradient>
<radialGradient id="paint14_radial_4225_161812" cx="0" cy="0" r="1" gradientUnits="userSpaceOnUse" gradientTransform="translate(147.92 -46.0147) rotate(180) scale(1.59102 1.58963)">
<stop stop-color="#E9E5F9"/>
<stop offset="1" stop-color="#C4C1D2"/>
</radialGradient>
<radialGradient id="paint15_radial_4225_161812" cx="0" cy="0" r="1" gradientUnits="userSpaceOnUse" gradientTransform="translate(144.29 30.1477) rotate(180) scale(1.33003 1.32888)">
<stop stop-color="#E9E5F9"/>
<stop offset="1" stop-color="#C4C1D2"/>
</radialGradient>
<linearGradient id="paint16_linear_4225_161812" x1="132.943" y1="33.2671" x2="113.829" y2="44.2986" gradientUnits="userSpaceOnUse">
<stop stop-color="#E9E5F9"/>
<stop offset="1" stop-color="#C4C1D2"/>
</linearGradient>
<linearGradient id="paint17_linear_4225_161812" x1="125.55" y1="31.7626" x2="125.55" y2="32.8708" gradientUnits="userSpaceOnUse">
<stop stop-color="#E9E5F9"/>
<stop offset="1" stop-color="#C4C1D2"/>
</linearGradient>
<linearGradient id="paint18_linear_4225_161812" x1="132.893" y1="19.8025" x2="132.953" y2="13.5393" gradientUnits="userSpaceOnUse">
<stop stop-color="#B5B3C3"/>
<stop offset="1" stop-color="#918F9C"/>
</linearGradient>
<linearGradient id="paint19_linear_4225_161812" x1="147.438" y1="18.1278" x2="147.518" y2="21.2619" gradientUnits="userSpaceOnUse">
<stop stop-color="white"/>
<stop offset="1" stop-color="#CDCADC"/>
</linearGradient>
<linearGradient id="paint20_linear_4225_161812" x1="149.25" y1="18.4685" x2="149.25" y2="20.5796" gradientUnits="userSpaceOnUse">
<stop stop-color="#82818C"/>
<stop offset="1"/>
</linearGradient>
<linearGradient id="paint21_linear_4225_161812" x1="101.88" y1="-46.2654" x2="101.88" y2="-46.2654" gradientUnits="userSpaceOnUse">
<stop stop-color="#82818C"/>
<stop offset="1"/>
</linearGradient>
<linearGradient id="paint22_linear_4225_161812" x1="25.9125" y1="-46.265" x2="25.9125" y2="-46.265" gradientUnits="userSpaceOnUse">
<stop stop-color="#B5B3C3"/>
<stop offset="1" stop-color="#918F9C"/>
</linearGradient>
<linearGradient id="paint23_linear_4225_161812" x1="4.38165" y1="46.736" x2="4.38165" y2="41.1597" gradientUnits="userSpaceOnUse">
<stop stop-color="#B5B3C3"/>
<stop offset="1" stop-color="#918F9C"/>
</linearGradient>
<linearGradient id="paint24_linear_4225_161812" x1="48.4836" y1="46.7361" x2="48.4836" y2="41.1599" gradientUnits="userSpaceOnUse">
<stop stop-color="#B5B3C3"/>
<stop offset="1" stop-color="#918F9C"/>
</linearGradient>
<linearGradient id="paint25_linear_4225_161812" x1="4.54683" y1="18.1278" x2="4.46666" y2="21.2619" gradientUnits="userSpaceOnUse">
<stop stop-color="white"/>
<stop offset="1" stop-color="#CDCADC"/>
</linearGradient>
<linearGradient id="paint26_linear_4225_161812" x1="26.435" y1="-46.2649" x2="26.435" y2="-46.2649" gradientUnits="userSpaceOnUse">
<stop stop-color="#F0F0F0"/>
<stop offset="0.52" stop-color="#CDCADC"/>
<stop offset="1" stop-color="#EDEDED"/>
</linearGradient>
<linearGradient id="paint27_linear_4225_161812" x1="0.29612" y1="-46.2653" x2="51.7608" y2="-46.2653" gradientUnits="userSpaceOnUse">
<stop stop-color="#CDCADC"/>
<stop offset="0.05" stop-color="#D3D1E0"/>
<stop offset="0.2" stop-color="#E6E5EB"/>
<stop offset="0.36" stop-color="#F1F1F2"/>
<stop offset="0.52" stop-color="#F5F5F5"/>
<stop offset="0.66" stop-color="#F1F0F2"/>
<stop offset="0.81" stop-color="#E5E4EB"/>
<stop offset="0.97" stop-color="#D2CFDF"/>
<stop offset="1" stop-color="#CDCADC"/>
</linearGradient>
<linearGradient id="paint28_linear_4225_161812" x1="38.35" y1="10.8568" x2="13.5778" y2="25.9198" gradientUnits="userSpaceOnUse">
<stop stop-color="#B5B3C3"/>
<stop offset="1" stop-color="#918F9C"/>
</linearGradient>
<linearGradient id="paint29_linear_4225_161812" x1="26.5051" y1="40.1366" x2="26.4149" y2="31.4162" gradientUnits="userSpaceOnUse">
<stop stop-color="#B5B3C3"/>
<stop offset="1" stop-color="#918F9C"/>
</linearGradient>
<linearGradient id="paint30_linear_4225_161812" x1="3.82928" y1="40.5934" x2="3.80422" y2="37.8605" gradientUnits="userSpaceOnUse">
<stop stop-color="#B5B3C3"/>
<stop offset="1" stop-color="#918F9C"/>
</linearGradient>
<linearGradient id="paint31_linear_4225_161812" x1="3.82414" y1="-46.2648" x2="3.80908" y2="-46.2648" gradientUnits="userSpaceOnUse">
<stop stop-color="#E9E5F9"/>
<stop offset="1" stop-color="#C4C1D2"/>
</linearGradient>
<linearGradient id="paint32_linear_4225_161812" x1="6.91583" y1="32.2838" x2="6.86573" y2="27.2541" gradientUnits="userSpaceOnUse">
<stop stop-color="#E9E5F9"/>
<stop offset="1" stop-color="#C4C1D2"/>
</linearGradient>
<radialGradient id="paint33_radial_4225_161812" cx="0" cy="0" r="1" gradientUnits="userSpaceOnUse" gradientTransform="translate(4.06563 -46.0147) scale(0.250949 0.250731)">
<stop stop-color="#E9E5F9"/>
<stop offset="1" stop-color="#C4C1D2"/>
</radialGradient>
<radialGradient id="paint34_radial_4225_161812" cx="0" cy="0" r="1" gradientUnits="userSpaceOnUse" gradientTransform="translate(7.69429 30.1477) scale(1.33003 1.32888)">
<stop stop-color="#E9E5F9"/>
<stop offset="1" stop-color="#C4C1D2"/>
</radialGradient>
<linearGradient id="paint35_linear_4225_161812" x1="45.9533" y1="32.2838" x2="46.0034" y2="27.2541" gradientUnits="userSpaceOnUse">
<stop stop-color="#E9E5F9"/>
<stop offset="1" stop-color="#C4C1D2"/>
</linearGradient>
<radialGradient id="paint36_radial_4225_161812" cx="0" cy="0" r="1" gradientUnits="userSpaceOnUse" gradientTransform="translate(48.8044 -46.0147) rotate(180) scale(1.59102 1.58963)">
<stop stop-color="#E9E5F9"/>
<stop offset="1" stop-color="#C4C1D2"/>
</radialGradient>
<radialGradient id="paint37_radial_4225_161812" cx="0" cy="0" r="1" gradientUnits="userSpaceOnUse" gradientTransform="translate(45.1752 30.1477) rotate(180) scale(1.33003 1.32888)">
<stop stop-color="#E9E5F9"/>
<stop offset="1" stop-color="#C4C1D2"/>
</radialGradient>
<linearGradient id="paint38_linear_4225_161812" x1="33.8275" y1="33.2671" x2="14.7135" y2="44.2987" gradientUnits="userSpaceOnUse">
<stop stop-color="#E9E5F9"/>
<stop offset="1" stop-color="#C4C1D2"/>
</linearGradient>
<linearGradient id="paint39_linear_4225_161812" x1="26.4347" y1="31.7626" x2="26.4347" y2="32.8708" gradientUnits="userSpaceOnUse">
<stop stop-color="#E9E5F9"/>
<stop offset="1" stop-color="#C4C1D2"/>
</linearGradient>
<linearGradient id="paint40_linear_4225_161812" x1="33.7775" y1="19.8025" x2="33.8376" y2="13.5393" gradientUnits="userSpaceOnUse">
<stop stop-color="#B5B3C3"/>
<stop offset="1" stop-color="#918F9C"/>
</linearGradient>
<linearGradient id="paint41_linear_4225_161812" x1="48.3226" y1="18.1278" x2="48.4077" y2="21.2619" gradientUnits="userSpaceOnUse">
<stop stop-color="white"/>
<stop offset="1" stop-color="#CDCADC"/>
</linearGradient>
<linearGradient id="paint42_linear_4225_161812" x1="50.1343" y1="-46.2654" x2="50.1343" y2="-46.2654" gradientUnits="userSpaceOnUse">
<stop stop-color="#82818C"/>
<stop offset="1"/>
</linearGradient>
<linearGradient id="paint43_linear_4225_161812" x1="2.76517" y1="-46.2654" x2="2.76517" y2="-46.2654" gradientUnits="userSpaceOnUse">
<stop stop-color="#82818C"/>
<stop offset="1"/>
</linearGradient>
<linearGradient id="paint44_linear_4225_161812" x1="111.314" y1="11.6289" x2="111.314" y2="17.0046" gradientUnits="userSpaceOnUse">
<stop stop-color="#FF8147"/>
<stop offset="0.5" stop-color="#FF601E"/>
<stop offset="1" stop-color="#FF5100"/>
</linearGradient>
<linearGradient id="paint45_linear_4225_161812" x1="114.147" y1="12.1353" x2="114.147" y2="15.5252" gradientUnits="userSpaceOnUse">
<stop stop-color="#2C3E63"/>
<stop offset="1"/>
</linearGradient>
<linearGradient id="paint46_linear_4225_161812" x1="75.2195" y1="52.187" x2="75.2195" y2="48.2205" gradientUnits="userSpaceOnUse">
<stop stop-color="#2C3E63"/>
<stop offset="1" stop-color="#13192E"/>
</linearGradient>
<linearGradient id="paint47_linear_4225_161812" x1="40.6236" y1="57.5628" x2="40.6236" y2="48.6017" gradientUnits="userSpaceOnUse">
<stop stop-color="#2C3E63"/>
<stop offset="1" stop-color="#13192E"/>
</linearGradient>
<linearGradient id="paint48_linear_4225_161812" x1="111.501" y1="57.5629" x2="111.501" y2="48.6017" gradientUnits="userSpaceOnUse">
<stop stop-color="#2C3E63"/>
<stop offset="1" stop-color="#13192E"/>
</linearGradient>
<linearGradient id="paint49_linear_4225_161812" x1="40.8068" y1="11.6289" x2="40.8068" y2="17.0046" gradientUnits="userSpaceOnUse">
<stop stop-color="#FF8147"/>
<stop offset="0.5" stop-color="#FF601E"/>
<stop offset="1" stop-color="#FF5100"/>
</linearGradient>
<linearGradient id="paint50_linear_4225_161812" x1="76.0678" y1="0" x2="76.0678" y2="50.4972" gradientUnits="userSpaceOnUse">
<stop stop-color="#FF8147"/>
<stop offset="0.5" stop-color="#FF601E"/>
<stop offset="1" stop-color="#FF5100"/>
</linearGradient>
<linearGradient id="paint51_linear_4225_161812" x1="76.0678" y1="23.4985" x2="76.0678" y2="50.4973" gradientUnits="userSpaceOnUse">
<stop stop-color="#FF8147"/>
<stop offset="0.5" stop-color="#FF601E"/>
<stop offset="1" stop-color="#FF5100"/>
</linearGradient>
<linearGradient id="paint52_linear_4225_161812" x1="95.2105" y1="-0.100227" x2="55.3985" y2="24.111" gradientUnits="userSpaceOnUse">
<stop stop-color="#2C3E63"/>
<stop offset="1" stop-color="#13192E"/>
</linearGradient>
<linearGradient id="paint53_linear_4225_161812" x1="76.1734" y1="46.9567" x2="76.0331" y2="32.9409" gradientUnits="userSpaceOnUse">
<stop stop-color="#2C3E63"/>
<stop offset="1" stop-color="#13192E"/>
</linearGradient>
<linearGradient id="paint54_linear_4225_161812" x1="39.7351" y1="47.689" x2="39.6901" y2="43.3012" gradientUnits="userSpaceOnUse">
<stop stop-color="#2C3E63"/>
<stop offset="1" stop-color="#13192E"/>
</linearGradient>
<linearGradient id="paint55_linear_4225_161812" x1="39.7249" y1="46.8165" x2="39.6948" y2="43.9632" gradientUnits="userSpaceOnUse">
<stop stop-color="#EBEFF7"/>
<stop offset="1" stop-color="#B3B6C2"/>
</linearGradient>
<linearGradient id="paint56_linear_4225_161812" x1="44.6939" y1="34.3352" x2="44.6137" y2="26.2517" gradientUnits="userSpaceOnUse">
<stop stop-color="#EBEFF7"/>
<stop offset="1" stop-color="#B3B6C2"/>
</linearGradient>
<radialGradient id="paint57_radial_4225_161812" cx="0" cy="0" r="1" gradientUnits="userSpaceOnUse" gradientTransform="translate(40.1114 29.4964) scale(2.55968 2.55746)">
<stop stop-color="#EBEFF7"/>
<stop offset="1" stop-color="#B3B6C2"/>
</radialGradient>
<radialGradient id="paint58_radial_4225_161812" cx="0" cy="0" r="1" gradientUnits="userSpaceOnUse" gradientTransform="translate(45.9442 30.9004) scale(2.13809 2.13623)">
<stop stop-color="#EBEFF7"/>
<stop offset="1" stop-color="#B3B6C2"/>
</radialGradient>
<linearGradient id="paint59_linear_4225_161812" x1="107.426" y1="34.3352" x2="107.511" y2="26.2517" gradientUnits="userSpaceOnUse">
<stop stop-color="#EBEFF7"/>
<stop offset="1" stop-color="#B3B6C2"/>
</linearGradient>
<radialGradient id="paint60_radial_4225_161812" cx="0" cy="0" r="1" gradientUnits="userSpaceOnUse" gradientTransform="translate(112.009 -46.0137) rotate(180) scale(2.55968 2.55746)">
<stop stop-color="#EBEFF7"/>
<stop offset="1" stop-color="#B3B6C2"/>
</radialGradient>
<radialGradient id="paint61_radial_4225_161812" cx="0" cy="0" r="1" gradientUnits="userSpaceOnUse" gradientTransform="translate(106.182 30.9004) rotate(180) scale(2.13809 2.13623)">
<stop stop-color="#EBEFF7"/>
<stop offset="1" stop-color="#B3B6C2"/>
</radialGradient>
<linearGradient id="paint62_linear_4225_161812" x1="87.9427" y1="35.9148" x2="57.2248" y2="53.6445" gradientUnits="userSpaceOnUse">
<stop stop-color="#EBEFF7"/>
<stop offset="1" stop-color="#B3B6C2"/>
</linearGradient>
<linearGradient id="paint63_linear_4225_161812" x1="87.8621" y1="14.277" x2="87.9624" y2="4.21261" gradientUnits="userSpaceOnUse">
<stop stop-color="#2C3E63"/>
<stop offset="1" stop-color="#13192E"/>
</linearGradient>
<linearGradient id="paint64_linear_4225_161812" x1="76.0827" y1="30.3938" x2="76.193" y2="19.146" gradientUnits="userSpaceOnUse">
<stop stop-color="#2C3E63"/>
<stop offset="1"/>
</linearGradient>
<linearGradient id="paint65_linear_4225_161812" x1="38.0239" y1="-46.265" x2="38.0239" y2="-46.265" gradientUnits="userSpaceOnUse">
<stop stop-color="#2C3E63"/>
<stop offset="1"/>
</linearGradient>
<linearGradient id="paint66_linear_4225_161812" x1="76.0632" y1="33.3074" x2="76.0632" y2="35.7896" gradientUnits="userSpaceOnUse">
<stop stop-color="#EBEFF7"/>
<stop offset="1" stop-color="#B3B6C2"/>
</linearGradient>
<linearGradient id="paint67_linear_4225_161812" x1="73.3358" y1="7.7601" x2="112.298" y2="70.6823" gradientUnits="userSpaceOnUse">
<stop stop-color="#FCB395"/>
<stop offset="0.52" stop-color="#FDC3A2"/>
<stop offset="1" stop-color="#FCA98D"/>
</linearGradient>
<linearGradient id="paint68_linear_4225_161812" x1="73.7621" y1="16.071" x2="68.9695" y2="8.63112" gradientUnits="userSpaceOnUse">
<stop stop-color="#F2DDCE"/>
<stop offset="1" stop-color="white"/>
</linearGradient>
<linearGradient id="paint69_linear_4225_161812" x1="73.373" y1="15.4918" x2="69.0828" y2="8.82499" gradientUnits="userSpaceOnUse">
<stop/>
<stop offset="1" stop-color="#BD9A86"/>
</linearGradient>
<linearGradient id="paint70_linear_4225_161812" x1="74.8823" y1="42.1856" x2="68.8297" y2="37.6734" gradientUnits="userSpaceOnUse">
<stop stop-color="#F2DDCE"/>
<stop offset="1" stop-color="white"/>
</linearGradient>
<linearGradient id="paint71_linear_4225_161812" x1="74.5606" y1="41.6228" x2="69.1415" y2="37.581" gradientUnits="userSpaceOnUse">
<stop/>
<stop offset="1" stop-color="#BD9A86"/>
</linearGradient>
<linearGradient id="paint72_linear_4225_161812" x1="120.828" y1="61.6134" x2="107.212" y2="81.0796" gradientUnits="userSpaceOnUse">
<stop stop-color="#EBEFF7"/>
<stop offset="1" stop-color="#B3B6C2"/>
</linearGradient>
<linearGradient id="paint73_linear_4225_161812" x1="105.661" y1="81.9906" x2="136.34" y2="70.9962" gradientUnits="userSpaceOnUse">
<stop stop-color="#2C3E63"/>
<stop offset="1" stop-color="#13192E"/>
</linearGradient>
</defs>
</svg>
